/* XPM */
static char * as_komodo_small_xpm[] = {
"72 50 73 1",
" 	c None",
".	c #DBD1A1",
"+	c #666666",
"@	c #BEB593",
"#	c #A09B83",
"$	c #D3CA9E",
"%	c #CBC29A",
"&	c #AEA88B",
"*	c #C5BC96",
"=	c #D9D9D9",
"-	c #B6AF8E",
";	c #807F7A",
">	c #B3B3B3",
",	c #8F8C80",
"'	c #8C8C8C",
")	c #989482",
"!	c #E2E2E2",
"~	c #6E6E6E",
"{	c #88867D",
"]	c #727171",
"^	c #A7A287",
"/	c #797976",
"(	c #F5F5F5",
"_	c #ECECEC",
":	c #C6C6C6",
"<	c #707070",
"[	c #969695",
"}	c #797979",
"|	c #BCBCBC",
"1	c #9FA09F",
"2	c #D0CFD0",
"3	c #AAA79B",
"4	c #B8B295",
"5	c #A9A9A9",
"6	c #99978E",
"7	c #9A9A94",
"8	c #C7C1AA",
"9	c #8C8A81",
"0	c #84837E",
"a	c #949390",
"b	c #CDCCC9",
"c	c #959488",
"d	c #949085",
"e	c #918F8B",
"f	c #868582",
"g	c #9E9A8C",
"h	c #838383",
"i	c #AFAC98",
"j	c #A39E8A",
"k	c #978B88",
"l	c #CFCDC1",
"m	c #B3AF97",
"n	c #A4A39E",
"o	c #DBBE96",
"p	c #ADAA98",
"q	c #BDBBAE",
"r	c #B2AC91",
"s	c #AAA48D",
"t	c #D39A7F",
"u	c #CAC9C3",
"v	c #DAD4BC",
"w	c #7D7C7A",
"x	c #9D9D99",
"y	c #B3B1A5",
"z	c #897E7C",
"A	c #B2AB91",
"B	c #A5A18F",
"C	c #C5C4B8",
"D	c #C2BC9E",
"E	c #A2A097",
"F	c #A29E89",
"G	c #B9B5A3",
"H	c #807F7E",
"                                                                        ",
"                                                                        ",
"                                                                        ",
"                                                                        ",
"                                      ==_                               ",
"                                 !<+;###)0:                             ",
"                              (:e,&)];r...@2                            ",
"                            _19-..p++<C....d!                           ",
"                          =[,@@-%{H;;j-....$n                           ",
"                          }-%{@...........).)                           ",
"                          [#@@@%%@$....^*.)*^=                          ",
"                          =+%..*%*@@@@&#-.%#@>                          ",
"                          =+0-###&%........^@[                          ",
"                          =+::}++++,$.......$'                          ",
"                          _+1 ([+~)-/#-@.....+                          ",
"                           }+( (<).../^#)....+(                         ",
"                           [+=  }-./%*~.{#...+=                         ",
"                           [}_ 2+@.)#%+.&{...+=                         ",
"                           =1 !<~../#;,.,#...{>                         ",
"                             =<+,.#+^~$./@...->   =|5''''1|!            ",
"                           (>+++*.]];&.......@[ =h''38m@*%-,a_          ",
"                          =}+{-;.&+#;........$]>2(     _:7-.$<=         ",
"                         :+]@..%.{,,-.........*]#,x|_    (9..^<_        ",
"                        =+)$...../$/...........^&.$)~<'''w&..-+>        ",
"                        [#.......$*,............;*-)*.......&~+|        ",
"                      !}+$........&&............&/*&+]{###,]++1         ",
"                     (}++.........#@............#-^)~+++++++}:          ",
"                     >++~.........{.............%)*..$/+++[:            ",
"                     >+;*.........;..............%,...@~>               ",
"                     1{..%........;...............~....$)'_             ",
"                    (<^..^........&...............+&.....%d:            ",
"                   |<&...{........*..............&++{,....%<            ",
"                 ([~&....)&...............%....$.)+++&.....f            ",
"                !}~*....$~]-%.............{^..^*..-]+......B            ",
"               !+;$.....)++];.#..........@+&.%;.....@;,$...#!           ",
"               h^......-+++++-#-........./~$.;{%.....${...*,:           ",
"              :;......@~+++++;,;........#+,.^++%......{....%/'          ",
"              1@...$#~++++++++~+{......&++@%~+].......#....$$]          ",
"              9...*]+++++++++++++.....{+++@/++).......@'$6*c4'_         ",
"             !&..$~+++++++++'<+++,*.$,++++++++;&#%....@>vlu8!|          ",
"             |$....&++++++++= !|'++++++'>>>>>[/,......@'!2 >            ",
"             3..*.@]+}'1>['+>    |>>>|       =+).....-,<5(              ",
"             ]^@....#c!    12                :+-.......%/'              ",
"            7@*.....to8    _                 >;.$...*.$%%+              ",
"           _s4e*g33$zk@!                     _6.i'A@E%FG@a              ",
"            3:(@=  D: g=                      y4  b%=q4(6!              ",
"            5_ 7=  f_ 2!                      b3   0=(/ !!              ",
"                   !                           !   2  2                 ",
"                                                                        ",
"                                                                        "};
