/* XPM */
static char * komodo_50_xpm[] = {
"32 32 10 1",
" 	c None",
".	c #F91A1A",
"+	c #FFFF00",
"@	c #923030",
"#	c #8A1A1A",
"$	c #1A1A1A",
"%	c #800000",
"&	c #000000",
"*	c #FF0000",
"=	c #CCCCCC",
"                                ",
"                                ",
"                                ",
"                $$$$$$$$        ",
"            $$$$$&%%%%&$$$      ",
"         $$$#%&&&&&%**%%*$$     ",
"      $$$#%%*&&&&+&*%%%***$$    ",
"   $$$.****&&+&&&+&%*%*%***$$   ",
"  $.*****&&&++&&&&%%*%*%****$$  ",
"$$.&&&***&&&&&&*****%&&&****&$  ",
"&%**************%*%*%%&&****&$$ ",
"&&&&&&&%*&*%*%*%*%*%*%&&*****&$ ",
"&&&&&&&&&&&%&&&&&&&%%&&&*****&$ ",
"#$$*%*%%%&&&&&&&&&&&&&&%*****%$ ",
"# $%*%*%*%*%*%******%&&%****%*$$",
"## $$#%*%*%*%*%******%%******%*$",
"%%#  $$$&&&&&%%%%*%*********%*%$",
"####   $$%&&&&&&*%*%*********%*$",
" ###    $$#&%&%&&*%*%%******%*%$",
"  #@#     $$&%&%&&&%*%%****%*%$$",
"   ##      $&&%&%&&&%%*%****%*$ ",
"  #@#      $&%&%&%&&&*%*%**%*%$ ",
"##@#       $&&%&%&%&&&*%****%*$ ",
"###        $&%&%&%&&&&%%*%*%*%$ ",
"#         $$%&%&%&%&&&%*%***%$$ ",
"         $$&%%&%&%&&&%*%*%*%*$  ",
"        $$&%%&&&%&&&%&%*%*%*%$  ",
"       $$&%%%&%&&&&%&%%%*%*%$$  ",
"      $$&%%%&%&%&&&&%&%%%*%*$   ",
"    $$$$$#$$#$#$#$$#$#$#.#.#$   ",
"                                ",
"                                "};
