/* XPM */
static char * komodo_icon_16_xpm[] = {
"16 16 6 1",
" 	c None",
".	c #848400",
"+	c #840000",
"@	c #FFFFFF",
"#	c #FF0000",
"$	c #000000",
"                ",
"      .$$$++$   ",
"    $$+#$@+#+$$ ",
" +++##@@$$@####$",
" $#########+$##$",
"+$$$$$++++++$##$",
"+$$#+++++++$$##$",
"+ $$###########$",
" +  $$$$$##+###$",
" +     $+$##+##$",
"+     $+++$####+",
"      $+++$#+#$ ",
"     $++++$###$ ",
"    $+++++##+#$ ",
"   $$$$$$$$$$$$ ",
"                "};
