/* XPM */
static char *spawn_e[] = {
/* columns rows colors chars-per-pixel */
"16 12 2 1",
"  c #FF0000",
"O c None",
/* pixels */
"OOOOOOOOOOOOOOOO",
"OO  OOOOOOOOOOOO",
"OOO  OOOOOOOOOOO",
"OOOO  OOOOOOOOOO",
"OOOOO  OOOOOOOOO",
"OOOOOO  OOOOOOOO",
"OOOOOO  OOOOOOOO",
"OOOOO  OOOOOOOOO",
"OOOO  OOOOOOOOOO",
"OOO  OOOOOOOOOOO",
"OO  OOOO      OO",
"OOOOOOOOOOOOOOOO"
};
