/* XPM */
static char * prompt_xpm[] = {
"16 12 2 1",
" 	c None",
".	c #3583FC",
"                ",
"     ..         ",
"      ..        ",
"       ..       ",
"        ..      ",
"         ..     ",
"         ..     ",
"        ..      ",
"       ..       ",
"      ..        ",
"     ..         ",
"                "};
