<?xml version="1.0" encoding="UTF-8" standalone="no"?>
<!-- Generated by IcoMoon.io -->

<svg
   xmlns:dc="http://purl.org/dc/elements/1.1/"
   xmlns:cc="http://creativecommons.org/ns#"
   xmlns:rdf="http://www.w3.org/1999/02/22-rdf-syntax-ns#"
   xmlns:svg="http://www.w3.org/2000/svg"
   xmlns="http://www.w3.org/2000/svg"
   xmlns:sodipodi="http://sodipodi.sourceforge.net/DTD/sodipodi-0.dtd"
   xmlns:inkscape="http://www.inkscape.org/namespaces/inkscape"
   version="1.1"
   width="12"
   height="14"
   viewBox="0 0 12 14"
   id="svg2"
   inkscape:version="0.91 r13725"
   sodipodi:docname="browser.svg">
  <metadata
     id="metadata10">
    <rdf:RDF>
      <cc:Work
         rdf:about="">
        <dc:format>image/svg+xml</dc:format>
        <dc:type
           rdf:resource="http://purl.org/dc/dcmitype/StillImage" />
      </cc:Work>
    </rdf:RDF>
  </metadata>
  <defs
     id="defs8" />
  <sodipodi:namedview
     pagecolor="#ffffff"
     bordercolor="#666666"
     borderopacity="1"
     objecttolerance="10"
     gridtolerance="10"
     guidetolerance="10"
     inkscape:pageopacity="0"
     inkscape:pageshadow="2"
     inkscape:window-width="770"
     inkscape:window-height="480"
     id="namedview6"
     showgrid="false"
     inkscape:zoom="16.857143"
     inkscape:cx="6"
     inkscape:cy="7"
     inkscape:window-x="618"
     inkscape:window-y="218"
     inkscape:window-maximized="0"
     inkscape:current-layer="svg2" />
  <path
     fill="#444444"
     d="M6 1q1.633 0 3.012 0.805t2.184 2.184 0.805 3.012-0.805 3.012-2.184 2.184-3.012 0.805-3.012-0.805-2.184-2.184-0.805-3.012 0.805-3.012 2.184-2.184 3.012-0.805zM8.141 5.070q-0.016 0.008-0.074 0.074t-0.105 0.074q0.016 0 0.035-0.039t0.039-0.086 0.027-0.055q0.047-0.055 0.172-0.117 0.109-0.047 0.406-0.094 0.266-0.062 0.398 0.086-0.016-0.016 0.074-0.102t0.113-0.094q0.023-0.016 0.117-0.035t0.117-0.059l0.016-0.172q-0.094 0.008-0.137-0.055t-0.051-0.164q0 0.016-0.047 0.062 0-0.055-0.035-0.062t-0.090 0.008-0.070 0.008q-0.078-0.023-0.117-0.059t-0.062-0.129-0.031-0.117q-0.016-0.039-0.074-0.082t-0.074-0.082q-0.008-0.016-0.020-0.043t-0.023-0.051-0.031-0.043-0.043-0.020-0.055 0.039-0.059 0.078-0.035 0.039q-0.023-0.016-0.047-0.012t-0.035 0.008-0.035 0.023-0.039 0.027q-0.023 0.016-0.066 0.023t-0.066 0.016q0.117-0.039-0.008-0.086-0.078-0.031-0.125-0.023 0.070-0.031 0.059-0.094t-0.066-0.109h0.039q-0.008-0.031-0.066-0.066t-0.137-0.066-0.102-0.047q-0.062-0.039-0.266-0.074t-0.258-0.004q-0.039 0.047-0.035 0.082t0.031 0.109 0.027 0.098q0.008 0.047-0.043 0.102t-0.051 0.094q0 0.055 0.109 0.121t0.078 0.168q-0.023 0.062-0.125 0.125t-0.125 0.094q-0.039 0.062-0.012 0.145t0.082 0.129q0.016 0.016 0.012 0.031t-0.027 0.035-0.043 0.031-0.051 0.027l-0.023 0.016q-0.086 0.039-0.16-0.047t-0.105-0.203q-0.055-0.195-0.125-0.234-0.18-0.062-0.227 0.008-0.039-0.102-0.32-0.203-0.195-0.070-0.453-0.031 0.047-0.008 0-0.117-0.055-0.117-0.148-0.094 0.023-0.047 0.031-0.137t0.008-0.105q0.023-0.102 0.094-0.18 0.008-0.008 0.055-0.066t0.074-0.105 0.004-0.047q0.273 0.031 0.391-0.086 0.039-0.039 0.090-0.133t0.082-0.133q0.070-0.047 0.109-0.043t0.113 0.043 0.113 0.039q0.109 0.008 0.121-0.086t-0.059-0.156q0.094 0.008 0.023-0.133-0.039-0.055-0.062-0.070-0.094-0.031-0.211 0.039-0.062 0.031 0.016 0.062-0.008-0.008-0.074 0.082t-0.129 0.137-0.125-0.039q-0.008-0.008-0.043-0.105t-0.074-0.105q-0.062 0-0.125 0.117 0.023-0.062-0.086-0.117t-0.187-0.062q0.148-0.094-0.062-0.211-0.055-0.031-0.16-0.039t-0.152 0.031q-0.039 0.055-0.043 0.090t0.039 0.062 0.082 0.043 0.090 0.031 0.066 0.023q0.109 0.078 0.062 0.109-0.016 0.008-0.066 0.027t-0.090 0.035-0.047 0.031q-0.023 0.031 0 0.109t-0.016 0.109q-0.039-0.039-0.070-0.137t-0.055-0.129q0.055 0.070-0.195 0.047l-0.078-0.008q-0.031 0-0.125 0.016t-0.16 0.008-0.105-0.062q-0.031-0.062 0-0.156 0.008-0.031 0.031-0.016-0.031-0.023-0.086-0.074t-0.078-0.066q-0.359 0.117-0.734 0.32 0.047 0.008 0.094-0.008 0.039-0.016 0.102-0.051t0.078-0.043q0.266-0.109 0.328-0.055l0.039-0.039q0.109 0.125 0.156 0.195-0.055-0.031-0.234-0.008-0.156 0.047-0.172 0.094 0.055 0.094 0.039 0.141-0.031-0.023-0.090-0.078t-0.113-0.086-0.117-0.039q-0.125 0-0.172 0.008-1.141 0.625-1.836 1.734 0.055 0.055 0.094 0.062 0.031 0.008 0.039 0.070t0.020 0.086 0.090-0.023q0.070 0.062 0.023 0.148 0.008-0.008 0.344 0.211 0.148 0.133 0.164 0.164 0.023 0.086-0.078 0.141-0.008-0.016-0.070-0.070t-0.070-0.031q-0.023 0.039 0.004 0.145t0.082 0.098q-0.055 0-0.074 0.125t-0.020 0.277-0.008 0.184l0.016 0.008q-0.023 0.094 0.043 0.27t0.168 0.152q-0.102 0.023 0.156 0.336 0.047 0.062 0.062 0.070 0.023 0.016 0.094 0.059t0.117 0.078 0.078 0.082q0.031 0.039 0.078 0.176t0.109 0.184q-0.016 0.047 0.074 0.156t0.082 0.18q-0.008 0-0.020 0.008t-0.020 0.008q0.023 0.055 0.121 0.109t0.121 0.102q0.008 0.023 0.016 0.078t0.023 0.086 0.062 0.016q0.016-0.156-0.187-0.484-0.117-0.195-0.133-0.227-0.023-0.039-0.043-0.121t-0.035-0.113q0.016 0 0.047 0.012t0.066 0.027 0.059 0.031 0.016 0.023q-0.023 0.055 0.016 0.137t0.094 0.145 0.133 0.148 0.094 0.102q0.047 0.047 0.109 0.152t0 0.105q0.070 0 0.156 0.078t0.133 0.156q0.039 0.062 0.062 0.203t0.039 0.187q0.016 0.055 0.066 0.105t0.098 0.074l0.125 0.062t0.102 0.055q0.039 0.016 0.145 0.082t0.168 0.090q0.078 0.031 0.125 0.031t0.113-0.020 0.105-0.027q0.117-0.016 0.227 0.117t0.164 0.164q0.281 0.148 0.43 0.086-0.016 0.008 0.004 0.059t0.062 0.121 0.070 0.113 0.043 0.066q0.039 0.047 0.141 0.117t0.141 0.117q0.047-0.031 0.055-0.070-0.023 0.062 0.055 0.156t0.141 0.078q0.109-0.023 0.109-0.25-0.242 0.117-0.383-0.141 0-0.008-0.020-0.043t-0.031-0.066-0.020-0.066 0-0.059 0.039-0.023q0.070 0 0.078-0.027t-0.016-0.098-0.031-0.102q-0.008-0.062-0.086-0.156t-0.094-0.117q-0.039 0.070-0.125 0.062t-0.125-0.070q0 0.008-0.012 0.043t-0.012 0.051q-0.102 0-0.117-0.008 0.008-0.023 0.020-0.137t0.027-0.176q0.008-0.031 0.043-0.094t0.059-0.113 0.031-0.098-0.035-0.074-0.137-0.020q-0.148 0.008-0.203 0.156-0.008 0.023-0.023 0.082t-0.039 0.090-0.070 0.055q-0.055 0.023-0.187 0.016t-0.187-0.039q-0.102-0.062-0.176-0.227t-0.074-0.289q0-0.078 0.020-0.207t0.023-0.195-0.043-0.191q0.023-0.016 0.070-0.074t0.078-0.082q0.016-0.008 0.035-0.012t0.035 0 0.031-0.012 0.023-0.047q-0.008-0.008-0.031-0.023-0.023-0.023-0.031-0.023 0.055 0.023 0.223-0.012t0.215 0.012q0.117 0.086 0.172-0.016 0-0.008-0.020-0.074t-0.004-0.105q0.039 0.211 0.227 0.070 0.023 0.023 0.121 0.039t0.137 0.039q0.023 0.016 0.055 0.043t0.043 0.035 0.039-0.004 0.066-0.051q0.078 0.109 0.094 0.187 0.086 0.312 0.148 0.344 0.055 0.023 0.086 0.016t0.035-0.074 0-0.109-0.012-0.098l-0.008-0.062v-0.141l-0.008-0.062q-0.117-0.023-0.145-0.094t0.012-0.145 0.117-0.145q0.008-0.008 0.062-0.027t0.121-0.051 0.098-0.062q0.164-0.148 0.117-0.273 0.055 0 0.086-0.070-0.008 0-0.039-0.023t-0.059-0.039-0.035-0.016q0.070-0.039 0.016-0.125 0.039-0.023 0.059-0.086t0.059-0.078q0.070 0.094 0.164 0.016 0.055-0.062 0.008-0.125 0.039-0.055 0.16-0.082t0.145-0.074q0.055 0.016 0.062-0.016t0.008-0.094 0.023-0.094q0.031-0.039 0.117-0.070t0.102-0.039l0.133-0.086q0.023-0.031 0-0.031 0.141 0.016 0.242-0.086 0.078-0.086-0.047-0.156 0.023-0.047-0.023-0.074t-0.117-0.043q0.023-0.008 0.090-0.004t0.082-0.012q0.117-0.078-0.055-0.125-0.133-0.039-0.336 0.094zM6.867 11.922q1.609-0.281 2.742-1.477-0.023-0.023-0.098-0.035t-0.098-0.027q-0.141-0.055-0.187-0.062 0.008-0.055-0.020-0.102t-0.062-0.070-0.098-0.062-0.086-0.055q-0.016-0.016-0.055-0.047t-0.055-0.043-0.059-0.035-0.066-0.016-0.078 0.008l-0.023 0.008q-0.023 0.008-0.043 0.020t-0.043 0.023-0.031 0.023 0 0.020q-0.164-0.133-0.281-0.172-0.039-0.008-0.086-0.043t-0.082-0.055-0.078-0.012-0.090 0.055q-0.039 0.039-0.047 0.117t-0.016 0.102q-0.055-0.039 0-0.137t0.016-0.145q-0.023-0.047-0.082-0.035t-0.094 0.035-0.090 0.066-0.070 0.051-0.066 0.043-0.066 0.059q-0.023 0.031-0.047 0.094t-0.039 0.086q-0.016-0.031-0.090-0.051t-0.074-0.043q0.016 0.078 0.031 0.273t0.039 0.297q0.055 0.242-0.094 0.375-0.211 0.195-0.227 0.312-0.031 0.172 0.094 0.203 0 0.055-0.062 0.16t-0.055 0.168q0 0.047 0.016 0.125z"
     id="path4"
     style="fill:#1976d2;fill-opacity:1" />
</svg>
