<?xml version="1.0" encoding="UTF-8" standalone="no"?>
<!-- Generated by IcoMoon.io -->

<svg
   xmlns:dc="http://purl.org/dc/elements/1.1/"
   xmlns:cc="http://creativecommons.org/ns#"
   xmlns:rdf="http://www.w3.org/1999/02/22-rdf-syntax-ns#"
   xmlns:svg="http://www.w3.org/2000/svg"
   xmlns="http://www.w3.org/2000/svg"
   xmlns:sodipodi="http://sodipodi.sourceforge.net/DTD/sodipodi-0.dtd"
   xmlns:inkscape="http://www.inkscape.org/namespaces/inkscape"
   version="1.1"
   width="16"
   height="16"
   viewBox="0 0 16 16"
   id="svg2"
   inkscape:version="0.48.5 r10040"
   sodipodi:docname="browser.svg">
  <metadata
     id="metadata14">
    <rdf:RDF>
      <cc:Work
         rdf:about="">
        <dc:format>image/svg+xml</dc:format>
        <dc:type
           rdf:resource="http://purl.org/dc/dcmitype/StillImage" />
      </cc:Work>
    </rdf:RDF>
  </metadata>
  <defs
     id="defs12" />
  <sodipodi:namedview
     pagecolor="#ffffff"
     bordercolor="#666666"
     borderopacity="1"
     objecttolerance="10"
     gridtolerance="10"
     guidetolerance="10"
     inkscape:pageopacity="0"
     inkscape:pageshadow="2"
     inkscape:window-width="738"
     inkscape:window-height="480"
     id="namedview10"
     showgrid="false"
     inkscape:zoom="14.75"
     inkscape:cx="8"
     inkscape:cy="8"
     inkscape:window-x="506"
     inkscape:window-y="255"
     inkscape:window-maximized="0"
     inkscape:current-layer="svg2" />
  <g
     id="g4">
    <line
       stroke-width="1"
       x1=""
       y1=""
       x2=""
       y2=""
       stroke="#449FDB"
       opacity=""
       id="line6" />
  </g>
  <path
     d="M13.657 2.343c1.511 1.511 2.343 3.52 2.343 5.657s-0.832 4.146-2.343 5.657c-1.511 1.511-3.52 2.343-5.657 2.343s-4.146-0.832-5.657-2.343c-1.511-1.511-2.343-3.52-2.343-5.657s0.832-4.146 2.343-5.657c1.511-1.511 3.52-2.343 5.657-2.343s4.146 0.832 5.657 2.343zM12.95 12.95c0.985-0.985 1.64-2.213 1.911-3.548-0.211 0.31-0.412 0.425-0.537-0.269-0.128-1.131-1.167-0.409-1.821-0.81-0.688 0.463-2.233-0.901-1.97 0.638 0.405 0.694 2.188-0.929 1.299 0.54-0.567 1.025-2.073 3.296-1.877 4.473 0.025 1.715-1.752 0.358-2.364-0.211-0.412-1.139-0.14-3.131-1.217-3.689-1.169-0.051-2.172-0.157-2.625-1.464-0.273-0.935 0.29-2.326 1.292-2.541 1.466-0.921 1.99 1.079 3.365 1.116 0.427-0.447 1.591-0.589 1.687-1.090-0.902-0.159 1.145-0.759-0.086-1.1-0.679 0.080-1.117 0.704-0.756 1.234-1.316 0.307-1.358-1.905-2.624-1.207-0.032 1.103-2.066 0.358-0.704 0.134 0.468-0.205-0.763-0.797-0.098-0.689 0.327-0.018 1.427-0.403 1.129-0.663 0.613-0.38 1.127 0.911 1.727-0.029 0.433-0.723-0.182-0.856-0.724-0.49-0.306-0.343 0.54-1.082 1.286-1.402 0.249-0.107 0.486-0.165 0.668-0.148 0.376 0.434 1.071 0.509 1.107-0.052-0.931-0.446-1.957-0.681-3.020-0.681-1.525 0-2.976 0.485-4.177 1.381 0.323 0.148 0.506 0.332 0.195 0.567-0.241 0.72-1.221 1.686-2.082 1.549-0.447 0.77-0.741 1.619-0.867 2.508 0.72 0.238 0.887 0.71 0.732 0.868-0.367 0.32-0.593 0.774-0.709 1.271 0.235 1.435 0.909 2.757 1.957 3.806 1.322 1.322 3.080 2.050 4.95 2.050s3.628-0.728 4.95-2.050z"
     fill="#000000"
     id="path8"
     style="fill:#6161ca;fill-opacity:1" />
</svg>
