<?xml version="1.0" encoding="UTF-8" standalone="no"?>
<!-- Generated by IcoMoon.io -->

<svg
   xmlns:dc="http://purl.org/dc/elements/1.1/"
   xmlns:cc="http://creativecommons.org/ns#"
   xmlns:rdf="http://www.w3.org/1999/02/22-rdf-syntax-ns#"
   xmlns:svg="http://www.w3.org/2000/svg"
   xmlns="http://www.w3.org/2000/svg"
   xmlns:sodipodi="http://sodipodi.sourceforge.net/DTD/sodipodi-0.dtd"
   xmlns:inkscape="http://www.inkscape.org/namespaces/inkscape"
   version="1.1"
   width="14"
   height="14"
   viewBox="0 0 14 14"
   id="svg2"
   inkscape:version="0.92.0 r"
   sodipodi:docname="browser.svg">
  <metadata
     id="metadata10">
    <rdf:RDF>
      <cc:Work
         rdf:about="">
        <dc:format>image/svg+xml</dc:format>
        <dc:type
           rdf:resource="http://purl.org/dc/dcmitype/StillImage" />
      </cc:Work>
    </rdf:RDF>
  </metadata>
  <defs
     id="defs8" />
  <sodipodi:namedview
     pagecolor="#ffffff"
     bordercolor="#666666"
     borderopacity="1"
     objecttolerance="10"
     gridtolerance="10"
     guidetolerance="10"
     inkscape:pageopacity="0"
     inkscape:pageshadow="2"
     inkscape:window-width="1392"
     inkscape:window-height="820"
     id="namedview6"
     showgrid="true"
     inkscape:zoom="16.857143"
     inkscape:cx="-6.9915253"
     inkscape:cy="7.0000001"
     inkscape:window-x="335"
     inkscape:window-y="218"
     inkscape:window-maximized="0"
     inkscape:current-layer="svg2">
    <inkscape:grid
       type="xygrid"
       id="grid4482" />
  </sodipodi:namedview>
  <path
     d="m 7.016322,1.0010907 q 1.633,0 3.012,0.805 1.379,0.805 2.184,2.184 0.805,1.379 0.805,3.012 0,1.633 -0.805,3.0120003 -0.805,1.379 -2.184,2.184 -1.379,0.805 -3.012,0.805 -1.633,0 -3.012,-0.805 -1.379,-0.805 -2.184,-2.184 -0.805,-1.3790003 -0.805,-3.0120003 0,-1.633 0.805,-3.012 0.805,-1.379 2.184,-2.184 1.379,-0.805 3.012,-0.805 z m 2.141,4.07 q -0.016,0.008 -0.074,0.074 -0.058,0.066 -0.105,0.074 0.016,0 0.035,-0.039 0.019,-0.039 0.039,-0.086 0.02,-0.047 0.027,-0.055 0.047,-0.055 0.172,-0.117 0.109,-0.047 0.406,-0.094 0.266,-0.062 0.398,0.086 -0.016,-0.016 0.074,-0.102 0.09,-0.086 0.113,-0.094 0.023,-0.016 0.117,-0.035 0.094,-0.019 0.117,-0.059 l 0.016,-0.172 q -0.094,0.008 -0.137,-0.055 -0.043,-0.063 -0.051,-0.164 0,0.016 -0.047,0.062 0,-0.055 -0.035,-0.062 -0.035,-0.007 -0.09,0.008 -0.055,0.015 -0.07,0.008 -0.078,-0.023 -0.117,-0.059 -0.039,-0.036 -0.062,-0.129 -0.023,-0.093 -0.031,-0.117 -0.016,-0.039 -0.074,-0.082 -0.058,-0.043 -0.074,-0.082 -0.008,-0.016 -0.02,-0.043 -0.012,-0.027 -0.023,-0.051 -0.011,-0.024 -0.031,-0.043 -0.02,-0.019 -0.043,-0.02 -0.023,-10e-4 -0.055,0.039 -0.032,0.04 -0.059,0.078 -0.027,0.038 -0.035,0.039 -0.023,-0.016 -0.047,-0.012 -0.024,0.004 -0.035,0.008 -0.011,0.004 -0.035,0.023 -0.024,0.019 -0.039,0.027 -0.023,0.016 -0.066,0.023 -0.043,0.007 -0.066,0.016 0.117,-0.039 -0.008,-0.086 -0.078,-0.031 -0.125,-0.023 0.07,-0.031 0.059,-0.094 -0.011,-0.063 -0.066,-0.109 h 0.039 q -0.008,-0.031 -0.066,-0.066 -0.058,-0.035 -0.137,-0.066 -0.079,-0.031 -0.102,-0.047 -0.062,-0.039 -0.266,-0.074 -0.204,-0.035 -0.258,-0.004 -0.039,0.047 -0.035,0.082 0.004,0.035 0.031,0.109 0.027,0.074 0.027,0.098 0.008,0.047 -0.043,0.102 -0.051,0.055 -0.051,0.094 0,0.055 0.109,0.121 0.109,0.066 0.078,0.168 -0.023,0.062 -0.125,0.125 -0.102,0.063 -0.125,0.094 -0.039,0.062 -0.012,0.145 0.027,0.083 0.082,0.129 0.016,0.016 0.012,0.031 -0.004,0.015 -0.027,0.035 -0.023,0.02 -0.043,0.031 -0.02,0.011 -0.051,0.027 l -0.023,0.016 q -0.086,0.039 -0.16,-0.047 -0.074,-0.086 -0.105,-0.203 -0.055,-0.195 -0.125,-0.234 -0.18,-0.062 -0.227,0.008 -0.039,-0.102 -0.32,-0.203 -0.195,-0.07 -0.453,-0.031 0.047,-0.008 0,-0.117 -0.055,-0.117 -0.148,-0.094 0.023,-0.047 0.031,-0.137 0.008,-0.09 0.008,-0.105 0.023,-0.102 0.094,-0.18 0.008,-0.008 0.055,-0.066 0.047,-0.058 0.074,-0.105 0.027,-0.047 0.004,-0.047 0.273,0.031 0.391,-0.086 0.039,-0.039 0.09,-0.133 0.051,-0.094 0.082,-0.133 0.07,-0.047 0.109,-0.043 0.039,0.004 0.113,0.043 0.074,0.039 0.113,0.039 0.109,0.008 0.121,-0.086 0.012,-0.094 -0.059,-0.156 0.094,0.008 0.023,-0.133 -0.039,-0.055 -0.062,-0.07 -0.094,-0.031 -0.211,0.039 -0.062,0.031 0.016,0.062 -0.008,-0.008 -0.074,0.082 -0.066,0.09 -0.129,0.137 -0.063,0.047 -0.125,-0.039 -0.008,-0.008 -0.043,-0.105 -0.035,-0.097 -0.074,-0.105 -0.062,0 -0.125,0.117 0.023,-0.062 -0.086,-0.117 -0.109,-0.055 -0.187,-0.062 0.148,-0.094 -0.062,-0.211 -0.055,-0.031 -0.16,-0.039 -0.105,-0.008 -0.152,0.031 -0.039,0.055 -0.043,0.09 -0.004,0.035 0.039,0.062 0.043,0.027 0.082,0.043 0.039,0.016 0.09,0.031 0.051,0.015 0.066,0.023 0.109,0.078 0.062,0.109 -0.016,0.008 -0.066,0.027 -0.05,0.019 -0.09,0.035 -0.04,0.016 -0.047,0.031 -0.023,0.031 0,0.109 0.023,0.078 -0.016,0.109 -0.039,-0.039 -0.07,-0.137 -0.031,-0.098 -0.055,-0.129 0.055,0.07 -0.195,0.047 l -0.078,-0.008 q -0.031,0 -0.125,0.016 -0.094,0.016 -0.16,0.008 -0.066,-0.008 -0.105,-0.062 -0.031,-0.062 0,-0.156 0.008,-0.031 0.031,-0.016 -0.031,-0.023 -0.086,-0.074 -0.055,-0.051 -0.078,-0.066 -0.359,0.117 -0.734,0.32 0.047,0.008 0.094,-0.008 0.039,-0.016 0.102,-0.051 0.063,-0.035 0.078,-0.043 0.266,-0.109 0.328,-0.055 l 0.039,-0.039 q 0.109,0.125 0.156,0.195 -0.055,-0.031 -0.234,-0.008 -0.156,0.047 -0.172,0.094 0.055,0.094 0.039,0.141 -0.031,-0.023 -0.09,-0.078 -0.059,-0.055 -0.113,-0.086 -0.054,-0.031 -0.117,-0.039 -0.125,0 -0.172,0.008 -1.141,0.625 -1.836,1.734 0.055,0.055 0.094,0.062 0.031,0.008 0.039,0.07 0.008,0.062 0.02,0.086 0.012,0.024 0.09,-0.023 0.07,0.062 0.023,0.148 0.008,-0.008 0.344,0.211 0.148,0.133 0.164,0.164 0.023,0.086 -0.078,0.141 -0.008,-0.016 -0.07,-0.07 -0.062,-0.054 -0.07,-0.031 -0.023,0.039 0.004,0.145 0.027,0.106 0.082,0.098 -0.055,0 -0.074,0.125 -0.019,0.125 -0.02,0.277 -10e-4,0.152 -0.008,0.184 l 0.016,0.008 q -0.023,0.094 0.043,0.27 0.066,0.176 0.168,0.152 -0.102,0.023 0.156,0.336 0.047,0.062 0.062,0.07 0.023,0.016 0.094,0.059 0.071,0.043 0.117,0.078 0.046,0.035 0.078,0.082 0.031,0.039 0.078,0.176 0.047,0.137 0.109,0.184 -0.016,0.047 0.074,0.156 0.09,0.109 0.082,0.18 -0.008,0 -0.02,0.008 -0.012,0.008 -0.02,0.008 0.023,0.055 0.121,0.109 0.098,0.054 0.121,0.102 0.008,0.023 0.016,0.078 0.008,0.055 0.023,0.086 0.015,0.031 0.062,0.016 0.016,-0.156 -0.187,-0.484 -0.117,-0.195 -0.133,-0.227 -0.023,-0.039 -0.043,-0.121 -0.02,-0.082 -0.035,-0.113 0.016,0 0.047,0.012 0.031,0.012 0.066,0.027 0.035,0.015 0.059,0.031 0.024,0.016 0.016,0.023 -0.023,0.055 0.016,0.137 0.039,0.082 0.094,0.145 0.055,0.063 0.133,0.148 0.078,0.085 0.094,0.102 0.047,0.047 0.109,0.152 0.062,0.105 0,0.105 0.07,0 0.156,0.078 0.086,0.078 0.133,0.156 0.039,0.062 0.062,0.203 0.023,0.141 0.039,0.187 0.016,0.055 0.066,0.105 0.05,0.05 0.098,0.074 l 0.125,0.062 q 0,0 0.102,0.055 0.039,0.016 0.145,0.082 0.106,0.066 0.168,0.09 0.078,0.031 0.125,0.031 0.047,0 0.113,-0.02 0.066,-0.02 0.105,-0.027 0.117,-0.016 0.227,0.117 0.11,0.133 0.164,0.164 0.281,0.1480003 0.43,0.086 -0.016,0.008 0.004,0.059 0.02,0.051 0.062,0.1210003 0.042,0.07 0.07,0.113 0.028,0.043 0.043,0.066 0.039,0.047 0.141,0.117 0.102,0.07 0.141,0.117 0.047,-0.031 0.055,-0.07 -0.023,0.062 0.055,0.156 0.078,0.094 0.141,0.078 0.109,-0.023 0.109,-0.25 -0.242,0.117 -0.383,-0.141 0,-0.008 -0.02,-0.043 -0.02,-0.035 -0.031,-0.066 -0.011,-0.031 -0.02,-0.066 -0.009,-0.035 0,-0.059 0.009,-0.024 0.039,-0.023 0.07,0 0.078,-0.027 0.008,-0.027 -0.016,-0.098 -0.024,-0.071 -0.031,-0.102 -0.008,-0.062 -0.086,-0.156 -0.078,-0.094 -0.094,-0.117 -0.039,0.07 -0.125,0.062 -0.086,-0.008 -0.125,-0.07 0,0.008 -0.012,0.043 -0.012,0.035 -0.012,0.051 -0.102,0 -0.117,-0.008 0.008,-0.023 0.02,-0.137 0.012,-0.114 0.027,-0.176 0.008,-0.031 0.043,-0.094 0.035,-0.063 0.059,-0.113 0.024,-0.05 0.031,-0.098 0.007,-0.048 -0.035,-0.074 -0.042,-0.026 -0.137,-0.02 -0.148,0.008 -0.203,0.156 -0.008,0.023 -0.023,0.082 -0.015,0.059 -0.039,0.09 -0.024,0.031 -0.07,0.055 -0.055,0.023 -0.187,0.016 -0.132,-0.007 -0.187,-0.039 -0.102,-0.062 -0.176,-0.227 -0.074,-0.165 -0.074,-0.289 0,-0.078 0.02,-0.207 0.02,-0.129 0.023,-0.195 0.003,-0.066 -0.043,-0.191 0.023,-0.016 0.07,-0.074 0.047,-0.058 0.078,-0.082 0.016,-0.008 0.035,-0.012 0.019,-0.004 0.035,0 0.016,0.004 0.031,-0.012 0.015,-0.016 0.023,-0.047 -0.008,-0.008 -0.031,-0.023 -0.023,-0.023 -0.031,-0.023 0.055,0.023 0.223,-0.012 0.168,-0.035 0.215,0.012 0.117,0.086 0.172,-0.016 0,-0.008 -0.02,-0.074 -0.02,-0.066 -0.004,-0.105 0.039,0.211 0.227,0.07 0.023,0.023 0.121,0.039 0.098,0.016 0.137,0.039 0.023,0.016 0.055,0.043 0.032,0.027 0.043,0.035 0.011,0.008 0.039,-0.004 0.028,-0.012 0.066,-0.051 0.078,0.109 0.094,0.187 0.086,0.312 0.148,0.344 0.055,0.023 0.086,0.016 0.031,-0.007 0.035,-0.074 0.004,-0.067 0,-0.109 -0.004,-0.042 -0.012,-0.098 l -0.008,-0.062 v -0.141 l -0.008,-0.062 q -0.117,-0.023 -0.145,-0.094 -0.028,-0.071 0.012,-0.145 0.04,-0.074 0.117,-0.145 0.008,-0.008 0.062,-0.027 0.054,-0.019 0.121,-0.051 0.067,-0.032 0.098,-0.062 0.164,-0.148 0.117,-0.273 0.055,0 0.086,-0.07 -0.008,0 -0.039,-0.023 -0.031,-0.023 -0.059,-0.039 -0.028,-0.016 -0.035,-0.016 0.07,-0.039 0.016,-0.125 0.039,-0.023 0.059,-0.086 0.02,-0.063 0.059,-0.078 0.07,0.094 0.164,0.016 0.055,-0.062 0.008,-0.125 0.039,-0.055 0.16,-0.082 0.121,-0.027 0.145,-0.074 0.055,0.016 0.062,-0.016 0.007,-0.032 0.008,-0.094 10e-4,-0.062 0.023,-0.094 0.031,-0.039 0.117,-0.07 0.086,-0.031 0.102,-0.039 l 0.133,-0.086 q 0.023,-0.031 0,-0.031 0.141,0.016 0.242,-0.086 0.078,-0.086 -0.047,-0.156 0.023,-0.047 -0.023,-0.074 -0.046,-0.027 -0.117,-0.043 0.023,-0.008 0.09,-0.004 0.067,0.004 0.082,-0.012 0.117,-0.078 -0.055,-0.125 -0.133,-0.039 -0.336,0.094 z m -1.274,6.8520003 q 1.609,-0.281 2.742,-1.477 -0.023,-0.023 -0.098,-0.035 -0.075,-0.012 -0.098,-0.027 -0.141,-0.055 -0.187,-0.062 0.008,-0.055 -0.02,-0.102 -0.028,-0.047 -0.062,-0.07 -0.034,-0.023 -0.098,-0.062 -0.064,-0.039 -0.086,-0.055 -0.016,-0.016 -0.055,-0.047 -0.039,-0.031 -0.055,-0.043 -0.016,-0.012 -0.059,-0.035 -0.043,-0.023 -0.066,-0.016 -0.023,0.007 -0.078,0.008 l -0.023,0.008 q -0.023,0.008 -0.043,0.02 -0.02,0.012 -0.043,0.023 -0.023,0.011 -0.031,0.023 -0.008,0.012 0,0.02 -0.164,-0.133 -0.281,-0.172 -0.039,-0.008 -0.086,-0.043 -0.047,-0.035 -0.082,-0.055 -0.035,-0.02 -0.078,-0.012 -0.043,0.008 -0.09,0.055 -0.039,0.039 -0.047,0.117 -0.008,0.078 -0.016,0.102 -0.055,-0.039 0,-0.137 0.055,-0.098 0.016,-0.145 -0.023,-0.047 -0.082,-0.035 -0.059,0.012 -0.094,0.035 -0.035,0.023 -0.09,0.066 -0.055,0.043 -0.07,0.051 -0.015,0.008 -0.066,0.043 -0.051,0.035 -0.066,0.059 -0.023,0.031 -0.047,0.094 -0.024,0.063 -0.039,0.086 -0.016,-0.031 -0.09,-0.051 -0.074,-0.02 -0.074,-0.043 0.016,0.078 0.031,0.273 0.015,0.195 0.039,0.297 0.055,0.242 -0.094,0.375 -0.211,0.195 -0.227,0.312 -0.031,0.172 0.094,0.203 0,0.055 -0.062,0.16 -0.062,0.105 -0.055,0.168 0,0.047 0.016,0.125 z"
     id="path4"
     style="fill:#65a9ed;fill-opacity:1"
     inkscape:connector-curvature="0" />
</svg>
