<?xml version="1.0" encoding="UTF-8" standalone="no"?>
<!-- Generated by IcoMoon.io -->

<svg
   xmlns:dc="http://purl.org/dc/elements/1.1/"
   xmlns:cc="http://creativecommons.org/ns#"
   xmlns:rdf="http://www.w3.org/1999/02/22-rdf-syntax-ns#"
   xmlns:svg="http://www.w3.org/2000/svg"
   xmlns="http://www.w3.org/2000/svg"
   xmlns:sodipodi="http://sodipodi.sourceforge.net/DTD/sodipodi-0.dtd"
   xmlns:inkscape="http://www.inkscape.org/namespaces/inkscape"
   version="1.1"
   width="14"
   height="14"
   viewBox="0 0 14 14"
   id="svg2"
   inkscape:version="0.92.0 r"
   sodipodi:docname="folder_template.svg">
  <metadata
     id="metadata10">
    <rdf:RDF>
      <cc:Work
         rdf:about="">
        <dc:format>image/svg+xml</dc:format>
        <dc:type
           rdf:resource="http://purl.org/dc/dcmitype/StillImage" />
        <dc:title />
      </cc:Work>
    </rdf:RDF>
  </metadata>
  <defs
     id="defs8" />
  <sodipodi:namedview
     pagecolor="#ffffff"
     bordercolor="#666666"
     borderopacity="1"
     objecttolerance="10"
     gridtolerance="10"
     guidetolerance="10"
     inkscape:pageopacity="0"
     inkscape:pageshadow="2"
     inkscape:window-width="1387"
     inkscape:window-height="828"
     id="namedview6"
     showgrid="true"
     inkscape:zoom="16.857143"
     inkscape:cx="-22.88983"
     inkscape:cy="6.5254239"
     inkscape:window-x="447"
     inkscape:window-y="196"
     inkscape:window-maximized="0"
     inkscape:current-layer="svg2">
    <inkscape:grid
       type="xygrid"
       id="grid4482" />
  </sodipodi:namedview>
  <path
     d="m 12.471168,2.9412218 q 0.220012,0.2208229 0.376733,0.5989442 0.156721,0.3781212 0.156721,0.6937264 v 9.0749116 q 0,0.314598 -0.220013,0.53542 -0.220011,0.220823 -0.533454,0.220823 H 1.702619 q -0.313442,0 -0.5334543,-0.220823 -0.22001222,-0.220822 -0.22001222,-0.53542 V 0.7047604 q 0,-0.31459691 0.22001222,-0.53541975 0.2200123,-0.22082283 0.5334543,-0.22082283 h 7.0323577 q 0.3134417,0 0.6911804,0.15729845 0.3777378,0.15729847 0.5967459,0.3781213 z M 8.9861325,1.0183491 V 3.979795 H 11.936708 Q 11.858348,3.7509055 11.763913,3.6571315 L 9.3076117,1.1917806 Q 9.2131768,1.0969983 8.9861325,1.0183491 Z M 12,13.055716 V 4.9891267 H 8.7349767 q -0.3134425,0 -0.5334549,-0.2208227 Q 7.9815095,4.5474811 7.9815095,4.2328842 V 0.95583295 H 1.9537745 V 13.055716 Z M 4.7164865,5.9974502 q 0.062287,-0.086716 0.164758,-0.098816 0.1024715,-0.012099 0.1878644,0.051423 L 5.4689487,6.24953 q 0.086397,0.062517 0.098453,0.165365 0.012056,0.102849 -0.051235,0.1885564 l -1.428574,1.9137984 1.4285732,1.9137982 q 0.062287,0.08672 0.051235,0.188557 -0.011051,0.101841 -0.098453,0.165366 l -0.3998397,0.299471 q -0.086397,0.06252 -0.1878645,0.05143 -0.1014668,-0.01109 -0.164758,-0.09882 L 2.9423231,8.6654741 q -0.1095039,-0.149232 0,-0.2994721 z m 6.2949645,2.3715769 q 0.109504,0.1492318 0,0.299472 L 9.2372873,11.040077 q -0.062286,0.08672 -0.1647574,0.09881 -0.1024715,0.0121 -0.1878648,-0.05143 l -0.3998396,-0.29946 q -0.086398,-0.06251 -0.098453,-0.165365 -0.012056,-0.102849 0.051236,-0.188556 L 9.8661818,8.5202755 8.4376082,6.6064775 Q 8.3753212,6.5197617 8.3863722,6.4179211 8.3974232,6.3160804 8.4848252,6.252556 L 8.8846651,5.953084 Q 8.9710661,5.890567 9.0725299,5.90166 9.1739963,5.912751 9.2372873,6.000476 Z M 6.1450596,12 Q 6.0425882,11.983864 5.98432,11.897152 5.9260523,11.810432 5.9411213,11.708595 l 1.082983,-6.5460367 q 0.016074,-0.1028489 0.1024715,-0.1613316 0.086398,-0.058482 0.1878644,-0.043358 l 0.4942742,0.07865 Q 7.911186,5.0526516 7.969454,5.1393675 8.027723,5.2260831 8.012653,5.3279239 L 6.9296697,11.873959 q -0.016074,0.10285 -0.1024714,0.161333 -0.086397,0.05848 -0.1878644,0.04335 z"
     id="path4"
     style="fill:#9e9a9e;fill-opacity:1;stroke-width:1.00647128"
     inkscape:connector-curvature="0" />
</svg>
