<?xml version="1.0" encoding="UTF-8" standalone="no"?>
<!-- Generated by IcoMoon.io -->

<svg
   xmlns:dc="http://purl.org/dc/elements/1.1/"
   xmlns:cc="http://creativecommons.org/ns#"
   xmlns:rdf="http://www.w3.org/1999/02/22-rdf-syntax-ns#"
   xmlns:svg="http://www.w3.org/2000/svg"
   xmlns="http://www.w3.org/2000/svg"
   xmlns:sodipodi="http://sodipodi.sourceforge.net/DTD/sodipodi-0.dtd"
   xmlns:inkscape="http://www.inkscape.org/namespaces/inkscape"
   version="1.1"
   width="14"
   height="14"
   viewBox="0 0 14 14"
   id="svg2"
   inkscape:version="0.92.0 r"
   sodipodi:docname="menu.svg">
  <metadata
     id="metadata10">
    <rdf:RDF>
      <cc:Work
         rdf:about="">
        <dc:format>image/svg+xml</dc:format>
        <dc:type
           rdf:resource="http://purl.org/dc/dcmitype/StillImage" />
      </cc:Work>
    </rdf:RDF>
  </metadata>
  <defs
     id="defs8" />
  <sodipodi:namedview
     pagecolor="#ffffff"
     bordercolor="#666666"
     borderopacity="1"
     objecttolerance="10"
     gridtolerance="10"
     guidetolerance="10"
     inkscape:pageopacity="0"
     inkscape:pageshadow="2"
     inkscape:window-width="1346"
     inkscape:window-height="756"
     id="namedview6"
     showgrid="true"
     inkscape:zoom="16.857143"
     inkscape:cx="-4.3813559"
     inkscape:cy="6.0508476"
     inkscape:window-x="0"
     inkscape:window-y="27"
     inkscape:window-maximized="0"
     inkscape:current-layer="svg2">
    <inkscape:grid
       type="xygrid"
       id="grid4482" />
  </sodipodi:namedview>
  <path
     d="m 13,10.474576 v 1 q 0,0.203 -0.148,0.352 -0.148,0.149 -0.352,0.148 h -11 q -0.203,0 -0.352,-0.148 -0.149,-0.148 -0.148,-0.352 v -1 q 0,-0.203 0.148,-0.352 0.148,-0.149 0.352,-0.148 h 11 q 0.203,0 0.352,0.148 0.149,0.148 0.148,0.352 z m 0,-4 v 1 q 0,0.203 -0.148,0.352 -0.148,0.149 -0.352,0.148 h -11 q -0.203,0 -0.352,-0.148 -0.149,-0.148 -0.148,-0.352 v -1 q 0,-0.203 0.148,-0.352 0.148,-0.149 0.352,-0.148 h 11 q 0.203,0 0.352,0.148 0.149,0.148 0.148,0.352 z m 0,-4 v 1 q 0,0.203 -0.148,0.352 -0.148,0.149 -0.352,0.148 h -11 q -0.203,0 -0.352,-0.148 -0.149,-0.148 -0.148,-0.352 v -1 q 0,-0.203 0.148,-0.352 0.148,-0.149 0.352,-0.148 h 11 q 0.203,0 0.352,0.148 0.149,0.148 0.148,0.352 z"
     id="path4"
     style="fill:#9e9e9e;fill-opacity:1"
     inkscape:connector-curvature="0" />
</svg>
