<?xml version="1.0" encoding="UTF-8" standalone="no"?>
<!-- Generated by IcoMoon.io -->

<svg
   xmlns:dc="http://purl.org/dc/elements/1.1/"
   xmlns:cc="http://creativecommons.org/ns#"
   xmlns:rdf="http://www.w3.org/1999/02/22-rdf-syntax-ns#"
   xmlns:svg="http://www.w3.org/2000/svg"
   xmlns="http://www.w3.org/2000/svg"
   xmlns:sodipodi="http://sodipodi.sourceforge.net/DTD/sodipodi-0.dtd"
   xmlns:inkscape="http://www.inkscape.org/namespaces/inkscape"
   version="1.1"
   width="14"
   height="14"
   viewBox="0 0 14 14"
   id="svg2"
   inkscape:version="0.91 r13725"
   sodipodi:docname="snippet.svg">
  <metadata
     id="metadata10">
    <rdf:RDF>
      <cc:Work
         rdf:about="">
        <dc:format>image/svg+xml</dc:format>
        <dc:type
           rdf:resource="http://purl.org/dc/dcmitype/StillImage" />
      </cc:Work>
    </rdf:RDF>
  </metadata>
  <defs
     id="defs8" />
  <sodipodi:namedview
     pagecolor="#ffffff"
     bordercolor="#666666"
     borderopacity="1"
     objecttolerance="10"
     gridtolerance="10"
     guidetolerance="10"
     inkscape:pageopacity="0"
     inkscape:pageshadow="2"
     inkscape:window-width="772"
     inkscape:window-height="480"
     id="namedview6"
     showgrid="false"
     inkscape:zoom="16.857143"
     inkscape:cx="7"
     inkscape:cy="6.5254237"
     inkscape:window-x="425"
     inkscape:window-y="138"
     inkscape:window-maximized="0"
     inkscape:current-layer="svg2" />
  <path
     fill="#444444"
     d="M7.5 7q0.203 0 0.352 0.148t0.148 0.352-0.148 0.352-0.352 0.148-0.352-0.148-0.148-0.352 0.148-0.352 0.352-0.148zM9.844 7.5l3.961 3.109q0.219 0.156 0.195 0.438-0.039 0.273-0.273 0.398l-1 0.5q-0.102 0.055-0.227 0.055-0.133 0-0.242-0.062l-5.391-3.023-0.859 0.516q-0.062 0.031-0.094 0.039 0.109 0.383 0.078 0.758-0.055 0.602-0.438 1.152t-1.031 0.965q-1.031 0.656-2.164 0.656-1.062 0-1.734-0.609-0.703-0.656-0.617-1.617 0.055-0.594 0.438-1.148t1.023-0.969q1.031-0.656 2.172-0.656 0.648 0 1.18 0.242 0.070-0.102 0.172-0.172l0.953-0.57-0.953-0.57q-0.102-0.070-0.172-0.172-0.531 0.242-1.18 0.242-1.141 0-2.172-0.656-0.641-0.414-1.023-0.969t-0.438-1.148q-0.039-0.461 0.121-0.883t0.496-0.727q0.664-0.617 1.734-0.617 1.133 0 2.164 0.656 0.648 0.406 1.031 0.961t0.438 1.156q0.031 0.375-0.078 0.758 0.031 0.008 0.094 0.039l0.859 0.516 5.391-3.023q0.109-0.062 0.242-0.062 0.125 0 0.227 0.055l1 0.5q0.234 0.125 0.273 0.398 0.023 0.281-0.195 0.438zM4.523 5.469q0.359-0.328 0.164-0.844t-0.828-0.914q-0.719-0.461-1.5-0.461-0.578 0-0.883 0.281-0.359 0.328-0.164 0.844t0.828 0.914q0.719 0.461 1.5 0.461 0.578 0 0.883-0.281zM3.859 11.289q0.633-0.398 0.828-0.914t-0.164-0.844q-0.305-0.281-0.883-0.281-0.781 0-1.5 0.461-0.633 0.398-0.828 0.914t0.164 0.844q0.305 0.281 0.883 0.281 0.781 0 1.5-0.461zM5.25 6.5l0.75 0.453v-0.086q0-0.281 0.258-0.438l0.109-0.062-0.617-0.367-0.203 0.203q-0.023 0.023-0.078 0.086t-0.094 0.094q-0.016 0.016-0.031 0.027t-0.023 0.020zM7 8.25l0.75 0.25 5.75-4.5-1-0.5-6 3.367v0.883l-1.25 0.75 0.070 0.062q0.016 0.016 0.055 0.047 0.031 0.031 0.086 0.094t0.086 0.094l0.203 0.203zM12.5 11.5l1-0.5-4.063-3.188-1.383 1.078q-0.016 0.023-0.102 0.055z"
     id="path4"
     style="fill:#03a9f4;fill-opacity:1" />
</svg>
