<?xml version="1.0" encoding="UTF-8" standalone="no"?>
<!-- Generated by IcoMoon.io -->

<svg
   xmlns:dc="http://purl.org/dc/elements/1.1/"
   xmlns:cc="http://creativecommons.org/ns#"
   xmlns:rdf="http://www.w3.org/1999/02/22-rdf-syntax-ns#"
   xmlns:svg="http://www.w3.org/2000/svg"
   xmlns="http://www.w3.org/2000/svg"
   xmlns:sodipodi="http://sodipodi.sourceforge.net/DTD/sodipodi-0.dtd"
   xmlns:inkscape="http://www.inkscape.org/namespaces/inkscape"
   version="1.1"
   width="14"
   height="14"
   viewBox="0 0 14 14"
   id="svg2"
   inkscape:version="0.92.0 r"
   sodipodi:docname="snippet.svg">
  <metadata
     id="metadata10">
    <rdf:RDF>
      <cc:Work
         rdf:about="">
        <dc:format>image/svg+xml</dc:format>
        <dc:type
           rdf:resource="http://purl.org/dc/dcmitype/StillImage" />
      </cc:Work>
    </rdf:RDF>
  </metadata>
  <defs
     id="defs8" />
  <sodipodi:namedview
     pagecolor="#ffffff"
     bordercolor="#666666"
     borderopacity="1"
     objecttolerance="10"
     gridtolerance="10"
     guidetolerance="10"
     inkscape:pageopacity="0"
     inkscape:pageshadow="2"
     inkscape:window-width="1091"
     inkscape:window-height="654"
     id="namedview6"
     showgrid="true"
     inkscape:zoom="16.857143"
     inkscape:cx="7.0000001"
     inkscape:cy="6.5254238"
     inkscape:window-x="425"
     inkscape:window-y="138"
     inkscape:window-maximized="0"
     inkscape:current-layer="svg2">
    <inkscape:grid
       type="xygrid"
       id="grid4482" />
  </sodipodi:namedview>
  <path
     d="m 7.4257058,6.5631872 q 0.1720931,0 0.2984077,0.1315519 0.1263146,0.1315519 0.1254669,0.3128802 -8.478e-4,0.1813283 -0.1254669,0.3128802 -0.1246191,0.1315519 -0.2984077,0.1315519 -0.1737886,0 -0.2984077,-0.1315519 Q 7.0026789,7.1889476 7.0018312,7.0076193 7.0009834,6.826291 7.1272981,6.6947391 7.2536127,6.5631872 7.4257058,6.5631872 Z M 9.41283,7.0076193 12.770765,9.7710981 q 0.185657,0.1386628 0.165311,0.3893229 -0.03307,0.24266 -0.231436,0.353768 l -0.847749,0.444432 q -0.08647,0.04889 -0.192439,0.04889 -0.112751,0 -0.205155,-0.05511 L 6.8890806,8.2653622 6.160864,8.7240161 q -0.052561,0.027555 -0.079689,0.034666 0.092404,0.340435 0.066124,0.673759 -0.046627,0.5350963 -0.3713141,1.0239709 -0.3246879,0.488876 -0.8740295,0.857754 -0.8740294,0.583095 -1.8345292,0.583095 -0.9003097,0 -1.4699969,-0.541318 Q 1.001463,10.772848 1.0743693,9.9186496 1.1209953,9.3906642 1.4456833,8.8982335 1.7703711,8.4058027 2.3129303,8.0369241 3.1869598,7.4538292 4.1542417,7.4538292 q 0.5493414,0 1.000344,0.2151051 0.059342,-0.090664 0.1458128,-0.1528847 L 6.1083035,7.0093971 5.3003985,6.5027445 Q 5.2139281,6.440524 5.1545857,6.3498598 4.7044309,6.564965 4.1542417,6.564965 3.1869598,6.564965 2.3129303,5.9818701 1.7695233,5.6138803 1.4456833,5.1205606 1.1218433,4.627241 1.0743693,4.1001446 1.0413072,3.6903782 1.176947,3.3152775 1.3125867,2.9401768 1.5974303,2.6690732 2.1603355,2.120644 3.0674272,2.120644 q 0.9604998,0 1.8345292,0.5830949 0.5493416,0.3608789 0.8740294,0.8541985 0.324688,0.4933196 0.3713142,1.027527 0.02628,0.3333241 -0.066124,0.6737591 0.02628,0.00711 0.079689,0.034666 L 6.8890806,5.7525431 11.459297,3.0655066 q 0.0924,-0.05511 0.205155,-0.05511 0.105968,0 0.192439,0.048888 l 0.847749,0.4444321 q 0.198373,0.111108 0.231436,0.3537679 0.0195,0.2497709 -0.165311,0.3893225 z M 4.9019564,5.2023362 Q 5.2062984,4.9107887 5.0409873,4.4521348 4.8756762,3.9934809 4.339051,3.6397129 3.7295193,3.2299465 3.0674272,3.2299465 q -0.4899991,0 -0.7485626,0.2497708 -0.3043419,0.2915475 -0.1390308,0.7502014 0.1653111,0.458654 0.7019363,0.8124219 0.6095317,0.4097664 1.2716238,0.4097664 0.4899991,0 0.7485625,-0.2497708 z M 4.339051,10.375526 Q 4.8756762,10.021758 5.0409873,9.5631039 5.2062984,9.10445 4.9019564,8.8129025 4.643393,8.5631317 4.1533939,8.5631317 q -0.6620921,0 -1.2716238,0.4097664 -0.5366252,0.3537679 -0.7019363,0.8124218 -0.1653111,0.4586541 0.1390308,0.7502011 0.2585635,0.249771 0.7485626,0.249771 0.6620921,0 1.2716238,-0.409766 z M 5.5182701,6.1187551 6.154082,6.5214106 v -0.076442 q 0,-0.2497708 0.2187193,-0.3893225 L 6.4652059,6.0005361 5.9421447,5.674323 5.7700516,5.8547625 q -0.019499,0.020444 -0.066124,0.076442 -0.046627,0.055998 -0.079689,0.083553 -0.013564,0.014222 -0.02628,0.023999 -0.012717,0.00978 -0.019499,0.017777 z M 7.0018312,7.6742675 7.6376431,7.8964835 12.512201,3.8965947 11.664452,3.4521626 6.5779566,6.4449683 v 0.7848671 l -1.0596865,0.6666481 0.059342,0.05511 q 0.013564,0.014222 0.046626,0.041777 0.02628,0.027555 0.072906,0.083553 0.046627,0.055998 0.072906,0.083553 L 5.9421447,8.3409156 Z M 11.664452,10.563076 12.512201,10.118644 9.067796,7.284945 7.8953588,8.2431406 q -0.013564,0.020444 -0.086471,0.048887 z"
     id="path4"
     style="fill:#4ac5fd;fill-opacity:1;stroke-width:0.86806333"
     inkscape:connector-curvature="0" />
</svg>
