<?xml version="1.0" encoding="UTF-8" standalone="no"?>
<!-- Generated by IcoMoon.io -->

<svg
   xmlns:dc="http://purl.org/dc/elements/1.1/"
   xmlns:cc="http://creativecommons.org/ns#"
   xmlns:rdf="http://www.w3.org/1999/02/22-rdf-syntax-ns#"
   xmlns:svg="http://www.w3.org/2000/svg"
   xmlns="http://www.w3.org/2000/svg"
   xmlns:sodipodi="http://sodipodi.sourceforge.net/DTD/sodipodi-0.dtd"
   xmlns:inkscape="http://www.inkscape.org/namespaces/inkscape"
   version="1.1"
   width="16"
   height="16"
   viewBox="0 0 16 16"
   id="svg2"
   inkscape:version="0.48.5 r10040"
   sodipodi:docname="scissors.svg">
  <metadata
     id="metadata14">
    <rdf:RDF>
      <cc:Work
         rdf:about="">
        <dc:format>image/svg+xml</dc:format>
        <dc:type
           rdf:resource="http://purl.org/dc/dcmitype/StillImage" />
      </cc:Work>
    </rdf:RDF>
  </metadata>
  <defs
     id="defs12" />
  <sodipodi:namedview
     pagecolor="#ffffff"
     bordercolor="#666666"
     borderopacity="1"
     objecttolerance="10"
     gridtolerance="10"
     guidetolerance="10"
     inkscape:pageopacity="0"
     inkscape:pageshadow="2"
     inkscape:window-width="738"
     inkscape:window-height="480"
     id="namedview10"
     showgrid="false"
     inkscape:zoom="14.75"
     inkscape:cx="8"
     inkscape:cy="8"
     inkscape:window-x="0"
     inkscape:window-y="29"
     inkscape:window-maximized="0"
     inkscape:current-layer="svg2" />
  <g
     id="g4">
    <line
       stroke-width="1"
       x1=""
       y1=""
       x2=""
       y2=""
       stroke="#449FDB"
       opacity=""
       id="line6" />
  </g>
  <path
     d="M13.918 11.081c-0.713-0.712-1.621-1.079-2.468-1.079h-0.455l-0.998-1 3.994-4.001c0.998-1 0.998-3 0-4.001l-5.991 6.001-5.991-6.001c-0.998 1-0.998 3 0 4.001l3.994 4.001-0.999 1h-0.455c-0.847 0-1.755 0.367-2.468 1.079-1.275 1.273-1.448 3.164-0.385 4.224 0.468 0.467 1.098 0.695 1.766 0.695 0.847 0 1.755-0.367 2.468-1.079 0.837-0.835 1.199-1.938 1.048-2.896l1.022-1.023 1.021 1.023c-0.151 0.959 0.211 2.061 1.048 2.896 0.713 0.712 1.621 1.079 2.468 1.079 0.667 0 1.297-0.228 1.766-0.695 1.063-1.060 0.89-2.952-0.385-4.224zM5.516 13.212c-0.12 0.279-0.297 0.537-0.525 0.764s-0.487 0.405-0.768 0.525c-0.252 0.108-0.515 0.165-0.76 0.165-0.237 0-0.572-0.053-0.826-0.306-0.252-0.252-0.305-0.583-0.305-0.817 0-0.243 0.057-0.503 0.164-0.753 0.12-0.279 0.297-0.537 0.525-0.764s0.487-0.405 0.768-0.525c0.252-0.108 0.515-0.165 0.76-0.165 0.237 0 0.572 0.053 0.826 0.306 0.252 0.252 0.305 0.583 0.305 0.817 0 0.243-0.057 0.503-0.165 0.753zM8 10.416c-0.78 0-1.412-0.633-1.412-1.414s0.632-1.414 1.412-1.414 1.412 0.633 1.412 1.414c0 0.781-0.632 1.414-1.412 1.414zM13.364 14.36c-0.254 0.253-0.589 0.306-0.826 0.306-0.245 0-0.508-0.057-0.76-0.165-0.281-0.12-0.539-0.297-0.768-0.525s-0.405-0.485-0.525-0.764c-0.108-0.25-0.164-0.511-0.164-0.753 0-0.234 0.053-0.565 0.305-0.817 0.254-0.253 0.589-0.306 0.826-0.306 0.245 0 0.508 0.057 0.76 0.165 0.281 0.12 0.539 0.297 0.768 0.525s0.405 0.485 0.525 0.764c0.108 0.25 0.164 0.51 0.164 0.753-0 0.234-0.053 0.565-0.305 0.817z"
     fill="#000000"
     id="path8"
     style="fill:#2a92d5;fill-opacity:1" />
</svg>
