<?xml version="1.0" encoding="UTF-8" standalone="no"?>
<!-- Generated by IcoMoon.io -->

<svg
   xmlns:dc="http://purl.org/dc/elements/1.1/"
   xmlns:cc="http://creativecommons.org/ns#"
   xmlns:rdf="http://www.w3.org/1999/02/22-rdf-syntax-ns#"
   xmlns:svg="http://www.w3.org/2000/svg"
   xmlns="http://www.w3.org/2000/svg"
   xmlns:sodipodi="http://sodipodi.sourceforge.net/DTD/sodipodi-0.dtd"
   xmlns:inkscape="http://www.inkscape.org/namespaces/inkscape"
   version="1.1"
   width="14"
   height="14"
   viewBox="0 0 14 14"
   id="svg2"
   inkscape:version="0.92.0 r"
   sodipodi:docname="template.svg">
  <metadata
     id="metadata10">
    <rdf:RDF>
      <cc:Work
         rdf:about="">
        <dc:format>image/svg+xml</dc:format>
        <dc:type
           rdf:resource="http://purl.org/dc/dcmitype/StillImage" />
      </cc:Work>
    </rdf:RDF>
  </metadata>
  <defs
     id="defs8" />
  <sodipodi:namedview
     pagecolor="#ffffff"
     bordercolor="#666666"
     borderopacity="1"
     objecttolerance="10"
     gridtolerance="10"
     guidetolerance="10"
     inkscape:pageopacity="0"
     inkscape:pageshadow="2"
     inkscape:window-width="1249"
     inkscape:window-height="781"
     id="namedview6"
     showgrid="true"
     inkscape:zoom="16.857143"
     inkscape:cx="-2.3644067"
     inkscape:cy="6.5254238"
     inkscape:window-x="447"
     inkscape:window-y="196"
     inkscape:window-maximized="0"
     inkscape:current-layer="svg2">
    <inkscape:grid
       type="xygrid"
       id="grid4482" />
  </sodipodi:namedview>
  <path
     d="m 12.471168,2.9896536 q 0.220012,0.2212972 0.376733,0.6002307 0.156721,0.3789335 0.156721,0.6952166 v 9.0944041 q 0,0.315274 -0.220013,0.536571 -0.220011,0.221298 -0.533454,0.221298 H 1.702619 q -0.313442,0 -0.5334543,-0.221298 Q 0.94915248,13.694779 0.94915248,13.379505 V 0.74838814 q 0,-0.31527269 0.22001222,-0.53656987 Q 1.389177,-0.0094789 1.702619,-0.0094789 h 7.0323577 q 0.3134417,0 0.6911804,0.15763635 0.3777378,0.15763634 0.5967459,0.37893351 z M 8.9861325,1.0626503 V 4.0304576 H 11.936708 Q 11.858348,3.8010765 11.763913,3.7071011 L 9.3076117,1.2364545 Q 9.2131768,1.1414685 8.9861325,1.0626503 Z M 12,13.125874 V 5.0419575 H 8.7349767 q -0.3134425,0 -0.5334549,-0.2212971 Q 7.9815095,4.5993632 7.9815095,4.2840905 V 1 H 1.9537745 V 13.125874 Z M 4.7164865,6.052447 Q 4.7787735,5.965545 4.8812445,5.953419 4.983716,5.941293 5.0691089,6.004953 l 0.3998398,0.3001154 q 0.086397,0.062651 0.098453,0.1657203 0.012056,0.1030699 -0.051235,0.1889614 l -1.428574,1.9179094 1.4285732,1.9179085 q 0.062287,0.0869 0.051235,0.188963 -0.011051,0.102059 -0.098453,0.165719 l -0.3998397,0.300116 q -0.086397,0.06265 -0.1878645,0.05154 -0.1014668,-0.01112 -0.164758,-0.09903 L 2.9423231,8.7262019 q -0.1095039,-0.1495526 0,-0.3001154 z m 6.2949645,2.376671 q 0.109504,0.1495524 0,0.3001153 L 9.2372873,11.105905 q -0.062286,0.0869 -0.1647574,0.09903 -0.1024715,0.01212 -0.1878648,-0.05154 L 8.4848255,10.853282 q -0.086398,-0.06264 -0.098453,-0.16572 -0.012056,-0.10307 0.051236,-0.188961 L 9.8661818,8.5806913 8.4376082,6.6627825 Q 8.3753216,6.5758805 8.3863725,6.473821 8.3974233,6.3717615 8.4848255,6.3081008 L 8.8846651,6.0079855 q 0.086401,-0.062651 0.1878648,-0.051535 0.1014664,0.011115 0.1647574,0.099028 z M 6.1450596,12.067891 Q 6.0425882,12.05172 5.98432,11.964821 5.9260523,11.877915 5.9411213,11.775859 L 7.0241043,5.2157616 Q 7.0401783,5.1126918 7.1265758,5.0540834 7.2129738,4.995476 7.3144402,5.0106328 l 0.4942742,0.078818 Q 7.911186,5.1056188 7.969454,5.1925209 8.027723,5.279423 8.012653,5.3814824 L 6.9296697,11.94158 q -0.016074,0.103069 -0.1024714,0.161678 -0.086397,0.05862 -0.1878644,0.04344 z"
     id="path4"
     style="fill:#ff5722;fill-opacity:1;stroke-width:1.00755167"
     inkscape:connector-curvature="0" />
</svg>
