<?xml version="1.0" encoding="UTF-8" standalone="no"?>
<!-- Generated by IcoMoon.io -->

<svg
   xmlns:dc="http://purl.org/dc/elements/1.1/"
   xmlns:cc="http://creativecommons.org/ns#"
   xmlns:rdf="http://www.w3.org/1999/02/22-rdf-syntax-ns#"
   xmlns:svg="http://www.w3.org/2000/svg"
   xmlns="http://www.w3.org/2000/svg"
   xmlns:sodipodi="http://sodipodi.sourceforge.net/DTD/sodipodi-0.dtd"
   xmlns:inkscape="http://www.inkscape.org/namespaces/inkscape"
   version="1.1"
   width="16"
   height="16"
   viewBox="0 0 16 16"
   id="svg2"
   inkscape:version="0.48.5 r10040"
   sodipodi:docname="briefcase.svg">
  <metadata
     id="metadata14">
    <rdf:RDF>
      <cc:Work
         rdf:about="">
        <dc:format>image/svg+xml</dc:format>
        <dc:type
           rdf:resource="http://purl.org/dc/dcmitype/StillImage" />
      </cc:Work>
    </rdf:RDF>
  </metadata>
  <defs
     id="defs12" />
  <sodipodi:namedview
     pagecolor="#ffffff"
     bordercolor="#666666"
     borderopacity="1"
     objecttolerance="10"
     gridtolerance="10"
     guidetolerance="10"
     inkscape:pageopacity="0"
     inkscape:pageshadow="2"
     inkscape:window-width="1017"
     inkscape:window-height="591"
     id="namedview10"
     showgrid="false"
     inkscape:zoom="14.75"
     inkscape:cx="11.322034"
     inkscape:cy="8"
     inkscape:window-x="500"
     inkscape:window-y="330"
     inkscape:window-maximized="0"
     inkscape:current-layer="svg2" />
  <g
     id="g4">
    <line
       stroke-width="1"
       x1=""
       y1=""
       x2=""
       y2=""
       stroke="#449FDB"
       opacity=""
       id="line6" />
  </g>
  <path
     d="M15 4h-4v-1c0-0.55-0.45-1-1-1h-4c-0.55 0-1 0.45-1 1v1h-4c-0.55 0-1 0.45-1 1v9c0 0.55 0.45 1 1 1h14c0.55 0 1-0.45 1-1v-9c0-0.55-0.45-1-1-1zM6 3.002c0.001-0.001 0.001-0.001 0.002-0.002h3.996c0.001 0.001 0.001 0.001 0.002 0.002v0.998h-4v-0.998zM15 8h-2v1.5c0 0.275-0.225 0.5-0.5 0.5h-1c-0.275 0-0.5-0.225-0.5-0.5v-1.5h-6v1.5c0 0.275-0.225 0.5-0.5 0.5h-1c-0.275 0-0.5-0.225-0.5-0.5v-1.5h-2v-1h14v1z"
     fill="#000000"
     id="path8"
     style="fill:#ca1010;fill-opacity:1" />
</svg>
