/* XPM */
static char *ac_class[] = {
/* columns rows colors chars-per-pixel */
"18 12 24 1",
"  c black",
". c #403030",
"X c #473636",
"o c #4E3C3C",
"O c #474141",
"+ c #5F4C4C",
"@ c #756362",
"# c #98342C",
"$ c #A0392F",
"% c #B24235",
"& c #B2443C",
"* c #B34E3E",
"= c #B54E44",
"- c #B65146",
"; c #B7584F",
": c #B8554C",
"> c #B75A50",
", c #B95852",
"< c #B96259",
"1 c #B89B9B",
"2 c #BCA0A0",
"3 c #C1A5A5",
"4 c gray100",
"5 c None",
/* pixels */
"555555555555555555",
"55553$$$$$$$#@5555",
"55552;%&&==;=o5555",
"55551>&&*=;:=.5555",
"55551>&*=;::=.5555",
"55551>*==:::-X5555",
"55551>==:::,;.5555",
"55551<==:;,<>.5555",
"55551<;;;;<<;.5555",
"55551;-==;;;;X5555",
"55555+XX..X..O5555",
"555555555555555555"
};
