/* XPM */
static char * ac_class_small_xpm[] = {
"18 12 30 1",
" 	c None",
".	c #A87570",
"+	c #9B4F47",
"@	c #9B4F49",
"#	c #9E564E",
"$	c #9F5A53",
"%	c #85524D",
"&	c #AB7A75",
"*	c #A0544E",
"=	c #A15A51",
"-	c #A5625B",
";	c #A8655E",
">	c #824F4A",
",	c #A45C54",
"'	c #A8635C",
")	c #84514C",
"!	c #AD7B77",
"~	c #A55D55",
"{	c #A6615A",
"]	c #AA6762",
"^	c #845450",
"/	c #AE7E7A",
"(	c #A6635C",
"_	c #A7645D",
":	c #A86762",
"<	c #AB6E67",
"[	c #976E6B",
"}	c #83504B",
"|	c #855451",
"1	c #6F4C49",
"                  ",
"                  ",
"                  ",
"      .+@#$%      ",
"      &*=-;>      ",
"      &=,;')      ",
"      !~{;]^      ",
"      /(_:<^      ",
"      [%}||1      ",
"                  ",
"                  ",
"                  "};
