/* XPM */
static char * ac_function_small_xpm[] = {
"18 12 31 1",
" 	c None",
".	c #609248",
"+	c #588A4A",
"@	c #558949",
"#	c #5F8C50",
"$	c #679250",
"%	c #649858",
"&	c #86A87A",
"*	c #80A472",
"=	c #5D9652",
"-	c #588E48",
";	c #558943",
">	c #719C64",
",	c #93B088",
"'	c #609551",
")	c #4C7C2C",
"!	c #568A3A",
"~	c #5C9551",
"{	c #759E66",
"]	c #739E68",
"^	c #66985A",
"/	c #4D7D2D",
"(	c #739561",
"_	c #669555",
":	c #639757",
"<	c #67995B",
"[	c #568D45",
"}	c #506E38",
"|	c #6C9553",
"1	c #608749",
"2	c #3C7834",
"                  ",
"                  ",
"                  ",
"       .+@#       ",
"      $%&*=-      ",
"      ;>,*')      ",
"      !~{]^/      ",
"      (_:<%[      ",
"       }|12       ",
"                  ",
"                  ",
"                  "};
