/* XPM */
static char *ac_function[] = {
/* columns rows colors chars-per-pixel */
"18 12 50 1",
"  c black",
". c #0A781B",
"X c #38561A",
"o c #3F7B06",
"O c #3F7F00",
"+ c #357D11",
"@ c #396124",
"# c #427C31",
"$ c #527F36",
"% c #3F830B",
"& c #43860E",
"* c #418D18",
"= c #4D9915",
"- c #569319",
"; c #49922A",
": c #429434",
"> c #4F9434",
", c #508D36",
"< c #539122",
"1 c #589634",
"2 c #4DA03F",
"3 c #649731",
"4 c #67A336",
"5 c #4DA340",
"6 c #50A140",
"7 c #52A140",
"8 c #56A241",
"9 c #58A340",
"0 c #5AA44B",
"q c #5DA44B",
"w c #5DA64C",
"e c #5FA74E",
"r c #5FA74F",
"t c #64AB4A",
"y c #6EA143",
"u c #64A851",
"i c #65AA50",
"p c #69AA54",
"a c #6DAA56",
"s c #73A751",
"d c #70A851",
"f c #77AD63",
"g c #75AD65",
"h c #79AE63",
"j c #86AC60",
"k c #94AA7F",
"l c #94BB86",
"z c #95BB87",
"x c gray100",
"c c None",
/* pixels */
"cccccccccccccccccc",
"ccccc4#,#$cccccccc",
"cccc*t827u>ccccccc",
"cccyt2fff5e5cccccc",
"ccc15fzzh92&cccccc",
"ccc;7fzhh90Occcccc",
"ccc=55hhg00Occcccc",
"ccc<a5900ee%cccccc",
"ccck:d0ee095cccccc",
"cccco@pst:.ccccccc",
"cccccj3-X+cccccccc",
"cccccccccccccccccc"
};
