/* XPM */
static char *ac_variable_hash[] = {
/* columns rows colors chars-per-pixel */
"18 12 46 1",
"  c #3B270A",
". c #3E2C0F",
"X c #412610",
"o c #412A10",
"O c #4C3A21",
"+ c #444424",
"@ c #564830",
"# c #AB840E",
"$ c #B4880F",
"% c #BA8A0A",
"& c #BA890C",
"* c #BD8B0B",
"= c #BF8E0A",
"- c #C8991C",
"; c #C99E1A",
": c #CE9C1E",
"> c #CDA01B",
", c #CEAA1C",
"< c #CFA535",
"1 c #D3A522",
"2 c #D5A223",
"3 c #D7A323",
"4 c #D7A823",
"5 c #D7AA23",
"6 c #DAA324",
"7 c #D9AB24",
"8 c #D8AD24",
"9 c #D9AC26",
"0 c #D9AD27",
"q c #D9AE26",
"w c #DAAC24",
"e c #DBA92E",
"r c #D9AF28",
"t c #DBAD3C",
"y c #D9B327",
"u c #DAB124",
"i c #D9B328",
"p c #D9B42F",
"a c #DBB035",
"s c #DBB135",
"d c #DBB434",
"f c #8F8E8D",
"g c #999795",
"h c #E7CB85",
"j c gray100",
"k c None",
/* pixels */
"kkkkkkkkkkkkkkkkkk",
"kkk*$$$$$$$$# kkkk",
"kkk&i;>::1273Ofkkk",
"kkk%u>:,,27u5.fkkk",
"kkk=p12w596e9ofkkk",
"kkk=d2wuu6ea9ofkkk",
"kkk-a7u99eatrofkkk",
"kkk<944339ru9ofkkk",
"kkkh@.ooooooo+fkkk",
"kkkkgffffffffffkkk",
"kkkkkkkkkkkkkkkkkk",
"kkkkkkkkkkkkkkkkkk"
};
