/* XPM */
static char *ac_variable_hash[] = {
/* columns rows colors chars-per-pixel */
"18 12 55 1",
"  c #000000",
". c #070707",
"X c #080808",
"o c #0a0a0a",
"O c #161616",
"+ c #1B1B1B",
"@ c #1f1f1f",
"# c #252525",
"$ c #262626",
"% c #08721E",
"& c #316629",
"* c #7D220D",
"= c #404826",
"- c #737475",
"; c #777777",
": c #0EB831",
"> c #0EBE33",
", c #16AE31",
"< c #2EA537",
"1 c #01C531",
"2 c #00C831",
"3 c #01C932",
"4 c #00D134",
"5 c #00D535",
"6 c #6AAB64",
"7 c #7FB571",
"8 c #19FFFF",
"9 c #2CF8F9",
"0 c #3CF1F3",
"q c #4EEAEE",
"w c #51ECEF",
"e c #5EE2E7",
"r c #51EDF0",
"t c #6FD9DF",
"y c #62E4E8",
"u c #AE3217",
"i c #B83518",
"p c #BE3719",
"a c #BA3C20",
"s c #C3391A",
"d c #C93A1A",
"f c #C04125",
"g c #D25134",
"h c #D85639",
"j c #E87B61",
"k c #888888",
"l c #909193",
"z c #999999",
"x c #9BA7B6",
"c c #AAAAAA",
"v c #9CD4DA",
"b c #8BDCE1",
"n c #D4D8AA",
"m c #ffffff",
"M c None",
/* pixels */
"MMMMMMMMz. XzMMMMM",
"MMMMMMMz=671%kMMMM",
"MMMMMMMXn2554OcMMM",
"MMM      ,555 zMMM",
"MMM jggh  :2>+kMMM",
"MMM auup v <&#zMMM",
"MMM uuusle X#kcMMM",
"MMM uui*r9t@kcMMMM",
"MMM fpd-08q ;MMMMM",
"MMM    bwryx cMMMM",
"MMMMck       zMMMM",
"MMMMMMMzk;;zzcMMMM"
};
