/* XPM */
static char * ac_namespace_xpm[] = {
"16 16 27 1",
" 	c None",
".	c #000000",
"+	c #0E0D07",
"@	c #EED680",
"#	c #D49C1B",
"$	c #201C10",
"%	c #817342",
"&	c #342D1B",
"*	c #1D1A0F",
"=	c #837544",
"-	c #E7C767",
";	c #302A18",
">	c #E5C25E",
",	c #897A46",
"'	c #E3BF59",
")	c #0D0C07",
"!	c #E1BC52",
"~	c #070602",
"{	c #76693D",
"]	c #DEB444",
"^	c #8B6611",
"/	c #58400B",
"(	c #0E0C07",
"_	c #060502",
":	c #70643A",
"<	c #D6C172",
"[	c #050402",
"                ",
"                ",
"      ..        ",
"     +@#.       ",
"    $%@##.      ",
"    &@@###.     ",
"   *=@-####.    ",
"   ;@@>#####.   ",
"  *,@@'######.  ",
"  )@@@!#######. ",
"  ~{@@]#####^/  ",
"   (@@####^/    ",
"   _:@##^/      ",
"    .<^/        ",
"    [..         ",
"                "};
