/* XPM */
static char *ac_variable_hash[] = {
/* columns rows colors chars-per-pixel */
"18 12 37 1",
"  c black",
". c #010101",
"X c #38435F",
"o c #2F4169",
"O c #304067",
"+ c #304068",
"@ c #344773",
"# c #31467A",
"$ c #474E5D",
"% c #494D5B",
"& c #474E60",
"* c #3C5387",
"= c #3F578B",
"- c #3E60B8",
"; c #4662B2",
": c #6F7481",
"> c #677394",
", c #7D7E81",
"< c #727C95",
"1 c #717F98",
"2 c #436ECF",
"3 c #4970D2",
"4 c #4D78D6",
"5 c #537DD7",
"6 c #537CD9",
"7 c #587FD7",
"8 c #7F8082",
"9 c #788B9D",
"0 c #5580DA",
"q c #5C81DC",
"w c #6186DC",
"e c #638DDE",
"r c #6E91E0",
"t c #7193E2",
"y c #838385",
"u c gray100",
"i c None",
/* pixels */
"iiiiiiiiiiiiiiiiii",
"iiiii9iiiiiiiiiiii",
"iiii13:iiiii.iiiii",
"iiii2q*yiii.u.iiii",
"iii<663&iiiu.uiiii",
"iii;06w#8iiiui..ii",
"ii>q50e4$ii...uuii",
"ii-wqqrr@,iuuu.iii",
"i<wqqerr4$iii.u.ii",
"i;eweettt#yiiu.uii",
"<7wweertt0%iiiuiii",
"=*@oO+++++Xiiiiiii"
};
