/* XPM */
static char * ac_variable_small_xpm[] = {
"18 12 34 1",
" 	c None",
".	c #6D7FA9",
"+	c #697DAB",
"@	c #6884C4",
"#	c #5B6989",
"$	c #6478AA",
"%	c #6784C5",
"&	c #5E74A6",
"*	c #656A77",
"=	c #647296",
"-	c #6F8AC7",
";	c #6C87C6",
">	c #7692CA",
",	c #536181",
"'	c #6C81B2",
")	c #718AC9",
"!	c #728DCA",
"~	c #7F98CF",
"{	c #647CB2",
"]	c #5C5F66",
"^	c #6879A2",
"/	c #6D87C1",
"(	c #7690CA",
"_	c #7795CB",
":	c #829AD0",
"<	c #839BD1",
"[	c #586584",
"}	c #57678B",
"|	c #51638D",
"1	c #4C5D84",
"2	c #4D5F83",
"3	c #515F85",
"4	c #526186",
"5	c #475475",
"                  ",
"                  ",
"                  ",
"        .         ",
"       +@#        ",
"       $%&*       ",
"      =-;>,       ",
"      ')!~{]      ",
"     ^/(_:<[      ",
"     }|12345      ",
"                  ",
"                  "};
