/* XPM */
static char *ac_variable[] = {
/* columns rows colors chars-per-pixel */
"18 12 36 1",
"  c black",
". c #38435F",
"X c #2F4169",
"o c #304067",
"O c #304068",
"+ c #344773",
"@ c #31467A",
"# c #474E5D",
"$ c #494D5B",
"% c #474E60",
"& c #3C5387",
"* c #3F578B",
"= c #3E60B8",
"- c #4662B2",
"; c #6F7481",
": c #677394",
"> c #7D7E81",
", c #727C95",
"< c #717F98",
"1 c #436ECF",
"2 c #4970D2",
"3 c #4D78D6",
"4 c #537DD7",
"5 c #537CD9",
"6 c #587FD7",
"7 c #7F8082",
"8 c #788B9D",
"9 c #5580DA",
"0 c #5C81DC",
"q c #6186DC",
"w c #638DDE",
"e c #6E91E0",
"r c #7193E2",
"t c #838385",
"y c gray100",
"u c None",
/* pixels */
"uuuuuuuuuuuuuuuuuu",
"uuuuuuuu8uuuuuuuuu",
"uuuuuuu<2;uuuuuuuu",
"uuuuuuu10&tuuuuuuu",
"uuuuuu,552%uuuuuuu",
"uuuuuu-95q@7uuuuuu",
"uuuuu:049w3#uuuuuu",
"uuuuu=q00ee+>uuuuu",
"uuuu,q00wee3#uuuuu",
"uuuu-wqwwrrr@tuuuu",
"uuu,6qqwwerr9$uuuu",
"uuu*&+XoOOOOO.uuuu"
};
