/* XPM */
static char * attr_element_xpm[] = {
"16 16 60 1",
" 	c None",
".	c #365B8E",
"+	c #FFFFFF",
"@	c #F9FAFB",
"#	c #F2F8FD",
"$	c #FCFDFD",
"%	c #F5F7F9",
"&	c #71B3EA",
"*	c #61AFE8",
"=	c #67B7EC",
"-	c #73B7EC",
";	c #F0F6FC",
">	c #70B1EA",
",	c #72B6EB",
"'	c #65A9E8",
")	c #6AB5EB",
"!	c #76BBEC",
"~	c #F0F5FC",
"{	c #B6D4F3",
"]	c #60ADE9",
"^	c #71B5EA",
"/	c #64A7E8",
"(	c #E8EFFA",
"_	c #E8F1FB",
":	c #66AEE9",
"<	c #5DA7E7",
"[	c #B4CDF1",
"}	c #FAFCFE",
"|	c #60ABE8",
"1	c #79B8EC",
"2	c #5AA6E6",
"3	c #D3E1F6",
"4	c #D4E3F7",
"5	c #75B2E9",
"6	c #5A9EE4",
"7	c #EFF3F8",
"8	c #B4CEF1",
"9	c #5AA2E5",
"0	c #6AAAE8",
"a	c #5F9CE4",
"b	c #E7EDFA",
"c	c #E8F0FA",
"d	c #62A2E5",
"e	c #579CE2",
"f	c #B1C7EF",
"g	c #EFF4FB",
"h	c #689CE3",
"i	c #65A3E5",
"j	c #5D93E1",
"k	c #61A0E5",
"l	c #68A8E7",
"m	c #EFF3FB",
"n	c #F1F5FC",
"o	c #6595E1",
"p	c #558FDF",
"q	c #599AE2",
"r	c #679AE3",
"s	c #EFF2F6",
"t	c #DDE3EB",
"u	c #E3E8EF",
"                ",
"                ",
"................",
".+++++++++++++@.",
".++++#+++++++$%.",
".+++#&*++=-#++%.",
".++;>,'++)!>~+@.",
".+{]^/(++_:^<[%.",
".}|123++++42567.",
".+890ab++cd0ef%.",
".++ghij++klhm+%.",
".+++nop++qrn+@s.",
".++++++++++++@s.",
".ttttuuuuuuuuuu.",
"................",
"                "};
