/* XPM */
static char * xml_attribute_xpm[] = {
"16 16 24 1",
" 	c None",
".	c #905F90",
"+	c #692769",
"@	c #7C437C",
"#	c #E9E0E9",
"$	c #8F5E8F",
"%	c #F5F0F5",
"&	c #FFFFFF",
"*	c #854F85",
"=	c #E7DCE7",
"-	c #875287",
";	c #EAE1EA",
">	c #8A578A",
",	c #F3EFF3",
"'	c #AE40AD",
")	c #F9F7F9",
"!	c #CCB6CC",
"~	c #6F306F",
"{	c #F8F5F8",
"]	c #D0BCD0",
"^	c #F7F4F7",
"/	c #CEB9CE",
"(	c #CBB4CB",
"_	c #E2D4E2",
"                ",
"                ",
"       .+       ",
"      @##+      ",
"     $%&&#+     ",
"    *=&&&&#+    ",
"   -;&&&&&&#+   ",
"  >,&''''''&#+  ",
" $;&&&&&&&&&)!+ ",
"  ~#&''''''{]+  ",
"   +#&&&&&^!+   ",
"    +#&&&)/+    ",
"     +#&{(+     ",
"      ~_(+      ",
"       ++       ",
"                "};
