<?xml version="1.0" encoding="UTF-8" standalone="no"?>
<!-- Created with Inkscape (http://www.inkscape.org/) -->

<svg
   xmlns:dc="http://purl.org/dc/elements/1.1/"
   xmlns:cc="http://creativecommons.org/ns#"
   xmlns:rdf="http://www.w3.org/1999/02/22-rdf-syntax-ns#"
   xmlns:svg="http://www.w3.org/2000/svg"
   xmlns="http://www.w3.org/2000/svg"
   version="1.1"
   width="16"
   height="16"
   viewBox="0 0 16 16"
   id="svg2">
  <metadata
     id="metadata13">
    <rdf:RDF>
      <cc:Work
         rdf:about="">
        <dc:format>image/svg+xml</dc:format>
        <dc:type
           rdf:resource="http://purl.org/dc/dcmitype/StillImage" />
        <dc:title></dc:title>
      </cc:Work>
    </rdf:RDF>
  </metadata>
  <defs
     id="defs11">
    <linearGradient
       id="linearGradient5254">
      <stop
         id="stop5256"
         style="stop-color:#000000;stop-opacity:1"
         offset="0" />
    </linearGradient>
  </defs>
  <g
     id="icomoon-ignore">
    <line
       stroke-width="1"
       x1="0"
       y1="0"
       x2="0"
       y2="0"
       stroke="#449FDB"
       id="line5"
       style="stroke:#449fdb;stroke-width:1" />
  </g>
  <path
     d="M 12,2 4.0002501,2 C 2.9,2 2,2.8999999 2,4.0002499 L 2,11.999751 C 2,13.10075 2.9,14 4.0002501,14 L 11.99975,14 C 13.1,14 14,13.10075 14,11.999751 L 14,4.0002499 C 14.00025,2.8999999 13.10025,2 12,2 z"
     id="path7"
     style="fill:#afaf50;fill-opacity:1" />
  <g
     transform="matrix(0.87074838,0,0,0.89982424,-1.1419177,2.2470395)"
     id="text4279"
     style="font-size:12px;font-style:normal;font-variant:normal;font-weight:normal;font-stretch:normal;line-height:125%;letter-spacing:0px;word-spacing:0px;fill:#ffffff;fill-opacity:1;stroke:none;font-family:Monospace;-inkscape-font-specification:Monospace">
    <path
       d="M 11.137592,9.7274113 C 10.211808,9.7274112 9.491106,9.4442083 8.9754829,8.8778019 8.459857,8.3074907 8.2020448,7.4910853 8.2020454,6.4285831 8.2020448,5.3504624 8.4618101,4.5203851 8.9813423,3.9383488 9.5047779,3.3524175 10.248918,3.0594491 11.213764,3.0594425 c 0.312496,6.6e-6 0.62109,0.03321 0.925781,0.099609 0.308589,0.062506 0.562495,0.1445376 0.761719,0.2460937 L 12.578999,4.2840519 C 12.036025,4.0809324 11.573135,3.97937 11.190327,3.9793644 10.541886,3.97937 10.063371,4.1844479 9.7547798,4.5945988 9.4461842,5.0008534 9.2918874,5.6082746 9.2918892,6.4168644 c -1.8e-6,0.7773462 0.154295,1.3730487 0.4628906,1.7871094 0.3085912,0.4101572 0.7656222,0.6152351 1.3710942,0.6152343 0.566402,8e-7 1.123042,-0.124999 1.669921,-0.375 l 0,0.9375 c -0.445317,0.2304688 -0.998051,0.3457031 -1.658203,0.3457032"
       id="path4284"
       style="fill:#ffffff;font-family:Ubuntu Sans Mono;-inkscape-font-specification:Ubuntu Sans Mono" />
  </g>
</svg>
