<?xml version="1.0" encoding="UTF-8" standalone="no"?>
<!-- Created with Inkscape (http://www.inkscape.org/) -->

<svg
   xmlns:dc="http://purl.org/dc/elements/1.1/"
   xmlns:cc="http://creativecommons.org/ns#"
   xmlns:rdf="http://www.w3.org/1999/02/22-rdf-syntax-ns#"
   xmlns:svg="http://www.w3.org/2000/svg"
   xmlns="http://www.w3.org/2000/svg"
   xmlns:sodipodi="http://sodipodi.sourceforge.net/DTD/sodipodi-0.dtd"
   xmlns:inkscape="http://www.inkscape.org/namespaces/inkscape"
   version="1.1"
   width="14"
   height="14"
   viewBox="0 0 14 14"
   id="svg2"
   inkscape:version="0.91 r13725"
   sodipodi:docname="cb_constant.svg">
  <sodipodi:namedview
     pagecolor="#ffffff"
     bordercolor="#666666"
     borderopacity="1"
     objecttolerance="10"
     gridtolerance="10"
     guidetolerance="10"
     inkscape:pageopacity="0"
     inkscape:pageshadow="2"
     inkscape:window-width="1437"
     inkscape:window-height="737"
     id="namedview12"
     showgrid="true"
     inkscape:zoom="14.75"
     inkscape:cx="8"
     inkscape:cy="7.4576271"
     inkscape:window-x="0"
     inkscape:window-y="25"
     inkscape:window-maximized="0"
     inkscape:current-layer="svg2">
    <inkscape:grid
       type="xygrid"
       id="grid4140" />
  </sodipodi:namedview>
  <metadata
     id="metadata13">
    <rdf:RDF>
      <cc:Work
         rdf:about="">
        <dc:format>image/svg+xml</dc:format>
        <dc:type
           rdf:resource="http://purl.org/dc/dcmitype/StillImage" />
        <dc:title></dc:title>
      </cc:Work>
    </rdf:RDF>
  </metadata>
  <defs
     id="defs11">
    <linearGradient
       id="linearGradient5254">
      <stop
         id="stop5256"
         style="stop-color:#000000;stop-opacity:1"
         offset="0" />
    </linearGradient>
  </defs>
  <g
     id="icomoon-ignore"
     transform="translate(-1.0169492,-1.0169492)">
    <line
       x1="0"
       y1="0"
       x2="0"
       y2="0"
       id="line5"
       style="stroke:#449fdb;stroke-width:1" />
  </g>
  <path
     d="m 10.983045,0.98305099 -7.9997439,0 c -1.1002501,0 -2.00025011,0.89999991 -2.00025011,2.00024991 l 0,7.9994951 c 0,1.100999 0.90000001,2.000249 2.00025011,2.000249 l 7.9994939,0 c 1.10025,0 2.00025,-0.89925 2.00025,-2.000249 l 0,-7.9994951 c 2.5e-4,-1.10025 -0.89975,-2.00024991 -2,-2.00024991 z"
     id="path7"
     style="fill:#ffc107;fill-opacity:1"
     inkscape:connector-curvature="0" />
  <g
     transform="matrix(0.87074838,0,0,0.89982424,-2.1588667,1.2300905)"
     id="text4279"
     style="font-style:normal;font-variant:normal;font-weight:normal;font-stretch:normal;font-size:12px;line-height:125%;font-family:Monospace;-inkscape-font-specification:Monospace;letter-spacing:0px;word-spacing:0px;fill:#ffffff;fill-opacity:1;stroke:none">
    <path
       d="M 11.137592,9.7274113 C 10.211808,9.7274112 9.491106,9.4442083 8.9754829,8.8778019 8.459857,8.3074907 8.2020448,7.4910853 8.2020454,6.4285831 8.2020448,5.3504624 8.4618101,4.5203851 8.9813423,3.9383488 9.5047779,3.3524175 10.248918,3.0594491 11.213764,3.0594425 c 0.312496,6.6e-6 0.62109,0.03321 0.925781,0.099609 0.308589,0.062506 0.562495,0.1445376 0.761719,0.2460937 L 12.578999,4.2840519 C 12.036025,4.0809324 11.573135,3.97937 11.190327,3.9793644 10.541886,3.97937 10.063371,4.1844479 9.7547798,4.5945988 9.4461842,5.0008534 9.2918874,5.6082746 9.2918892,6.4168644 c -1.8e-6,0.7773462 0.154295,1.3730487 0.4628906,1.7871094 0.3085912,0.4101572 0.7656222,0.6152351 1.3710942,0.6152343 0.566402,8e-7 1.123042,-0.124999 1.669921,-0.375 l 0,0.9375 c -0.445317,0.2304688 -0.998051,0.3457031 -1.658203,0.3457032"
       id="path4284"
       style="font-family:'Ubuntu Sans Mono';-inkscape-font-specification:'Ubuntu Sans Mono';fill:#ffffff"
       inkscape:connector-curvature="0" />
  </g>
</svg>
