<?xml version="1.0" encoding="UTF-8" standalone="no"?>
<!-- Generated by IcoMoon.io -->

<svg
   xmlns:osb="http://www.openswatchbook.org/uri/2009/osb"
   xmlns:dc="http://purl.org/dc/elements/1.1/"
   xmlns:cc="http://creativecommons.org/ns#"
   xmlns:rdf="http://www.w3.org/1999/02/22-rdf-syntax-ns#"
   xmlns:svg="http://www.w3.org/2000/svg"
   xmlns="http://www.w3.org/2000/svg"
   xmlns:sodipodi="http://sodipodi.sourceforge.net/DTD/sodipodi-0.dtd"
   xmlns:inkscape="http://www.inkscape.org/namespaces/inkscape"
   version="1.1"
   width="16"
   height="16"
   viewBox="0 0 16 16"
   id="svg2"
   inkscape:version="0.48.5 r10040"
   sodipodi:docname="cb_constant.svg">
  <sodipodi:namedview
     pagecolor="#ffffff"
     bordercolor="#666666"
     borderopacity="1"
     objecttolerance="10"
     gridtolerance="10"
     guidetolerance="10"
     inkscape:pageopacity="0"
     inkscape:pageshadow="2"
     inkscape:window-width="959"
     inkscape:window-height="1021"
     id="namedview9"
     showgrid="true"
     inkscape:zoom="50.8125"
     inkscape:cx="8"
     inkscape:cy="8"
     inkscape:window-x="0"
     inkscape:window-y="29"
     inkscape:window-maximized="0"
     inkscape:current-layer="svg2">
    <inkscape:grid
       type="xygrid"
       id="grid2988" />
  </sodipodi:namedview>
  <metadata
     id="metadata13">
    <rdf:RDF>
      <cc:Work
         rdf:about="">
        <dc:format>image/svg+xml</dc:format>
        <dc:type
           rdf:resource="http://purl.org/dc/dcmitype/StillImage" />
        <dc:title />
      </cc:Work>
    </rdf:RDF>
  </metadata>
  <defs
     id="defs11">
    <linearGradient
       id="linearGradient5254"
       osb:paint="solid">
      <stop
         style="stop-color:#000000;stop-opacity:1;"
         offset="0"
         id="stop5256" />
    </linearGradient>
  </defs>
  <g
     id="icomoon-ignore">
    <line
       stroke-width="1"
       x1=""
       y1=""
       x2=""
       y2=""
       stroke="#449FDB"
       opacity=""
       id="line5" />
  </g>
  <path
     d="M12.0 2.0L4.00025009525 2.0C2.90000000493 2.0 2.0 2.89999993856 2.0 4.00024994037L2.0 11.9997505512C2.0 13.1007504232 2.90000000493 14.0 4.00025009525 14.0L11.9997500033 14.0C13.1000001923 14.0 14.0 13.1007504232 14.0 11.9997505512L14.0 4.00024994037C14.0002499967 2.89999993856 13.100250189 2.0 12.0 2.0Z"
     id="path7"
     inkscape:connector-curvature="0"
     style="fill:#afaf50;fill-opacity:1"
     sodipodi:nodetypes="sssssssss"
     transform="matrix(1.000000,0.000000,0.000000,1.000000,0.000000,0.000000)" />
  <g
     transform="matrix(0.87074838,0,0,0.89982424,-1.1419177,2.2470395)"
     id="text4279"
     style="font-size:12px;font-style:normal;font-variant:normal;font-weight:normal;font-stretch:normal;line-height:125%;letter-spacing:0px;word-spacing:0px;fill:#ffffff;fill-opacity:1;stroke:none;font-family:Monospace;-inkscape-font-specification:Monospace">
    <path
       inkscape:connector-curvature="0"
       id="path4284"
       style="fill:#ffffff;font-family:Ubuntu Sans Mono;-inkscape-font-specification:Ubuntu Sans Mono"
       d="M 11.137592,9.7274113 C 10.211808,9.7274112 9.491106,9.4442083 8.9754829,8.8778019 8.459857,8.3074907 8.2020448,7.4910853 8.2020454,6.4285831 8.2020448,5.3504624 8.4618101,4.5203851 8.9813423,3.9383488 9.5047779,3.3524175 10.248918,3.0594491 11.213764,3.0594425 c 0.312496,6.6e-6 0.62109,0.03321 0.925781,0.099609 0.308589,0.062506 0.562495,0.1445376 0.761719,0.2460937 L 12.578999,4.2840519 C 12.036025,4.0809324 11.573135,3.97937 11.190327,3.9793644 10.541886,3.97937 10.063371,4.1844479 9.7547798,4.5945988 9.4461842,5.0008534 9.2918874,5.6082746 9.2918892,6.4168644 c -1.8e-6,0.7773462 0.154295,1.3730487 0.4628906,1.7871094 0.3085912,0.4101572 0.7656222,0.6152351 1.3710942,0.6152343 0.566402,8e-7 1.123042,-0.124999 1.669921,-0.375 l 0,0.9375 c -0.445317,0.2304688 -0.998051,0.3457031 -1.658203,0.3457032" />
  </g>
</svg>
