<?xml version="1.0" encoding="UTF-8" standalone="no"?>
<!-- Created with Inkscape (http://www.inkscape.org/) -->

<svg
   xmlns:dc="http://purl.org/dc/elements/1.1/"
   xmlns:cc="http://creativecommons.org/ns#"
   xmlns:rdf="http://www.w3.org/1999/02/22-rdf-syntax-ns#"
   xmlns:svg="http://www.w3.org/2000/svg"
   xmlns="http://www.w3.org/2000/svg"
   version="1.1"
   width="16"
   height="16"
   viewBox="0 0 16 16"
   id="svg2">
  <metadata
     id="metadata13">
    <rdf:RDF>
      <cc:Work
         rdf:about="">
        <dc:format>image/svg+xml</dc:format>
        <dc:type
           rdf:resource="http://purl.org/dc/dcmitype/StillImage" />
        <dc:title></dc:title>
      </cc:Work>
    </rdf:RDF>
  </metadata>
  <defs
     id="defs11">
    <linearGradient
       id="linearGradient5254">
      <stop
         id="stop5256"
         style="stop-color:#000000;stop-opacity:1"
         offset="0" />
    </linearGradient>
  </defs>
  <g
     id="icomoon-ignore">
    <line
       id="line5"
       stroke="#449FDB"
       y2="0"
       x2="0"
       y1="0"
       x1="0"
       stroke-width="1"
       style="stroke:#449fdb;stroke-width:1" />
  </g>
  <path
     d="M 12,2 4.00025,2 C 2.9,2 2,2.9 2,4.00025 l 0,7.9995 C 2,13.10075 2.9,14 4.00025,14 l 7.9995,0 C 13.1,14 14,13.10075 14,11.99975 l 0,-7.9995 C 14.00025,2.9 13.10025,2 12,2 z"
     id="path7"
     style="fill:#8d7747;fill-opacity:0.98823529" />
  <g
     transform="matrix(1.0578229,0,0,0.99477157,0.03282003,0.21410175)"
     id="text4555"
     style="font-size:9.29763985px;font-style:normal;font-variant:normal;font-weight:normal;font-stretch:normal;line-height:125%;letter-spacing:0px;word-spacing:0px;fill:#ffffff;fill-opacity:1;stroke:none;font-family:Ubuntu Mono;-inkscape-font-specification:Ubuntu Mono">
    <path
       d="M 7.9863805,3.8057966 C 8.3071943,3.8058037 8.4676026,3.9783183 8.467606,4.323341 8.4676026,4.4988888 8.4191775,4.6305447 8.3223303,4.7183091 8.2285034,4.8030593 8.1165202,4.8454313 7.9863805,4.8454253 7.6625343,4.8454313 7.5006127,4.6714034 7.5006151,4.323341 7.5006127,3.9783183 7.6625343,3.8058037 7.9863805,3.8057966 M 7.5687131,6.5115551 6.5863388,6.3747116 l 0,-0.5584032 1.8906756,0 0,4.3355696 0.9453378,0.132306 0,0.558404 -2.8360134,0 0,-0.558404 0.9823743,-0.0908 0,-3.6818289"
       id="path4605"
       style="fill:#ffffff;font-family:Droid Sans Mono;-inkscape-font-specification:Droid Sans Mono" />
  </g>
</svg>
