<?xml version="1.0" encoding="UTF-8" standalone="no"?>
<!-- Created with Inkscape (http://www.inkscape.org/) -->
<svg id="svg2" xmlns:rdf="http://www.w3.org/1999/02/22-rdf-syntax-ns#" xmlns="http://www.w3.org/2000/svg" height="16" width="16" version="1.1" xmlns:cc="http://creativecommons.org/ns#" xmlns:dc="http://purl.org/dc/elements/1.1/" viewBox="0 0 16 16">
 <g id="icomoon-ignore">
  <line id="line5" style="stroke:#449fdb" stroke="#449FDB" x2="0"/>
 </g>
 <path id="path7" style="fill:#3465a4;fill-opacity:.98824" d="m12 2h-7.9998c-1.1002 0-2.0002 0.9-2.0002 2.0002v7.9995c0 1.101 0.9 2 2.0002 2h7.9995c1.1 0 2-0.899 2-2v-7.9995c0-1.1005-0.9-2.0005-2-2.0005z"/>
 <g id="text4555" style="fill:#fff" transform="matrix(1.0578 0 0 .99477 .032820 .21410)">
  <path id="path4605" style="fill:#fff" d="m7.9864 3.8058c0.3208 0 0.4812 0.1725 0.4812 0.5175 0 0.1756-0.0484 0.3072-0.1453 0.395-0.0938 0.0848-0.2058 0.1271-0.3359 0.1271-0.3239 0-0.4858-0.174-0.4858-0.5221 0-0.345 0.1619-0.5175 0.4858-0.5175m-0.4177 2.7058-0.9824-0.1369v-0.5584h1.8907v4.3356l0.94534 0.13231v0.5584h-2.836v-0.5584l0.98237-0.0908v-3.6818"/>
 </g>
</svg>
