<?xml version="1.0" encoding="UTF-8" standalone="no"?>
<!-- Created with Inkscape (http://www.inkscape.org/) -->

<svg
   xmlns:dc="http://purl.org/dc/elements/1.1/"
   xmlns:cc="http://creativecommons.org/ns#"
   xmlns:rdf="http://www.w3.org/1999/02/22-rdf-syntax-ns#"
   xmlns:svg="http://www.w3.org/2000/svg"
   xmlns="http://www.w3.org/2000/svg"
   xmlns:sodipodi="http://sodipodi.sourceforge.net/DTD/sodipodi-0.dtd"
   xmlns:inkscape="http://www.inkscape.org/namespaces/inkscape"
   id="svg2"
   height="14"
   width="14"
   version="1.1"
   viewBox="0 0 14 14"
   inkscape:version="0.91 r13725"
   sodipodi:docname="cb_id.svg">
  <metadata
     id="metadata12">
    <rdf:RDF>
      <cc:Work
         rdf:about="">
        <dc:format>image/svg+xml</dc:format>
        <dc:type
           rdf:resource="http://purl.org/dc/dcmitype/StillImage" />
      </cc:Work>
    </rdf:RDF>
  </metadata>
  <defs
     id="defs10" />
  <sodipodi:namedview
     pagecolor="#ffffff"
     bordercolor="#666666"
     borderopacity="1"
     objecttolerance="10"
     gridtolerance="10"
     guidetolerance="10"
     inkscape:pageopacity="0"
     inkscape:pageshadow="2"
     inkscape:window-width="1451"
     inkscape:window-height="790"
     id="namedview8"
     showgrid="true"
     inkscape:zoom="14.75"
     inkscape:cx="8"
     inkscape:cy="7.4576271"
     inkscape:window-x="0"
     inkscape:window-y="25"
     inkscape:window-maximized="0"
     inkscape:current-layer="svg2">
    <inkscape:grid
       type="xygrid"
       id="grid4140" />
  </sodipodi:namedview>
  <g
     id="icomoon-ignore"
     transform="translate(-1.0169492,-1.0169492)">
    <line
       id="line5"
       style="stroke:#449fdb"
       x2="0"
       x1="0"
       y1="0"
       y2="0" />
  </g>
  <path
     id="path7"
     style="fill:#2196f3;fill-opacity:0.98823529"
     d="m 10.983045,0.98305099 -7.999794,0 c -1.1002,0 -2.00020001,0.90000001 -2.00020001,2.00020001 l 0,7.999494 c 0,1.101 0.90000001,2 2.00020001,2 l 7.999494,0 c 1.1,0 2,-0.899 2,-2 l 0,-7.999494 c 0,-1.1005 -0.9,-2.00050001 -2,-2.00050001 z"
     inkscape:connector-curvature="0" />
  <g
     id="text4555"
     style="fill:#ffffff"
     transform="matrix(1.0578,0,0,0.99477,-0.98412915,-0.80284915)">
    <path
       id="path4605"
       style="fill:#ffffff"
       d="m 7.9864,3.8058 c 0.3208,0 0.4812,0.1725 0.4812,0.5175 0,0.1756 -0.0484,0.3072 -0.1453,0.395 -0.0938,0.0848 -0.2058,0.1271 -0.3359,0.1271 -0.3239,0 -0.4858,-0.174 -0.4858,-0.5221 0,-0.345 0.1619,-0.5175 0.4858,-0.5175 M 7.5687,6.5116 6.5863,6.3747 l 0,-0.5584 1.8907,0 0,4.3356 0.94534,0.13231 0,0.5584 -2.836,0 0,-0.5584 0.98237,-0.0908 0,-3.6818"
       inkscape:connector-curvature="0" />
  </g>
</svg>
