<?xml version="1.0" encoding="UTF-8" standalone="no"?>
<!-- Generated by IcoMoon.io -->

<svg
   xmlns:dc="http://purl.org/dc/elements/1.1/"
   xmlns:cc="http://creativecommons.org/ns#"
   xmlns:rdf="http://www.w3.org/1999/02/22-rdf-syntax-ns#"
   xmlns:svg="http://www.w3.org/2000/svg"
   xmlns="http://www.w3.org/2000/svg"
   xmlns:sodipodi="http://sodipodi.sourceforge.net/DTD/sodipodi-0.dtd"
   xmlns:inkscape="http://www.inkscape.org/namespaces/inkscape"
   version="1.1"
   width="16"
   height="16"
   viewBox="0 0 16 16"
   id="svg2"
   inkscape:version="0.48.5 r10040"
   sodipodi:docname="cb_import.svg">
  <metadata
     id="metadata13">
    <rdf:RDF>
      <cc:Work
         rdf:about="">
        <dc:format>image/svg+xml</dc:format>
        <dc:type
           rdf:resource="http://purl.org/dc/dcmitype/StillImage" />
        <dc:title />
      </cc:Work>
    </rdf:RDF>
  </metadata>
  <defs
     id="defs11" />
  <sodipodi:namedview
     pagecolor="#ffffff"
     bordercolor="#666666"
     borderopacity="1"
     objecttolerance="10"
     gridtolerance="10"
     guidetolerance="10"
     inkscape:pageopacity="0"
     inkscape:pageshadow="2"
     inkscape:window-width="1116"
     inkscape:window-height="769"
     id="namedview9"
     showgrid="false"
     inkscape:zoom="14.75"
     inkscape:cx="2.6309344"
     inkscape:cy="8"
     inkscape:window-x="332"
     inkscape:window-y="189"
     inkscape:window-maximized="0"
     inkscape:current-layer="svg2" />
  <g
     id="icomoon-ignore">
    <line
       stroke-width="1"
       x1=""
       y1=""
       x2=""
       y2=""
       stroke="#449FDB"
       opacity=""
       id="line5" />
  </g>
  <path
     d="M 10.711864,0 C 7.7914915,0 5.4237288,2.3677627 5.4237288,5.2881356 c 0,2.9203729 2.3677627,5.2881354 5.2881352,5.2881354 C 13.632237,10.576271 16,8.2085085 16,5.2881356 16,2.3677627 13.632237,0 10.711864,0 z"
     id="path7"
     inkscape:connector-curvature="0"
     style="fill:#3a783a;fill-opacity:1"
     sodipodi:nodetypes="sssss" />
  <g
     id="g2999"
     transform="matrix(0.67128916,0,0,0.67128916,0.08564456,3.1364921)">
    <g
       id="icomoon-ignore-6">
      <line
         id="line5-2"
         opacity=""
         y2="0"
         x2="0"
         y1="0"
         x1="0"
         style="stroke:#449fdb;stroke-width:1" />
    </g>
    <path
       sodipodi:nodetypes="ccccccccc"
       style="fill:#be4141;fill-opacity:1"
       inkscape:connector-curvature="0"
       id="path7-9"
       d="m 11.5,0 -7,0 -4.5,4.5 0,7 4.5,4.5 7,0 4.5,-4.5 0,-7 z" />
  </g>
  <g
     id="g3876"
     transform="matrix(0.65898028,0,0,0.65898028,5.3671262,5.2998291)">
    <g
       id="icomoon-ignore-5">
      <line
         id="line5-70"
         opacity=""
         y2="0"
         x2="0"
         y1="0"
         x1="0"
         style="stroke:#449fdb;stroke-width:1" />
    </g>
    <path
       sodipodi:nodetypes="ccsccsscc"
       style="fill:#52adad;fill-opacity:1"
       inkscape:connector-curvature="0"
       id="path7-0"
       d="M 15.781,14.309 8.952,0.698 C 8.69,0.233 8.346,0 8.001,0 7.656,0 7.311,0.233 7.05,0.698 L 0.221,14.309 C -0.302,15.239 0.143,16 1.21,16 l 13.583,0 c 1.067,0 1.512,-0.761 0.989,-1.691 z" />
  </g>
</svg>
