<?xml version="1.0" encoding="UTF-8" standalone="no"?>
<!-- Created with Inkscape (http://www.inkscape.org/) -->

<svg
   xmlns:dc="http://purl.org/dc/elements/1.1/"
   xmlns:cc="http://creativecommons.org/ns#"
   xmlns:rdf="http://www.w3.org/1999/02/22-rdf-syntax-ns#"
   xmlns:svg="http://www.w3.org/2000/svg"
   xmlns="http://www.w3.org/2000/svg"
   version="1.1"
   width="16"
   height="16"
   viewBox="0 0 16 16"
   id="svg2">
  <metadata
     id="metadata13">
    <rdf:RDF>
      <cc:Work
         rdf:about="">
        <dc:format>image/svg+xml</dc:format>
        <dc:type
           rdf:resource="http://purl.org/dc/dcmitype/StillImage" />
        <dc:title></dc:title>
      </cc:Work>
    </rdf:RDF>
  </metadata>
  <defs
     id="defs11">
    <linearGradient
       id="linearGradient5254">
      <stop
         id="stop5256"
         style="stop-color:#000000;stop-opacity:1"
         offset="0" />
    </linearGradient>
  </defs>
  <g
     id="icomoon-ignore">
    <line
       id="line5"
       stroke="#449FDB"
       y2="0"
       x2="0"
       y1="0"
       x1="0"
       stroke-width="1"
       style="stroke:#449fdb;stroke-width:1" />
  </g>
  <path
     d="M 12,2 4.00025,2 C 2.9,2 2,2.9 2,4.00025 l 0,7.9995 C 2,13.10075 2.9,14 4.00025,14 l 7.9995,0 C 13.1,14 14,13.10075 14,11.99975 l 0,-7.9995 C 14.00025,2.9 13.10025,2 12,2 z"
     id="path7"
     style="fill:#757a67;fill-opacity:1" />
  <g
     transform="matrix(0.96555969,0,0,0.90319612,0.27552274,0.77443086)"
     id="text4407"
     style="font-size:14.79526901px;font-style:normal;font-variant:normal;font-weight:normal;font-stretch:normal;line-height:125%;letter-spacing:0px;word-spacing:0px;fill:#ffffff;fill-opacity:1;stroke:none;font-family:Monospace;-inkscape-font-specification:Monospace">
    <path
       d="m 4.8929935,7.2528393 2.3228572,0 0,-2.5743768 1.5682986,0 0,2.5743768 2.3228567,0 0,1.4943222 -2.3228567,0 0,2.5743765 -1.5682986,0 0,-2.5743765 -2.3228572,0 0,-1.4943222"
       id="path2989"
       style="font-weight:bold;fill:#ffffff;font-family:Ubuntu Mono;-inkscape-font-specification:Ubuntu Mono Bold" />
  </g>
</svg>
