<?xml version="1.0" encoding="UTF-8" standalone="no"?>
<!-- Generated by IcoMoon.io -->

<svg
   xmlns:osb="http://www.openswatchbook.org/uri/2009/osb"
   xmlns:dc="http://purl.org/dc/elements/1.1/"
   xmlns:cc="http://creativecommons.org/ns#"
   xmlns:rdf="http://www.w3.org/1999/02/22-rdf-syntax-ns#"
   xmlns:svg="http://www.w3.org/2000/svg"
   xmlns="http://www.w3.org/2000/svg"
   xmlns:sodipodi="http://sodipodi.sourceforge.net/DTD/sodipodi-0.dtd"
   xmlns:inkscape="http://www.inkscape.org/namespaces/inkscape"
   version="1.1"
   width="16"
   height="16"
   viewBox="0 0 16 16"
   id="svg2"
   inkscape:version="0.48.5 r10040"
   sodipodi:docname="cb_argument.svg">
  <metadata
     id="metadata13">
    <rdf:RDF>
      <cc:Work
         rdf:about="">
        <dc:format>image/svg+xml</dc:format>
        <dc:type
           rdf:resource="http://purl.org/dc/dcmitype/StillImage" />
        <dc:title></dc:title>
      </cc:Work>
    </rdf:RDF>
  </metadata>
  <defs
     id="defs11">
    <linearGradient
       id="linearGradient5254"
       osb:paint="solid">
      <stop
         style="stop-color:#000000;stop-opacity:1;"
         offset="0"
         id="stop5256" />
    </linearGradient>
  </defs>
  <sodipodi:namedview
     pagecolor="#ffffff"
     bordercolor="#666666"
     borderopacity="1"
     objecttolerance="10"
     gridtolerance="10"
     guidetolerance="10"
     inkscape:pageopacity="0"
     inkscape:pageshadow="2"
     inkscape:window-width="959"
     inkscape:window-height="1022"
     id="namedview9"
     showgrid="false"
     inkscape:zoom="28.9375"
     inkscape:cx="8"
     inkscape:cy="8"
     inkscape:window-x="0"
     inkscape:window-y="29"
     inkscape:window-maximized="0"
     inkscape:current-layer="svg2" />
  <g
     id="icomoon-ignore">
    <line
       stroke-width="1"
       x1=""
       y1=""
       x2=""
       y2=""
       stroke="#449FDB"
       opacity=""
       id="line5" />
  </g>
  <path
     d="m 12.2664,1.6 -8.5328,0 C 2.56,1.6 1.6,2.56 1.6,3.7336 l 0,8.5328 C 1.6,13.4408 2.56,14.4 3.7336,14.4 l 8.5328,0 C 13.44,14.4 14.4,13.4408 14.4,12.2664 l 0,-8.5328 C 14.4,2.56 13.44,1.6 12.2664,1.6 z"
     id="path7"
     inkscape:connector-curvature="0"
     style="fill:#6a7095;fill-opacity:1"
     sodipodi:nodetypes="sssssssss" />
  <g
     style="font-size:12px;font-style:normal;font-variant:normal;font-weight:normal;font-stretch:normal;line-height:125%;letter-spacing:0px;word-spacing:0px;fill:#ffffff;fill-opacity:1;stroke:none;font-family:Ubuntu Mono;-inkscape-font-specification:Ubuntu Mono"
     id="text4852">
    <path
       d="m 7.8379999,6.0139998 2.3520001,0 0,0.828 -2.3520001,0 0,2.592 c -2.9e-6,0.2800018 0.019997,0.5080016 0.06,0.6840002 0.039997,0.176001 0.103997,0.320001 0.192,0.432 0.095997,0.104001 0.2159966,0.176001 0.36,0.216 0.1439964,0.04 0.3199962,0.06 0.528,0.06 0.2879957,10e-7 0.5199955,-0.024 0.696,-0.072 0.1759951,-0.048 0.3439951,-0.111999 0.5040001,-0.192 l 0.144,0.84 c -0.112005,0.048 -0.292005,0.112 -0.5400001,0.192 -0.2400046,0.08 -0.5400043,0.12 -0.9,0.12 -0.4160035,0 -0.7560032,-0.048 -1.02,-0.144 -0.2640026,-0.096 -0.4720024,-0.24 -0.624,-0.432 -0.1440021,-0.192 -0.244002,-0.427999 -0.3,-0.708 -0.056002,-0.287999 -0.084002,-0.6199984 -0.084,-0.9960002 l 0,-2.592 -1.176,0 0,-0.828 1.176,0 0,-1.56 0.984,-0.168 0,1.728"
       style="fill:#ffffff"
       id="path4857" />
  </g>
</svg>
