<?xml version="1.0" encoding="UTF-8" standalone="no"?>
<!-- Created with Inkscape (http://www.inkscape.org/) -->

<svg
   xmlns:dc="http://purl.org/dc/elements/1.1/"
   xmlns:cc="http://creativecommons.org/ns#"
   xmlns:rdf="http://www.w3.org/1999/02/22-rdf-syntax-ns#"
   xmlns:svg="http://www.w3.org/2000/svg"
   xmlns="http://www.w3.org/2000/svg"
   version="1.1"
   width="16"
   height="16"
   viewBox="0 0 16 16"
   id="svg2">
  <metadata
     id="metadata13">
    <rdf:RDF>
      <cc:Work
         rdf:about="">
        <dc:format>image/svg+xml</dc:format>
        <dc:type
           rdf:resource="http://purl.org/dc/dcmitype/StillImage" />
        <dc:title></dc:title>
      </cc:Work>
    </rdf:RDF>
  </metadata>
  <defs
     id="defs11">
    <linearGradient
       id="linearGradient5254">
      <stop
         id="stop5256"
         style="stop-color:#000000;stop-opacity:1"
         offset="0" />
    </linearGradient>
  </defs>
  <g
     id="icomoon-ignore">
    <line
       id="line5"
       y2="0"
       x2="0"
       y1="0"
       x1="0" />
  </g>
  <path
     d="M 12,2 4.00025,2 C 2.9,2 2,2.9 2,4.00025 l 0,7.9995 C 2,13.10075 2.9,14 4.00025,14 l 7.9995,0 C 13.1,14 14,13.10075 14,11.99975 l 0,-7.9995 C 14.00025,2.9 13.10025,2 12,2 z"
     id="path7"
     style="fill:#6a7095;fill-opacity:1" />
  <g
     transform="matrix(0.8865248,0,0,0.92174629,0.96631232,0.3353954)"
     id="text4852"
     style="font-size:12px;font-style:normal;font-variant:normal;font-weight:normal;font-stretch:normal;line-height:125%;letter-spacing:0px;word-spacing:0px;fill:#ffffff;fill-opacity:1;stroke:none;font-family:Ubuntu Mono;-inkscape-font-specification:Ubuntu Mono">
    <path
       d="m 7.9339999,6.1455139 2.2560001,0 0,0.828 -2.2560001,0 0,2.3964329 c 0,0.2800018 -0.040003,0.5080016 0,0.6840002 0.039997,0.176001 0.0014,0.240054 0.089402,0.352053 0.095997,0.104001 0.2159966,0.176001 0.36,0.216 0.1439964,0.04 0.3199962,0.06 0.528,0.06 0.2879957,10e-7 0.5199955,-0.024 0.696,-0.072 0.1759951,-0.048 0.3439951,-0.111999 0.5040001,-0.192 l 0.144,0.84 c -0.112005,0.048 -0.292005,0.112 -0.5400001,0.192 -0.2400046,0.08 -0.5400043,0.12 -0.9,0.12 -0.4160035,0 -0.7560032,-0.048 -1.02,-0.144 -0.2640026,-0.096 -0.4720024,-0.24 -0.624,-0.432 -0.1440021,-0.192 -0.244002,-0.427999 -0.3,-0.708 C 6.8154001,9.998001 6.798666,9.7885844 6.8059999,9.4126488 l 0,-2.4391349 -1.128,0 0,-0.828 1.128,0 0,-1.7128651 1.128,-0.210702 0,1.9235671"
       id="path4857"
       style="fill:#ffffff" />
  </g>
</svg>
