<?xml version="1.0" encoding="UTF-8" standalone="no"?>
<!-- Generated by IcoMoon.io -->

<svg
   xmlns:osb="http://www.openswatchbook.org/uri/2009/osb"
   xmlns:dc="http://purl.org/dc/elements/1.1/"
   xmlns:cc="http://creativecommons.org/ns#"
   xmlns:rdf="http://www.w3.org/1999/02/22-rdf-syntax-ns#"
   xmlns:svg="http://www.w3.org/2000/svg"
   xmlns="http://www.w3.org/2000/svg"
   xmlns:sodipodi="http://sodipodi.sourceforge.net/DTD/sodipodi-0.dtd"
   xmlns:inkscape="http://www.inkscape.org/namespaces/inkscape"
   version="1.1"
   width="16"
   height="16"
   viewBox="0 0 16 16"
   id="svg2"
   inkscape:version="0.48.5 r10040"
   sodipodi:docname="cb_variable_hash.svg">
  <metadata
     id="metadata13">
    <rdf:RDF>
      <cc:Work
         rdf:about="">
        <dc:format>image/svg+xml</dc:format>
        <dc:type
           rdf:resource="http://purl.org/dc/dcmitype/StillImage" />
        <dc:title></dc:title>
      </cc:Work>
    </rdf:RDF>
  </metadata>
  <defs
     id="defs11">
    <linearGradient
       id="linearGradient5254"
       osb:paint="solid">
      <stop
         style="stop-color:#000000;stop-opacity:1;"
         offset="0"
         id="stop5256" />
    </linearGradient>
  </defs>
  <sodipodi:namedview
     pagecolor="#ffffff"
     bordercolor="#666666"
     borderopacity="1"
     objecttolerance="10"
     gridtolerance="10"
     guidetolerance="10"
     inkscape:pageopacity="0"
     inkscape:pageshadow="2"
     inkscape:window-width="959"
     inkscape:window-height="1022"
     id="namedview9"
     showgrid="false"
     inkscape:zoom="28.9375"
     inkscape:cx="8"
     inkscape:cy="8"
     inkscape:window-x="0"
     inkscape:window-y="29"
     inkscape:window-maximized="0"
     inkscape:current-layer="svg2" />
  <g
     id="icomoon-ignore">
    <line
       stroke-width="1"
       x1=""
       y1=""
       x2=""
       y2=""
       stroke="#449FDB"
       opacity=""
       id="line5" />
  </g>
  <path
     d="m 12.2664,1.6 -8.5328,0 C 2.56,1.6 1.6,2.56 1.6,3.7336 l 0,8.5328 C 1.6,13.4408 2.56,14.4 3.7336,14.4 l 8.5328,0 C 13.44,14.4 14.4,13.4408 14.4,12.2664 l 0,-8.5328 C 14.4,2.56 13.44,1.6 12.2664,1.6 z"
     id="path7"
     inkscape:connector-curvature="0"
     style="fill:#484897;fill-opacity:1"
     sodipodi:nodetypes="sssssssss" />
  <g
     style="font-size:12px;font-style:normal;font-variant:normal;font-weight:normal;font-stretch:normal;line-height:125%;letter-spacing:0px;word-spacing:0px;fill:#ffffff;fill-opacity:1;stroke:none;font-family:Ubuntu Mono;-inkscape-font-specification:Ubuntu Mono"
     id="text4885"
     transform="translate(-2.0151188,1.7645613)">
    <path
       d="m 12.655119,3.4514387 c -0.144006,0.5200051 -0.308006,1.0320046 -0.492,1.536 -0.184005,0.4960036 -0.372005,0.9840031 -0.564,1.464 -0.192005,0.4720021 -0.388005,0.9240017 -0.588,1.356 -0.200004,0.4320008 -0.392004,0.8360004 -0.576,1.212 l -0.9000004,0 c -0.3760021,-0.7519992 -0.7560018,-1.6079983 -1.14,-2.568 -0.384001,-0.9599964 -0.7240007,-1.9599954 -1.02,-3 l 1.08,0 c 0.095999,0.3520053 0.2039984,0.7240049 0.324,1.116 0.1279981,0.3920041 0.259998,0.7840037 0.396,1.176 0.1359977,0.3920029 0.2719976,0.7720025 0.408,1.14 0.1439973,0.3600018 0.2839971,0.6840015 0.4200004,0.972 0.135996,-0.2879985 0.275996,-0.6119982 0.42,-0.972 0.151996,-0.3679975 0.299996,-0.7479971 0.444,-1.14 0.143996,-0.3919963 0.279995,-0.7839959 0.408,-1.176 0.135995,-0.3919951 0.251995,-0.7639947 0.348,-1.116 l 1.032,0"
       id="path4890"
       inkscape:connector-curvature="0"
       style="fill:#ffffff" />
  </g>
  <g
     transform="scale(1.2024632,0.83162629)"
     style="font-size:6.8227067px;font-style:normal;font-variant:normal;font-weight:normal;font-stretch:normal;line-height:125%;letter-spacing:0px;word-spacing:0px;fill:#ffffff;fill-opacity:1;stroke:none;font-family:Ubuntu Mono;-inkscape-font-specification:Ubuntu Mono"
     id="text4969">
    <path
       d="M 9.4667305,15.847555 C 9.1801758,15.820264 8.948204,15.77478 8.7708144,15.711101 8.5979721,15.647423 8.4683408,15.590567 8.3819201,15.540533 L 8.641183,14.871908 c 0.1455504,0.06823 0.3161179,0.131907 0.511703,0.191036 0.1955831,0.05458 0.4025383,0.08187 0.6208663,0.08187 0.2547127,10e-7 0.4321027,-0.03184 0.5321707,-0.09552 0.100065,-0.06823 0.150098,-0.172841 0.1501,-0.313844 -2e-6,-0.08187 -0.02047,-0.152373 -0.0614,-0.211504 -0.03639,-0.05913 -0.09325,-0.111436 -0.170568,-0.156922 -0.07278,-0.05003 -0.163747,-0.09324 -0.2729083,-0.129632 C 9.8419777,14.196462 9.7191691,14.150977 9.5827165,14.100942 9.4508096,14.055459 9.3211783,14.003152 9.1938222,13.94402 9.0664641,13.884892 8.9527525,13.814391 8.8526869,13.732516 8.7526199,13.646097 8.6707475,13.543757 8.6070695,13.425494 c -0.059131,-0.122806 -0.088696,-0.272905 -0.088695,-0.450298 -4e-7,-0.127355 0.015919,-0.250163 0.047759,-0.368427 0.036387,-0.118256 0.090969,-0.22742 0.163745,-0.32749 0.077323,-0.100062 0.1773896,-0.186483 0.3001991,-0.259262 0.1228077,-0.07732 0.2729071,-0.136451 0.4502986,-0.177391 l 0,-0.661802 0.7777881,0 0,0.627689 c 0.209228,0.0182 0.393441,0.05004 0.55264,0.09552 0.163742,0.04549 0.291099,0.08642 0.382071,0.122808 l -0.191035,0.702739 c -0.131909,-0.05458 -0.288831,-0.102337 -0.470767,-0.143277 -0.177393,-0.04548 -0.361606,-0.06822 -0.5526395,-0.06823 -0.2183282,4e-6 -0.3707018,0.03867 -0.4571213,0.115986 -0.081874,0.07733 -0.12281,0.168297 -0.1228088,0.272908 -1.2e-6,0.07278 0.013644,0.134183 0.040936,0.184214 0.031838,0.04549 0.077323,0.08642 0.1364541,0.122808 0.063677,0.03639 0.1387268,0.07278 0.2251493,0.109164 0.086419,0.03184 0.1887598,0.06823 0.3070219,0.109163 0.177388,0.06823 0.341133,0.141005 0.491235,0.218326 0.150097,0.07278 0.279728,0.159199 0.388894,0.259263 0.10916,0.09552 0.193307,0.209232 0.25244,0.341136 0.06368,0.131907 0.09552,0.286555 0.09552,0.463944 -3e-6,0.12281 -0.0182,0.245618 -0.05458,0.368426 -0.03639,0.118261 -0.09779,0.229698 -0.184213,0.334313 -0.08188,0.100066 -0.193312,0.188761 -0.334312,0.266085 -0.136457,0.07278 -0.309299,0.125083 -0.518526,0.156922 l 0,0.73003 -0.7777885,0 0,-0.723207"
       style="font-weight:bold;fill:#ffffff;-inkscape-font-specification:Ubuntu Mono Bold"
       id="path5057" />
  </g>
</svg>
