<?xml version="1.0" encoding="UTF-8" standalone="no"?>
<!-- Generated by IcoMoon.io -->

<svg
   xmlns:dc="http://purl.org/dc/elements/1.1/"
   xmlns:cc="http://creativecommons.org/ns#"
   xmlns:rdf="http://www.w3.org/1999/02/22-rdf-syntax-ns#"
   xmlns:svg="http://www.w3.org/2000/svg"
   xmlns="http://www.w3.org/2000/svg"
   xmlns:sodipodi="http://sodipodi.sourceforge.net/DTD/sodipodi-0.dtd"
   xmlns:inkscape="http://www.inkscape.org/namespaces/inkscape"
   version="1.1"
   width="16"
   height="16"
   viewBox="0 0 16 16"
   id="svg2"
   inkscape:version="0.48.5 r10040"
   sodipodi:docname="cb_variable_array.svg">
  <metadata
     id="metadata13">
    <rdf:RDF>
      <cc:Work
         rdf:about="">
        <dc:format>image/svg+xml</dc:format>
        <dc:type
           rdf:resource="http://purl.org/dc/dcmitype/StillImage" />
        <dc:title />
      </cc:Work>
    </rdf:RDF>
  </metadata>
  <defs
     id="defs11" />
  <sodipodi:namedview
     pagecolor="#ffffff"
     bordercolor="#666666"
     borderopacity="1"
     objecttolerance="10"
     gridtolerance="10"
     guidetolerance="10"
     inkscape:pageopacity="0"
     inkscape:pageshadow="2"
     inkscape:window-width="1246"
     inkscape:window-height="726"
     id="namedview9"
     showgrid="false"
     inkscape:zoom="14.75"
     inkscape:cx="13.349046"
     inkscape:cy="11.741459"
     inkscape:window-x="496"
     inkscape:window-y="281"
     inkscape:window-maximized="0"
     inkscape:current-layer="svg2" />
  <g
     id="icomoon-ignore">
    <line
       stroke-width="1"
       x1=""
       y1=""
       x2=""
       y2=""
       stroke="#449FDB"
       opacity=""
       id="line5" />
  </g>
  <path
     d="M 15.781,14.309 8.952,0.698 C 8.69,0.233 8.346,0 8.001,0 7.656,0 7.311,0.233 7.05,0.698 L 0.221,14.309 C -0.302,15.239 0.143,16 1.21,16 l 13.583,0 c 1.067,0 1.512,-0.761 0.989,-1.691 z"
     id="path7"
     inkscape:connector-curvature="0"
     style="fill:#484897;fill-opacity:1"
     sodipodi:nodetypes="ccsccsscc" />
  <g
     style="font-size:12px;font-style:normal;font-variant:normal;font-weight:normal;font-stretch:normal;line-height:125%;letter-spacing:0px;word-spacing:0px;fill:#ffffff;fill-opacity:1;stroke:none;font-family:Monospace;-inkscape-font-specification:Monospace"
     id="text3897">
    <path
       d="m 11.607952,13.898305 -1.7226566,0 -0.5390625,-1.933594 -2.671875,0 -0.5390625,1.933594 -1.7285156,0 2.5957031,-7.9042969 2.015625,0 2.5898441,7.9042969 M 8.0102954,7.0604143 C 7.9790418,7.2244835 7.9204481,7.470577 7.8345141,7.7986956 7.7524795,8.1229201 7.4868548,9.0779973 7.0376391,10.66393 l 1.9453125,0 C 8.5259163,9.0545598 8.2563853,8.0916701 8.1743579,7.7752581 8.0962292,7.4588583 8.0415418,7.2205772 8.0102954,7.0604143"
       style="font-weight:bold;fill:#ffffff;-inkscape-font-specification:Monospace Bold"
       id="path3902" />
  </g>
</svg>
