<?xml version="1.0" encoding="UTF-8" standalone="no"?>
<!-- Generated by IcoMoon.io -->

<svg
   xmlns:dc="http://purl.org/dc/elements/1.1/"
   xmlns:cc="http://creativecommons.org/ns#"
   xmlns:rdf="http://www.w3.org/1999/02/22-rdf-syntax-ns#"
   xmlns:svg="http://www.w3.org/2000/svg"
   xmlns="http://www.w3.org/2000/svg"
   xmlns:sodipodi="http://sodipodi.sourceforge.net/DTD/sodipodi-0.dtd"
   xmlns:inkscape="http://www.inkscape.org/namespaces/inkscape"
   version="1.1"
   width="16"
   height="16"
   viewBox="0 0 16 16"
   id="svg2"
   inkscape:version="0.48.5 r10040"
   sodipodi:docname="cb_variable_hash.svg">
  <metadata
     id="metadata13">
    <rdf:RDF>
      <cc:Work
         rdf:about="">
        <dc:format>image/svg+xml</dc:format>
        <dc:type
           rdf:resource="http://purl.org/dc/dcmitype/StillImage" />
        <dc:title />
      </cc:Work>
    </rdf:RDF>
  </metadata>
  <defs
     id="defs11" />
  <sodipodi:namedview
     pagecolor="#ffffff"
     bordercolor="#666666"
     borderopacity="1"
     objecttolerance="10"
     gridtolerance="10"
     guidetolerance="10"
     inkscape:pageopacity="0"
     inkscape:pageshadow="2"
     inkscape:window-width="1246"
     inkscape:window-height="726"
     id="namedview9"
     showgrid="false"
     inkscape:zoom="14.75"
     inkscape:cx="13.349046"
     inkscape:cy="11.651483"
     inkscape:window-x="496"
     inkscape:window-y="281"
     inkscape:window-maximized="0"
     inkscape:current-layer="svg2" />
  <g
     id="icomoon-ignore">
    <line
       stroke-width="1"
       x1=""
       y1=""
       x2=""
       y2=""
       stroke="#449FDB"
       opacity=""
       id="line5" />
  </g>
  <path
     d="M 15.781,14.309 8.952,0.698 C 8.69,0.233 8.346,0 8.001,0 7.656,0 7.311,0.233 7.05,0.698 L 0.221,14.309 C -0.302,15.239 0.143,16 1.21,16 l 13.583,0 c 1.067,0 1.512,-0.761 0.989,-1.691 z"
     id="path7"
     inkscape:connector-curvature="0"
     style="fill:#484897;fill-opacity:1"
     sodipodi:nodetypes="ccsccsscc" />
  <g
     style="font-size:40px;font-style:normal;font-weight:normal;line-height:125%;letter-spacing:0px;word-spacing:0px;fill:#ffffff;fill-opacity:1;stroke:none;font-family:Sans"
     id="text3845">
    <path
       d="m 5.857389,14.711864 -1.0253907,0 5.4609377,-7.9277339 1.037109,0 -5.472656,7.9277339 M 6.1796546,6.7372551 c 1.1054659,8e-6 1.6581998,0.6562573 1.6582031,1.96875 -3.3e-6,0.6523491 -0.1425813,1.1484424 -0.4277344,1.4882809 -0.2851589,0.339848 -0.7031272,0.50977 -1.2539062,0.509766 -0.5507824,4e-6 -0.9687507,-0.167965 -1.2539063,-0.503906 C 4.6171545,9.8642131 4.4745765,9.3661667 4.4745765,8.7060051 c 0,-0.6523371 0.1367186,-1.142571 0.4101562,-1.4707031 0.2734368,-0.3320235 0.705077,-0.4980389 1.2949219,-0.4980469 m 0.6269531,1.96875 C 6.8066054,8.2880428 6.7538711,7.9872618 6.6484046,7.8036613 6.54684,7.6200747 6.3866839,7.5282779 6.1679358,7.5282707 5.9491844,7.5282779 5.7831689,7.6181216 5.669889,7.797802 5.5605129,7.97359 5.5058254,8.276324 5.5058265,8.7060051 c -1.1e-6,0.4218806 0.056639,0.7246147 0.1699218,0.9082031 0.11328,0.1796924 0.2773423,0.2695361 0.4921875,0.2695313 0.4257792,4.8e-6 0.6386696,-0.3925729 0.6386719,-1.1777344 M 10.023405,10.81538 c 1.105462,4e-6 1.658196,0.656253 1.658203,1.96875 -7e-6,0.652345 -0.142585,1.148438 -0.427735,1.488281 -0.285162,0.339844 -0.703131,0.509766 -1.2539059,0.509766 -0.5507862,0 -0.9687546,-0.167969 -1.2539063,-0.503906 -0.2851602,-0.335937 -0.4277382,-0.833983 -0.4277343,-1.494141 -3.9e-6,-0.652341 0.1367147,-1.142575 0.4101562,-1.470703 0.273433,-0.332028 0.7050732,-0.498043 1.2949223,-0.498047 m 0.626953,1.96875 c -6e-6,-0.417966 -0.05274,-0.718747 -0.158203,-0.902344 -0.101569,-0.18359 -0.261725,-0.275387 -0.480469,-0.27539 -0.2187555,3e-6 -0.3847709,0.08985 -0.498047,0.269531 -0.10938,0.175784 -0.1640674,0.478518 -0.1640625,0.908203 -4.9e-6,0.421877 0.056636,0.724611 0.1699218,0.908203 0.1132761,0.179689 0.2773385,0.269532 0.4921877,0.269531 0.425775,10e-7 0.638666,-0.392577 0.638672,-1.177734"
       style="font-size:12px;font-variant:normal;font-weight:bold;font-stretch:normal;font-family:Monospace;-inkscape-font-specification:Monospace Bold;fill:#ffffff"
       id="path3850" />
  </g>
</svg>
