<?xml version="1.0" encoding="UTF-8" standalone="no"?>
<!-- Generated by IcoMoon.io -->

<svg
   xmlns:osb="http://www.openswatchbook.org/uri/2009/osb"
   xmlns:dc="http://purl.org/dc/elements/1.1/"
   xmlns:cc="http://creativecommons.org/ns#"
   xmlns:rdf="http://www.w3.org/1999/02/22-rdf-syntax-ns#"
   xmlns:svg="http://www.w3.org/2000/svg"
   xmlns="http://www.w3.org/2000/svg"
   xmlns:sodipodi="http://sodipodi.sourceforge.net/DTD/sodipodi-0.dtd"
   xmlns:inkscape="http://www.inkscape.org/namespaces/inkscape"
   version="1.1"
   width="16"
   height="16"
   viewBox="0 0 16 16"
   id="svg2"
   inkscape:version="0.48.5 r10040"
   sodipodi:docname="cb_trait.svg">
  <metadata
     id="metadata13">
    <rdf:RDF>
      <cc:Work
         rdf:about="">
        <dc:format>image/svg+xml</dc:format>
        <dc:type
           rdf:resource="http://purl.org/dc/dcmitype/StillImage" />
        <dc:title></dc:title>
      </cc:Work>
    </rdf:RDF>
  </metadata>
  <defs
     id="defs11">
    <linearGradient
       id="linearGradient5254"
       osb:paint="solid">
      <stop
         style="stop-color:#000000;stop-opacity:1;"
         offset="0"
         id="stop5256" />
    </linearGradient>
  </defs>
  <sodipodi:namedview
     pagecolor="#ffffff"
     bordercolor="#666666"
     borderopacity="1"
     objecttolerance="10"
     gridtolerance="10"
     guidetolerance="10"
     inkscape:pageopacity="0"
     inkscape:pageshadow="2"
     inkscape:window-width="959"
     inkscape:window-height="1022"
     id="namedview9"
     showgrid="false"
     inkscape:zoom="28.9375"
     inkscape:cx="8"
     inkscape:cy="8"
     inkscape:window-x="0"
     inkscape:window-y="29"
     inkscape:window-maximized="0"
     inkscape:current-layer="svg2" />
  <g
     id="icomoon-ignore">
    <line
       stroke-width="1"
       x1=""
       y1=""
       x2=""
       y2=""
       stroke="#449FDB"
       opacity=""
       id="line5" />
  </g>
  <path
     d="m 12.2664,1.6 -8.5328,0 C 2.56,1.6 1.6,2.56 1.6,3.7336 l 0,8.5328 C 1.6,13.4408 2.56,14.4 3.7336,14.4 l 8.5328,0 C 13.44,14.4 14.4,13.4408 14.4,12.2664 l 0,-8.5328 C 14.4,2.56 13.44,1.6 12.2664,1.6 z"
     id="path7"
     inkscape:connector-curvature="0"
     style="fill:#484897;fill-opacity:1"
     sodipodi:nodetypes="sssssssss" />
  <g
     style="font-size:12px;font-style:normal;font-variant:normal;font-weight:normal;font-stretch:normal;line-height:125%;letter-spacing:0px;word-spacing:0px;fill:#ffffff;fill-opacity:1;stroke:none;font-family:Ubuntu Mono;-inkscape-font-specification:Ubuntu Mono"
     id="text4885"
     transform="translate(-2.0151188,1.7645613)">
    <path
       d="m 12.655119,3.4514387 c -0.144006,0.5200051 -0.308006,1.0320046 -0.492,1.536 -0.184005,0.4960036 -0.372005,0.9840031 -0.564,1.464 -0.192005,0.4720021 -0.388005,0.9240017 -0.588,1.356 -0.200004,0.4320008 -0.392004,0.8360004 -0.576,1.212 l -0.9000004,0 c -0.3760021,-0.7519992 -0.7560018,-1.6079983 -1.14,-2.568 -0.384001,-0.9599964 -0.7240007,-1.9599954 -1.02,-3 l 1.08,0 c 0.095999,0.3520053 0.2039984,0.7240049 0.324,1.116 0.1279981,0.3920041 0.259998,0.7840037 0.396,1.176 0.1359977,0.3920029 0.2719976,0.7720025 0.408,1.14 0.1439973,0.3600018 0.2839971,0.6840015 0.4200004,0.972 0.135996,-0.2879985 0.275996,-0.6119982 0.42,-0.972 0.151996,-0.3679975 0.299996,-0.7479971 0.444,-1.14 0.143996,-0.3919963 0.279995,-0.7839959 0.408,-1.176 0.135995,-0.3919951 0.251995,-0.7639947 0.348,-1.116 l 1.032,0"
       id="path4890"
       inkscape:connector-curvature="0"
       style="fill:#ffffff" />
  </g>
</svg>
