<?xml version="1.0" encoding="UTF-8" standalone="no"?>
<!-- Created with Inkscape (http://www.inkscape.org/) -->

<svg
   xmlns:dc="http://purl.org/dc/elements/1.1/"
   xmlns:cc="http://creativecommons.org/ns#"
   xmlns:rdf="http://www.w3.org/1999/02/22-rdf-syntax-ns#"
   xmlns:svg="http://www.w3.org/2000/svg"
   xmlns="http://www.w3.org/2000/svg"
   version="1.1"
   width="16"
   height="16"
   viewBox="0 0 16 16"
   id="svg2">
  <metadata
     id="metadata13">
    <rdf:RDF>
      <cc:Work
         rdf:about="">
        <dc:format>image/svg+xml</dc:format>
        <dc:type
           rdf:resource="http://purl.org/dc/dcmitype/StillImage" />
        <dc:title></dc:title>
      </cc:Work>
    </rdf:RDF>
  </metadata>
  <defs
     id="defs11">
    <linearGradient
       id="linearGradient5254">
      <stop
         id="stop5256"
         style="stop-color:#000000;stop-opacity:1"
         offset="0" />
    </linearGradient>
  </defs>
  <g
     id="icomoon-ignore">
    <line
       id="line5"
       stroke="#449FDB"
       y2="0"
       x2="0"
       y1="0"
       x1="0"
       stroke-width="1"
       style="stroke:#449fdb;stroke-width:1" />
  </g>
  <path
     d="M 11.99975,2 4.00025,2 C 2.9,2 2,2.9 2,4.00025 l 0,7.9995 C 2,13.10075 2.9,14 4.00025,14 l 7.9995,0 C 13.1,14 14,13.10075 14,11.99975 l 0,-7.9995 C 14,2.9 13.1,2 11.99975,2 z"
     id="path7"
     style="fill:#484897;fill-opacity:1" />
  <g
     transform="translate(-1.4886366,1.9803198)"
     id="text4885"
     style="font-size:12px;font-style:normal;font-variant:normal;font-weight:normal;font-stretch:normal;line-height:125%;letter-spacing:0px;word-spacing:0px;fill:#ffffff;fill-opacity:1;stroke:none;font-family:Ubuntu Mono;-inkscape-font-specification:Ubuntu Mono">
    <path
       d="M 12,3 C 11.863631,3.5603503 11.708328,4.1120739 11.534091,4.6551724 11.359844,5.1896591 11.181814,5.7155206 11,6.2327586 10.818177,6.7413816 10.632571,7.2284501 10.443182,7.6939655 10.253784,8.1594836 10.071966,8.594828 9.8977274,9 L 9.0454544,9 C 8.6893918,8.189656 8.3295436,7.2672432 7.965909,6.2327586 7.6022717,5.1982797 7.2803023,4.1206946 7,3 L 8.0227272,3 C 8.1136353,3.3793161 8.2159075,3.7801777 8.3295454,4.2025862 8.4507557,4.6250044 8.5757556,5.0474178 8.7045453,5.4698276 8.833331,5.8922445 8.9621188,6.3017268 9.0909089,6.6982759 9.22727,7.0862088 9.3598456,7.4353464 9.4886366,7.7456897 9.6174206,7.4353464 9.7499964,7.0862088 9.8863638,6.6982759 10.030299,6.3017268 10.170451,5.8922445 10.306818,5.4698276 10.443178,5.0474178 10.571965,4.6250044 10.693182,4.2025862 10.821965,3.7801777 10.931814,3.3793161 11.022727,3 L 12,3"
       id="path4890"
       style="fill:#ffffff" />
  </g>
  <g
     transform="matrix(1.1847403,0,0,0.7421237,-0.43039866,0.70244551)"
     id="text4969"
     style="font-size:6.8227067px;font-style:normal;font-variant:normal;font-weight:normal;font-stretch:normal;line-height:125%;letter-spacing:0px;word-spacing:0px;fill:#ffffff;fill-opacity:1;stroke:none;font-family:Ubuntu Mono;-inkscape-font-specification:Ubuntu Mono">
    <path
       d="M 9.4667305,15.847555 C 9.1801758,15.820264 8.948204,15.77478 8.7708144,15.711101 8.5979721,15.647423 8.4683408,15.590567 8.3819201,15.540533 L 8.641183,14.871908 c 0.1455504,0.06823 0.3161179,0.131907 0.511703,0.191036 0.1955831,0.05458 0.4025383,0.08187 0.6208663,0.08187 0.2547127,10e-7 0.4321027,-0.03184 0.5321707,-0.09552 0.100065,-0.06823 0.150098,-0.172841 0.1501,-0.313844 -2e-6,-0.08187 -0.02047,-0.152373 -0.0614,-0.211504 -0.03639,-0.05913 -0.09325,-0.111436 -0.170568,-0.156922 -0.07278,-0.05003 -0.163747,-0.09324 -0.2729083,-0.129632 -0.109169,-0.04093 -0.2319776,-0.08642 -0.3684302,-0.13645 C 9.4508096,14.055459 9.3211783,14.003152 9.1938222,13.94402 9.0664641,13.884892 8.9527525,13.814391 8.8526869,13.732516 8.7526199,13.646097 8.6707475,13.543757 8.6070695,13.425494 c -0.059131,-0.122806 -0.088696,-0.272905 -0.088695,-0.450298 -4e-7,-0.127355 0.015919,-0.250163 0.047759,-0.368427 0.036387,-0.118256 0.090969,-0.22742 0.163745,-0.32749 0.077323,-0.100062 0.1773896,-0.186483 0.3001991,-0.259262 0.1228077,-0.07732 0.2729071,-0.136451 0.4502986,-0.177391 l 0,-0.661802 0.7777878,0 0,0.627689 c 0.209228,0.0182 0.393441,0.05004 0.55264,0.09552 0.163742,0.04549 0.291099,0.08642 0.382071,0.122808 L 11.00184,12.72958 c -0.131909,-0.05458 -0.288831,-0.102337 -0.470767,-0.143277 -0.177393,-0.04548 -0.361606,-0.06822 -0.5526392,-0.06823 -0.2183282,4e-6 -0.3707018,0.03867 -0.4571213,0.115986 -0.081874,0.07733 -0.12281,0.168297 -0.1228088,0.272908 -1.2e-6,0.07278 0.013644,0.134183 0.040936,0.184214 0.031838,0.04549 0.077323,0.08642 0.1364541,0.122808 0.063677,0.03639 0.1387268,0.07278 0.2251493,0.109164 0.086419,0.03184 0.1887598,0.06823 0.3070219,0.109163 0.177388,0.06823 0.341133,0.141005 0.491235,0.218326 0.150097,0.07278 0.279728,0.159199 0.388894,0.259263 0.10916,0.09552 0.193307,0.209232 0.25244,0.341136 0.06368,0.131907 0.09552,0.286555 0.09552,0.463944 -3e-6,0.12281 -0.0182,0.245618 -0.05458,0.368426 -0.03639,0.118261 -0.09779,0.229698 -0.184213,0.334313 -0.08188,0.100066 -0.193312,0.188761 -0.334312,0.266085 -0.136457,0.07278 -0.309299,0.125083 -0.518526,0.156922 l 0,0.73003 -0.7777885,0 0,-0.723207"
       id="path5057"
       style="font-weight:bold;fill:#ffffff;-inkscape-font-specification:Ubuntu Mono Bold" />
  </g>
</svg>
