<?xml version="1.0" encoding="UTF-8" standalone="no"?>
<!-- Generated by IcoMoon.io -->

<svg
   xmlns:osb="http://www.openswatchbook.org/uri/2009/osb"
   xmlns:dc="http://purl.org/dc/elements/1.1/"
   xmlns:cc="http://creativecommons.org/ns#"
   xmlns:rdf="http://www.w3.org/1999/02/22-rdf-syntax-ns#"
   xmlns:svg="http://www.w3.org/2000/svg"
   xmlns="http://www.w3.org/2000/svg"
   xmlns:sodipodi="http://sodipodi.sourceforge.net/DTD/sodipodi-0.dtd"
   xmlns:inkscape="http://www.inkscape.org/namespaces/inkscape"
   version="1.1"
   width="16"
   height="16"
   viewBox="0 0 16 16"
   id="svg2"
   inkscape:version="0.48.5 r10040"
   sodipodi:docname="cb_variable_hash.svg">
  <metadata
     id="metadata13">
    <rdf:RDF>
      <cc:Work
         rdf:about="">
        <dc:format>image/svg+xml</dc:format>
        <dc:type
           rdf:resource="http://purl.org/dc/dcmitype/StillImage" />
        <dc:title></dc:title>
      </cc:Work>
    </rdf:RDF>
  </metadata>
  <defs
     id="defs11">
    <linearGradient
       id="linearGradient5254"
       osb:paint="solid">
      <stop
         style="stop-color:#000000;stop-opacity:1;"
         offset="0"
         id="stop5256" />
    </linearGradient>
  </defs>
  <sodipodi:namedview
     pagecolor="#ffffff"
     bordercolor="#666666"
     borderopacity="1"
     objecttolerance="10"
     gridtolerance="10"
     guidetolerance="10"
     inkscape:pageopacity="0"
     inkscape:pageshadow="2"
     inkscape:window-width="959"
     inkscape:window-height="1022"
     id="namedview9"
     showgrid="false"
     inkscape:zoom="28.9375"
     inkscape:cx="8"
     inkscape:cy="8"
     inkscape:window-x="0"
     inkscape:window-y="29"
     inkscape:window-maximized="0"
     inkscape:current-layer="svg2" />
  <g
     id="icomoon-ignore">
    <line
       stroke-width="1"
       x1=""
       y1=""
       x2=""
       y2=""
       stroke="#449FDB"
       opacity=""
       id="line5" />
  </g>
  <path
     d="m 12.2664,1.6 -8.5328,0 C 2.56,1.6 1.6,2.56 1.6,3.7336 l 0,8.5328 C 1.6,13.4408 2.56,14.4 3.7336,14.4 l 8.5328,0 C 13.44,14.4 14.4,13.4408 14.4,12.2664 l 0,-8.5328 C 14.4,2.56 13.44,1.6 12.2664,1.6 z"
     id="path7"
     inkscape:connector-curvature="0"
     style="fill:#484897;fill-opacity:1"
     sodipodi:nodetypes="sssssssss" />
  <g
     style="font-size:12px;font-style:normal;font-variant:normal;font-weight:normal;font-stretch:normal;line-height:125%;letter-spacing:0px;word-spacing:0px;fill:#ffffff;fill-opacity:1;stroke:none;font-family:Ubuntu Mono;-inkscape-font-specification:Ubuntu Mono"
     id="text4885"
     transform="translate(-2.0151188,1.7645613)">
    <path
       d="m 12.655119,3.4514387 c -0.144006,0.5200051 -0.308006,1.0320046 -0.492,1.536 -0.184005,0.4960036 -0.372005,0.9840031 -0.564,1.464 -0.192005,0.4720021 -0.388005,0.9240017 -0.588,1.356 -0.200004,0.4320008 -0.392004,0.8360004 -0.576,1.212 l -0.9000004,0 c -0.3760021,-0.7519992 -0.7560018,-1.6079983 -1.14,-2.568 -0.384001,-0.9599964 -0.7240007,-1.9599954 -1.02,-3 l 1.08,0 c 0.095999,0.3520053 0.2039984,0.7240049 0.324,1.116 0.1279981,0.3920041 0.259998,0.7840037 0.396,1.176 0.1359977,0.3920029 0.2719976,0.7720025 0.408,1.14 0.1439973,0.3600018 0.2839971,0.6840015 0.4200004,0.972 0.135996,-0.2879985 0.275996,-0.6119982 0.42,-0.972 0.151996,-0.3679975 0.299996,-0.7479971 0.444,-1.14 0.143996,-0.3919963 0.279995,-0.7839959 0.408,-1.176 0.135995,-0.3919951 0.251995,-0.7639947 0.348,-1.116 l 1.032,0"
       id="path4890"
       inkscape:connector-curvature="0"
       style="fill:#ffffff" />
  </g>
  <g
     transform="scale(1.2024632,0.83162629)"
     style="font-size:6.8227067px;font-style:normal;font-variant:normal;font-weight:normal;font-stretch:normal;line-height:125%;letter-spacing:0px;word-spacing:0px;fill:#ffffff;fill-opacity:1;stroke:none;font-family:Ubuntu Mono;-inkscape-font-specification:Ubuntu Mono"
     id="text4969">
    <path
       d="m 8.540905,16.366051 -0.6072209,0 2.7768419,-4.223256 0.607221,0 -2.776842,4.223256 m 1.187151,-0.968825 c -1.8e-6,-0.345682 0.068225,-0.607219 0.2046812,-0.784611 0.1364518,-0.181937 0.3229388,-0.272906 0.5594618,-0.272908 0.241066,2e-6 0.429828,0.09097 0.566285,0.272908 0.136451,0.177392 0.204678,0.438929 0.204681,0.784611 -3e-6,0.345685 -0.06823,0.609496 -0.204681,0.791434 -0.136457,0.177391 -0.325219,0.266086 -0.566285,0.266086 -0.236523,0 -0.42301,-0.0887 -0.5594618,-0.266086 -0.136456,-0.181938 -0.204683,-0.445749 -0.2046812,-0.791434 m 0.989292,0 c -2e-6,-0.191034 -0.02274,-0.327488 -0.06823,-0.409362 -0.04549,-0.08187 -0.100069,-0.122807 -0.163745,-0.122809 -0.06368,2e-6 -0.115988,0.04094 -0.156922,0.122809 -0.03639,0.08187 -0.05458,0.218328 -0.05458,0.409362 -3e-6,0.191037 0.01819,0.325217 0.05458,0.40254 0.04093,0.07733 0.09324,0.115987 0.156922,0.115986 0.06368,1e-6 0.118258,-0.03866 0.163745,-0.115986 0.04548,-0.07732 0.06822,-0.211503 0.06823,-0.40254 M 7.9882658,13.104797 c -10e-8,-0.34568 0.068227,-0.607217 0.2046812,-0.784611 0.1364537,-0.181935 0.3206666,-0.272904 0.5526392,-0.272909 0.2456164,5e-6 0.436652,0.09097 0.5731074,0.272909 0.1364526,0.177394 0.2046796,0.438931 0.2046812,0.784611 -1.6e-6,0.345687 -0.068229,0.609498 -0.2046812,0.791434 -0.1364554,0.181941 -0.327491,0.27291 -0.5731074,0.272908 -0.2319726,2e-6 -0.4161855,-0.09097 -0.5526392,-0.272908 C 8.0564927,13.714295 7.9882657,13.450484 7.9882658,13.104797 m 0.9824697,0 c -10e-7,-0.191032 -0.022743,-0.325212 -0.068227,-0.40254 -0.045486,-0.08187 -0.097793,-0.122805 -0.1569223,-0.122808 -0.063679,3e-6 -0.1159867,0.04094 -0.1569222,0.122808 -0.040937,0.07733 -0.061405,0.211508 -0.061404,0.40254 -6e-7,0.191039 0.020467,0.325219 0.061404,0.40254 0.040935,0.07733 0.093243,0.115988 0.1569222,0.115986 0.059129,2e-6 0.1114366,-0.03866 0.1569223,-0.115986 0.045484,-0.07732 0.068226,-0.211501 0.068227,-0.40254"
       style="font-weight:bold;fill:#ffffff;-inkscape-font-specification:Ubuntu Mono Bold"
       id="path5035" />
  </g>
</svg>
