<?xml version="1.0" encoding="UTF-8" standalone="no"?>
<!-- Generated by IcoMoon.io -->

<svg
   xmlns:dc="http://purl.org/dc/elements/1.1/"
   xmlns:cc="http://creativecommons.org/ns#"
   xmlns:rdf="http://www.w3.org/1999/02/22-rdf-syntax-ns#"
   xmlns:svg="http://www.w3.org/2000/svg"
   xmlns="http://www.w3.org/2000/svg"
   xmlns:sodipodi="http://sodipodi.sourceforge.net/DTD/sodipodi-0.dtd"
   xmlns:inkscape="http://www.inkscape.org/namespaces/inkscape"
   version="1.1"
   width="16"
   height="16"
   viewBox="0 0 16 16"
   id="svg2"
   inkscape:version="0.48.5 r10040"
   sodipodi:docname="cb_variable_scalar.svg">
  <metadata
     id="metadata13">
    <rdf:RDF>
      <cc:Work
         rdf:about="">
        <dc:format>image/svg+xml</dc:format>
        <dc:type
           rdf:resource="http://purl.org/dc/dcmitype/StillImage" />
        <dc:title />
      </cc:Work>
    </rdf:RDF>
  </metadata>
  <defs
     id="defs11" />
  <sodipodi:namedview
     pagecolor="#ffffff"
     bordercolor="#666666"
     borderopacity="1"
     objecttolerance="10"
     gridtolerance="10"
     guidetolerance="10"
     inkscape:pageopacity="0"
     inkscape:pageshadow="2"
     inkscape:window-width="1246"
     inkscape:window-height="726"
     id="namedview9"
     showgrid="false"
     inkscape:zoom="14.75"
     inkscape:cx="13.349046"
     inkscape:cy="11.741459"
     inkscape:window-x="496"
     inkscape:window-y="281"
     inkscape:window-maximized="0"
     inkscape:current-layer="svg2" />
  <g
     id="icomoon-ignore">
    <line
       stroke-width="1"
       x1=""
       y1=""
       x2=""
       y2=""
       stroke="#449FDB"
       opacity=""
       id="line5" />
  </g>
  <path
     d="M 15.781,14.309 8.952,0.698 C 8.69,0.233 8.346,0 8.001,0 7.656,0 7.311,0.233 7.05,0.698 L 0.221,14.309 C -0.302,15.239 0.143,16 1.21,16 l 13.583,0 c 1.067,0 1.512,-0.761 0.989,-1.691 z"
     id="path7"
     inkscape:connector-curvature="0"
     style="fill:#484897;fill-opacity:1"
     sodipodi:nodetypes="ccsccsscc" />
  <g
     style="font-size:40px;font-style:normal;font-weight:bold;line-height:125%;letter-spacing:0px;word-spacing:0px;fill:#ffffff;fill-opacity:1;stroke:none;font-family:Sans;-inkscape-font-specification:Sans Bold"
     id="text3871">
    <path
       d="m 11.088984,11.663367 c -7e-6,0.707033 -0.238288,1.255861 -0.714844,1.646485 -0.472662,0.386719 -1.1738332,0.597656 -2.1035158,0.632812 l 0,1.025391 -0.6386719,0 0,-1.007813 C 6.7921061,13.928992 6.1378099,13.731727 5.6690617,13.368445 5.2003108,13.001259 4.8917174,12.440713 4.7432804,11.686805 l 1.5,-0.275391 c 0.074217,0.441409 0.220701,0.765627 0.4394531,0.972656 0.2226537,0.203127 0.5390597,0.32422 0.9492188,0.363282 l 0,-2.291016 c -0.011722,-0.0078 -0.041019,-0.01562 -0.087891,-0.02344 -0.046878,-0.01172 -0.078128,-0.01758 -0.09375,-0.01758 C 6.8214029,10.270793 6.346794,10.100871 6.0264835,9.9055548 5.7061697,9.7063403 5.458123,9.4563405 5.2823429,9.1555548 5.1104671,8.8508724 5.0245297,8.479779 5.0245304,8.0422735 c -7e-7,-0.6484309 0.2207022,-1.1484304 0.6621094,-1.5 C 6.1280442,6.1868126 6.7764811,5.9915002 7.6319523,5.956336 l 0,-0.7851562 0.6386719,0 0,0.7851562 c 0.761714,0.027352 1.3476509,0.1972735 1.7578128,0.5097656 0.41015,0.308601 0.705071,0.8222723 0.884765,1.5410157 L 9.3663273,8.2356329 C 9.2491349,7.5637643 8.8839009,7.1868116 8.2706242,7.1047735 l 0,2.0625 0.064453,0.011719 c 0.1132771,4.8e-6 0.4570268,0.093755 1.03125,0.28125 0.5781194,0.1875043 1.0097597,0.4648478 1.2949217,0.8320317 0.28515,0.363284 0.427728,0.820315 0.427735,1.371093 M 7.6319523,7.081336 c -0.7148463,0.054694 -1.0722679,0.367194 -1.0722656,0.9375 -2.3e-6,0.175787 0.029295,0.3203181 0.087891,0.4335938 0.058591,0.1093804 0.1464819,0.2031303 0.2636719,0.28125 0.1171848,0.07813 0.3574189,0.1757863 0.7207031,0.2929687 l 0,-1.9453125 m 1.9335937,4.605469 c -5.2e-6,-0.19531 -0.035161,-0.353513 -0.1054687,-0.47461 C 9.3897597,11.087198 9.2862442,10.985636 9.1495304,10.907508 9.0167132,10.829386 8.7237448,10.725871 8.2706242,10.596961 l 0,2.150391 c 0.8632764,-0.05859 1.2949166,-0.412108 1.2949218,-1.060547"
       style="font-size:12px;font-variant:normal;font-stretch:normal;fill:#ffffff;font-family:Monospace;-inkscape-font-specification:Monospace Bold"
       id="path3876" />
  </g>
</svg>
