<?xml version="1.0" encoding="UTF-8" standalone="no"?>
<!-- Generated by IcoMoon.io -->

<svg
   xmlns:dc="http://purl.org/dc/elements/1.1/"
   xmlns:cc="http://creativecommons.org/ns#"
   xmlns:rdf="http://www.w3.org/1999/02/22-rdf-syntax-ns#"
   xmlns:svg="http://www.w3.org/2000/svg"
   xmlns="http://www.w3.org/2000/svg"
   xmlns:sodipodi="http://sodipodi.sourceforge.net/DTD/sodipodi-0.dtd"
   xmlns:inkscape="http://www.inkscape.org/namespaces/inkscape"
   sodipodi:docname="cb_xml_element.svg"
   inkscape:version="0.48.5 r10040"
   id="svg2"
   viewBox="0 0 16 16"
   height="16"
   width="16"
   version="1.1">
  <metadata
     id="metadata13">
    <rdf:RDF>
      <cc:Work
         rdf:about="">
        <dc:format>image/svg+xml</dc:format>
        <dc:type
           rdf:resource="http://purl.org/dc/dcmitype/StillImage" />
        <dc:title />
      </cc:Work>
    </rdf:RDF>
  </metadata>
  <defs
     id="defs11" />
  <sodipodi:namedview
     pagecolor="#ffffff"
     bordercolor="#666666"
     borderopacity="1"
     objecttolerance="10"
     gridtolerance="10"
     guidetolerance="10"
     inkscape:pageopacity="0"
     inkscape:pageshadow="2"
     inkscape:window-width="959"
     inkscape:window-height="1022"
     id="namedview9"
     showgrid="true"
     inkscape:zoom="50.8125"
     inkscape:cx="8"
     inkscape:cy="6.4255843"
     inkscape:window-x="0"
     inkscape:window-y="29"
     inkscape:window-maximized="0"
     inkscape:current-layer="svg2">
    <inkscape:grid
       type="xygrid"
       id="grid2987" />
  </sodipodi:namedview>
  <g
     id="icomoon-ignore">
    <line
       stroke-width="1"
       x1=""
       y1=""
       x2=""
       y2=""
       stroke="#449FDB"
       opacity=""
       id="line5" />
  </g>
  <path
     style="fill:#3670ac;fill-opacity:1"
     d="M 3,0 C 1.533,0 0,1.533 0,3 l 0,10 c 0,1.468 1.533,3 3,3 l 10,0 c 1.467,0 3,-1.532 3,-3 L 16,3 C 16,1.533 14.467,0 13,0 z m 1,2 8,0 c 1.075385,0 2,0.9246145 2,2 l 0,8 c 0,1.076118 -0.924615,2 -2,2 L 4,14 C 2.9246144,14 2,13.076118 2,12 L 2,4 C 2,2.9246144 2.9246145,2 4,2 z"
     id="path7"
     inkscape:connector-curvature="0"
     sodipodi:nodetypes="ssssssssssssssssss" />
  <g
     transform="scale(0.86777278,1.1523754)"
     style="font-size:10.41327286px;font-style:normal;font-variant:normal;font-weight:normal;font-stretch:normal;line-height:125%;letter-spacing:0px;word-spacing:0px;fill:#008080;fill-opacity:1;stroke:none;font-family:Monospace;-inkscape-font-specification:Monospace"
     id="text2986-0" />
  <g
     id="text2986"
     style="font-size:10.41327286px;font-style:normal;font-variant:normal;font-weight:normal;font-stretch:normal;line-height:125%;letter-spacing:0px;word-spacing:0px;fill:#008080;fill-opacity:1;stroke:none;font-family:Monospace;-inkscape-font-specification:Monospace"
     transform="matrix(0.80025155,0,0,1.1523754,0.60806919,-4.9077734e-8)">
    <path
       id="path3029"
       transform="scale(1.1523754,0.86777278)"
       d="m 6.93125,5 -4.3375,1.84375 0,1.40625 0,0.75 4.3375,2 0,-0.6875 0,-1.3125 -2.16875,-1 2.16875,-1 0,-0.6875 z M 9.1,5 l 0,0.6875 0,0.625 L 9.1,7 11.26875,8 9.1,9 l 0,0.65625 0,0.65625 0,0.6875 4.3375,-2 0,-0.75 0,-0.71875 0,-0.6875 z"
       style="font-weight:bold;letter-spacing:0.86777276px;fill:#3688c9;fill-opacity:1;font-family:DejaVu Sans Mono;-inkscape-font-specification:DejaVu Sans Mono Bold"
       inkscape:connector-curvature="0"
       sodipodi:nodetypes="ccccccccccccccccccccccccc" />
  </g>
</svg>
