<?xml version="1.0" encoding="UTF-8" standalone="no"?>
<!-- Generated by IcoMoon.io -->

<svg
   xmlns:dc="http://purl.org/dc/elements/1.1/"
   xmlns:cc="http://creativecommons.org/ns#"
   xmlns:rdf="http://www.w3.org/1999/02/22-rdf-syntax-ns#"
   xmlns:svg="http://www.w3.org/2000/svg"
   xmlns="http://www.w3.org/2000/svg"
   xmlns:sodipodi="http://sodipodi.sourceforge.net/DTD/sodipodi-0.dtd"
   xmlns:inkscape="http://www.inkscape.org/namespaces/inkscape"
   version="1.1"
   width="16"
   height="16"
   viewBox="0 0 16 16"
   id="svg2"
   inkscape:version="0.48.5 r10040"
   sodipodi:docname="cb_xml_element.svg">
  <metadata
     id="metadata13">
    <rdf:RDF>
      <cc:Work
         rdf:about="">
        <dc:format>image/svg+xml</dc:format>
        <dc:type
           rdf:resource="http://purl.org/dc/dcmitype/StillImage" />
        <dc:title />
      </cc:Work>
    </rdf:RDF>
  </metadata>
  <defs
     id="defs11" />
  <sodipodi:namedview
     pagecolor="#ffffff"
     bordercolor="#666666"
     borderopacity="1"
     objecttolerance="10"
     gridtolerance="10"
     guidetolerance="10"
     inkscape:pageopacity="0"
     inkscape:pageshadow="2"
     inkscape:window-width="1225"
     inkscape:window-height="786"
     id="namedview9"
     showgrid="false"
     inkscape:zoom="36.242424"
     inkscape:cx="2.9489967"
     inkscape:cy="8.25"
     inkscape:window-x="0"
     inkscape:window-y="29"
     inkscape:window-maximized="0"
     inkscape:current-layer="svg2" />
  <g
     id="icomoon-ignore">
    <line
       stroke-width="1"
       x1=""
       y1=""
       x2=""
       y2=""
       stroke="#449FDB"
       opacity=""
       id="line5" />
  </g>
  <path
     style="fill:#3670ac;fill-opacity:1"
     d="M 2.65625 0 C 1.18925 0 0 1.18925 0 2.65625 L 0 13.34375 C 0 14.81175 1.18925 16 2.65625 16 L 13.34375 16 C 14.81075 16 16 14.81175 16 13.34375 L 16 2.65625 C 16 1.18925 14.81075 0 13.34375 0 L 2.65625 0 z M 4.09375 2.125 L 11.90625 2.125 C 12.981635 2.125 13.875 3.0183645 13.875 4.09375 L 13.875 11.90625 C 13.875 12.982368 12.981635 13.875 11.90625 13.875 L 4.09375 13.875 C 3.0183644 13.875 2.125 12.982368 2.125 11.90625 L 2.125 4.09375 C 2.125 3.0183644 3.0183645 2.125 4.09375 2.125 z "
     id="path7" />
  <g
     transform="scale(0.86777278,1.1523754)"
     style="font-size:10.41327286px;font-style:normal;font-variant:normal;font-weight:normal;font-stretch:normal;line-height:125%;letter-spacing:0px;word-spacing:0px;fill:#008080;fill-opacity:1;stroke:none;font-family:Monospace;-inkscape-font-specification:Monospace"
     id="text2986">
    <path
       style="font-weight:bold;letter-spacing:0.86777276000000003px;fill:#3688c9;font-family:DejaVu Sans Mono;-inkscape-font-specification:DejaVu Sans Mono Bold;fill-opacity:1"
       d="M 7.25 4.40625 L 2.59375 6.84375 L 2.59375 8.25 L 2.59375 8.90625 L 7.25 11.34375 L 7.25 10.65625 L 7.25 9.21875 L 4.4375 7.875 L 7.25 6.5625 L 7.25 5.875 L 7.25 4.40625 z M 8.78125 4.40625 L 8.78125 5.09375 L 8.78125 5.875 L 8.78125 6.5625 L 11.59375 7.875 L 8.78125 9.21875 L 8.78125 9.875 L 8.78125 10.65625 L 8.78125 11.34375 L 13.4375 8.90625 L 13.4375 8.25 L 13.4375 7.53125 L 13.4375 6.84375 L 8.78125 4.40625 z "
       transform="scale(1.1523754,0.86777278)"
       id="path3029" />
  </g>
  <g
     transform="scale(0.86777278,1.1523754)"
     style="font-size:10.41327286px;font-style:normal;font-variant:normal;font-weight:normal;font-stretch:normal;line-height:125%;letter-spacing:0px;word-spacing:0px;fill:#008080;fill-opacity:1;stroke:none;font-family:Monospace;-inkscape-font-specification:Monospace"
     id="text2986-0" />
</svg>
