<?xml version="1.0" encoding="utf-8"?>
<!-- Generated by IcoMoon.io -->
<!DOCTYPE svg PUBLIC "-//W3C//DTD SVG 1.1//EN" "http://www.w3.org/Graphics/SVG/1.1/DTD/svg11.dtd">
<svg version="1.1" xmlns="http://www.w3.org/2000/svg" xmlns:xlink="http://www.w3.org/1999/xlink" width="16" height="16" viewBox="0 0 16 16">
<g id="icomoon-ignore">
	<line stroke-width="1" x1="" y1="" x2="" y2="" stroke="#449FDB" opacity=""></line>
</g>
	<path d="M5.447 12c-0.341 0-0.682-0.13-0.943-0.391l-2.943-2.943 2.943-2.943c0.521-0.521 1.366-0.521 1.885 0 0.521 0.521 0.521 1.365 0 1.885l-1.057 1.057 1.057 1.057c0.521 0.521 0.521 1.365 0 1.885-0.26 0.261-0.601 0.391-0.943 0.391z" fill="#000000"></path>
	<path d="M10.553 12c-0.341 0-0.683-0.13-0.943-0.391-0.521-0.521-0.521-1.365 0-1.885l1.057-1.057-1.057-1.057c-0.521-0.521-0.521-1.365 0-1.885 0.519-0.521 1.365-0.521 1.885 0l2.943 2.943-2.943 2.943c-0.26 0.261-0.601 0.391-0.943 0.391z" fill="#000000"></path>
</svg>
