<?xml version="1.0" encoding="utf-8"?>
<!-- Generated by IcoMoon.io -->
<!DOCTYPE svg PUBLIC "-//W3C//DTD SVG 1.1//EN" "http://www.w3.org/Graphics/SVG/1.1/DTD/svg11.dtd">
<svg version="1.1" xmlns="http://www.w3.org/2000/svg" xmlns:xlink="http://www.w3.org/1999/xlink" width="16" height="16" viewBox="0 0 16 16">
<g id="icomoon-ignore">
	<line stroke-width="1" x1="" y1="" x2="" y2="" stroke="#449FDB" opacity=""></line>
</g>
	<path d="M10.5 0.253c-2.342 0-4.247 1.905-4.247 4.247 0 0.901 0.282 1.737 0.762 2.425l-6.545 6.545c-0.293 0.293-0.293 0.768 0 1.061 0.146 0.146 0.338 0.22 0.53 0.22s0.384-0.073 0.53-0.22l0.345-0.345 1.595 1.595c0.146 0.146 0.338 0.22 0.53 0.22s0.384-0.073 0.53-0.22c0.293-0.293 0.293-0.768 0-1.061l-1.595-1.595 0.846-0.846 1.595 1.595c0.146 0.146 0.338 0.22 0.53 0.22s0.384-0.073 0.53-0.22c0.293-0.293 0.293-0.768 0-1.061l-1.595-1.595 3.233-3.233c0.688 0.48 1.524 0.762 2.425 0.762 2.342 0 4.247-1.905 4.247-4.247s-1.905-4.247-4.247-4.247zM10.5 7.247c-1.515 0-2.747-1.232-2.747-2.747s1.232-2.747 2.747-2.747 2.747 1.232 2.747 2.747-1.232 2.747-2.747 2.747z" fill="#000000"></path>
</svg>
