<?xml version="1.0" encoding="utf-8"?>
<!-- Generated by IcoMoon.io -->
<!DOCTYPE svg PUBLIC "-//W3C//DTD SVG 1.1//EN" "http://www.w3.org/Graphics/SVG/1.1/DTD/svg11.dtd">
<svg version="1.1" xmlns="http://www.w3.org/2000/svg" xmlns:xlink="http://www.w3.org/1999/xlink" width="10" height="16" viewBox="0 0 10 16">
<g id="icomoon-ignore">
	<line stroke-width="1" x1="" y1="" x2="" y2="" stroke="#449FDB" opacity=""></line>
</g>
	<path d="M0 12.857v-5.143q0-0.357 0.25-0.607t0.607-0.25h0.286v-1.714q0-1.643 1.179-2.821t2.821-1.179 2.821 1.179 1.179 2.821v1.714h0.286q0.357 0 0.607 0.25t0.25 0.607v5.143q0 0.357-0.25 0.607t-0.607 0.25h-8.571q-0.357 0-0.607-0.25t-0.25-0.607zM2.857 6.857h4.571v-1.714q0-0.946-0.67-1.616t-1.616-0.67-1.616 0.67-0.67 1.616v1.714z" fill="#000000"></path>
</svg>
