/* XPM */
static char *komodo64_edit[] = {
/* columns rows colors chars-per-pixel */
"64 64 256 2 ",
"   c #010101",
".  c #050B0B",
"X  c #080E10",
"o  c #040F12",
"O  c #061012",
"+  c #061518",
"@  c #0B1618",
"#  c #0D1B1E",
"$  c #0A1315",
"%  c #0A1D21",
"&  c #101E21",
"*  c #0A262C",
"=  c #112023",
"-  c #142A2E",
";  c #13262A",
":  c #0D2E36",
">  c #142C32",
",  c #182E32",
"<  c #0F343D",
"1  c #173037",
"2  c #13323A",
"3  c #1B343B",
"4  c #1D383F",
"5  c #0F3740",
"6  c #0F3841",
"7  c #103640",
"8  c #113C46",
"9  c #1C3C44",
"0  c #133E49",
"q  c #1E3F49",
"w  c #223C42",
"e  c #12424D",
"r  c #1C414A",
"t  c #164754",
"y  c #1D4A55",
"u  c #154D5A",
"i  c #144A56",
"p  c #16505E",
"a  c #224047",
"s  c #23434B",
"d  c #2F484D",
"f  c #2B4349",
"g  c #264A53",
"h  c #254E58",
"j  c #294F59",
"k  c #224752",
"l  c #374F55",
"z  c #24515C",
"x  c #2C535B",
"c  c #35525A",
"v  c #3D565D",
"b  c #175563",
"n  c #1B5866",
"m  c #1A5D6D",
"M  c #1E5360",
"N  c #1B5F70",
"B  c #215562",
"V  c #2B5660",
"C  c #2D5A65",
"Z  c #265E6C",
"A  c #2D5E69",
"S  c #345C64",
"D  c #3A5A61",
"F  c #325E6A",
"G  c #1C6272",
"H  c #1E6D7F",
"J  c #27616F",
"K  c #2E616E",
"L  c #33616C",
"P  c #3B636C",
"I  c #226474",
"U  c #2C6573",
"Y  c #236A7A",
"T  c #296E7D",
"R  c #346673",
"E  c #356974",
"W  c #356E7D",
"Q  c #3A6E7A",
"!  c #35717F",
"~  c #3B727F",
"^  c #44585E",
"/  c #425D64",
"(  c #456167",
")  c #46636B",
"_  c #4A646A",
"`  c #4E686F",
"'  c #53666A",
"]  c #436D77",
"[  c #4E6970",
"{  c #546C73",
"}  c #45737E",
"|  c #4D727B",
" . c #5B7176",
".. c #56747C",
"X. c #5D747A",
"o. c #5D797E",
"O. c #617377",
"+. c #65767A",
"@. c #7B827D",
"#. c #A5967C",
"$. c #FFB35A",
"%. c #D5A466",
"&. c #FFC46B",
"*. c #FCD07A",
"=. c #1E6D80",
"-. c #246E80",
";. c #237182",
":. c #2C7180",
">. c #2E7788",
",. c #2F7889",
"<. c #357180",
"1. c #3B7280",
"2. c #3D7886",
"3. c #307789",
"4. c #347A8A",
"5. c #3B7B8B",
"6. c #437682",
"7. c #437985",
"8. c #4C7985",
"9. c #437D8C",
"0. c #4B7F8C",
"q. c #557981",
"w. c #5D7B83",
"e. c #627B81",
"r. c #697D82",
"t. c #3C8190",
"y. c #47818E",
"u. c #49818D",
"i. c #53838E",
"p. c #458594",
"a. c #4C8594",
"s. c #4A8897",
"d. c #4C8A99",
"f. c #528591",
"g. c #5D8691",
"h. c #538D9B",
"j. c #5A8E9B",
"k. c #588A95",
"l. c #56909E",
"z. c #5B919E",
"x. c #6E8287",
"c. c #63828A",
"v. c #718186",
"b. c #72868A",
"n. c #73898F",
"m. c #7A898D",
"M. c #608690",
"N. c #638C95",
"B. c #6E8C93",
"V. c #668F9A",
"C. c #7B8E92",
"Z. c #64929D",
"A. c #6B949D",
"S. c #7F9095",
"D. c #72939D",
"F. c #7C949B",
"G. c #5D95A2",
"H. c #5692A0",
"J. c #6295A2",
"K. c #6A96A1",
"L. c #639AA6",
"P. c #6D9AA6",
"I. c #679CA8",
"U. c #6B9EAA",
"Y. c #739BA5",
"T. c #799CA4",
"R. c #739EA9",
"E. c #6EA1AD",
"W. c #74A2AD",
"Q. c #7BA3AD",
"!. c #75A5B1",
"~. c #7CA6B1",
"^. c #7DA9B3",
"/. c #9C9B88",
"(. c #849295",
"). c #859599",
"_. c #8A9A9D",
"`. c #909C9F",
"'. c #AEA889",
"]. c #BEAA82",
"[. c #A4A892",
"{. c #BFAF90",
"}. c #829DA4",
"|. c #8D9DA1",
" X c #929FA2",
".X c #8AA0A6",
"XX c #89A5AD",
"oX c #94A1A5",
"OX c #98A6A9",
"+X c #9EA9AB",
"@X c #81A7B1",
"#X c #83AAB4",
"$X c #8AACB4",
"%X c #85AEB9",
"&X c #8BAFB8",
"*X c #97ABB0",
"=X c #9DAEB2",
"-X c #8BB1BA",
";X c #86B0BA",
":X c #9BB1B7",
">X c #94B4BC",
",X c #9AB5BC",
"<X c #9DB8BE",
"1X c #A0AAAC",
"2X c #A4AFB2",
"3X c #A6B1B4",
"4X c #AAB4B6",
"5X c #A3B4B9",
"6X c #ADB5B8",
"7X c #AEB8BA",
"8X c #B3BBBE",
"9X c #BFC2BC",
"0X c #97B7C0",
"qX c #96B9C1",
"wX c #9CBBC2",
"eX c #A3BCC3",
"rX c #AABEC3",
"tX c #B7BFC1",
"yX c #B8BFC1",
"uX c #ACC2C6",
"iX c #A7C1C8",
"pX c #ACC4CA",
"aX c #ADC9CF",
"sX c #B3C2C6",
"dX c #BBC2C4",
"fX c #B3C6CB",
"gX c #B5C8CE",
"hX c #BCCACD",
"jX c #B9C5C8",
"kX c #BCCDD1",
"lX c #C0C7C9",
"zX c #C3CACC",
"xX c #C9CECF",
"cX c #C3CED0",
"vX c #CACFD1",
"bX c #C5D2D5",
"nX c #CCD3D5",
"mX c #C6D5D9",
"MX c #CBD7DA",
"NX c #CFD8D8",
"BX c #D2D5D6",
"VX c #D3D7D8",
"CX c #D5DADB",
"ZX c #DCDDDD",
"AX c #E9E0CE",
"SX c #DCDFE0",
"DX c #DDE1E2",
"FX c #D4E1E5",
"GX c #E3E3E3",
"HX c #E6E7E8",
"JX c #E7EAEA",
"KX c #EBECEC",
"LX c #EFF1F2",
"PX c #F4F5F5",
"IX c #FAFAFA",
"UX c None",
/* pixels */
"UXUXUXUXUXUXUXUXUXUXUXUXUXUXUXUXUXUXUXUXUXUXUXUXUXUXUXUXUXUXUXUXUXUXUXUXUXUXUXUXUXUXUXUXUXUXUXUXUXUXUXUXUXUXUXUXUXUXUXUXUXUXUXUX",
"UXUXUXUXUXUXUXUXUXUXUXUXUXUXUXUXUXUXUXUXUXUXUXUXUXUXUXUXUXUXUXUXUXUXUXUXUXUXUXUXUXUXUXUXUXUXUXUXUXUXUXUXUXUXUXUXUXUXUXUXUXUXUXUX",
"UXUXUXUXUXUXUXUXUXUXUXUXUXUXUXUXUXUXUXUXUXUXUXUXUXUXUXUXUXUXUXUXUXUXUXUXUXUXUXUXUXUXUXUXUXUXUXUXUXUXUXUXUXUXUXUXUXUXUXUXUXUXUXUX",
"UXUXUXUXUXUXUXUXUXUXUXUXUXUXUXUXUXUXUXUXUXUXUXUXUXUXUXUXUXUXUXUXUXUXUXUXUXUXUXUXUXUXUXUXUXUXUXUXUXUXUXUXUXUXUXUXUXUXUXUXUXUXUXUX",
"UXUXUXUXUXUXUXUXUXUXUXUXUXUXUXUXUXUXUXUXUXUXUXUXUXUXUXUXUXUXUXUXUXUXUXUXUXUXUXUXUXUXUXUXUXUXUXUXUXUXUXUXUXUXUXUXUXUXUXUXUXUXUXUX",
"UXUXUXUXUXUXUXUXUXUXUXUXUXUXUXUXUXUXUXUXUXUXUXUXUXUXUXUXUXUXUXUXUXUXUXUXUXUXUXUXUXUXUXUXUXUXUXUXUXUXUXUXUXUXUXUXUXUXUXUXUXUXUXUX",
"UXUXUXUXUXUXUXUXUXUXUXUXUXUXUXUXUXUXUXUXUXUXUXUXUXUXUXUXUXUXUXUXUXUXUXUXUXUXUXUXUXUXUXUXUXUXUXUXUXUXUXUXUXUXUXUXUXUXUXUXUXUXUXUX",
"UXUXUXUXUXUXUXUXUXUXUXUXUXUXUXUXUXUXUXUXUXUXUXUXUXUXUXUXUXUXUXUXUXUXUXUXUXUXUXUXUXUXUXUXUXUXUXUXUXUXUXUXUXUXUXUXUXUXUXUXUXUXUXUX",
"UXUXUXUXUXUXUXUXUXUXUXUXG G G T :.:.3.3.T T T N G UXUXUXUXUXUXUXUXUXUXUXUXUXUXUXUXUXUXUXUXUXUXUXUXUXUXUXUXUXUXUXUXUXUXUXUXUXUXUX",
"UXUXUXUXUXUX:.4.p.d.l.G.I.U.E.E.E.E.W.E.!.W.!.!.E.U.L.l.s.4.T UXUXUXUXUXUXUXUXUXUXUXUXUXUXUXUXUXUXUXUXUXUXUXUXUXUXUXUXUXUXUXUXUX",
"UXUXUXUXUXUXl.L.L.L.L.L.L.I.E.!.^.@X@X@X^.^.!.!.W.!.!.!.~.^.~.!.G.d.3.UXUXUXUXUXUXUXUXUXUXUXUXUXUXUXUXUXUXUXUXUXUXUXUXUXUXUXUXUX",
"UXUXUXUXUXI L.L.>XuXhXNXCXZXZXZXZXZXGXZXZXZXZXZXCXMXbXhXaXwX>X@X^.^.@XW.G.5.UXUXUXUXUXUXUXUXUXUXUXUXUXUXUXUXUXUXUXUXUXUXUXUXUXUX",
"UXUXUXUXUX5.G.eXZXCXZXZXZXZXZXZXZXZXZXZXDXZXDXZXGXDXGXZXGXGXSXGXFXbXfX<X%X^.!.l.:.UXUXUXUXUXUXUXUXUXUXUXUXUXUXUXUXUXUXUXUXUXUXUX",
"UXUXUXUXUXd.G.NXCXZXZXZXZXZXZXZXDXDXCX9X4X+X X_._.(._.|.OX2XrXxXCXGXDXDXDXbXiX;X%XE.5.UXUXUXUXUXUXUXUXUXUXUXUXUXUXUXUXUXUXUXUXUX",
"UXUXUXUXb l..XZXZXZXZXZXZXZXZXdX.X+. .o.w.c.N.V.Z.A.K.A.P.K.B.B.B.S..X4XNXGXGXDXkXwX;X!.p.UXUXUXUXUXUXUXUXUXUXUXUXUXUXUXUXUXUXUX",
"UXUXUXUXY G.<XZXZXCXZXZXZX6Xr.{ ..N.l.I.L.L.I.I.E.E.E.E.U.!.E.!.W.!.W.Y.D.(.+XxXGXGXMXwX%XW.2.UXUXUXUXUXUXUXUXUXUXUXUXUXUXUXUXUX",
"UXUXUXUX4.H.bXZXZXZXZXVXC.` q.j.G.G.I.G.I.I.I.E.U.U.U.U.U.E.!.W.!.!.!.~.~.~.~.Y.|.dXGXHXbX>X;XJ.I UXUXUXUXUXUXUXUXUXUXUXUXUXUXUX",
"UXUXUXUXp.L.ZXZXZXZXZXv._ f.G.G.G.G.G.L.I.G.I.I.I.U.U.U.E.U.U.W.R.!.W.!.!.!.~.^.^.Q..XzXGXGXfX-X^.3.UXUXUXUXUXUXUXUXUXUXUXUXUXUX",
"UXUXUXi d.@XZXZXSXZX|.) k.G.H.G.G.G.G.G.I.^.-XwXtXaXgXjXaXeX0X@XW.!.!.!.!.~.~.~.^.^.^.^.:XZXHXNX>X%Xp.UXUXUXUXUXUXUXUXUXUXUXUXUX",
"UXUXUXb l.<XZXDXSXvX_ 8.j.H.H.G.~.0XgXCXGXDXGXDXGXGXGXGXHXHXHXGXMXeX~.!.!.~.~.~.^.^.@X^.@XXXvXHXGXeX&Xj.UXUXUXUXUXUXUXUXUXUXUXUX",
"UXUXUXJ l.fXZXZXGX(./ l.R.>XgXSXZXGXSXGXDXGXDXDXGXGXGXHXGXGXHXHXGXHXGXfX@X~.~.~.^.^.^.^.@X%X@XrXGXJXfX-Xl.UXUXUXUXUXUXUXUXUXUXUX",
"UXUXUXT h.NXZXDXZX).tXSXGXGXGXSXGXGXGXGXGXGXDXVXzXyX8X7XBXGXjXjXVXHXGXGXGXeX~.Q.~.~.~.^.^.;X^.;X5XGXJXzX&XJ.UXUXUXUXUXUXUXUXUXUX",
"UXUXUX4.l.ZXGXZXZXGXZXGXGXSXGXGXGXGXZX7XoXv. .{ q.q.w.B.SXyX+.e.M.v. XzXGXJXBX&X~.~.@X^.@X@X@X%X%X,XGXJXzX-XZ.UXUXUXUXUXUXUXUXUX",
"UXUXUXt.J.DXDXGXGXZXGXGXGXGXGXSX6Xv.[ [ q.w.j.Z.J.J.I.cXHXv.e.U.R.R.R.B.F.dXGXGXeX~.^.@X@X%X@X@X@X&X,XGXJXzX-Xj.UXUXUXUXUXUXUXUX",
"UXUXUXp.W.GXGXGXGXGXGXGXHXVX X{ _ } f.j.z.J.J.J.J.J.&XJXcX .K.U.R.R.R.Q.W.R.|.VXHXhX~.^.^.^.@X%X@X%X@X<XJXKXdX-X9.UXUXUXUXUXUXUX",
"UXUX< p.^.GXGXGXGXGXGXCX X/ / 8.j.l.l.l.l.J.G.J.J.J.MXJX6Xe.U.R.R.R.R.R.R.Q.[.AX9XJXNX.X^.@X@X@X@X@X&X-XrXJXJXrX@XW UXUXUXUXUXUX",
"UXUXe p.>XGXGXGXGXGX2X_ D 7.d.l.d.j.l.l.l.z.J.K.J.&XJXJX3Xe.P.U.R.R.R.R.R.R.].&.*.{.ZXBX@X@X@X@X$X@X@X@X$XfXJXJX,XQ.B UXUXUXUXUX",
"UXUXe p.wXHXGXGXBXr.D ] d.d.d.d.d.l.j.l.z.z.l.z.z.yXHXJXrXe.P.P.U.R.R.R.Q.Q.'.$.$.%.#.tXCX$X@X@X@X@X$X@X@X$XNXJXDX$Xj.UXUXUXUXUX",
"UXUXe d.iXGXGX8X( D 9.s.s.s.d.d.d.l.l.l.l.l.z.z.J.GXKXJXxXe.P.P.R.Y.R.Y.R.Q.Q./.@.r.C.F.=XCX@X.X&X@X$X@X@X$X-XDXLXzX$XW UXUXUXUX",
"UXUXe 4.gXJXoXv P p.p.s.s.s.d.d.l.d.d.j.l.l.J.z.~.JXJXKXHX+.K.R.Y.R.Y.P.K.K.K.V.c.V.J.K.K..XzXQ.~.@X$X&X$X$X$XwXJXJX*XU.UXUXUXUX",
"UXUXe 4.aX_.v Q p.p.p.s.s.s.d.d.d.d.l.j.j.j.l.z.,XJXKXKXJX(.V.j.f.f.f.a.f.f.f.0.9.7.2.~ 3.~ } |.W 3.2.7.a.j.Z.W.cXPXCXXX~ UXUXUX",
"UXUXe 4.l.z U p.d.p.p.s.s.s.s.d.d.j.d.j.j.l.z.z.eXJXKXJXJX6X} 0.a.f.i.9.7.2.1.W ~ ! ~ ! ~ ~ ! } x.! ! ! ! ! ! W 2.ZXJXC.k.UXUXUX",
"UXUX6 4.,.T ,.,.5.p.s.a.d.p.s.s.d.d.j.j.j.j.l.j.=XKXKXJXJXJXe.0.0.2.<.Q 1.<.1.Q ~ ~ ~ ~ ~ ~ ! ~ 7.] ~ ! Q W <.W <.$XJX XK y UXUX",
"UXUX8 4.:.,.,.4.,.,.4.p.d.d.d.j.j.d.j.j.f.p.0.9.R.HXKXKXKXJXBX} 2.Q 1.1.1.1.1.1.~ ~ ~ ~ ~ ~ ~ ~ ~ ~ E ~ 3.W <.<.<.f.JXzXk B UXUX",
"UXUX5 ,.G.kXDXCXaXG.3.3.,.4.5.9.5.5.5.5.9.9.9.9.f.HXKXKXKXKXJXzXQ 1.Q 1.1.Q 1.1.~ ~ ~ ~ ~ ~ ! ~ ~ 2.! ~ <.1.Q <.W W SXGX9 Z UXUX",
"UXUX5 ,.>XLXKXKXJXJXaXt.4.4.4.4.4.5.5.5.5.9.9.9.0.0XKXKXKXKXKXKXzX0.1.1.6.1.1.1.~ ~ ~ ~ ~ ~ ~ ~ Q ~ ~ ~ 1.1.<.<.<.<.hXJXw U UXUX",
"UXUX: ,.@XLXJXLXLXKXLXZXj.4.2.4.5.4.5.5.9.9.9.9.u.0.2XJXJXJXLXKXJXZXk.2.1.1.Q 7.~ ~ 6.6.~ ~ ~ ~ 2.Q ~ ~ ~ ~ <.<.W W rXKXd U UXUX",
"UXUXUX,.R.KXPXJXKXLXLXKXHXP.4.5.5.5.5.9.9.9.9.9.4.1.<.e.tXJXKXLXKXKXHX|.1.1.2.Q ~ ~ ~ ~ ~ ~ ~ 2.~ ~ ~ ~ Q ~ 1.Q 2.2.eXKXd U UXUX",
"UXUXUX,.j.KXPXKXLXKXLXKXJXJXD.5.4.4.5.9.9.9.9.<.<.<.<.1.A c +.OXZXKXJXLXbXB.Q ~ 7.~ ~ ~ ~ ~ ~ } ~ ~ ~ 2.2.Q 1.2.W <.eXLXw U UXUX",
"UXUXUX;.p.KXPXLXPXLXPXPXPXLXPXT.9.5.5.5.9.4.W <.<.<.W <.1.Q 7.C d / (.NXPXJXfXN.~ ~ ~ 7.~ ~ ~ ~ ~ ~ ~ ~ Q 7.1.Q 2.Q fXJX3 U UXUX",
"UXUXUXG ;.JXPXPXPXPXPXKXPXPXPXPXXX4.9.9.<.<.<.W ! ! 3.~ Q 0.GXSXf.2.P j ( 1XJXPXcXY.7.~ ~ ~ ~ ~ ~ ~ ~ Q 2.1.1.Q Q <.CXVX3 A UXUX",
"UXUXUXn =.mXPXPXPXPXPXPXPXPXPXPXPX2X4.<.T <.<.<.W W Q ~ 7.MXPXzXw V R 2.2.P v (.GXPXHXuXD.7.~ ~ ~ ~ ~ 2.Q Q 6.2.1.7.LX4X9 z UXUX",
"UXUXUXu G aXPXPXPXPXPXIXPXPXPXPXIXPXjX4.W 3.<.W W 2.2.7.mXPXPX' s $   # s E ~ Q S (.HXPXPXLXbX<XT.i.2.Q 2.Q 2.Q 1.P.PXm.k r UXUX",
"UXUXUXe =.;XPXPXIXPXPXPXPXPXPXIXPXPXPXHXY.:.W <.! ! V.DXPXPX X3 x UXUXUX    ; S ~ ~ S (.HXPXIXPXPXIXLXSXNXfXeX5X>XcXPX^ V > UXUX",
"UXUXUX6 =.I.PXPXPXPXIXPXIXPXIXPXPXIXPXIXPXDXeX$X,XMXIXPXPX4X3 z 4 UXUXUXUXUXUX  # j ~ ~ S (.GXPXIXPXPXIXIXPXPXPXPXPXCX3 K UXUXUX",
"UXUXUX* =.p.PXIXIXIXPXIXIXIXPXIXIXPXIXPXIXPXIXIXPXIXPXIXoX3 d x UXUXUXUXUXUXUXUXUX  $ g E ~ S (.GXIXPXIXPXIXIXIXIXIXm.9 h UXUXUX",
"UXUXUXUX=.;.PXIXIXPXIXIXPXIXPXIXIXIXIXIXIXPXIXIXPXIXGX .3 j P . UXUXUXUXUXUXUXUXUXUXUX  X a E ~ S m.CXIXPXIXIXIXIXSXw x > UXUXUX",
"UXUXUXUXG =.FXIXIXIXIXIXIXIXIXIXIXIXIXIXIXIXIXIXJX(.w 9 F A . UXUXUXUXUXUXUXUXUXUXUXUXUXUX  . w E ~ S  .4XPXIXIXJX^ 9 A UXUXUXUX",
"UXUXUXUXp G aXPXPXIXIXIXIXIXIXIXIXIXIXIXIXIXNXr.w 9 j 1.k . UXUXUXUXUXUXUXUXUXUXUXUXUXUXUXUXUXUX  , S ~ P j '  .f 4 E , UXUXUXUX",
"UXUXUXUXt =.qXPXIXIXIXIXIXIXIXIXIXIXIXZX).v 2 9 C Q L ;   UXUXUXUXUXUXUXUXUXUXUXUXUXUXUXUXUXUXUXUXUX  # s E ~ P S ~ k UXUXUXUXUX",
"UXUXUXUX< G G.IXIXIXIXIXIXIXIXIXSX|.v 2 9 z R <.R 9   UXUXUXUXUXUXUXUXUXUXUXUXUXUXUXUXUXUXUXUXUXUXUXUXUX    = 9 d k   UXUXUXUXUX",
"UXUXUXUXUX=.t.IXIXIXIXIXIXcX).v 2 8 h U 3.W A >   UXUXUXUXUXUXUXUXUXUXUXUXUXUXUXUXUXUXUXUXUXUXUXUXUXUXUXUXUXUXUX  UXUXUXUXUXUXUX",
"UXUXUXUXUXN =.LXIXJX4Xe.s : 0 M I :.:.U r #   UXUXUXUXUXUXUXUXUXUXUXUXUXUXUXUXUXUXUXUXUXUXUXUXUXUXUXUXUXUXUXUXUXUXUXUXUXUXUXUXUX",
"UXUXUXUXUXu =.E.D : 5 t Z T -.:.Z r %     UXUXUXUXUXUXUXUXUXUXUXUXUXUXUXUXUXUXUXUXUXUXUXUXUXUXUXUXUXUXUXUXUXUXUXUXUXUXUXUXUXUXUX",
"UXUXUXUXUX6 G =.n G -.-.I i > O     UXUXUXUXUXUXUXUXUXUXUXUXUXUXUXUXUXUXUXUXUXUXUXUXUXUXUXUXUXUXUXUXUXUXUXUXUXUXUXUXUXUXUXUXUXUX",
"UXUXUXUXUX% =.=.N u : +     UXUXUXUXUXUXUXUXUXUXUXUXUXUXUXUXUXUXUXUXUXUXUXUXUXUXUXUXUXUXUXUXUXUXUXUXUXUXUXUXUXUXUXUXUXUXUXUXUXUX",
"UXUXUXUXUXUX: o     UXUXUXUXUXUXUXUXUXUXUXUXUXUXUXUXUXUXUXUXUXUXUXUXUXUXUXUXUXUXUXUXUXUXUXUXUXUXUXUXUXUXUXUXUXUXUXUXUXUXUXUXUXUX",
"UXUXUXUXUXUXUXUXUXUXUXUXUXUXUXUXUXUXUXUXUXUXUXUXUXUXUXUXUXUXUXUXUXUXUXUXUXUXUXUXUXUXUXUXUXUXUXUXUXUXUXUXUXUXUXUXUXUXUXUXUXUXUXUX",
"UXUXUXUXUXUXUXUXUXUXUXUXUXUXUXUXUXUXUXUXUXUXUXUXUXUXUXUXUXUXUXUXUXUXUXUXUXUXUXUXUXUXUXUXUXUXUXUXUXUXUXUXUXUXUXUXUXUXUXUXUXUXUXUX",
"UXUXUXUXUXUXUXUXUXUXUXUXUXUXUXUXUXUXUXUXUXUXUXUXUXUXUXUXUXUXUXUXUXUXUXUXUXUXUXUXUXUXUXUXUXUXUXUXUXUXUXUXUXUXUXUXUXUXUXUXUXUXUXUX",
"UXUXUXUXUXUXUXUXUXUXUXUXUXUXUXUXUXUXUXUXUXUXUXUXUXUXUXUXUXUXUXUXUXUXUXUXUXUXUXUXUXUXUXUXUXUXUXUXUXUXUXUXUXUXUXUXUXUXUXUXUXUXUXUX",
"UXUXUXUXUXUXUXUXUXUXUXUXUXUXUXUXUXUXUXUXUXUXUXUXUXUXUXUXUXUXUXUXUXUXUXUXUXUXUXUXUXUXUXUXUXUXUXUXUXUXUXUXUXUXUXUXUXUXUXUXUXUXUXUX",
"UXUXUXUXUXUXUXUXUXUXUXUXUXUXUXUXUXUXUXUXUXUXUXUXUXUXUXUXUXUXUXUXUXUXUXUXUXUXUXUXUXUXUXUXUXUXUXUXUXUXUXUXUXUXUXUXUXUXUXUXUXUXUXUX",
"UXUXUXUXUXUXUXUXUXUXUXUXUXUXUXUXUXUXUXUXUXUXUXUXUXUXUXUXUXUXUXUXUXUXUXUXUXUXUXUXUXUXUXUXUXUXUXUXUXUXUXUXUXUXUXUXUXUXUXUXUXUXUXUX"
};
