/* XPM */
static char *komodo32_edit[] = {
/* columns rows colors chars-per-pixel */
"32 32 189 2 ",
"   c #808184",
".  c #818386",
"X  c #848687",
"o  c #868889",
"O  c #87898C",
"+  c #88898C",
"@  c #888A8C",
"#  c #888A8D",
"$  c #8A8C8E",
"%  c #8A8C8F",
"&  c #8C8E90",
"*  c #8D8F92",
"=  c #8F9194",
"-  c #929396",
";  c #929496",
":  c #929497",
">  c #939597",
",  c #959799",
"<  c #95979A",
"1  c #96989A",
"2  c #96989B",
"3  c #97989B",
"4  c #97999B",
"5  c #97999C",
"6  c #989A9C",
"7  c #989A9D",
"8  c #999B9D",
"9  c #999B9E",
"0  c #9A9C9F",
"q  c #9C9E9F",
"w  c #9B9DA0",
"e  c #9C9EA0",
"r  c #9D9FA0",
"t  c #9C9EA1",
"y  c #9D9EA1",
"u  c #9D9FA2",
"i  c #9FA1A2",
"p  c #9EA0A3",
"a  c #9FA1A4",
"s  c #A0A2A4",
"d  c #A0A2A5",
"f  c #A2A4A5",
"g  c #A2A4A6",
"h  c #A2A4A7",
"j  c #A3A4A7",
"k  c #A4A6A8",
"l  c #A5A7A9",
"z  c #A6A7A9",
"x  c #A6A8AA",
"c  c #A7A9AB",
"v  c #A9AAAB",
"b  c #A8AAAC",
"n  c #A9ABAC",
"m  c #A8AAAD",
"M  c #A9ABAE",
"N  c #AAACAE",
"B  c #ACADAF",
"V  c #ADAFAF",
"C  c #ABADB0",
"Z  c #AEAFB2",
"A  c #AEB0B1",
"S  c #AEB0B2",
"D  c #AFB0B2",
"F  c #AEB0B3",
"G  c #AFB1B3",
"H  c #B0B2B4",
"J  c #B1B2B4",
"K  c #B1B3B4",
"L  c #B0B2B5",
"P  c #B1B3B5",
"I  c #B2B3B6",
"U  c #B2B4B5",
"Y  c #B3B4B5",
"T  c #B2B4B6",
"R  c #B3B5B6",
"E  c #B3B5B7",
"W  c #B4B5B7",
"Q  c #B4B6B7",
"!  c #B4B6B8",
"~  c #B5B7B9",
"^  c #B6B7B8",
"/  c #B6B8BA",
"(  c #B7B9BB",
")  c #B9B9BB",
"_  c #B9BBBD",
"`  c #BBBCBD",
"'  c #BABCBE",
"]  c #BBBCBE",
"[  c #BBBDBE",
"{  c #BBBDBF",
"}  c #BCBCBE",
"|  c #BCBEBF",
" . c #BCBEC0",
".. c #BDBEC0",
"X. c #BEBFC0",
"o. c #BEC0C1",
"O. c #BFC0C1",
"+. c #BEC0C2",
"@. c #BFC0C2",
"#. c #C0C1C3",
"$. c #C1C2C3",
"%. c #C1C2C4",
"&. c #C2C3C4",
"*. c #C2C3C5",
"=. c #C3C4C5",
"-. c #C2C4C6",
";. c #C3C4C6",
":. c #C3C5C6",
">. c #C4C5C7",
",. c #C5C5C7",
"<. c #C4C6C7",
"1. c #C5C6C8",
"2. c #C6C7C9",
"3. c #C7C8C9",
"4. c #C7C9C9",
"5. c #C7C8CA",
"6. c #C7C9CB",
"7. c #C8C9CB",
"8. c #C8CACB",
"9. c #CACBCC",
"0. c #CACCCD",
"q. c #CBCCCE",
"w. c #CCCDCE",
"e. c #CDCECF",
"r. c #CDCFCF",
"t. c #CDCED0",
"y. c #CDCFD0",
"u. c #CECFD1",
"i. c #D0D1D2",
"p. c #D0D1D3",
"a. c #D2D3D5",
"s. c #D4D5D5",
"d. c #D4D5D6",
"f. c #D6D7D9",
"g. c #D7D8D8",
"h. c #D8D9DA",
"j. c #D9D9DA",
"k. c #D9DADB",
"l. c #DADBDB",
"z. c #DBDBDC",
"x. c #DBDCDC",
"c. c #DBDCDD",
"v. c #DCDCDD",
"b. c #DCDDDE",
"n. c #DDDEDF",
"m. c #DFDFE0",
"M. c #DFE0E1",
"N. c #E1E1E2",
"B. c #E2E3E4",
"V. c #E3E4E4",
"C. c #E4E4E5",
"Z. c #E4E5E6",
"A. c #E6E6E7",
"S. c #E6E7E7",
"D. c #E7E8E8",
"F. c #E8E8E9",
"G. c #E9EAEA",
"H. c #EAEAEB",
"J. c #EBEBEC",
"K. c #EBECEC",
"L. c #ECECEC",
"P. c #ECECED",
"I. c gray93",
"U. c #EEEEEF",
"Y. c #EFEFEF",
"T. c gray94",
"R. c #F0F1F1",
"E. c #F1F1F1",
"W. c gray95",
"Q. c #F3F3F3",
"!. c #F3F3F4",
"~. c #F3F4F4",
"^. c #F4F4F4",
"/. c #F4F5F5",
"(. c gray96",
"). c #F6F6F6",
"_. c #F6F6F7",
"`. c #F7F8F8",
"'. c #F8F8F8",
"]. c #F8F8F9",
"[. c #F9F9F9",
"{. c #F9F9FA",
"}. c #F9FAFA",
"|. c gray98",
" X c #FBFBFB",
".X c gray99",
"XX c #FEFEFE",
"oX c white",
"OX c None",
/* pixels */
"OXOXOXOXOXOXOXOXOXOXOXOXOXOXOXOXOXOXOXOXOXOXOXOXOXOXOXOXOXOXOXOX",
"OXOXOXOXOXOXOXOXOXOXOXOXOXOXOX' OXOXOXOXOXOXOXOXOXOXOXOXOXOXOXOX",
"OXOXOXOXOXOXOXOXOXOXOXOXOX'  . . .' OXOXOXOXOXOXOXOXOXOXOXOXOXOX",
"OXOXOXOXOXOXOXOXOXOXOX'  . . . . . .o.' OXOXOXOXOXOXOXOXOXOXOXOX",
"OXOXOXOXOXOXOXOXOXOX'  . . . .'  . . . .' OXOXOXOXOXOXOXOXOXOXOX",
"OXOXOXOXOXOXOXOX'  .o. . . . .'  . . . . . .' OXOXOXOXOXOXOXOXOX",
"OXOXOXOXOXOX'  . . . .' f.H._._._._.B.3. . . . .' OXOXOXOXOXOXOX",
"OXOXOXOXOX'  . .' ' w._.B.<.z V G T <.Y.B.2. . . . .OXOXOXOXOXOX",
"OXOXOX'  . . . . .w._.<.c p._.XXXXXXXXT.b.D.i.'  . . .' OXOXOXOX",
"OXOXOX .' ' '  . ._.w.V _.XXXXXXXXb.V _._.p.w.w. .' ' ' OXOXOXOX",
"OXOXOX' ' ' ' ' b.H.s H.XXXXXXXXXXXX<.'.V H.w.w.<.' ' ' OXOXOXOX",
"OXOXOX' ' ' ' ' `.w.T XXXXXXXXXXT.T ^ w.B.w.b.<.b.T ' ' OXOXOXOX",
"OXOXOX/ ' / / 2.XX' 2.XXXXXXXXH.XXb.T T O.b.T T p. ./ / OXOXOXOX",
"OXOXOX/ / ! / p.XX<.2.XXXXXXXXw.b.B.' ' / ' m.' p.i.T ! OXOXOXOX",
"OXOXOX! ! ! ! p.XXb.V XXXXXXXXT T H.H.T T T X.H._.T V T OXOXOXOX",
"OXOXOXT T T T w.XXXXV H.XXXXXXs T T ^ s T T T ' T 0 G T OXOXOXOX",
"OXOXOXL L L G  .XXXXb.w.XXXXXXXXXXD.T V T G T T V c G G OXOXOXOX",
"OXOXOXG G G C G B.XXXX<._.XXXXXXXX_.0 V C G C G C 2.G C OXOXOXOX",
"OXOXOXC m C C C T B.XXXXb.XXXXXXB._.' G C C V V ! H.z C OXOXOXOX",
"OXOXOXC m m m ! b.XXXXXX_.XXXXXX3.XXS.s c c z c B.m., C OXOXOXOX",
"OXOXOXc z z m ].XXXXXXXXH.XXXXXX'.' i , z c c b.XXC 2 z OXOXOXOX",
"OXOXOXz z z z h.XXXXXXXX' Y.XXXXXXXXb.<.' w._.XXt.* i z OXOXOXOX",
"OXOXOXz a z s z s V ' XX<.s S.XXXXXXXXXXXXXXXX<.% , z z OXOXOXOX",
"OXOXOXu z a i i i T w._.0 , s <._.XXXXXXXXp.0 @ , i a u OXOXOXOX",
"OXOXOXOX* u i u u i C T % 0 u u - 0 0 0 % o = 0 i u * OXOXOXOXOX",
"OXOXOXOXOXOX- u u u u 0 , u 0 0 0 0 0 2 2 u u u , OXOXOXOXOXOXOX",
"OXOXOXOXOXOXOXOX2 0 0 0 0 0 0 0 0 0 0 0 0 0 2 OXOXOXOXOXOXOXOXOX",
"OXOXOXOXOXOXOXOXOXX 2 0 2 0 0 0 0 0 0 0 2 o OXOXOXOXOXOXOXOXOXOX",
"OXOXOXOXOXOXOXOXOXOXOX* 2 0 2 2 0 0 2 @ OXOXOXOXOXOXOXOXOXOXOXOX",
"OXOXOXOXOXOXOXOXOXOXOXOXOX- 2 , - - OXOXOXOXOXOXOXOXOXOXOXOXOXOX",
"OXOXOXOXOXOXOXOXOXOXOXOXOXOXX - X OXOXOXOXOXOXOXOXOXOXOXOXOXOXOX",
"OXOXOXOXOXOXOXOXOXOXOXOXOXOXOXOXOXOXOXOXOXOXOXOXOXOXOXOXOXOXOXOX"
};
