/* XPM */
static char *komodo32_edit[] = {
/* columns rows colors chars-per-pixel */
"32 32 187 2 ",
"   c #000000",
".  c #040708",
"X  c #060B0D",
"o  c #061215",
"O  c #0A1215",
"+  c #0C1618",
"@  c #0C191B",
"#  c #101F22",
"$  c #112227",
"%  c #132529",
"&  c #0D2930",
"*  c #142B31",
"=  c #192F35",
"-  c #0E333C",
";  c #1A3137",
":  c #15343C",
">  c #1B353C",
",  c #1E393F",
"<  c #143D47",
"1  c #1C3A42",
"2  c #1B424D",
"3  c #144955",
"4  c #1A4A55",
"5  c #164F5D",
"6  c #1C4D58",
"7  c #224046",
"8  c #23434A",
"9  c #274B53",
"0  c #284850",
"q  c #2A5059",
"w  c #3B5258",
"e  c #195A69",
"r  c #215662",
"t  c #265A66",
"y  c #2F5862",
"u  c #245C6A",
"i  c #3C5C64",
"p  c #3B5F68",
"a  c #1E6B7D",
"s  c #25606E",
"d  c #2D636F",
"f  c #37636D",
"g  c #296472",
"h  c #2F6874",
"j  c #326976",
"k  c #356E7B",
"l  c #3B6E7B",
"z  c #35717F",
"x  c #3B727F",
"c  c #436268",
"v  c #4A6369",
"b  c #51666B",
"n  c #406A75",
"m  c #4D6E76",
"M  c #466E79",
"N  c #4D6F78",
"B  c #536D73",
"V  c #5C6E74",
"C  c #40717E",
"Z  c #4B737D",
"A  c #5A7277",
"S  c #5C757B",
"D  c #62777D",
"F  c #63787D",
"G  c #D8A86D",
"H  c #DAAF71",
"J  c #2F7181",
"K  c #367280",
"L  c #3B7381",
"P  c #3A7885",
"I  c #337989",
"U  c #3B7B8B",
"Y  c #427A87",
"T  c #437D8B",
"R  c #4A7E8B",
"E  c #537F8B",
"W  c #637E84",
"Q  c #697F84",
"!  c #46818E",
"~  c #4A818F",
"^  c #52828F",
"/  c #5A828B",
"(  c #458695",
")  c #4F8693",
"_  c #4B8896",
"`  c #4D8A99",
"'  c #538692",
"]  c #538A95",
"[  c #548D9B",
"{  c #5A8E9B",
"}  c #57909C",
"|  c #5B919E",
" . c #698187",
".. c #66878E",
"X. c #6B8288",
"o. c #668C96",
"O. c #6B8A91",
"+. c #698F98",
"@. c #748B91",
"#. c #63929D",
"$. c #68929C",
"%. c #73969F",
"&. c #5B93A0",
"*. c #6296A4",
"=. c #6B96A2",
"-. c #649AA7",
";. c #669CA8",
":. c #6C9FAA",
">. c #7697A1",
",. c #749AA3",
"<. c #7D9EA1",
"1. c #729EA9",
"2. c #6FA0AC",
"3. c #73A1AC",
"4. c #7FA3AB",
"5. c #76A5B0",
"6. c #7BA6B1",
"7. c #7EA9B3",
"8. c #839497",
"9. c #8B9699",
"0. c #85989E",
"q. c #89999D",
"w. c #849EA5",
"e. c #8B9CA0",
"r. c #84A0A7",
"t. c #8EA1A6",
"y. c #82A3AA",
"u. c #8CA6AC",
"i. c #87A8AF",
"p. c #8CA8AF",
"a. c #96A2A4",
"s. c #98A3A7",
"d. c #98A7AC",
"f. c #9FA9AC",
"g. c #86A7B0",
"h. c #83AAB4",
"j. c #8AADB5",
"k. c #92AEB5",
"l. c #9EAFB3",
"z. c #8DB1B9",
"x. c #93B4BC",
"c. c #9BB3B9",
"v. c #B0B1A9",
"b. c #A4AFB2",
"n. c #A4B2B5",
"m. c #A0B4B9",
"M. c #ACB7B9",
"N. c #A9B8BC",
"B. c #B2BABD",
"V. c #BBC1BF",
"C. c #9CBAC2",
"Z. c #A5BEC5",
"A. c #B0BFC4",
"S. c #AAC1C7",
"D. c #A6C3CA",
"F. c #ADC4CA",
"G. c #B6C4C7",
"H. c #BEC5C6",
"J. c #B5C7CC",
"K. c #B9C6CA",
"L. c #B6C9CE",
"P. c #BBCACD",
"I. c #B5CAD0",
"U. c #BCCDD1",
"Y. c #C0C5C7",
"T. c #C2CACC",
"R. c #C1CCD0",
"E. c #C8CFD1",
"W. c #C5D2D5",
"Q. c #CBD2D4",
"!. c #CAD5D9",
"~. c #D2D6D6",
"^. c #D1D7D9",
"/. c #D4DADC",
"(. c #DCDDDD",
"). c #CADCE0",
"_. c #D5DEE1",
"`. c #DCDFE0",
"'. c #DDE3E4",
"]. c #E2E2E3",
"[. c #E5E7E8",
"{. c #E7E9E9",
"}. c #ECECED",
"|. c #EFF1F2",
" X c #F3F4F4",
".X c #FAFAFA",
"XX c None",
/* pixels */
"XXXXXXXXXXXXXXXXXXXXXXXXXXXXXXXXXXXXXXXXXXXXXXXXXXXXXXXXXXXXXXXX",
"XXXXXXXXXXXXXXXXXXXXXXXXXXXXXXXXXXXXXXXXXXXXXXXXXXXXXXXXXXXXXXXX",
"XXXXXXXXXXXXXXXXXXXXXXXXXXXXXXXXXXXXXXXXXXXXXXXXXXXXXXXXXXXXXXXX",
"XXXXXXXXXXXXXXXXXXXXXXXXXXXXXXXXXXXXXXXXXXXXXXXXXXXXXXXXXXXXXXXX",
"XXXXXXXXP ( ) [ [ | [ [ ] ( XXXXXXXXXXXXXXXXXXXXXXXXXXXXXXXXXXXX",
"XXXXXX-.h.x.Z.Z.F.J.F.F.Z.C.C.h.:.| Y XXXXXXXXXXXXXXXXXXXXXXXXXX",
"XXXXj j.(.(.(.(.(.~.P.G.G.J.R.!./.W.D.h.&.XXXXXXXXXXXXXXXXXXXXXX",
"XXXXY G.(.(.~.a.Q A S W ....O.O.@.0.N.Q.!.C.&.XXXXXXXXXXXXXXXXXX",
"XXXX[ /.(.Y.D B / | -.;.:.:.2.3.5.5.1.>.t.E.W.z.~ XXXXXXXXXXXXXX",
"XXXX3.(./.A b { 2.z.S.P.W.Q.W.L.x.5.7.7.7.4.l.(.S.| XXXXXXXXXXXX",
"XX6 h.(.B.8.G./.].].].`.~.Q.`.^.]./.C.7.7.7.h.j./.P.#.XXXXXXXXXX",
"XXt c.].`.].`.].H.e.X.b A @.Y.S  .q.Y.E.h.h.h.h.j.~.P.#.XXXXXXXX",
"XXd J.].].'.m.A c m E { *.W.k.W 1.1.>.v.~.k.h.h.h.z.`.K./ XXXXXX",
"XXj U.].T.A i n _ } | *.4.{.0.o.:.1.1.H G V.k.h.h.h.x.].c.XXXXXX",
"XXh !.m.i f R ` ] } } &.S.{.a.$.1.1.1.w.Q W d.p.h.j.z.Z.].>.XXXX",
"XXs 3.p n ) _ _ ` [ [ | W.}.Y.Z ' ' Y Y L L x Z C L Y ] K.N.f XX",
"XXe I g U ( ` ` [ { [ ] J.}.}. .L L x L x x x L x k k K ' E.2 XX",
"XXt Z.[.I.[ I U U U U Y h.}.}.]./ x x x C x x x x l x z K _.1 XX",
"XXt F.|.|.[.=.I U U U ( Y w.'.}.{.w.L x x x x x x x x K z !.7 XX",
"XX6 C.|. X|.|.w.U U T K k k y b 9.Q.T.#.x x x x x x x x z !.1 XX",
"XX< 7. X X X X Xk.U J k K K #.].f q v b.Q.p.R x x x x l L /.: XX",
"XX- &. X X X.X X XA.R J k 1.}.r.# . = 9 c b.|._.F.k.4.1.j.J.* XX",
"XXXXU .X.X.X X.X.X.X X!.'. Xm.; X XXXX. # 8 c f. X.X.X.X.XO.% XX",
"XXXXa |..X.X.X.X.X.X.X.X'.F ; @ XXXXXXXXXX. + 8 i a.[..XH.; X XX",
"XXXXe )..X.X.X.X.X XN.V ; ; O XXXXXXXXXXXXXXXX. X > 8 w , % XXXX",
"XXXX5 D..X.X XB.D 1 ; 1 # . XXXXXXXXXXXXXXXXXXXXXXXX. @ % XXXXXX",
"XXXX- &.p.v : < < * + . XXXXXXXXXXXXXXXXXXXXXXXXXXXXXXXXXXXXXXXX",
"XXXXXXJ 5 - & o . . XXXXXXXXXXXXXXXXXXXXXXXXXXXXXXXXXXXXXXXXXXXX",
"XXXXXXo . . XXXXXXXXXXXXXXXXXXXXXXXXXXXXXXXXXXXXXXXXXXXXXXXXXXXX",
"XXXXXXXXXXXXXXXXXXXXXXXXXXXXXXXXXXXXXXXXXXXXXXXXXXXXXXXXXXXXXXXX",
"XXXXXXXXXXXXXXXXXXXXXXXXXXXXXXXXXXXXXXXXXXXXXXXXXXXXXXXXXXXXXXXX",
"XXXXXXXXXXXXXXXXXXXXXXXXXXXXXXXXXXXXXXXXXXXXXXXXXXXXXXXXXXXXXXXX"
};
