/* XPM */
static char * komodo16_edit_xpm[] = {
"16 16 161 2",
"  	c None",
". 	c #6A6A6A",
"+ 	c #727272",
"@ 	c #787878",
"# 	c #7B7B7B",
"$ 	c #808080",
"% 	c #838383",
"& 	c #7C7D7D",
"* 	c #6C6C6C",
"= 	c #ADADAD",
"- 	c #A2A2A2",
"; 	c #9F9F9F",
"> 	c #979797",
", 	c #959595",
"' 	c #9B9B9B",
") 	c #868686",
"! 	c #6C6D6D",
"~ 	c #727273",
"{ 	c #757575",
"] 	c #474747",
"^ 	c #454545",
"/ 	c #3F3F3F",
"( 	c #3D3D3D",
"_ 	c #616161",
": 	c #949392",
"< 	c #CDC9C7",
"[ 	c #CDCAC8",
"} 	c #919191",
"| 	c #646464",
"1 	c #696969",
"2 	c #777777",
"3 	c #575757",
"4 	c #5C5C5C",
"5 	c #0C0C0C",
"6 	c #333333",
"7 	c #6F6F6E",
"8 	c #525455",
"9 	c #858A8D",
"0 	c #D7D5D5",
"a 	c #F1F0EF",
"b 	c #CBCBCA",
"c 	c #707070",
"d 	c #5B5B5B",
"e 	c #7F7F7F",
"f 	c #FBFBFB",
"g 	c #AFAFAF",
"h 	c #1E1E1E",
"i 	c #B6B6B6",
"j 	c #FDFBF9",
"k 	c #A6AFB5",
"l 	c #4F7B92",
"m 	c #6695A6",
"n 	c #9DB2BB",
"o 	c #EDECEC",
"p 	c #EBEBEA",
"q 	c #4F4F4F",
"r 	c #7D7D7D",
"s 	c #FFFFFF",
"t 	c #141414",
"u 	c #E4E4E4",
"v 	c #F5FBFF",
"w 	c #8EC0D9",
"x 	c #65B0CA",
"y 	c #6B94A6",
"z 	c #B1B0B1",
"A 	c #FFFFFE",
"B 	c #FCFDFD",
"C 	c #505050",
"D 	c #8C8C8C",
"E 	c #F2F2F2",
"F 	c #484848",
"G 	c #000000",
"H 	c #848484",
"I 	c #E9F3F9",
"J 	c #CBE5F0",
"K 	c #D8EAF0",
"L 	c #CCCDCD",
"M 	c #DDDCDB",
"N 	c #5F5F5F",
"O 	c #666666",
"P 	c #F3F3F3",
"Q 	c #5A5A5A",
"R 	c #0E0E0E",
"S 	c #919292",
"T 	c #F5F4F3",
"U 	c #FDFDFD",
"V 	c #EFEFEF",
"W 	c #F4F4F4",
"X 	c #B9B9B9",
"Y 	c #8A8A8A",
"Z 	c #F9F9F9",
"` 	c #B0B0B0",
" .	c #444444",
"..	c #050505",
"+.	c #020202",
"@.	c #606060",
"#.	c #BEBDBD",
"$.	c #F4F2F1",
"%.	c #FAFAFA",
"&.	c #4D4D4D",
"*.	c #A0A0A0",
"=.	c #BCBCBC",
"-.	c #252525",
";.	c #282828",
">.	c #2E2E2E",
",.	c #363636",
"'.	c #6B6B6B",
").	c #A1A2A2",
"!.	c #D0D0D0",
"~.	c #F1F1F1",
"{.	c #FCFCFC",
"].	c #E7E7E7",
"^.	c #D7D7D7",
"/.	c #626262",
"(.	c #C2C2C2",
"_.	c #AAAAAA",
":.	c #424242",
"<.	c #3E3E3E",
"[.	c #7E7E7E",
"}.	c #A1A1A1",
"|.	c #B3B3B3",
"1.	c #434343",
"2.	c #C7C7C7",
"3.	c #0A0A0A",
"4.	c #898989",
"5.	c #E9E9E9",
"6.	c #CBCBCB",
"7.	c #CACACA",
"8.	c #B4B4B4",
"9.	c #4C4C4C",
"0.	c #171717",
"a.	c #222222",
"b.	c #292929",
"c.	c #D2D2D2",
"d.	c #010101",
"e.	c #202020",
"f.	c #CECECE",
"g.	c #6D6D6D",
"h.	c #C3C3C3",
"i.	c #2D2D2D",
"j.	c #7A7A7A",
"k.	c #A9A9A9",
"l.	c #C9C9C9",
"m.	c #3A3A3A",
"n.	c #636363",
"o.	c #9E9E9E",
"p.	c #C4C4C4",
"q.	c #CFCFCF",
"r.	c #BEBEBE",
"s.	c #A7A7A7",
"t.	c #CCCCCC",
"u.	c #BFBFBF",
"v.	c #9C9C9C",
"w.	c #515151",
"x.	c #9D9D9D",
"y.	c #BDBDBD",
"z.	c #D1D1D1",
"A.	c #C0C0C0",
"B.	c #888888",
"C.	c #B1B1B1",
"D.	c #747474",
". + @ # $ % & *                 ",
"= - ; > , ' ) ! ~ {             ",
"] ^ / ( _ : < [ } | 1 2         ",
"3 4 5 6 7 8 9 0 a b c d e       ",
"f g h i j k l m n o p ) q r     ",
"s 2 t u s v w x y z A B e C D   ",
"E F G H s s I J K L M s f N O   ",
"P Q G R S T s s s U V W s X ] Y ",
"Z `  ...+.@.#.$.s s s U s %.&.*.",
"s s =.-.;.>.,.'.).!.~.{.s s 4 X ",
"].^./.,.(._.@.:.,.<.Q [.}.|.1.2.",
"^ -.3.4.5.6.7.8.[.9.;.0.a.>.b.c.",
"d.e.[.f., g._.6.c.h.*.{ C i.c X ",
"j.k.l.}.m.    n.o.p.c.q.r.s.t.e ",
"(.u.v.w.          n.x.y.2.z.A.  ",
"|.B.:.                /.v.C.D.  "};
