/* XPM */ 
static const unsigned char * komodoedit5_icon_48x48x32b_xpm[] = {
"48 48 268 2",
"  	c None",
"! 	c black",
"# 	c #E2E2E2",
"$ 	c #F2F2F2",
"% 	c #F1F1F1",
"& 	c #EFEFEF",
"' 	c #EBEBEB",
"( 	c #E3E3E3",
") 	c #E1E1E1",
"* 	c #E5E5E5",
"+ 	c #ECECEC",
", 	c #DFDFDF",
"- 	c #DDDDDD",
". 	c #DBDBDB",
"0 	c #A5A5A5",
"1 	c #E4E4E4",
"2 	c #BDBDBD",
"3 	c #A1A1A1",
"4 	c #8A8A8A",
"5 	c #737373",
"6 	c #636363",
"7 	c #4E4E4E",
"8 	c #3A3A3A",
"9 	c #2B2B2B",
": 	c #212121",
"; 	c #1F1F1F",
"< 	c #242424",
"= 	c #272727",
"> 	c #2F2F2F",
"? 	c #353535",
"@ 	c #474747",
"A 	c #616161",
"B 	c #7C7C7C",
"C 	c #939393",
"D 	c #BCBCBC",
"E 	c #EDEDED",
"F 	c #CDCDCD",
"G 	c #B9B9B9",
"H 	c #C9C9C9",
"I 	c #808080",
"J 	c #747474",
"K 	c #656565",
"L 	c #3B3B3B",
"M 	c #161616",
"N 	c #131313",
"O 	c #1E1E1E",
"P 	c #3D3D3D",
"Q 	c #4C4C4C",
"R 	c #535353",
"S 	c #5A5A5A",
"T 	c #555555",
"U 	c #363636",
"V 	c #303030",
"W 	c #252525",
"X 	c #222222",
"Y 	c #909090",
"Z 	c #F0F0F0",
"[ 	c #C3C3C3",
"] 	c #838383",
"^ 	c #5F5F5F",
"_ 	c #626262",
"` 	c #9C9C9C",
"a 	c #C4C4C4",
"b 	c #E0E0E0",
"c 	c #EEEEEE",
"d 	c #F4F4F4",
"e 	c #F5F5F5",
"f 	c #F3F3F3",
"g 	c #CCCCCC",
"h 	c #AFAFAF",
"i 	c #949494",
"j 	c #6E6E6E",
"k 	c #545454",
"l 	c #424242",
"m 	c #262626",
"n 	c #3E3E3E",
"o 	c #8E8E8E",
"p 	c #E7E7E7",
"q 	c #B1B1B1",
"r 	c #707070",
"s 	c #5D5D5D",
"t 	c #797979",
"u 	c #D8D8D8",
"v 	c #FCFCFC",
"w 	c #FAFAFA",
"x 	c #E8E8E8",
"y 	c #A2A2A2",
"z 	c #959595",
"{ 	c #828282",
"| 	c #757575",
"} 	c #6F6F6F",
"~ 	c #7E7E7E",
" !	c #8D8D8D",
"!!	c #B0B0B0",
"#!	c #E9E9E9",
"$!	c #FDFDFD",
"%!	c #FEFEFE",
"&!	c #D7D7D7",
"'!	c #ABABAB",
"(!	c #414141",
")!	c #1B1B1B",
"*!	c #6A6A6A",
"+!	c #D5D5D5",
",!	c #D6D6D6",
"-!	c #8B8B8B",
".!	c #C1C1C1",
"0!	c #9A9A9A",
"1!	c #434343",
"2!	c #1D1D1D",
"3!	c #080808",
"4!	c #020202",
"5!	c #010101",
"6!	c #030303",
"7!	c #040404",
"8!	c white",
"9!	c #646464",
":!	c #0C0C0C",
";!	c #6B6B6B",
"<!	c #5B5B5B",
"=!	c #373737",
">!	c #313131",
"?!	c #0D0D0D",
"@!	c #0F0F0F",
"A!	c #2A2A2A",
"B!	c #333333",
"C!	c #3C3C3C",
"D!	c #090909",
"E!	c #323232",
"F!	c #151515",
"G!	c #1C1C1C",
"H!	c #D3D3D3",
"I!	c #F7F7F7",
"J!	c #1A1A1A",
"K!	c #727272",
"L!	c #4D4D4D",
"M!	c #444444",
"N!	c #202020",
"O!	c #141414",
"P!	c #AAAAAA",
"Q!	c #CACACA",
"R!	c #A6A6A6",
"S!	c #969696",
"T!	c #ACACAC",
"U!	c #777776",
"V!	c #51585E",
"W!	c #69747C",
"X!	c #5B5E60",
"Y!	c #F9F9F9",
"Z!	c #B3B3B3",
"[!	c #D9D9D9",
"]!	c #9F9F9F",
"^!	c #4A4A4A",
"_!	c #0A0A0A",
"`!	c #6D6D6D",
"a!	c #A8A8A8",
"b!	c #DCDCDC",
"c!	c #383838",
"d!	c #F6F6F6",
"e!	c #628FAD",
"f!	c #A2C6D8",
"g!	c #AFD1E0",
"h!	c #94B1C0",
"i!	c #505C64",
"j!	c #A2A2A3",
"k!	c #B6B6B6",
"l!	c #9B9B9B",
"m!	c #101010",
"n!	c #FDFDFE",
"o!	c #44769A",
"p!	c #4F9FBF",
"q!	c #6CC0D9",
"r!	c #65B7D1",
"s!	c #519FBE",
"t!	c #366C86",
"u!	c #616466",
"v!	c #D2D2D2",
"w!	c #505050",
"x!	c #BFBFBF",
"y!	c #F8F8F8",
"z!	c #454545",
"{!	c #E1E6EC",
"|!	c #90AFC3",
"}!	c #68A2BB",
"~!	c #6BACC5",
" #	c #7EB7CD",
"!#	c #9AC1D4",
"##	c #B5B9BC",
"$#	c #696969",
"%#	c #B8B8B8",
"&#	c #2D2D2D",
"'#	c #0B0B0B",
"(#	c #9D9D9D",
")#	c #CFCFCF",
"*#	c #232323",
"+#	c #BABABA",
",#	c #FAFAFB",
"-#	c #F4F5F7",
".#	c #F8F9FA",
"0#	c #C8C8C8",
"1#	c #C2C2C2",
"2#	c #7A7A7A",
"3#	c #B4B4B4",
"4#	c #BEBEBE",
"5#	c #121212",
"6#	c #4B4B4B",
"7#	c #B5B5B5",
"8#	c #FBFBFB",
"9#	c #282828",
":#	c #2C2C2C",
";#	c #0E0E0E",
"<#	c #848484",
"=#	c #A7A7A7",
">#	c #171717",
"?#	c #B7B7B7",
"@#	c #999999",
"A#	c #878787",
"B#	c #404040",
"C#	c #191919",
"D#	c #C6C6C6",
"E#	c #888888",
"F#	c #5C5C5C",
"G#	c #EAEAEA",
"H#	c #525252",
"I#	c #2E2E2E",
"J#	c #575757",
"K#	c #9E9E9E",
"L#	c #787878",
"M#	c #484848",
"N#	c #393939",
"O#	c #BBBBBB",
"P#	c #4F4F4F",
"Q#	c #606060",
"R#	c #929292",
"S#	c #CECECE",
"T#	c #686868",
"U#	c #C7C7C7",
"V#	c #B2B2B2",
"W#	c #898989",
"X#	c #343434",
"Y#	c #181818",
"Z#	c #7F7F7F",
"[#	c #050505",
"]#	c #292929",
"^#	c #8F8F8F",
"_#	c #A0A0A0",
"`#	c #ADADAD",
"a#	c #A3A3A3",
"b#	c #A9A9A9",
"c#	c #989898",
"d#	c #6C6C6C",
"e#	c #070707",
"f#	c #D0D0D0",
"g#	c #A4A4A4",
"h#	c #717171",
"i#	c #AEAEAE",
"j#	c #C0C0C0",
"k#	c #7B7B7B",
"l#	c #D1D1D1",
"m#	c #8C8C8C",
"n#	c #666666",
"o#	c #676767",
"p#	c #3F3F3F",
"q#	c #868686",
"r#	c #919191",
"s#	c #585858",
"t#	c #CBCBCB",
"u#	c #979797",
"v#	c #D4D4D4",
"                                                                                                ",
"                                                                                                ",
"                                                                                                ",
"                                                                                                ",
"                                                                                                ",
"                                                                                                ",
"                                                                                                ",
"                                                                                                ",
"                                                                                                ",
"                                                                                                ",
"                # $ % & ' ( # ) * + ' ' ) , - . 0                                               ",
"            1 2 3 4 5 6 7 8 9 : ; < = > ? @ A B C D ) E F                                       ",
"          G H I J K L M N O 9 P Q R S T 7 P U V W X M V R Y F Z [                               ",
"          Z ] J ^ < 9 _ ` a b c $ d e f Z + ) g h i j k l V m n o - (                           ",
"        p q r s : t u v v w x [ y z { | } ~  !!!#!$!%!Z &!'!| (!< )!*!+!,!                      ",
"        & | s : -!.!0!5 1!2!3!4!! ! 5!6!6!! 4!4!7!8  !( %!%!8!% h 9!W :!;!u g                   ",
"      ( G <!l =!l >!< M ?!@!M ; A!B!L C!9 D!B!(!E!< F!G!;!H!%!8!8!I![ 9!J!)!i (                 ",
"      $!K!L!M!=!N!?!O!: 1!j o P!D Q!H!R!:!W S!b g T!U!V!W!X!t x 8!%!8!Y!Z!P 3!Q [!D             ",
"    ]!u ^!B!O!_!A!`!a!b!Y!%!%!%!%!%!$ c!! k d!%!%!%!v e!f!g!h!i!j!Y!%!%!%!' B N G!k!F           ",
"    ,!l!O!m!Q a!1 v %!8!%!8!%!8!8!%!l!_!5!j 8!%!8!8!n!o!p!q!r!s!t!u!- 8!%!8!w 0 m @!]!v!        ",
"    d w!7 x!y!%!%!%!%!%!%!%!%!%!%!v z!= ?!L!$!%!%!%!%!{!|!}!~! #!###$#%#%!%!%!$!2 &#'#(#Q!      ",
"    Y!)#w $!$!$!$!$!$!$!$!$!$!$!$!E *#@ N!?!+#$!$!$!$!$!$!,#-#.#$!$!Y!a 0#w $!$!$!1#X ?!1#      ",
"  2#d H 3#4#p w w w w w w w w w w #!5#6#V '#G!7#w w w w w w w w w w w w e y!w w w 8#4 m!^!#!    ",
"  (#.!A!9#: :#2##!w Y!Y!Y!Y!Y!Y!Y!$ C!;#G!:!! _!<#Z w Y!Y!Y!Y!Y!Y!Y!Y!Y!Y!Y!Y!Y!Y!Y!b ? _!(     ",
"  =#R!9 &#: >#;#= ?#I!d!d!I!I!I!I!I!'!? J!D!6!! ! &#a!& y!I!I!I!I!I!I!I!I!I!I!I!I!I!d K ;#a!R!  ",
"  !!@#>!>!m 2!F!@!O!A#Z d d d d d d f 4#$#B#> m C#?!_!U S!- f e d d d d d d d d d d d ] C#{ D#  ",
"  G E#C!8 > < G!F!@!'#F#G#d $ $ $ $ $ f f G )!N!H#L I#< O!2!J#K#b!% e f $ $ $ $ $ $ f 4 : $#F   ",
"  D L#M#@ N#I#< G!F!@!D!>!O#% Z Z Z Z & ?#2!4!9!f F ]!K!P#=!X @!D!>!Q#R#k!S#( G#+ c & <#9#T#U#  ",
"  D `!k R z!c!&#*#)!O!;#D!N Q#D [!&!O#A '#6!= D G#Z!T!V#?#!!W#J#X#C#D!D!Y#m I#B#P#F#6 Q I#Z#%#  ",
"  O#T#^ Q#H#1!=!:#*#C#N ?!D![#[#C#>#6!! 3!]#^#p 1#_#`#?#%#V#q 2 O#C T 9#N ;#; U L n B#(!< h K#  ",
"  G _ $#j ^ w!1!=!9 : C#5#?!D![#4!5!D!O B#a#b!k!C ` b#3#%#G G k!'!Z!S#Q!c#A 9 5#G!V n :#>!# T#  ",
"  ?#6 } B d#F#P#(!? A!: M ?!e#3!O!W B#Z#Q!f#g#o -!>!P h#]!7#?#?#?#7#i#T!j#,!v!b#k#6#>!@ 4#l#    ",
"  7#$#K!m#k#*!F#L!E!G!?!m!J!m =!n#]!)#v!k!c# !-!@         E!5 `#7#7#7#3#h b#Z!F - ) - - &!b#    ",
"  V#h#j -!o#p#*#5#M *#n F#{ h &!+!a T!l!R#^#q#z!                ^!r#V#V#V#V#!!=#R!i#h h Z!9!    ",
"  `#I M : W 8 s#t l!+#t#&!l#a q a#l!u#C Y k#                        >!2#b#!!h h h i#h h b#      ",
"  y D y 7#D#H!,!u v#0#%#P!y ]!(#l!c#z Y <!                                ^ ]!!!T!T!T!T!        ",
"  3 `#g S#U#x!Z!P!y a#g#a#3 K#l!0!q#T                                         c!d#] L#          ",
"  0 _#K#3 3 a#0 R!R!0 y 3 K#Y n#                                                                ",
"  0!g#0 0 g#g#g#g#R!a#-!A                                                                       ",
"  s y y a#3 @#A#K B#                                                                            ",
"      S                                                                                         ",
"                                                                                                ",
"                                                                                                ",
"                                                                                                ",
"                                                                                                ",
"                                                                                                ",
"                                                                                                ",
"                                                                                                "};