/* XPM */
static char *komodo64_edit[] = {
/* columns rows colors chars-per-pixel */
"64 64 44 1 ",
"  c #858689",
". c #86888B",
"X c #898B8D",
"o c #8C8E91",
"O c #8F9193",
"+ c #919396",
"@ c #959699",
"# c #96989B",
"$ c #999B9E",
"% c #9C9EA1",
"& c #9EA0A3",
"* c #A1A3A6",
"= c #A5A6A9",
"- c #A6A8AA",
"; c #A9ABAE",
": c #ACAEB0",
"> c #AEB0B2",
", c #B1B3B5",
"< c #B5B7B9",
"1 c #B7B8BB",
"2 c #BABCBE",
"3 c #BCBEC0",
"4 c #BFC0C2",
"5 c #C2C4C5",
"6 c #C6C7C9",
"7 c #C7C8CA",
"8 c #CBCCCD",
"9 c #CECFD0",
"0 c #CFD0D1",
"q c #D3D4D5",
"w c #D6D7D8",
"e c #D7D8D9",
"r c #DBDBDC",
"t c #DEDFE0",
"y c #DFE0E1",
"u c #E3E4E5",
"i c #E7E7E8",
"p c #E7E8E8",
"a c #EBECEC",
"s c #EFEFF0",
"d c #F3F3F3",
"f c #F7F7F8",
"g c #FFFFFF",
"h c None",
/* pixels */
"hhhhhhhhhhhhhhhhhhhhhhhhhhhhhhhhhhhhhhhhhhhhhhhhhhhhhhhhhhhhhhhh",
"hhhhhhhhhhhhhhhhhhhhhhhhhhhhhhh33hhhhhhhhhhhhhhhhhhhhhhhhhhhhhhh",
"hhhhhhhhhhhhhhhhhhhhhhhhhhhhh333333hhhhhhhhhhhhhhhhhhhhhhhhhhhhh",
"hhhhhhhhhhhhhhhhhhhhhhhhhhhh33333333hhhhhhhhhhhhhhhhhhhhhhhhhhhh",
"hhhhhhhhhhhhhhhhhhhhhhhhhh333333333333hhhhhhhhhhhhhhhhhhhhhhhhhh",
"hhhhhhhhhhhhhhhhhhhhhhhh3333333333333333hhhhhhhhhhhhhhhhhhhhhhhh",
"hhhhhhhhhhhhhhhhhhhhhhh333333333333333332hhhhhhhhhhhhhhhhhhhhhhh",
"hhhhhhhhhhhhhhhhhhhhh3333333333333333333424hhhhhhhhhhhhhhhhhhhhh",
"hhhhhhhhhhhhhhhhhhh33333333342423333333333333hhhhhhhhhhhhhhhhhhh",
"hhhhhhhhhhhhhhhhhh3333333333342433333333333333hhhhhhhhhhhhhhhhhh",
"hhhhhhhhhhhhhhhh33333333333333423333333333333333hhhhhhhhhhhhhhhh",
"hhhhhhhhhhhhhh333333333333333322333333333333333333hhhhhhhhhhhhhh",
"hhhhhhhhhhhhh3333333333235epfggggdpe522333243333333hhhhhhhhhhhhh",
"hhhhhhhhhhh3333333333337agggdauupsggga823342333333333hhhhhhhhhhh",
"hhhhhhhhh3333333333334ygga01;*****=5ugga724433333333333hhhhhhhhh",
"hhhhhhhh3333333333325sgd5;*&**>2532;&;uggr42332433333334hhhhhhhh",
"hhhhhhh3333333333334dgt>**;8adgggggggaq3yfd63333333333333hhhhhhh",
"hhhhhhh233313313334agr=&=8dggggggggggggg5>pf9323233232233hhhhhhh",
"hhhhhhh33333333333ygu=&>ugggggggggr:,aggg9%6fq51232333332hhhhhhh",
"hhhhhhh21313131317gf;&>ugggggggggg6*$rp5fgr->d95222223122hhhhhhh",
"hhhhhhh2133313132ag8&;qgggggggggggg2<df*-pgw>:d6222322222hhhhhhh",
"hhhhhhh2311131338gg&*2gggggggggggggg9ugq>-gg81,a322221222hhhhhhh",
"hhhhhhh213131111agu$:0ggggggggggg855e5ug9<agf51qe12112122hhhhhhh",
"hhhhhhh1111111<3gg8&1uggggggggggf,%$%:;eg62;5a21d21111111hhhhhhh",
"hhhhhhh111111119gg5*1agggggggggggg5;;;,*6f6=%-81i7111<111hhhhhhh",
"hhhhhhh1111<<11tgg5;1dggggggggrqggd222,2-1f6>>%1yt<111111hhhhhhh",
"hhhhhhh<<<<<<<<agg8;1aggggggggw*dgd;2,1,<;1f811:yd:<<<1<<hhhhhhh",
"hhhhhhh<<<<<<<<sggu;<ugggggggg6*8gp5tq,1<<:1f91<ad*<<<<<<hhhhhhh",
"hhhhhhh,<,,<,<<dggf=,rgggggggg;*2dggu,,,,,<:2ge9g8$,<,<,,hhhhhhh",
"hhhhhhh,,,<,,,,dggg2,5gggggggd$=,;qgaq:,,,,,;9ggs*$,,,,,,hhhhhhh",
"hhhhhhh,,,,,,<>agggu,,fggggggq$;,,$*q5,,,,,,,;rp>$;,,,,,,hhhhhhh",
"hhhhhhh,,>,>>>>ugggg2,ygggggg2;52,>*@$*,,>>,,,*@@$>,>,>,,hhhhhhh",
"hhhhhhh>>>>>>>>0ggggu>5ggggggggggfr,;*=,>>>>>>>&%>>>>>>>>hhhhhhh",
"hhhhhhh>>>>>>>>1ggggg7:aggggggggggg5,:::>>>>>>>>>:>>>>>>>hhhhhhh",
"hhhhhhh:::::>:::uggggg<5ggggggggggg<,;:>::::::::::3::::>:hhhhhhh",
"hhhhhhh:::::::::2ggggga>agggggggggg$;>;;:::::::::>s::;:::hhhhhhh",
"hhhhhhh:;;:;;:;:;2dggggr3ggggggggga55;;;;;:::;;;:ws=:;:;:hhhhhhh",
"hhhhhhh:;;;;:;=:;=#sggggqtgggggu*ggu,2:;;;=:=;;;<gr@=;;;:hhhhhhh",
"hhhhhhh;=;;;;;;=,9aggggggqgggggg@agga5;;;;;;;;;;ag4@::=:=hhhhhhh",
"hhhhhhh=;;====:wggggggggggaggggg5rggq;*==;==;==rgg$#==;==hhhhhhh",
"hhhhhhh=======uggggggggdggggggggg2*;,$%=;;==;=8ggeo%;====hhhhhhh",
"hhhhhhh=======ggggggggg58ggggggggg2Xo#*;*====qggg%o======hhhhhhh",
"hhhhhhh=======tggggggggg#qgggggggggt,$*==*=2aggg5X@======hhhhhhh",
"hhhhhhh===&====9ggggggggr$rggggggggggar88qdggggeXo&&=&===hhhhhhh",
"hhhhhhh=*=&&***@@255*2ggp&#wggggggggggggggggggqoX@=&=&&&=hhhhhhh",
"hhhhhhh&&*&=*&*%@XXX=ggg4O&O5gggggggggggggggg2. O*&*&=&=&hhhhhhh",
"hhhhhhhh%*&*%&***$@,argg#o&&O=sggggggggggggr$..@&&&&&&&%hhhhhhhh",
"hhhhhhhhho&%&&%*$*;2&r9u @&&%@.<aggggggga8$ .X@%&&&&&&Ohhhhhhhhh",
"hhhhhhhhhhh#%%%%%%%%#9=3 %%%%%#. @-,,,*@ .  o$%%%%%&#hhhhhhhhhhh",
"hhhhhhhhhhhhh%%%%%%$%=%%X%%%%%%%@X       .O@%%%%%%%hhhhhhhhhhhhh",
"hhhhhhhhhhhhhho%$%%%%%o#O%%%%%%%$$$@@@@@%%%%%%%%%ohhhhhhhhhhhhhh",
"hhhhhhhhhhhhhhhh@%$$$#%@#%#%%%#$%$$$$@$$#%%%#%$@hhhhhhhhhhhhhhhh",
"hhhhhhhhhhhhhhhhhh#$$#$$%#%#%#$%$$$$$$$$%%#%%#hhhhhhhhhhhhhhhhhh",
"hhhhhhhhhhhhhhhhhhhX$$$$$$$#$$$$$$$$$$$$##$#Xhhhhhhhhhhhhhhhhhhh",
"hhhhhhhhhhhhhhhhhhhhh@$$#$#%#$#$$##$$#$$#$@hhhhhhhhhhhhhhhhhhhhh",
"hhhhhhhhhhhhhhhhhhhhhhh@#########$#@####@hhhhhhhhhhhhhhhhhhhhhhh",
"hhhhhhhhhhhhhhhhhhhhhhhh.@##@##@@##@$@@ hhhhhhhhhhhhhhhhhhhhhhhh",
"hhhhhhhhhhhhhhhhhhhhhhhhhho######@#@@@hhhhhhhhhhhhhhhhhhhhhhhhhh",
"hhhhhhhhhhhhhhhhhhhhhhhhhhhh@@@@@@@@hhhhhhhhhhhhhhhhhhhhhhhhhhhh",
"hhhhhhhhhhhhhhhhhhhhhhhhhhhhh @@@@ hhhhhhhhhhhhhhhhhhhhhhhhhhhhh",
"hhhhhhhhhhhhhhhhhhhhhhhhhhhhhhhoOhhhhhhhhhhhhhhhhhhhhhhhhhhhhhhh",
"hhhhhhhhhhhhhhhhhhhhhhhhhhhhhhhhhhhhhhhhhhhhhhhhhhhhhhhhhhhhhhhh",
"hhhhhhhhhhhhhhhhhhhhhhhhhhhhhhhhhhhhhhhhhhhhhhhhhhhhhhhhhhhhhhhh",
"hhhhhhhhhhhhhhhhhhhhhhhhhhhhhhhhhhhhhhhhhhhhhhhhhhhhhhhhhhhhhhhh"
};
