/* XPM */ 
static const unsigned char * komodoedit5_icon_16x16x8b_xpm[] = {
"16 16 66 1",
" 	c None",
"!	c black",
"#	c #ADADAD",
"$	c #767575",
"%	c #646464",
"&	c #4B4B4B",
"'	c #3E3E3E",
"(	c #2F2F2F",
")	c #252525",
"*	c #202020",
"+	c #050506",
",	c #535353",
"-	c #F6F5F6",
".	c #FEFEFE",
"0	c #DEDFE1",
"1	c #C7C7C7",
"2	c #979B9D",
"3	c #7A7A7A",
"4	c #5A5A5A",
"5	c #151515",
"6	c #D9D9D9",
"7	c #D4D4D4",
"8	c #CDCDCD",
"9	c #6E6D6C",
":	c #0E0C0B",
";	c #313234",
"<	c #929292",
"=	c #B4B3B3",
">	c #ECECEC",
"?	c #464646",
"@	c #393939",
"A	c #A5A4A3",
"B	c #848384",
"C	c #5C707F",
"D	c #99AAB4",
"E	c #BBBAB9",
"F	c #C4D2DE",
"G	c #558DAF",
"H	c #B9D8E7",
"I	c #CAE4F1",
"J	c #879CA7",
"K	c #3E464C",
"L	c #E9E7E6",
"M	c #95ABBF",
"N	c #176592",
"O	c #60AAC8",
"P	c #76BED7",
"Q	c #61A2C0",
"R	c #2E586F",
"S	c #DEE3E9",
"T	c #4B779A",
"U	c #3587AB",
"V	c #57B8D3",
"W	c #5FC1DB",
"X	c #5CBDD7",
"Y	c #51B0CE",
"Z	c #409FC4",
"[	c #3A7997",
"]	c #AFBECE",
"^	c #7399B3",
"_	c #6DA0BA",
"`	c #73AAC2",
"a	c #8AB9CE",
"b	c #A7C8D8",
"c	c #D0E1EA",
"d	c #FAFAFA",
" ############## ",
"#$%&'()*+*,#-.-&",
"#..01234'(5!*$6&",
"#7.....-829'*!:&",
"#!;37......7<,*&",
"#5!!!,=......>#&",
"#,?(*:!@A......&",
"#-6#BCD2&,E....&",
"#...FGHIHJK$L..&",
"#...MNOPPPQRK#.&",
"#...STUVWXYZ[;9&",
"#....-]^_`abc0$&",
"#.......->-....&",
"#..-...d.....-.&",
"#8...-..-..-..#&",
" &&&&&&&&&&&&&& "};