/* XPM */
static char *komodo48_edit[] = {
/* columns rows colors chars-per-pixel */
"48 48 231 2 ",
"   c #000000",
".  c #04080A",
"X  c #080F11",
"o  c #051114",
"O  c #0A1517",
"+  c #071519",
"@  c #0C1618",
"#  c #081B20",
"$  c #101E21",
"%  c #0B272E",
"&  c #14272B",
"*  c #0F2F37",
"=  c #142C32",
"-  c #182E33",
";  c #0D3139",
":  c #13333B",
">  c #1A353B",
",  c #1D393F",
"<  c #113944",
"1  c #1C3B43",
"2  c #223D44",
"3  c #1C434D",
"4  c #144552",
"5  c #1B4751",
"6  c #164C59",
"7  c #16505D",
"8  c #1B535F",
"9  c #2B4247",
"0  c #22434B",
"q  c #2B454C",
"w  c #25484F",
"e  c #30474B",
"r  c #254851",
"t  c #284A53",
"y  c #314C53",
"u  c #384D53",
"i  c #22505B",
"p  c #2B525C",
"a  c #39565D",
"s  c #185564",
"d  c #1C5E6D",
"f  c #245763",
"g  c #205866",
"h  c #2E5A64",
"j  c #225F6F",
"k  c #355C65",
"l  c #3B5C64",
"z  c #325E6A",
"x  c #1B6373",
"c  c #1E6D7F",
"v  c #33616C",
"b  c #266777",
"n  c #296573",
"m  c #2A6877",
"M  c #256878",
"N  c #2E6F7E",
"B  c #346672",
"V  c #3D6770",
"C  c #366975",
"Z  c #386B77",
"A  c #366C7A",
"S  c #3A6D79",
"D  c #34717F",
"F  c #3B727F",
"G  c #465A5E",
"H  c #405C62",
"J  c #495E64",
"K  c #426067",
"L  c #4A6267",
"P  c #48636A",
"I  c #4F696F",
"U  c #516469",
"Y  c #446D76",
"T  c #4E6A72",
"R  c #546D73",
"E  c #45747F",
"W  c #4D737D",
"Q  c #587076",
"!  c #53737A",
"~  c #5B737A",
"^  c #62777D",
"/  c #63787D",
"(  c #BA9E75",
")  c #FCB35B",
"_  c #1E6C80",
"`  c #267284",
"'  c #2A7282",
"]  c #2E7789",
"[  c #2F7889",
"{  c #357180",
"}  c #3B7280",
"|  c #397887",
" . c #357A8B",
".. c #3C7B8A",
"X. c #457985",
"o. c #4A7984",
"O. c #437D8B",
"+. c #497E8B",
"@. c #557C86",
"#. c #5A7B83",
"$. c #507D88",
"%. c #657C82",
"&. c #687E83",
"*. c #3C808F",
"=. c #3F8292",
"-. c #44818F",
";. c #4E818E",
":. c #54838F",
">. c #5E858F",
",. c #458493",
"<. c #4C8594",
"1. c #468896",
"2. c #4B8897",
"3. c #4D8A99",
"4. c #558693",
"5. c #528996",
"6. c #5A8A96",
"7. c #538D9B",
"8. c #5A8D9A",
"9. c #55909F",
"0. c #5C919E",
"q. c #6F8287",
"w. c #64848C",
"e. c #748385",
"r. c #74858A",
"t. c #76898D",
"y. c #78888C",
"u. c #638A93",
"i. c #6D8C94",
"p. c #628E99",
"a. c #778E95",
"s. c #7E8F94",
"d. c #64929D",
"f. c #719097",
"g. c #7A9096",
"h. c #71969E",
"j. c #7F979D",
"k. c #5C94A1",
"l. c #6295A2",
"z. c #6D95A0",
"x. c #649AA7",
"c. c #6C9AA4",
"v. c #679CA8",
"b. c #6B9EAA",
"n. c #749BA5",
"m. c #7999A1",
"M. c #739EA9",
"N. c #6EA1AC",
"B. c #73A2AD",
"V. c #7BA2AB",
"C. c #76A5B1",
"Z. c #7BA6B1",
"A. c #7DA9B3",
"S. c #849396",
"D. c #839599",
"F. c #8C999D",
"G. c #919D9F",
"H. c #93A39C",
"J. c #BFB497",
"K. c #819FA7",
"L. c #8C9DA1",
"P. c #929EA1",
"I. c #83A4A4",
"U. c #84A5AE",
"Y. c #87A8AF",
"T. c #8FA8AE",
"R. c #94A1A6",
"E. c #91A5AA",
"W. c #99A6AA",
"Q. c #9CA9AB",
"!. c #81A7B1",
"~. c #83AAB4",
"^. c #8BADB4",
"/. c #85AEB8",
"(. c #88AFB9",
"). c #92AFB6",
"_. c #9AAFB4",
"`. c #8DB1B9",
"'. c #92B0B6",
"]. c #93B3BB",
"[. c #9CB6BD",
"{. c #A0AAAC",
"}. c #A4AEB1",
"|. c #A3B2B7",
" X c #AAB4B6",
".X c #A4B7BB",
"XX c #ABB7BB",
"oX c #A2BABF",
"OX c #ACBABD",
"+X c #B7BEBF",
"@X c #BCC1BD",
"#X c #95B7C0",
"$X c #95B8C1",
"%X c #9CBBC3",
"&X c #A1BBC2",
"*X c #A9BEC3",
"=X c #B3BFC1",
"-X c #A9C2C7",
";X c #ACC3C9",
":X c #B4C1C5",
">X c #BBC3C4",
",X c #B2C6CB",
"<X c #BEC7C9",
"1X c #B6C9CD",
"2X c #BACACD",
"3X c #B5CED5",
"4X c #BBCDD2",
"5X c #C5CBCD",
"6X c #CBCECF",
"7X c #C3CFD2",
"8X c #CACFD1",
"9X c #C5D1D4",
"0X c #CBD3D5",
"qX c #CCD7DB",
"wX c #D1D4D5",
"eX c #D2D7D8",
"rX c #D5DADC",
"tX c #DCDDDD",
"yX c #FAEDD9",
"uX c #DDDFE0",
"iX c #DEE1E2",
"pX c #DEE8EB",
"aX c #E2E2E3",
"sX c #E6E7E8",
"dX c #E5E9EA",
"fX c #EBECEC",
"gX c #ECEFF1",
"hX c #EFF0F0",
"jX c #F4F4F5",
"kX c #FAFAFA",
"lX c None",
/* pixels */
"lXlXlXlXlXlXlXlXlXlXlXlXlXlXlXlXlXlXlXlXlXlXlXlXlXlXlXlXlXlXlXlXlXlXlXlXlXlXlXlXlXlXlXlXlXlXlXlX",
"lXlXlXlXlXlXlXlXlXlXlXlXlXlXlXlXlXlXlXlXlXlXlXlXlXlXlXlXlXlXlXlXlXlXlXlXlXlXlXlXlXlXlXlXlXlXlXlX",
"lXlXlXlXlXlXlXlXlXlXlXlXlXlXlXlXlXlXlXlXlXlXlXlXlXlXlXlXlXlXlXlXlXlXlXlXlXlXlXlXlXlXlXlXlXlXlXlX",
"lXlXlXlXlXlXlXlXlXlXlXlXlXlXlXlXlXlXlXlXlXlXlXlXlXlXlXlXlXlXlXlXlXlXlXlXlXlXlXlXlXlXlXlXlXlXlXlX",
"lXlXlXlXlXlXlXlXlXlXlXlXlXlXlXlXlXlXlXlXlXlXlXlXlXlXlXlXlXlXlXlXlXlXlXlXlXlXlXlXlXlXlXlXlXlXlXlX",
"lXlXlXlXlXlXlXlXlXlXlXlXlXlXlXlXlXlXlXlXlXlXlXlXlXlXlXlXlXlXlXlXlXlXlXlXlXlXlXlXlXlXlXlXlXlXlXlX",
"lXlXlXlXlXlXlXlXM ' | ..-.,.1.-.-...| M lXlXlXlXlXlXlXlXlXlXlXlXlXlXlXlXlXlXlXlXlXlXlXlXlXlXlXlX",
"lXlXlXlXN 9.k.x.N.x.N.N.N.N.N.N.C.C.C.C.C.N.k.3.| lXlXlXlXlXlXlXlXlXlXlXlXlXlXlXlXlXlXlXlXlXlXlX",
"lXlXlXlX,.x.`.[.,X2X9X0XwXwXqXwX0X7X4X,X;X&X#X/.A.A.v.3.lXlXlXlXlXlXlXlXlXlXlXlXlXlXlXlXlXlXlXlX",
"lXlXlXlX0.].tXtXtXtXtXtXtXtXtXtXuXtXtXuXiXiXiXuXrX9X;X]./.x.-.lXlXlXlXlXlXlXlXlXlXlXlXlXlXlXlXlX",
"lXlXlXg 0.7XtXtXtXtXtXtX<XQ.S.t.&.^ %.%.%.r.s.L.|.>XeXaXtX4X$XA.7.lXlXlXlXlXlXlXlXlXlXlXlXlXlXlX",
"lXlXlX{ c.tXtXtXtXtX}./ Q ~ >.6.l.c.b.b.N.N.M.b.n.h.f.j.|.0XaX0X%XA.<.lXlXlXlXlXlXlXlXlXlXlXlXlX",
"lXlXlX,.`.tXtXtX6X/ I :.0.x.x.x.v.b.b.b.b.C.B.C.C.C.Z.C.V.h.I.5XaX8X#XC.A lXlXlXlXlXlXlXlXlXlXlX",
"lXlXlX3.;XtXtXrX/ I 8.k.0.0.x.x.x.b.Z./.(./.C.M.B.C.C.Z.A.A.!.M.W.eXaX;X/.<.lXlXlXlXlXlXlXlXlXlX",
"lXlX4 7.0XaXtXR.P 5.9.0.B.].;X0XuXiXaXaXaXaXaXrX,X/.C.C.Z.Z.!././.M.=XsX0X`.7.lXlXlXlXlXlXlXlXlX",
"lXlX8 k.tXtXrXU u.].1XrXaXiXiXiXiXiXiXiXaXaXaXaXaXaX7X].V.Z.Z.Z.Z././.'.iXuX#Xk.lXlXlXlXlXlXlXlX",
"lXlXn M.tXaXwXwXiXaXiXiXiXiXiX5X XP.D.S.y.wXXXS.W.=XuXaX,X!.Z.Z.!./.!./.`.tXiX|.l.lXlXlXlXlXlXlX",
"lXlX{ ~.aXtXaXaXaXiXaXiX=Xs.Q T Q #.>.p.[.rX%.w.z.f.a.W.tXtX`./.!././.!.~.`.iXiX#X8.lXlXlXlXlXlX",
"lXlX| `.aXaXaXaXaXtXW.Q J #.$.0.k.l.l.M.uX*X~ M.M.M.M.V.j.+XaX&XZ.!./.!.~.^.`.iXuX].+.lXlXlXlXlX",
"lXlX...XaXaXaXiX XT H o.5.7.9.0.k.k.l.*XfXR.w.b.M.M.M.M.I.yXJ.tX=X!.!.!.~.~.(.[.sXtX^.S lXlXlXlX",
"lXlX,.-XiXsXwX^ a Y 2.7.7.9.9.9.k.l.l.uXsXP.w.b.n.M.M.M.I.) ) ( >X<X!./.!.!.!./.*XfX5XM.lXlXlXlX",
"lXlX..3XaX XH k o.2.2.2.7.9.7.0.0.l.!.fXfXXXw.M.n.M.M.V.V.H.e.r.a.|.=X!.^.^.^.(./.7XfX|.>.lXlXlX",
"lXlX[ 4XL.k V 1.2.2.2.3.7.7.9.0.0.0.&XfXfXwX%.c.z.d.p.8.6.6.$.-.+.$.i.D.8.l.z.M.!.(.aXuXU.lXlXlX",
"lXlX .x.p } 2.1.1.2.2.3.2.5.7.8.8.l.,XfXfXfXQ +.<.4.-.X.| F S F } { { o.W { { { { { M.fXR.X.lXlX",
"lXlX[ [ m [  .1.3.3.3.3.7.7.9.k.8.7.&XfXsXfX+Xo.X.| | S | } } S F F F F E C { { A D D 0XXXg lXlX",
"lXlX[ ,.B.A.7. . ...1.2.2.2.1.O.X.X.U.fXfXfXfXF.F F S | S } } } F F F F | A A } { D D '.tX3 lXlX",
"lXlX' ;XfXfXfX1X2. . .........O.=.X.<.uXfXfXfXfXR.| S S } } } } | F F F S } S } { { A z.fX2 5 lX",
"lXlX' ].fXfXfXfXiXd. .| | ..X...X.,.+.>.eXfXfXfXfXOX+.F } Y | } F E F F | S | S | { | 6.fX2 5 lX",
"lXlXM A.jXhXhXfXhXfXn...........,.X.{ { B ^ }.iXfXfXuXh.} F E F F F F F } } } S S S { 4.hX2 3 lX",
"lXlXj c.hXhXjXjXhXhXhXK.....O.X.| { { { | S z t J S.0XhX<Xd.F F F F F F S } } X.| S | d.fX> 1 lX",
"lXlX6 3.hXjXjXfXjXhXhXjX^.X...{ { { { { F F ;XaXo.Z p L {.fX7Xn.X.F F F | Y | S Y | S !.rX: > lX",
"lXlX4 ` jXjXjXjXjXjXjXjXjX&X{ ' { A { } F '.jXOX> & w Z V l P.fXgX<XY.w.| | S | } S | ,X:X1 lXlX",
"lXlX< c pXjXjXjXjXjXjXjXjXjX0X6.{ { { X.;XjXaXe >       - h S l G.fXjXjXhXrX1XoX^.Y.V.dXg.3 lXlX",
"lXlX% c 3XjXjXkXjXkXjXjXkXjXkXjXqX*X4XgXjXfXG 1 $ lXlXlXlX  $ p Z l F.fXkXjXjXjXkXjXjXjXy 1 lXlX",
"lXlXlXc %XkXkXkXkXjXkXkXkXkXkXjXkXkXkXjX8Xu 2 1 lXlXlXlXlXlXlX  @ t A k S.sXkXkXkXjXkX}.> = lXlX",
"lXlXlXx C.kXkXkXkXkXkXkXkXkXkXkXkXkXiXy.> 2 2 lXlXlXlXlXlXlXlXlXlX  . w C k r.8XkXkXtX9 w lXlXlX",
"lXlXlXs 3.kXkXkXkXkXkXkXkXkXkXkX>X/ > 1 p - lXlXlXlXlXlXlXlXlXlXlXlXlX  . > v h a L 2 1 - lXlXlX",
"lXlXlX4 ' kXkXkXkXkXkXkXkX5Xr.q : w k r X lXlXlXlXlXlXlXlXlXlXlXlXlXlXlXlXlX  $ w k v t lXlXlXlX",
"lXlXlX; _ pXkXkXkXkX>Xq.q : 3 f B 5 @   lXlXlXlXlXlXlXlXlXlXlXlXlXlXlXlXlXlXlXlX      lXlXlXlXlX",
"lXlXlXlX_ 3XiXQ.~ 1 : 3 g m i = .   lXlXlXlXlXlXlXlXlXlXlXlXlXlXlXlXlXlXlXlXlXlXlXlXlXlXlXlXlXlX",
"lXlXlXlXd ` 4 < 6 j j 5 = .   lXlXlXlXlXlXlXlXlXlXlXlXlXlXlXlXlXlXlXlXlXlXlXlXlXlXlXlXlXlXlXlXlX",
"lXlXlXlX6 _ d 4 * +     lXlXlXlXlXlXlXlXlXlXlXlXlXlXlXlXlXlXlXlXlXlXlXlXlXlXlXlXlXlXlXlXlXlXlXlX",
"lXlXlXlX# +     lXlXlXlXlXlXlXlXlXlXlXlXlXlXlXlXlXlXlXlXlXlXlXlXlXlXlXlXlXlXlXlXlXlXlXlXlXlXlXlX",
"lXlXlXlXlXlXlXlXlXlXlXlXlXlXlXlXlXlXlXlXlXlXlXlXlXlXlXlXlXlXlXlXlXlXlXlXlXlXlXlXlXlXlXlXlXlXlXlX",
"lXlXlXlXlXlXlXlXlXlXlXlXlXlXlXlXlXlXlXlXlXlXlXlXlXlXlXlXlXlXlXlXlXlXlXlXlXlXlXlXlXlXlXlXlXlXlXlX",
"lXlXlXlXlXlXlXlXlXlXlXlXlXlXlXlXlXlXlXlXlXlXlXlXlXlXlXlXlXlXlXlXlXlXlXlXlXlXlXlXlXlXlXlXlXlXlXlX",
"lXlXlXlXlXlXlXlXlXlXlXlXlXlXlXlXlXlXlXlXlXlXlXlXlXlXlXlXlXlXlXlXlXlXlXlXlXlXlXlXlXlXlXlXlXlXlXlX",
"lXlXlXlXlXlXlXlXlXlXlXlXlXlXlXlXlXlXlXlXlXlXlXlXlXlXlXlXlXlXlXlXlXlXlXlXlXlXlXlXlXlXlXlXlXlXlXlX"
};
