/* XPM */
static char *komodo48_edit[] = {
/* columns rows colors chars-per-pixel */
"48 48 46 1 ",
"  c #7F8183",
". c #858689",
"X c #86888B",
"o c #898B8D",
"O c #8C8E90",
"+ c #8F9193",
"@ c #919396",
"# c #959799",
"$ c #96999B",
"% c #999B9E",
"& c #9C9EA0",
"* c #9FA1A3",
"= c #A1A3A5",
"- c #A4A6A8",
"; c #A6A8AB",
": c #AAABAE",
"> c #ACAEB0",
", c #AFB0B2",
"< c #B1B3B6",
"1 c #B5B6B9",
"2 c #B7B8BA",
"3 c #BABCBE",
"4 c #BCBEC0",
"5 c #BEC0C1",
"6 c #C2C4C5",
"7 c #C5C7C8",
"8 c #C7C9CA",
"9 c #CACCCD",
"0 c #CECFD0",
"q c #CFD0D1",
"w c #D2D3D4",
"e c #D6D7D8",
"r c #D7D8D9",
"t c #DBDCDC",
"y c #DFDFE0",
"u c #DFE0E1",
"i c #E3E3E4",
"p c #E7E7E8",
"a c #E7E8E9",
"s c #EBEBEC",
"d c #EFEFF0",
"f c #EFF0F0",
"g c #F3F3F4",
"h c #F7F8F8",
"j c #FEFEFE",
"k c None",
/* pixels */
"kkkkkkkkkkkkkkkkkkkkkkkkkkkkkkkkkkkkkkkkkkkkkkkk",
"kkkkkkkkkkkkkkkkkkkkkkk44kkkkkkkkkkkkkkkkkkkkkkk",
"kkkkkkkkkkkkkkkkkkkkk444444kkkkkkkkkkkkkkkkkkkkk",
"kkkkkkkkkkkkkkkkkkkk44444444kkkkkkkkkkkkkkkkkkkk",
"kkkkkkkkkkkkkkkkkk444444444444kkkkkkkkkkkkkkkkkk",
"kkkkkkkkkkkkkkkk4444444444444444kkkkkkkkkkkkkkkk",
"kkkkkkkkkkkkkkk444444444444444444kkkkkkkkkkkkkkk",
"kkkkkkkkkkkkk4444444444444444444444kkkkkkkkkkkkk",
"kkkkkkkkkkk44444444437374455444444444kkkkkkkkkkk",
"kkkkkkkkkk4444444440ighhhhst7444444444kkkkkkkkkk",
"kkkkkkkk4444444449ghdtw9weughs7444444444kkkkkkkk",
"kkkkkk4444444444ths82>:::>,:7ghu5445444444kkkkkk",
"kkkkk4444444445yht1;1tdhhhhhgiwfg9334444444kkkkk",
"kkkkk343433434wht1=whhhhhhhshhh59hq33443343kkkkk",
"kkkkk434344345hs1;shhhhhhh8*7gsh8:s04334434kkkkk",
"kkkkk33333333ih5%thhhhhhhhh,9g=wh8;s7333333kkkkk",
"kkkkk33333337hs=:hhhhhhhhhhgthw;ph8:s333233kkkkk",
"kkkkk3222223th9&whhhhhhhh9%=15hw7ws30033233kkkkk",
"kkkkk2222232sh3=ihhhhhhhhh7%*::s9==93p31321kkkkk",
"kkkkk2112234hh7:ihhhhhhtihg3111-p8:=1h11122kkkkk",
"kkkkk1111112hhw>thhhhhhw>hi38111=sw11h11111kkkkk",
"kkkkk1111114hhi,whhhhhh2=ihh81111=gewg%1111kkkkk",
"kkkkk1111,13hhh14hhhhhh&:17gy>>11,:hh9%:111kkkkk",
"kkkkk,>,,1,,hhhw1shhhhp%:,*%1:1>,1,11;%>>,>kkkkk",
"kkkkk,,,,,,,ghhh1whhhhghgiw;%*:11>>:$#:1,,1kkkkk",
"kkkkk,,,,,,,yhhht3hhhhhhhhh1::1:,>,,:::1,>>kkkkk",
"kkkkk>>>>>>>3hhhh9whhhhhhhh::,::>>>>:>9>>>>kkkkk",
"kkkkk:>:>:::>7hhhh7hhhhhhhg4,:::>::::1g::::kkkkk",
"kkkkk:::::::::1hhhhthhhh9ihe7,::::::>ii=:::kkkkk",
"kkkkk::;;:;:4shhhhhghhhhi8hg3:;:;:;:7hw@:::kkkkk",
"kkkkk;;;;;:yhhhhhhhhhhhhh98w3*=;;;:4hh=#;;;kkkkk",
"kkkkk;;;;;;hhhhhhh4hhhhhhh7o@*-;;:4hhtO%=;;kkkkk",
"kkkkk;=;=;=whhhhhhs:hhhhhhhs7==;3ihhg@O=;=;kkkkk",
"kkkkk;===*;*1tsiwhh11hhhhhhhhhhhhhhh&o@====kkkkk",
"kkkkk**=*=*;@oO@ihg@%=ghhhhhhhhhhhs%oo*==**kkkkk",
"kkkkkk#*****=%#qwhwX%%@whhhhhhhhg1ooo&**=#kkkkkk",
"kkkkkkkk%**&%===97;o&*%o&7tiit7=oo.O%=*%kkkkkkkk",
"kkkkkkkkkX&&&&&%=:X+&&&%+........o#&&%Xkkkkkkkkk",
"kkkkkkkkkkk@&%%%&++#&&&&%%@OooO@#&&&@kkkkkkkkkkk",
"kkkkkkkkkkkkk%%%%$$%%%%%%%%%%%%%%%#kkkkkkkkkkkkk",
"kkkkkkkkkkkkkk.#%%%%%%%%%%%%%%%%% kkkkkkkkkkkkkk",
"kkkkkkkkkkkkkkkko$$$$$$$$$$$$$$okkkkkkkkkkkkkkkk",
"kkkkkkkkkkkkkkkkkk@$$$$$$$$$$@kkkkkkkkkkkkkkkkkk",
"kkkkkkkkkkkkkkkkkkkk$$$#$$$#kkkkkkkkkkkkkkkkkkkk",
"kkkkkkkkkkkkkkkkkkkkkX####Xkkkkkkkkkkkkkkkkkkkkk",
"kkkkkkkkkkkkkkkkkkkkkkk++kkkkkkkkkkkkkkkkkkkkkkk",
"kkkkkkkkkkkkkkkkkkkkkkkkkkkkkkkkkkkkkkkkkkkkkkkk",
"kkkkkkkkkkkkkkkkkkkkkkkkkkkkkkkkkkkkkkkkkkkkkkkk"
};
