/* XPM */ 
static const unsigned char * komodoedit5_icon_64x64x32b_xpm[] = {
"64 64 295 2",
"  	c None",
"! 	c black",
"# 	c #A3A3A3",
"$ 	c #DFDFDF",
"% 	c #EEEEEE",
"& 	c #F5F5F5",
"' 	c #F7F7F7",
"( 	c #F9F9F9",
") 	c #F8F8F8",
"* 	c #ECECEC",
"+ 	c #EBEBEB",
", 	c #C1C1C1",
"- 	c #A6A6A6",
". 	c #A0A0A0",
"0 	c #F4F4F4",
"1 	c #EFEFEF",
"2 	c #E5E5E5",
"3 	c #D2D2D2",
"4 	c #D1D1D1",
"5 	c #CBCBCB",
"6 	c #B1B1B1",
"7 	c #AEAEAE",
"8 	c #AAAAAA",
"9 	c #A9A9A9",
": 	c #A7A7A7",
"; 	c #BEBEBE",
"< 	c #C2C2C2",
"= 	c #C5C5C5",
"> 	c #D8D8D8",
"? 	c #DCDCDC",
"@ 	c #E2E2E2",
"A 	c #E9E9E9",
"B 	c #F0F0F0",
"C 	c #FAFAFA",
"D 	c #FCFCFC",
"E 	c #E6E6E6",
"F 	c #9D9D9D",
"G 	c #EDEDED",
"H 	c #D4D4D4",
"I 	c #909090",
"J 	c #878787",
"K 	c #737373",
"L 	c #616161",
"M 	c #585858",
"N 	c #494949",
"O 	c #393939",
"P 	c #2D2D2D",
"Q 	c #1E1E1E",
"R 	c #131313",
"S 	c #0B0B0B",
"T 	c #040404",
"U 	c #020202",
"V 	c #030303",
"W 	c #070707",
"X 	c #171717",
"Y 	c #282828",
"Z 	c #3E3E3E",
"[ 	c #545454",
"] 	c #666666",
"^ 	c #929292",
"_ 	c #BDBDBD",
"` 	c #E1E1E1",
"a 	c #F2F2F2",
"b 	c #C4C4C4",
"c 	c #BFBFBF",
"d 	c #868686",
"e 	c #7F7F7F",
"f 	c #757575",
"g 	c #6C6C6C",
"h 	c #5D5D5D",
"i 	c #353535",
"j 	c #151515",
"k 	c #080808",
"l 	c #090909",
"m 	c #2F2F2F",
"n 	c #333333",
"o 	c #383838",
"p 	c #3B3B3B",
"q 	c #3C3C3C",
"r 	c #363636",
"s 	c #2E2E2E",
"t 	c #262626",
"u 	c #1D1D1D",
"v 	c #121212",
"w 	c #060606",
"x 	c #242424",
"y 	c #535353",
"z 	c #858585",
"{ 	c #CDCDCD",
"| 	c #F6F6F6",
"} 	c #9A9A9A",
"~ 	c #FEFEFE",
" !	c #9E9E9E",
"!!	c #7C7C7C",
"#!	c #6B6B6B",
"$!	c #4F4F4F",
"%!	c #101010",
"&!	c #2A2A2A",
"'!	c #414141",
"(!	c #B9B9B9",
")!	c #D3D3D3",
"*!	c #C7C7C7",
"+!	c #B8B8B8",
",!	c #A8A8A8",
"-!	c #969696",
".!	c #595959",
"0!	c #4A4A4A",
"1!	c #464646",
"2!	c #404040",
"3!	c #292929",
"4!	c #0D0D0D",
"5!	c #222222",
"6!	c #6A6A6A",
"7!	c #C8C8C8",
"8!	c #787878",
"9!	c #7E7E7E",
":!	c white",
";!	c #FDFDFD",
"<!	c #D9D9D9",
"=!	c #B5B5B5",
">!	c #919191",
"?!	c #474747",
"@!	c #434343",
"A!	c #3D3D3D",
"B!	c #212121",
"C!	c #2C2C2C",
"D!	c #848484",
"E!	c #EAEAEA",
"F!	c #D0D0D0",
"G!	c #8B8B8B",
"H!	c #707070",
"I!	c #696969",
"J!	c #181818",
"K!	c #808080",
"L!	c #E8E8E8",
"M!	c #777777",
"N!	c #717171",
"O!	c #5A5A5A",
"P!	c #424242",
"Q!	c #525252",
"R!	c #5C5C5C",
"S!	c #767676",
"T!	c #9F9F9F",
"U!	c #DBDBDB",
"V!	c #C3C3C3",
"W!	c #0F0F0F",
"X!	c #D5D5D5",
"Y!	c #CFCFCF",
"Z!	c #ADADAD",
"[!	c #323232",
"]!	c #272727",
"^!	c #CECECE",
"_!	c #888888",
"`!	c #484848",
"a!	c #B3B3B3",
"b!	c #5F5F5F",
"c!	c #4D4D4D",
"d!	c #565656",
"e!	c #373737",
"f!	c #161616",
"g!	c #050505",
"h!	c #0A0A0A",
"i!	c #141414",
"j!	c #1B1B1B",
"k!	c #202020",
"l!	c #191919",
"m!	c #0E0E0E",
"n!	c #010101",
"o!	c #FBFBFB",
"p!	c #232323",
"q!	c #F3F3F3",
"r!	c #4B4B4B",
"s!	c #454545",
"t!	c #1F1F1F",
"u!	c #111111",
"v!	c #313131",
"w!	c #4E4E4E",
"x!	c #3A3A3A",
"y!	c #626262",
"z!	c #212120",
"{!	c #999999",
"|!	c #4C4C4C",
"}!	c #AFAFAF",
"~!	c #F1F1F1",
" #	c #636363",
"!#	c #E7E7E7",
"##	c #65686D",
"$#	c #627A8A",
"%#	c #A1A6AA",
"&#	c #585D61",
"'#	c #383839",
"(#	c #B2B2B2",
")#	c #979797",
"*#	c #BBBBBB",
"+#	c #747474",
",#	c #DADADA",
"-#	c #ABABAB",
".#	c #6E95AF",
"0#	c #93B9CF",
"1#	c #C0D9E5",
"2#	c #BCD7E3",
"3#	c #ACC2CE",
"4#	c #555E64",
"5#	c #E0E0E0",
"6#	c #444444",
"7#	c #727272",
"8#	c #F9FBFC",
"9#	c #2E658E",
":#	c #4992B4",
";#	c #72B6D0",
"<#	c #7ABED6",
"=#	c #72B6CF",
">#	c #67A6C3",
"?#	c #4A7B93",
"@#	c #323E45",
"A#	c #989797",
"B#	c #0C0C0C",
"C#	c #89A0B7",
"D#	c #2F739A",
"E#	c #58B4D0",
"F#	c #68C8DF",
"G#	c #63C2DA",
"H#	c #59B5D2",
"I#	c #47A3C3",
"J#	c #3588AB",
"K#	c #3A454B",
"L#	c #555555",
"M#	c #8F8F8F",
"N#	c #DEDEDE",
"O#	c #DDDDDD",
"P#	c #A4A4A4",
"Q#	c #303030",
"R#	c #FCFCFD",
"S#	c #D8DFE7",
"T#	c #819EB5",
"U#	c #6595B0",
"V#	c #6CA1BB",
"W#	c #7BAEC5",
"X#	c #9CBFD1",
"Y#	c #C1D3DF",
"Z#	c #E6E9EB",
"[#	c #989898",
"]#	c #BCBCBC",
"^#	c #252525",
"_#	c #343434",
"`#	c #F8F9FA",
"a#	c #F1F3F5",
"b#	c #F3F4F7",
"c#	c #FBFBFC",
"d#	c #D6D6D6",
"e#	c #575757",
"f#	c #A1A1A1",
"g#	c #6D6D6D",
"h#	c #9B9B9B",
"i#	c #686868",
"j#	c #E4E4E4",
"k#	c #1C1C1C",
"l#	c #8D8D8D",
"m#	c #3F3F3F",
"n#	c #959595",
"o#	c #838383",
"p#	c #2B2B2B",
"q#	c #6F6F6F",
"r#	c #797979",
"s#	c #E3E3E3",
"t#	c #676767",
"u#	c #606060",
"v#	c #1A1A1A",
"w#	c #949494",
"x#	c #515151",
"y#	c #8A8A8A",
"z#	c #646464",
"{#	c #B4B4B4",
"|#	c #7D7D7D",
"}#	c #939393",
"~#	c #B0B0B0",
" $	c #5E5E5E",
"!$	c #B7B7B7",
"#$	c #ACACAC",
"$$	c #B6B6B6",
"%$	c #BABABA",
"&$	c #C0C0C0",
"'$	c #505050",
"($	c #A2A2A2",
")$	c #A5A5A5",
"*$	c #898989",
"+$	c #C9C9C9",
",$	c #CACACA",
"-$	c #D7D7D7",
".$	c #8E8E8E",
"0$	c #8C8C8C",
"1$	c #9C9C9C",
"2$	c #7B7B7B",
"3$	c #CCCCCC",
"4$	c #828282",
"                                                                                                                                ",
"                                                                                                                                ",
"                                                                                                                                ",
"                                                                                                                                ",
"                                                                                                                                ",
"                                                                                                                                ",
"                                                                                                                                ",
"                                                                                                                                ",
"                                                                                                                                ",
"                                                                                                                                ",
"                                                                                                                                ",
"                                                                                                                                ",
"                                                                                                                                ",
"                      # $ % & & ' ( ( ) & & & & * + , - .                                                                       ",
"                  $ ' 0 1 2 3 4 5 6 7 8 9 : ; < = > ? @ A B ) C D & E F                                                         ",
"                G H I J K L M N O P Q R S T U U U V U W X Y Z [ ] ^ _ ` 1 ' a b                                                 ",
"              c G d e f g h i j k l j Q Y m n o p q O r s P Y t u u v w x y z { B | a }                                         ",
"              ~  !!!f #!$!v %!&!'!L J # (!= )!H $ 3 )!*!+!,!-!!!.!0!1!2!2!P 3!4!5!6!7!& | `                                     ",
"            0 H 8!K #!Z %!O 9!; * :!:!:!:!:!:!:!;!D C C D ;!:!:!:!| <!=!>!] ?!@!A!B!W C!D!E!) F!                                ",
"          ; ~ G!H!I!p J!K!L!:!~ D C & ? =!^ M!N!O![ '!P!Q!R!S!T!U!C ~ :!:!:!| V!^ O!2!C!4!W!N!` & =                             ",
"          ( X!#!] '!X +!| Y!Z!J .![!%!k V ! ! ! ! ! ! ! ! ! ! ! ! ]!f ^!D :!:!:!:!:!F!_!`!C!S l f * B                           ",
"        a!:!^ b!c!R `!d!e!m t Q f!%!l g!U h!i!j!k!t t x g!S Y x l!m!n!! p 9 o!:!:!:!:!:!a . c!p!T v -!C <!                      ",
"        q!% O!d!r!s!Z r s t!u!W k J!]!v!p q p '!$!w!c!j w x!.!y!N q p P j!k z!{!o!:!:!:!:!~ 0 T!'!i!n!Z X!B                     ",
"        :!9 w!0!@!q &!j T 4!t!s |!N!I }!5 ` ~!) C '  #! 5!y!~!o!( !#(!9!##$#%#&#'#(#:!:!:!:!:!~ A e x T m!)#( *#                ",
"      { :!y!?!q k!k g!X o +#- ,#' D :!:!:!:!:!:!:!-#U ! P )!:!:!:!:!:!;!.#0#1#2#3#4#M 5#:!:!:!:!:!D c 6#4!U b!B F!              ",
"      a !#r p!g!W x 7#+!B D :!:!:!:!:!:!:!:!:!:!~!k!n!! Z ~ :!:!:!:!:!8#9#:#;#<#=#>#?#@#A#D :!:!:!:!:!L!6!J!! q @ U!            ",
"      D  !g!V e!-!!#D :!:!:!:!:!:!:!:!:!:!:!:!:!^ B#W!n!e!:!:!:!:!:!:!:!C#D#E#F#G#H#I#J#K#L#L!:!:!:!:!:!) M#t!U ]!N#O#          ",
"      ~ M m P#B ~ ~ ~ ~ ~ ~ ~ ~ ~ ~ ~ ~ ~ ~ ~ C 1!Q#B!S %!& ~ ~ ~ ~ ~ ~ R#S#T#U#V#W#X#Y#Z#[#r!]#:!~ ~ ~ ~ o!. ^#U t 5#{         ",
"    c ~ =!G ~ ;!;!;!;!;!;!;!;!;!;!;!;!;!;!;!;!E!j Q!_#l!g!K!~ ;!;!;!;!;!;!;!~ `#a#b#c#~ ~ ~ G . (#C ;!;!;!;!D {!B!! x!(         ",
"    d#D :!~ ;!;!;!o!o!o!o!o!o!o!o!o!o!o!o!o!o!@ l e#s!x S W f#;!o!o!o!o!o!o!o!o!o!o!o!o!o!o!o!;!A + D o!o!o!o!) g#f!! h#&       ",
"    ` @ !!.!r!i#- !#D C C C C C C C C C C C C !#l!J!N m u!n!w 9!& C C C C C C C C C C C C C C C C C C C C C C o!O#e!V P D       ",
"    j#P#k!Q#Y k#v ^#l#0 C ( ( ( ( ( ( ( ( ( ( a L#v W f!W!n!! ! '!4 D ( ( ( ( ( ( ( ( ( ( ( ( ( ( ( ( ( ( ( ( ) ( S!J!h!3 L!    ",
"    j#M#t [!Y t!J!v k m#F!C ' ' ' ' ' ' ' ' ' ) +!r x B#U ! ! ! ! %!f @ o!' ' ' ' ' ' ' ' ' ' ' ' ' ' ' ' ' ' ' ) 7 ]!W n#0     ",
"  [ j#o#p#_#&!5!j!j u!S i!# ( & & & & & & & & & | (#N _#s x f!S g!! ! k#8!<!( ' & & & & & & & & & & & & & & & & & > v!S q#&     ",
"  r#s#K [!O Q#Y B!j!f!u!4!k 7#~!& q!q!q!q!q!q!q!q!| E 7 t#6#Q#_#[!p#u 4!g!W!y =!2 ) & q!q!q!q!q!q!q!q!q!q!q!q!q!q!E e!v `!'     ",
"  l#j#u#q '!o m t k!v#i!u!m!w 0!` ' a a a a a a a a a & A q ! t L 6#e!i Q#x %!g!B!O!9 ? % ) & q!a a a a a a a a a 2 p J!e!'     ",
"  w#s#x#6#r!2!r s t k!v#j u!B#W ^#a!& a B B B B B B a 3 n ! V f ' s#(!y#L#m#r m B!S U S x!z#} 5 5#L!% 0 0 q!q!a a O#A!k#e!0     ",
"  } s#1!w![ `!m#r s t k!v#i!%!S l B#] > ~!a ~!~!~!j#>!f!! U t *#% U!Z!{#V!c ,!M!6#e!3!J!g!U g!S Q O $! #|#}#f#~#(#Z!P!]!1!~!    ",
"  F ` A![  $Q!`!Z i P ^#t!l!R %!S k w %!y l#-#)#g#B!! ! T x K % * !$- }!(##$8 ]#{ a!e ?!i B!4!T S u ^#3!3!]!Y Y p#s i p#N!+     ",
"  T!$ p  $i#R!Q!?!A!i C!t Q X R W!S k g!T n!! ! ! ! ! m!C!h ` E = } P#7 $$%$*#$$-#8 &$,#*#D!N Q#k#k B#t!e!A!P!@!@!6#@!X P#?     ",
"  . ? i  #K t#R!'$1!q _#C!p!k#X v m!S k g!T U ! n!S x i K 5#? %$^ [#($#${#+!(!%$%$(!~#)$6 Y!j#&$*$$!p#f!w j s @!Q!w!5!p!j#+$    ",
"  f#,#i ] 9!H!z#.!$!s!p n p#p!k#f!v m!l T U T i!t n c!~#2 4 - l#>!z u#}#~#$$+!+!+!+!+!+!a!: ,!c U!!#,${! #s v#S T U X Z!j#,!    ",
"  . -$O i#*$!!q#z#.!$!6#x![!&!5!i!S V W j p!Q#n b!8 ` <!, {!.$0$M#Y       N *$a!$$$$$$$$$$$${#8 (${#F!5#s#@ _ 1$J J c j#Y!I!    ",
"  f#H 2!] n#_!2$q# #.!c!_#t!4!V W!k#&!Q#_#b!^ Y!$ -$< : }#M#0$G!r!              '$-!$$=!=!=!=!=!{#Z!($9 < -$$ ` ` 5#<!3 =!      ",
"  f#F!N b!f#-!e O!x!j!w 4!l!x P [!y 8!,!d#? ,#3$$$P#)#^ I 0$y#N                     &!q#7 {#(#(#(#(#(#7 - . 9 6 ~#7 (#{#)#      ",
"  . 3$O![!1!v#l %!X B!v!|!i#_!-#3 <!O#<!^!%$9  !{!n#}#>!M#4$3!                            L#F =!6 6 6 6 6 ~#}!#$}!~#6 6         ",
"  f#, K u!&!0! #8!}#a!Y!H <!U!<!H = {#: T! !h#{!)#w#>!>!6!                                    p o#6 }!7 7 7 7 7 7 7 }!n#        ",
"  # -#3$,$Y!)!-$<!<!<!-$)!,$(!-#. T!f#. F 1$} )#n#n#D!O                                             6!)$(#Z!#$#$#$Z!P#          ",
"  ,!)#c H X!H 3 ^!V!=!-#f#. # P#P#($.  !h#} {!} r#Z                                                     2!r#h#)$. 7#            ",
"  # # -!f#8 : T!1$T!($)$: : )$# ($T! ! !T!y#h                                                                                   ",
"  {!- )$# ($P#)$: : : - )$P#P#($P#($G!L                                                                                         ",
"  K P#P#P#P#P#P#P#P#P#P#- 9 h#|#L#                                                                                              ",
"    f#f#f#f#f## - - {!e u#                                                                                                      ",
"      J {!n#K!6!0!                                                                                                              ",
"                                                                                                                                ",
"                                                                                                                                ",
"                                                                                                                                ",
"                                                                                                                                ",
"                                                                                                                                ",
"                                                                                                                                ",
"                                                                                                                                ",
"                                                                                                                                ",
"                                                                                                                                ",
"                                                                                                                                "};