/* XPM */
static char *komodo16_edit[] = {
/* columns rows colors chars-per-pixel */
"16 16 83 1 ",
"  c #848687",
". c #909294",
"X c #919395",
"o c #949698",
"O c #959799",
"+ c #95979A",
"@ c #989A9D",
"# c #999B9D",
"$ c #999B9E",
"% c #9B9C9E",
"& c #9C9EA1",
"* c #9D9FA2",
"= c #9FA1A4",
"- c #A0A2A4",
"; c #A0A2A5",
": c #A2A3A4",
"> c #A5A7A9",
", c #A8AAAC",
"< c #A9AAAC",
"1 c #A9ABAE",
"2 c #AAACAD",
"3 c #ABADAF",
"4 c #ADAFB1",
"5 c #AEB0B2",
"6 c #AFB1B3",
"7 c #B1B3B5",
"8 c #B2B4B6",
"9 c #B4B5B6",
"0 c #B5B7B8",
"q c #B6B8BA",
"w c #B8BABC",
"e c #B9BBBD",
"r c #BABCBD",
"t c #BABCBE",
"y c #BBBDBF",
"u c #BCBDBE",
"i c #BCBEC0",
"p c #BEBFC1",
"a c #BEC0C1",
"s c #BFC0C1",
"d c #BFC1C3",
"f c #C0C2C2",
"g c #C0C2C3",
"h c #C3C5C6",
"j c #C6C6C8",
"k c #C6C7C8",
"l c #C6C7C9",
"z c #C7C8C9",
"x c #CBCCCD",
"c c #CDCECF",
"v c #CDCFCF",
"b c #CECFD0",
"n c #D0D1D3",
"m c #D1D2D4",
"M c #D4D5D6",
"N c #D6D7D8",
"B c #D7D8D9",
"V c #D8D9DA",
"C c #D9DADB",
"Z c #DADBDC",
"A c #DCDDDE",
"S c #DDDEDF",
"D c #DEDFE0",
"F c #DFDFE0",
"G c #E0E1E2",
"H c #E1E1E2",
"J c #E1E2E3",
"K c #E5E5E6",
"L c #E7E7E8",
"P c #E9E9EA",
"I c #E9EAEA",
"U c #EAEBEC",
"Y c #EBECEC",
"T c #F1F1F1",
"R c #F1F1F2",
"E c #F4F4F4",
"W c gray96",
"Q c gray98",
"! c #FBFBFB",
"~ c gray99",
"^ c #FDFDFD",
"/ c white",
"( c None",
/* pixels */
"((((((((((((((((",
"(((((((i((((((((",
"(((((titit((((((",
"(((thFZFJmit((((",
"(tidJZ//JImiit((",
"(tiZm//RcZbhti((",
"(ttIc//Jttcc7t((",
"(q0IN/Rth4dt3q((",
"(77c/L//t37s57((",
"(55Z///It30J33((",
"(33ZJDR/JBRt+3((",
"(>>>t7%hNz:.:3((",
"(+::=+%=+.+*:+((",
"(((+*****%*+((((",
"(((((+%%%+((((((",
"(((((( . ((((((("
};
