/* XPM */
static char * komodo16_edit_xpm[] = {
"16 16 107 2",
"  	c None",
". 	c #235B6A",
"+ 	c #739AA4",
"@ 	c #7F9EA6",
"# 	c #6C939D",
"$ 	c #5B8690",
"% 	c #4D7A85",
"& 	c #42707C",
"* 	c #376571",
"= 	c #051B22",
"- 	c #CFE1E6",
"; 	c #D6D6D6",
"> 	c #88A6AD",
", 	c #96B0B7",
"' 	c #A8BCC1",
") 	c #A4BBC0",
"! 	c #AABFC4",
"~ 	c #A3BCC0",
"{ 	c #8AADB6",
"] 	c #82A5AE",
"^ 	c #6A8C95",
"/ 	c #375A61",
"( 	c #FFFFFF",
"_ 	c #B4C0C3",
": 	c #7FA1A9",
"< 	c #8AA8AF",
"[ 	c #7CA0A9",
"} 	c #99B2B8",
"| 	c #A6BBC1",
"1 	c #84A8B2",
"2 	c #9CB6B9",
"3 	c #A5BFC1",
"4 	c #ACC7CE",
"5 	c #C4D9DE",
"6 	c #749098",
"7 	c #57757D",
"8 	c #B1C9CF",
"9 	c #68919A",
"0 	c #51838F",
"a 	c #2D6D7D",
"b 	c #347484",
"c 	c #C1CDD0",
"d 	c #60919D",
"e 	c #337D94",
"f 	c #A2B3A8",
"g 	c #B1BAAA",
"h 	c #6A9FAF",
"i 	c #76A3AF",
"j 	c #D0E8ED",
"k 	c #9CB3B8",
"l 	c #3C636D",
"m 	c #5C929F",
"n 	c #055568",
"o 	c #00445A",
"p 	c #0D5A6D",
"q 	c #3A7B89",
"r 	c #FFF6F5",
"s 	c #BFD1D6",
"t 	c #3D889A",
"u 	c #0F6B80",
"v 	c #096377",
"w 	c #297586",
"x 	c #257183",
"y 	c #01576C",
"z 	c #93C9D5",
"A 	c #566F75",
"B 	c #3D5F68",
"C 	c #E8EEEF",
"D 	c #6C97A2",
"E 	c #004A5E",
"F 	c #00354D",
"G 	c #377989",
"H 	c #CBE1E5",
"I 	c #88ADB6",
"J 	c #599AAA",
"K 	c #5BA8BA",
"L 	c #4C9BAD",
"M 	c #2A7D90",
"N 	c #004E65",
"O 	c #4C94A4",
"P 	c #668991",
"Q 	c #092A33",
"R 	c #FBFFFF",
"S 	c #F3FAFC",
"T 	c #99BAC6",
"U 	c #80BCCA",
"V 	c #4C7883",
"W 	c #01080B",
"X 	c #1D2123",
"Y 	c #44585D",
"Z 	c #70939C",
"` 	c #9CC6CF",
" .	c #BCE3EC",
"..	c #BCEAF5",
"+.	c #1F383F",
"@.	c #B0DDE9",
"#.	c #E0F4F9",
"$.	c #ADC5CC",
"%.	c #95ACB3",
"&.	c #6F888D",
"*.	c #26393E",
"=.	c #141C1E",
"-.	c #535B5D",
";.	c #374E54",
">.	c #07272F",
",.	c #001B21",
"'.	c #010101",
"                                ",
"                                ",
"                                ",
"  . + @ # $ % & *               ",
"= - ; > , ' ) ! ~ { ] ^         ",
"/ ( _ : < [ } | 1 2 3 4 5 6     ",
"7 8 9 0 a b c d e f g h i j k   ",
"l m n o p q r s t u v w x y z A ",
"B ( C D E F G H I J K L M N O P ",
"Q R ( ( S T U V W X Y Z `  ...+.",
"  @.#.$.%.&.*.          =.-.;.  ",
"  >.,.'.                        ",
"                                ",
"                                ",
"                                ",
"                                "};
