/* XPM */
static char * komodo48_edit_xpm[] = {
"48 48 462 2",
"  	c None",
". 	c #1F6D7F",
"+ 	c #217083",
"@ 	c #267789",
"# 	c #287B8D",
"$ 	c #2A7D8E",
"% 	c #2C7F90",
"& 	c #2E8091",
"* 	c #2F8192",
"= 	c #318292",
"- 	c #328292",
"; 	c #327F8F",
"> 	c #317B8B",
", 	c #307A8A",
"' 	c #1E7284",
") 	c #247E92",
"! 	c #258093",
"~ 	c #288193",
"{ 	c #278194",
"] 	c #298194",
"^ 	c #2A8293",
"/ 	c #308596",
"( 	c #378A9A",
"_ 	c #3D8D9D",
": 	c #41909F",
"< 	c #4492A1",
"[ 	c #4794A3",
"} 	c #4995A4",
"| 	c #4A95A4",
"1 	c #4894A3",
"2 	c #398595",
"3 	c #2E7C8C",
"4 	c #2A7687",
"5 	c #277A8C",
"6 	c #227D90",
"7 	c #1A798C",
"8 	c #318395",
"9 	c #75ACB8",
"0 	c #AACAD1",
"a 	c #D2E4E7",
"b 	c #E0ECEF",
"c 	c #E5EFF1",
"d 	c #EAF2F3",
"e 	c #ECF3F5",
"f 	c #EEF5F6",
"g 	c #F0F6F7",
"h 	c #F1F6F7",
"i 	c #F0F5F7",
"j 	c #EEF4F6",
"k 	c #EAF2F4",
"l 	c #E4EFF1",
"m 	c #D3E4E8",
"n 	c #9FC5CD",
"o 	c #619FAD",
"p 	c #297F90",
"q 	c #2A8193",
"r 	c #297889",
"s 	c #2E7E90",
"t 	c #73ABB6",
"u 	c #DBE7EB",
"v 	c #FFFFFF",
"w 	c #FEFEFE",
"x 	c #FFFEFE",
"y 	c #B9D3D9",
"z 	c #6CA7B4",
"A 	c #3B8999",
"B 	c #1D7184",
"C 	c #DCE6E9",
"D 	c #CCD6DA",
"E 	c #94B6BE",
"F 	c #6A9DA9",
"G 	c #4A8B9A",
"H 	c #398292",
"I 	c #388493",
"J 	c #3A8595",
"K 	c #428796",
"L 	c #5995A2",
"M 	c #75A5B1",
"N 	c #96B9C1",
"O 	c #BCCFD4",
"P 	c #E6EAEB",
"Q 	c #FAFCFC",
"R 	c #ADCBD2",
"S 	c #2D8294",
"T 	c #217183",
"U 	c #84AEB8",
"V 	c #4A8D9D",
"W 	c #1D7487",
"X 	c #1B7A8D",
"Y 	c #227E91",
"Z 	c #268093",
"` 	c #2B8395",
" .	c #2E8596",
"..	c #2F8697",
"+.	c #318798",
"@.	c #328899",
"#.	c #338899",
"$.	c #4592A1",
"%.	c #8ABAC3",
"&.	c #76AFBA",
"*.	c #60A1AE",
"=.	c #47919F",
"-.	c #2D7F90",
";.	c #4B909F",
">.	c #73A8B3",
",.	c #A2C4CB",
"'.	c #D6E3E6",
").	c #F9FAFB",
"!.	c #90BCC6",
"~.	c #297B8D",
"{.	c #26788B",
"].	c #227D91",
"^.	c #237E91",
"/.	c #268092",
"(.	c #278092",
"_.	c #298294",
":.	c #2A8294",
"<.	c #2D8495",
"[.	c #2F8596",
"}.	c #2F8597",
"|.	c #318797",
"1.	c #328798",
"2.	c #5C9EAC",
"3.	c #FDFDFD",
"4.	c #DEE6E9",
"5.	c #358999",
"6.	c #348999",
"7.	c #308697",
"8.	c #418A99",
"9.	c #D9E5E8",
"0.	c #FEFFFF",
"a.	c #FAFBFC",
"b.	c #4D92A2",
"c.	c #1C6E81",
"d.	c #24788B",
"e.	c #217D90",
"f.	c #237D90",
"g.	c #257F92",
"h.	c #318698",
"i.	c #569BA9",
"j.	c #FBFCFC",
"k.	c #498F9E",
"l.	c #328697",
"m.	c #78ADB9",
"n.	c #287F90",
"o.	c #81B0BB",
"p.	c #F5F7F8",
"q.	c #A6C9D0",
"r.	c #21768A",
"s.	c #23778A",
"t.	c #207C8F",
"u.	c #247E91",
"v.	c #278093",
"w.	c #4591A1",
"x.	c #F4F8F9",
"y.	c #F9FAFA",
"z.	c #86B5BF",
"A.	c #7EB0BB",
"B.	c #B7D2D8",
"C.	c #CADDE2",
"D.	c #3F8D9E",
"E.	c #2A7F90",
"F.	c #A8C6CD",
"G.	c #F6F8F9",
"H.	c #E3ECEF",
"I.	c #2D8093",
"J.	c #217689",
"K.	c #1F7B8F",
"L.	c #207C90",
"M.	c #257E91",
"N.	c #288093",
"O.	c #2D8496",
"P.	c #2C8395",
"Q.	c #C4DADE",
"R.	c #D3E3E8",
"S.	c #76ABB8",
"T.	c #358696",
"U.	c #85B1BB",
"V.	c #609CAA",
"W.	c #006077",
"X.	c #1E7488",
"Y.	c #1D7A8E",
"Z.	c #207B8F",
"`.	c #267F92",
" +	c #298193",
".+	c #2B8193",
"++	c #E0EAED",
"@+	c #A4C7CF",
"#+	c #5895A4",
"$+	c #B5CED4",
"%+	c #E6EDF0",
"&+	c #78AAB6",
"*+	c #06637A",
"=+	c #1C7387",
"-+	c #1A788D",
";+	c #1E7A8E",
">+	c #257F91",
",+	c #2C8495",
"'+	c #338697",
")+	c #AFCAD0",
"!+	c #D5E3E6",
"~+	c #ABC3CA",
"{+	c #F6F8F8",
"]+	c #92B9C3",
"^+	c #005A74",
"/+	c #197185",
"(+	c #18768B",
"_+	c #1C798D",
":+	c #1E7B8F",
"<+	c #278193",
"[+	c #267A8C",
"}+	c #1D8199",
"|+	c #258196",
"1+	c #227E90",
"2+	c #5295A3",
"3+	c #B3CFD5",
"4+	c #ECF0F1",
"5+	c #EAEEF0",
"6+	c #FBFBFC",
"7+	c #FCFCFC",
"8+	c #87B4BE",
"9+	c #005F77",
"0+	c #177084",
"a+	c #15758A",
"b+	c #19778B",
"c+	c #1C798E",
"d+	c #1E7B8E",
"e+	c #217C90",
"f+	c #237E90",
"g+	c #277E91",
"h+	c #AB622A",
"i+	c #B56022",
"j+	c #B16024",
"k+	c #277C8F",
"l+	c #298092",
"m+	c #4F8F9E",
"n+	c #B1C9CF",
"o+	c #FDFCFC",
"p+	c #C1D5DA",
"q+	c #23758A",
"r+	c #4A8E9F",
"s+	c #146D82",
"t+	c #127388",
"u+	c #18778B",
"v+	c #247F92",
"w+	c #1A7B92",
"x+	c #B76223",
"y+	c #B56123",
"z+	c #BC6120",
"A+	c #C36019",
"B+	c #187186",
"C+	c #458B9B",
"D+	c #6EA5B2",
"E+	c #A7C7CE",
"F+	c #EBEFF0",
"G+	c #F9FBFB",
"H+	c #8CB9C4",
"I+	c #94BBC4",
"J+	c #E6EBED",
"K+	c #005771",
"L+	c #116C81",
"M+	c #0F7186",
"N+	c #1B798D",
"O+	c #237B8E",
"P+	c #B56224",
"Q+	c #BB6322",
"R+	c #BB6222",
"S+	c #B56122",
"T+	c #1B7589",
"U+	c #157488",
"V+	c #458999",
"W+	c #BACFD5",
"X+	c #F7FAFB",
"Y+	c #0E6A80",
"Z+	c #0B6F86",
"`+	c #127288",
" @	c #207B90",
".@	c #227C8F",
"+@	c #21798B",
"@@	c #B96222",
"#@	c #BC6321",
"$@	c #BA6121",
"%@	c #07687E",
"&@	c #217589",
"*@	c #478F9F",
"=@	c #97BBC4",
"-@	c #FEFBFB",
";@	c #0E6980",
">@	c #0B697F",
",@	c #096D84",
"'@	c #0B6F85",
")@	c #0F7087",
"!@	c #117288",
"~@	c #14758A",
"{@	c #17768B",
"]@	c #19788C",
"^@	c #378394",
"/@	c #1F7A8E",
"(@	c #217C8F",
"_@	c #1F778B",
":@	c #1C6C7E",
"<@	c #B56124",
"[@	c #B76122",
"}@	c #046880",
"|@	c #006179",
"1@	c #5C96A5",
"2@	c #CEDFE3",
"3@	c #EFF4F5",
"4@	c #AEC4CB",
"5@	c #00617A",
"6@	c #09677E",
"7@	c #076C83",
"8@	c #086D84",
"9@	c #0E7187",
"0@	c #107288",
"a@	c #127489",
"b@	c #15748A",
"c@	c #86AEB8",
"d@	c #1E768A",
"e@	c #1C7A8E",
"f@	c #1F7C8F",
"g@	c #1E798D",
"h@	c #1D7589",
"i@	c #BC6222",
"j@	c #BB6221",
"k@	c #01637B",
"l@	c #177489",
"m@	c #297C8F",
"n@	c #388092",
"o@	c #27798C",
"p@	c #036880",
"q@	c #01677F",
"r@	c #07667C",
"s@	c #046A82",
"t@	c #066C83",
"u@	c #086C84",
"v@	c #0A6E85",
"w@	c #0C6F86",
"x@	c #086D83",
"y@	c #37889B",
"z@	c #C5D7DC",
"A@	c #3A8495",
"B@	c #16778C",
"C@	c #17778B",
"D@	c #19778C",
"E@	c #19768B",
"F@	c #1A798D",
"G@	c #19788D",
"H@	c #146D81",
"I@	c #B86222",
"J@	c #BA6222",
"K@	c #B86122",
"L@	c #B46022",
"M@	c #006582",
"N@	c #006681",
"O@	c #006882",
"P@	c #00647F",
"Q@	c #06657B",
"R@	c #036981",
"S@	c #066B83",
"T@	c #076C82",
"U@	c #99C0C9",
"V@	c #F5F5F5",
"W@	c #227487",
"X@	c #0F7287",
"Y@	c #127389",
"Z@	c #137489",
"`@	c #147388",
" #	c #147085",
".#	c #16768B",
"+#	c #0D637A",
"@#	c #B36124",
"##	c #B66022",
"$#	c #B25F22",
"%#	c #005F76",
"&#	c #006079",
"*#	c #026780",
"=#	c #358699",
"-#	c #82B3BE",
";#	c #E7EAEC",
">#	c #317D8F",
",#	c #0A6F85",
"'#	c #0F6F85",
")#	c #116E84",
"!#	c #117388",
"~#	c #0F7187",
"{#	c #0C7086",
"]#	c #0A687F",
"^#	c #B76224",
"/#	c #F6F8FA",
"(#	c #C5D5D9",
"_#	c #076880",
":#	c #096C83",
"<#	c #0D7086",
"[#	c #0C7085",
"}#	c #0B6E85",
"|#	c #096E84",
"1#	c #066B82",
"2#	c #035C73",
"3#	c #B16125",
"4#	c #B96223",
"5#	c #BC6322",
"6#	c #B66122",
"7#	c #C4D3D7",
"8#	c #5090A0",
"9#	c #00637B",
"0#	c #04687F",
"a#	c #096880",
"b#	c #106F85",
"c#	c #046981",
"d#	c #056B82",
"e#	c #02657C",
"f#	c #ADC5CB",
"g#	c #0B6479",
"h#	c #00657E",
"i#	c #016881",
"j#	c #026880",
"k#	c #016880",
"l#	c #046178",
"m#	c #056A81",
"n#	c #006881",
"o#	c #5B95A4",
"p#	c #0D6E85",
"q#	c #026980",
"r#	c #016981",
"s#	c #026981",
"t#	c #025E75",
"u#	c #4E8B9B",
"v#	c #00647C",
"w#	c #01667E",
"x#	c #006880",
"y#	c #8BB5C1",
"z#	c #297C90",
"A#	c #00637C",
"B#	c #02667E",
"C#	c #01637A",
"D#	c #026279",
"E#	c #02667F",
"F#	c #0B6C83",
"G#	c #E9F0F2",
"H#	c #9CC1CA",
"I#	c #3A889B",
"J#	c #328598",
"K#	c #348598",
"L#	c #147086",
"M#	c #04647A",
"N#	c #01657E",
"O#	c #D6E3E7",
"P#	c #FFFDFC",
"Q#	c #A2BBC2",
"R#	c #2A7689",
"S#	c #03637A",
"T#	c #176F84",
"U#	c #005D75",
"V#	c #00647D",
"W#	c #00677F",
"X#	c #01657D",
"Y#	c #01647C",
"Z#	c #02677F",
"`#	c #02627A",
" $	c #02637A",
".$	c #016178",
"                                                                                                ",
"                                                                                                ",
"                                                                                                ",
"                                                                                                ",
"                                                                                                ",
"                                                                                                ",
"            . + @ # $ % & * = - ; > ,                                                           ",
"        ' ) ! ~ { ] ^ / ( _ : < [ } | | 1 < 2 3 4                                               ",
"        5 6 7 8 9 0 a b c d e f g h h i j k l m n o p q r                                       ",
"        s t u v v v v v v v v v v v v v v v w v v v x y z A B                                   ",
"        C v v D E F G H I 2 J K L M N O P v v v v w v v w Q R S T                               ",
"        U V W X Y Z `  ...+.@.#.$.%.&.*.=.-.;.>.,.'.v v v w v ).!.~.                            ",
"        {.].^./.(._.:.<.[.}.|.1.2.3.v v 4.|.5.6.#.7.8.9.w v w 0.v a.b.c.                        ",
"        d.e.f.g.(.~ :.` <.[.7.h.i.j.v v v k. ..._.l.m.n.o.p.v w w v v q.r.                      ",
"        s.t.6 u.g.v.~ :.` <.[.[.w.x.w v v y.z.A.B.v v C.D.E.F.G.v v w v H.I.                    ",
"        J.K.L.^.M./.N.] ` ` O. .P.Q.v w w v v v v v w v j.R.S.T.U.v v v v G.V.W.                ",
"        X.Y.Z.e.f.g.`.N. +:.` P.O..+++v w v v v v v v v w v v v @+#+$+%+v v v &+*+              ",
"        =+-+;+L.e.^.>+/.~ ] :.` P.,+'+)+v v w v v v v v v v w v v w h !+~+{+v v ]+^+            ",
"        /+(+_+:+t.e.^.g.`.<+[+  }+|+] 1+2+3+4+v v v w v v v v v v v w v v 5+6+7+v 8+9+          ",
"        0+a+b+c+d+L.e+f+g.g.g+h+i+j+      k+l+m+n+o+v v w v v v v v v v w v v p+q+v r+          ",
"        s+t+a+u+_+:+t.e.Y u.v+w+    x+y+z+A+      B+C+D+E+F+v v w v v v v v w G+H+I+J+K+        ",
"        L+M+t+a+u+N+;+Z.t.6 f.^.O+        P+Q+R+S+      T+U+V+W+X+3.v v w v v w v v v Y+        ",
"        Y+Z+M+`+a+u+-+Y.K.t. @6 ]..@+@          @@#@@@$@      %@&@*@=@-@v v w v v w v ;@        ",
"        >@,@'@)@!@~@{@]@N+L.^@/@t.(@e+]._@:@      <@R+#@#@[@        }@|@1@2@3@x v x 4@5@        ",
"        6@7@8@'@9@0@a@b@9@c@d@e@Y.:+K.f@t.f@g@h@      @@i@#@j@R+[@        k@l@m@n@o@p@q@        ",
"        r@s@t@u@v@w@x@y@z@A@B@C@D@E@N+F@_+N+N+G@]@H@    I@R+Q+x+J@#@K@L@      M@N@O@P@          ",
"        Q@R@s@S@7@T@U@V@W@X@Y@Z@`@   #.#{@.#.#a+~@Z@`++#    #@R+y+  @#x+#@j@j@##$#              ",
"        %#&#*#=#-#f ;#>#,#w@9@'#      )#`+Y@!#0@0@~#9@{#]#    x+J@J@            ^#              ",
"        v /#v v v (#_#t@7@,@:#            <#<#w@[#}#|#,@7@1#2#    3#4#5#6#                      ",
"        w v v 7#8#9#R@s@0#                  a#|#8@b#c#S@d#s@R@e#                                ",
"        w f#g#h#i#j#k#                        l#m#n#o#p#q#j#r#s#*#t#                            ",
"        u#v#i#j#s#w#                              e#x#y#z#A#r#s#s#s#j#B#B#C#                    ",
"        D#j#s#r#E#                                  B#F#G#H#I#J#J#K#L#s#j#                      ",
"        M#s#s#j#                                      N#p#O#v P#Q#R#:#s#                        ",
"        S#s#s#q@                                        k#v#T#U#V#W#B#                          ",
"        S#s#s#                                            X#Y#k@                                ",
"        S#s#Z#                                                                                  ",
"        `#s#                                                                                    ",
"         $Z#                                                                                    ",
"        .$                                                                                      ",
"                                                                                                ",
"                                                                                                ",
"                                                                                                ",
"                                                                                                ",
"                                                                                                ",
"                                                                                                ",
"                                                                                                ",
"                                                                                                "};
