/* XPM */
static char * komodo32_edit_xpm[] = {
"32 32 287 2",
"  	c None",
". 	c #227789",
"+ 	c #237A8C",
"@ 	c #237B8E",
"# 	c #237D8E",
"$ 	c #247D8F",
"% 	c #257E90",
"& 	c #267E8F",
"* 	c #267B8D",
"= 	c #247A8C",
"- 	c #23798A",
"; 	c #1F788B",
"> 	c #1C798D",
", 	c #428F9F",
"' 	c #6DA8B4",
") 	c #8CBAC4",
"! 	c #A2C7CF",
"~ 	c #B0D0D6",
"{ 	c #B8D5DA",
"] 	c #BED7DD",
"^ 	c #BFD8DC",
"/ 	c #BDD7DC",
"( 	c #B2D0D7",
"_ 	c #99C1CA",
": 	c #71ABB6",
"< 	c #3A8797",
"[ 	c #23788A",
"} 	c #7AADB8",
"| 	c #E3EEF0",
"1 	c #FEFEFE",
"2 	c #FDFDFE",
"3 	c #F7F9F9",
"4 	c #F8F9FA",
"5 	c #FCFDFD",
"6 	c #FDFEFE",
"7 	c #FFFFFF",
"8 	c #CEE0E5",
"9 	c #7CB0BB",
"0 	c #308091",
"a 	c #B7CFD4",
"b 	c #7FAEBA",
"c 	c #5395A3",
"d 	c #348395",
"e 	c #227A8D",
"f 	c #247C8E",
"g 	c #287E8F",
"h 	c #4F93A1",
"i 	c #69A3AF",
"j 	c #80B1BA",
"k 	c #8EB8C1",
"l 	c #B0CDD3",
"m 	c #DDE9EC",
"n 	c #EFF5F6",
"o 	c #EDF4F5",
"p 	c #86B5BF",
"q 	c #438999",
"r 	c #177488",
"s 	c #1B7B8E",
"t 	c #227E91",
"u 	c #278194",
"v 	c #2B8496",
"w 	c #2F8597",
"x 	c #308698",
"y 	c #237F91",
"z 	c #DAE8EB",
"A 	c #F9FAFB",
"B 	c #DBE9EB",
"C 	c #5598A6",
"D 	c #1F7D8F",
"E 	c #267E90",
"F 	c #619FAC",
"G 	c #AECDD4",
"H 	c #ECF3F4",
"I 	c #C8DDE2",
"J 	c #73A8B4",
"K 	c #257F92",
"L 	c #288193",
"M 	c #2A8294",
"N 	c #2C8395",
"O 	c #2E8597",
"P 	c #247F91",
"Q 	c #BBD6DC",
"R 	c #FFFEFF",
"S 	c #BAD4DA",
"T 	c #69A7B3",
"U 	c #7AB1BC",
"V 	c #A6CAD2",
"W 	c #82B4BE",
"X 	c #84B3BE",
"Y 	c #F3F6F8",
"Z 	c #EEF5F6",
"` 	c #9FC3CB",
" .	c #20798C",
"..	c #217D90",
"+.	c #247E91",
"@.	c #268092",
"#.	c #298193",
"$.	c #288194",
"%.	c #65A4B0",
"&.	c #ECF3F5",
"*.	c #F7FAFA",
"=.	c #FBFCFD",
"-.	c #CBDFE4",
";.	c #A9C9D1",
">.	c #97BFC8",
",.	c #B2CED4",
"'.	c #F8FAFA",
").	c #C6DBE0",
"!.	c #4F91A0",
"~.	c #1D778B",
"{.	c #1F7B8F",
"].	c #227D90",
"^.	c #247F92",
"/.	c #2B8396",
"(.	c #77ADB8",
"_.	c #FCFCFC",
":.	c #FBFCFC",
"<.	c #DFEBED",
"[.	c #C3D7DD",
"}.	c #D2DFE3",
"|.	c #FEFDFE",
"1.	c #DDEAED",
"2.	c #5B99A8",
"3.	c #197589",
"4.	c #1C7A8D",
"5.	c #227D91",
"6.	c #2A7E8F",
"7.	c #278093",
"8.	c #298195",
"9.	c #3C8C9C",
"0.	c #9DC2CA",
"a.	c #EFF3F4",
"b.	c #F2F4F5",
"c.	c #D1E0E4",
"d.	c #5796A6",
"e.	c #157287",
"f.	c #17768B",
"g.	c #1D7A8E",
"h.	c #227E92",
"i.	c #6D6D57",
"j.	c #B65F20",
"k.	c #C15F1A",
"l.	c #317885",
"m.	c #639AA6",
"n.	c #DAE7EA",
"o.	c #F3F7F8",
"p.	c #F8FAFB",
"q.	c #E6EEF0",
"r.	c #4A8F9F",
"s.	c #88B4BE",
"t.	c #106F84",
"u.	c #127388",
"v.	c #18768B",
"w.	c #217C8F",
"x.	c #1F7D93",
"y.	c #C4611A",
"z.	c #C35F19",
"A.	c #246369",
"B.	c #408899",
"C.	c #8AB8C3",
"D.	c #C5DADF",
"E.	c #F4F8F9",
"F.	c #D3E3E7",
"G.	c #498E9F",
"H.	c #0C6C83",
"I.	c #0E7186",
"J.	c #1A788C",
"K.	c #1C798E",
"L.	c #257D91",
"M.	c #1F7A8D",
"N.	c #C4611B",
"O.	c #BD611F",
"P.	c #C2601C",
"Q.	c #4291A7",
"R.	c #88B6C3",
"S.	c #A9CAD2",
"T.	c #D6E5E8",
"U.	c #FFFEFD",
"V.	c #C5D8DE",
"W.	c #2B7D91",
"X.	c #086A81",
"Y.	c #096E85",
"Z.	c #0D7086",
"`.	c #107288",
" +	c #0E7187",
".+	c #3B8A9B",
"++	c #458C9C",
"@+	c #1D798D",
"#+	c #1E7B8E",
"$+	c #1F7C8F",
"%+	c #1E798D",
"&+	c #19788E",
"*+	c #BF621F",
"=+	c #BB6321",
"-+	c #BD6220",
";+	c #C3601B",
">+	c #4494AA",
",+	c #5C9EB0",
"'+	c #61A0B0",
")+	c #37869A",
"!+	c #026882",
"~+	c #05687F",
"{+	c #046B82",
"]+	c #016880",
"^+	c #036A81",
"/+	c #77ACB9",
"(+	c #7DABB7",
"_+	c #19758A",
":+	c #14758A",
"<+	c #177489",
"[+	c #18768A",
"}+	c #19788D",
"|+	c #19778C",
"1+	c #16768A",
"2+	c #0E718A",
"3+	c #B86123",
"4+	c #B76122",
"5+	c #BC6221",
"6+	c #BA601F",
"7+	c #985E2B",
"8+	c #6C5C3D",
"9+	c #006079",
"0+	c #0E6F86",
"a+	c #62A0B0",
"b+	c #DCEAEC",
"c+	c #8AB2BC",
"d+	c #0B6D83",
"e+	c #0F6F85",
"f+	c #127086",
"g+	c #127389",
"h+	c #117288",
"i+	c #0F7187",
"j+	c #0B7086",
"k+	c #0F6779",
"l+	c #BB6221",
"m+	c #BA6222",
"n+	c #F2F5F5",
"o+	c #5794A3",
"p+	c #00657E",
"q+	c #076C83",
"r+	c #086B82",
"s+	c #0C6C82",
"t+	c #0B6E86",
"u+	c #0B6E85",
"v+	c #0A6E85",
"w+	c #086C83",
"x+	c #066B83",
"y+	c #03677F",
"z+	c #B76123",
"A+	c #B66222",
"B+	c #B46023",
"C+	c #C8DBDF",
"D+	c #6AA1AE",
"E+	c #06677F",
"F+	c #046980",
"G+	c #1E758A",
"H+	c #1A758B",
"I+	c #026981",
"J+	c #00677F",
"K+	c #00667F",
"L+	c #005F79",
"M+	c #146F85",
"N+	c #00627B",
"O+	c #006780",
"P+	c #5395A6",
"Q+	c #5498A8",
"R+	c #2B8195",
"S+	c #227C91",
"T+	c #207A8F",
"U+	c #0A6B82",
"V+	c #01657D",
"W+	c #00657D",
"X+	c #02667F",
"Y+	c #79ADBA",
"Z+	c #A2C4CD",
"`+	c #77AAB7",
" @	c #3F899B",
".@	c #0E6D84",
"+@	c #01677F",
"@@	c #02677E",
"#@	c #04677F",
"$@	c #2E8093",
"%@	c #277B90",
"&@	c #0B6A81",
"*@	c #02667E",
"=@	c #02667D",
"-@	c #016279",
"                                                                ",
"                                                                ",
"                                                                ",
"                                                                ",
"        . + @ # $ % & * = -                                     ",
"      ; > , ' ) ! ~ { ] ^ / ( _ : < [                           ",
"      } | 1 1 2 3 4 5 6 1 1 1 7 7 7 8 9 0                       ",
"      a b c d + e f g h i j k l m n 7 7 o p q                   ",
"      r s t u v w x y z A B C D E F G H 7 7 I J                 ",
"      e t K L M N O P Q 7 R S T U V W X G Y 7 Z `               ",
"       ...+.@.#.M N $.%.7 7 1 &.*.7 =.-.;.>.,.'.7 ).!.          ",
"      ~.{.].^.@.#.M /.N (._.7 7 7 7 7 7 :.&.<.[.}.|.1.2.        ",
"      3.4.{.5.^.@.6.  7.8.9.0.a.7 7 7 1 7 7 1 2 1 b.7 c.d.      ",
"      e.f.g.{.].+.h.i.j.k.    l.m.0.n.o.p.1 7 7 1 7 q.r.s.      ",
"      t.u.v.4.{.w.t x.      y.z.    A.B.C.D.m E.7 7 7 7 F.G.    ",
"      H.I.u.f.J.K.L.+.].M.      N.O.P.      Q.R.S.T.U.7 V.W.    ",
"      X.Y.Z.`. +.+++@+#+$+{.%+&+    *+=+-+;+      >+,+'+)+!+    ",
"      ~+{+]+^+/+(+_+:+<+[+}+}+|+1+2+    =+3+4+5+6+7+8+          ",
"      9+0+a+b+c+d+Z.e+    f+g+g+h+i+j+k+  l+m+                  ",
"      7 7 n+o+p+q+r+        s+t+u+v+w+x+y+    z+A+B+            ",
"      C+D+E+p+y+                F+G+H+I+J+K+L+                  ",
"      M+N+O+                      N+P+Q+R+S+T+U+V+              ",
"      W+I+X+                        W+Y+Z+`+ @.@+@              ",
"      @@]+                            #@$@%@&@                  ",
"      *@+@                                                      ",
"      =@                                                        ",
"      -@                                                        ",
"                                                                ",
"                                                                ",
"                                                                ",
"                                                                ",
"                                                                "};
