/* XPM */
static char * komodo16_edit_xpm[] = {
"16 16 134 2",
"  	c None",
". 	c #FFFFFF",
"+ 	c #FEFEFE",
"@ 	c #78AEB9",
"# 	c #5299A8",
"$ 	c #6DA9B5",
"% 	c #86B7C1",
"& 	c #A4C9D0",
"* 	c #C5DCE1",
"= 	c #E5EFF1",
"- 	c #B8D4DA",
"; 	c #9EC6CF",
"> 	c #9DC6CE",
", 	c #93C0C9",
"' 	c #7FB4BF",
") 	c #6AA8B4",
"! 	c #5A9EAC",
"~ 	c #5B9EAC",
"{ 	c #7EB3BD",
"] 	c #C7DEE2",
"^ 	c #F5F9FA",
"/ 	c #D3E5E9",
"( 	c #9BC4CD",
"_ 	c #63A3B0",
": 	c #67A5B2",
"< 	c #BAD6DB",
"[ 	c #97BFC8",
"} 	c #A4C8D0",
"| 	c #C6DCE0",
"1 	c #E2ECEE",
"2 	c #FAFBFB",
"3 	c #CEE2E6",
"4 	c #7CB2BD",
"5 	c #74ADB8",
"6 	c #D2E3E7",
"7 	c #BED7DD",
"8 	c #94C0C8",
"9 	c #83B6C0",
"0 	c #3F8E9E",
"a 	c #338899",
"b 	c #5199A7",
"c 	c #80B3BE",
"d 	c #BFD8DD",
"e 	c #CCE0E4",
"f 	c #92BDC6",
"g 	c #FFFFFE",
"h 	c #83B4BE",
"i 	c #18798D",
"j 	c #217F92",
"k 	c #197A8D",
"l 	c #288294",
"m 	c #5A9EAB",
"n 	c #D0E2E5",
"o 	c #FFFDFD",
"p 	c #FFFEFD",
"q 	c #FEFCFB",
"r 	c #FCFBFA",
"s 	c #F8F8F8",
"t 	c #FCFBFB",
"u 	c #DEE9EB",
"v 	c #6AA7B3",
"w 	c #60A2AF",
"x 	c #8DBBC4",
"y 	c #9FC5CD",
"z 	c #428F9F",
"A 	c #76AEB9",
"B 	c #D9E6E9",
"C 	c #FDFBFA",
"D 	c #CEDEE1",
"E 	c #FFFCFB",
"F 	c #F6F6F7",
"G 	c #FBF9F9",
"H 	c #FFFBFB",
"I 	c #FDFAFA",
"J 	c #FFFDFC",
"K 	c #FEFBFA",
"L 	c #E7EEEF",
"M 	c #95BFC8",
"N 	c #62A1AE",
"O 	c #87B6C0",
"P 	c #D5E2E5",
"Q 	c #5F9FAC",
"R 	c #B8D2D8",
"S 	c #FBF9F8",
"T 	c #F6F6F6",
"U 	c #F5F5F5",
"V 	c #F9F8F7",
"W 	c #C3D8DD",
"X 	c #ADCBD1",
"Y 	c #5399A8",
"Z 	c #16778C",
"` 	c #7CB0BB",
" .	c #DAE5E7",
"..	c #FEF9F8",
"+.	c #FFFAF9",
"@.	c #F9F7F6",
"#.	c #F4F4F4",
"$.	c #FBF8F8",
"%.	c #FBF8F7",
"&.	c #A1C3CB",
"*.	c #7AADB9",
"=.	c #5C9DAB",
"-.	c #7CAFBA",
";.	c #ABC9D0",
">.	c #D5E1E4",
",.	c #F2F2F2",
"'.	c #FFF9F8",
").	c #FDF9F8",
"!.	c #F6F5F5",
"~.	c #F3F3F3",
"{.	c #98BFC7",
"].	c #62A0AE",
"^.	c #5D9DAB",
"/.	c #66A2AF",
"(.	c #72A9B5",
"_.	c #76ABB7",
":.	c #71A8B4",
"<.	c #80B1BB",
"[.	c #ADCAD1",
"}.	c #E0E7E9",
"|.	c #F6F4F4",
"1.	c #F7F5F5",
"2.	c #F1F1F1",
"3.	c #E3E4E5",
"4.	c #CFDDE1",
"5.	c #97BEC6",
"6.	c #5598A7",
"7.	c #76AAB6",
"8.	c #94BBC3",
"9.	c #A3C3CA",
"0.	c #81B1BB",
"a.	c #64A0AD",
"b.	c #91B9C2",
"c.	c #CED8DB",
"                                ",
"    . . . . . . . + + + + +     ",
"  @ # $ % & * = + . . . . . +   ",
"  - ; > , ' ) ! ~ { ] . . . +   ",
"  . . . . . . ^ / ( _ : < . .   ",
"  [ % } | 1 2 . . . . 3 4 5 6   ",
"  7 8 9 0 a b c d 2 . . . e f   ",
"  g . . h i j k l m n . o p q   ",
"  r s t u v w x 6 y z A B g C   ",
"  D E F G H I J K J L M N O P   ",
"  Q R p S T T U U U V E T W X   ",
"  Y Z `  ...+.@.U #.#.#.U $.%.  ",
"  &.*.N =.-.;.>.,.'.).!.~.~.,.  ",
"  {.].^./.(._.(.:.<.[.}.|.1.2.  ",
"    3.4.5.=.6.7.8.9.0.a.b.c.    ",
"                                "};
