/* XPM */
static char * komodo_edit_48x48_xpm[] = {
"48 48 284 2",
"  	c None",
". 	c #FFFFFF",
"+ 	c #EFEFEF",
"@ 	c #BBBBBB",
"# 	c #B0B0B0",
"$ 	c #A0A0A0",
"% 	c #939393",
"& 	c #737373",
"* 	c #505050",
"= 	c #3F3F3F",
"- 	c #303030",
"; 	c #2F2F2F",
"> 	c #373737",
", 	c #3C3C3C",
"' 	c #4C4C4C",
") 	c #585858",
"! 	c #686868",
"~ 	c #7D7D7D",
"{ 	c #989898",
"] 	c #AFAFAF",
"^ 	c #D3D3D3",
"/ 	c #F8F8F8",
"( 	c #7B7B7B",
"_ 	c #696969",
": 	c #646464",
"< 	c #282828",
"[ 	c #000000",
"} 	c #020202",
"| 	c #151515",
"1 	c #252525",
"2 	c #2D2D2D",
"3 	c #313131",
"4 	c #383838",
"5 	c #343434",
"6 	c #2E2E2E",
"7 	c #232323",
"8 	c #1D1D1D",
"9 	c #1C1C1C",
"0 	c #181818",
"a 	c #262626",
"b 	c #333333",
"c 	c #515151",
"d 	c #747474",
"e 	c #AAAAAA",
"f 	c #E5E5E5",
"g 	c #A4A4A4",
"h 	c #6E6E6E",
"i 	c #191919",
"j 	c #111111",
"k 	c #575757",
"l 	c #9E9E9E",
"m 	c #CCCCCC",
"n 	c #EEEEEE",
"o 	c #FCFCFC",
"p 	c #D0D0D0",
"q 	c #7F7F7F",
"r 	c #565656",
"s 	c #292929",
"t 	c #222222",
"u 	c #2C2C2C",
"v 	c #A6A6A6",
"w 	c #ECECEC",
"x 	c #626262",
"y 	c #676767",
"z 	c #171717",
"A 	c #F7F7F7",
"B 	c #FEFEFE",
"C 	c #E0E0E0",
"D 	c #C4C4C4",
"E 	c #B3B3B3",
"F 	c #A9A9A9",
"G 	c #BCBCBC",
"H 	c #E3E3E3",
"I 	c #E9E9E9",
"J 	c #C8C8C8",
"K 	c #909090",
"L 	c #414141",
"M 	c #7C7C7C",
"N 	c #EAEAEA",
"O 	c #8B8B8B",
"P 	c #868686",
"Q 	c #DEDEDE",
"R 	c #B1B1B1",
"S 	c #818181",
"T 	c #4E4E4E",
"U 	c #030303",
"V 	c #CDCDCD",
"W 	c #6C6C6C",
"X 	c #090909",
"Y 	c #060606",
"Z 	c #898989",
"` 	c #F3F3F3",
" .	c #F2F2F2",
"..	c #3B3B3B",
"+.	c #797979",
"@.	c #474747",
"#.	c #0F0F0F",
"$.	c #070707",
"%.	c #3D3D3D",
"&.	c #616161",
"*.	c #363636",
"=.	c #606060",
"-.	c #2A2A2A",
";.	c #2D2A28",
">.	c #726D6B",
",.	c #D5D5D4",
"'.	c #E2E2E2",
").	c #1A1A1A",
"!.	c #E4E4E4",
"~.	c #959595",
"{.	c #535353",
"].	c #404040",
"^.	c #050505",
"/.	c #545454",
"(.	c #878787",
"_.	c #A8A8A8",
":.	c #C7C7C7",
"<.	c #D7D7D7",
"[.	c #CACACA",
"}.	c #F4F4F4",
"|.	c #E6E6E6",
"1.	c #A3A1A0",
"2.	c #545456",
"3.	c #3A3F44",
"4.	c #54504F",
"5.	c #827C7A",
"6.	c #EBE5E2",
"7.	c #D8D8D8",
"8.	c #424242",
"9.	c #636363",
"0.	c #B2B2B2",
"a.	c #7A7A7A",
"b.	c #D6CFCD",
"c.	c #507892",
"d.	c #BEE8FF",
"e.	c #D4E3EC",
"f.	c #657783",
"g.	c #505155",
"h.	c #AEA19C",
"i.	c #F1F1F1",
"j.	c #D6D6D6",
"k.	c #9C9C9C",
"l.	c #C6BDBA",
"m.	c #0A3C64",
"n.	c #2F93BE",
"o.	c #7CDAF1",
"p.	c #8AE6FF",
"q.	c #49A1C2",
"r.	c #0E4762",
"s.	c #5F6366",
"t.	c #E4DFDC",
"u.	c #D5D5D5",
"v.	c #1B1B1B",
"w.	c #D2D2D2",
"x.	c #202020",
"y.	c #464646",
"z.	c #F5F2EF",
"A.	c #878991",
"B.	c #3C6A85",
"C.	c #4090AD",
"D.	c #469CB8",
"E.	c #4FA3BF",
"F.	c #599EBD",
"G.	c #556068",
"H.	c #645D59",
"I.	c #B7B7B7",
"J.	c #C5C5C5",
"K.	c #C9C9C9",
"L.	c #FBFBFB",
"M.	c #444444",
"N.	c #3A3A3A",
"O.	c #FDFDFD",
"P.	c #F3E7E2",
"Q.	c #CFC9CF",
"R.	c #C8CAD3",
"S.	c #D8D6DA",
"T.	c #ECE1DF",
"U.	c #FDFAF8",
"V.	c #E1E3E3",
"W.	c #ABABAB",
"X.	c #C6C6C6",
"Y.	c #F6F6F6",
"Z.	c #323232",
"`.	c #DDDDDD",
" +	c #D9D9D9",
".+	c #FAFAFA",
"++	c #121212",
"@+	c #2B2B2B",
"#+	c #9A9A9A",
"$+	c #F9F9F9",
"%+	c #6A6A6A",
"&+	c #0B0B0B",
"*+	c #010101",
"=+	c #979797",
"-+	c #717171",
";+	c #EBEBEB",
">+	c #CFCFCF",
",+	c #4D4D4D",
"'+	c #131313",
")+	c #C1C1C1",
"!+	c #C2C2C2",
"~+	c #8C8C8C",
"{+	c #101010",
"]+	c #1E1E1E",
"^+	c #040404",
"/+	c #A1A1A1",
"(+	c #6B6B6B",
"_+	c #4A4A4A",
":+	c #1F1F1F",
"<+	c #A3A3A3",
"[+	c #F5F5F5",
"}+	c #DCDCDC",
"|+	c #555555",
"1+	c #9F9F9F",
"2+	c #242424",
"3+	c #727272",
"4+	c #484848",
"5+	c #353535",
"6+	c #787878",
"7+	c #141414",
"8+	c #8F8F8F",
"9+	c #4F4F4F",
"0+	c #393939",
"a+	c #161616",
"b+	c #595959",
"c+	c #838383",
"d+	c #080808",
"e+	c #B4B4B4",
"f+	c #5D5D5D",
"g+	c #7E7E7E",
"h+	c #E7E7E7",
"i+	c #E1E1E1",
"j+	c #BEBEBE",
"k+	c #5F5F5F",
"l+	c #777777",
"m+	c #888888",
"n+	c #6D6D6D",
"o+	c #434343",
"p+	c #0E0E0E",
"q+	c #272727",
"r+	c #929292",
"s+	c #B9B9B9",
"t+	c #CECECE",
"u+	c #757575",
"v+	c #5E5E5E",
"w+	c #212121",
"x+	c #0A0A0A",
"y+	c #B6B6B6",
"z+	c #A2A2A2",
"A+	c #C3C3C3",
"B+	c #BFBFBF",
"C+	c #B8B8B8",
"D+	c #E8E8E8",
"E+	c #B5B5B5",
"F+	c #6F6F6F",
"G+	c #8D8D8D",
"H+	c #5C5C5C",
"I+	c #5B5B5B",
"J+	c #858585",
"K+	c #ADADAD",
"L+	c #848484",
"M+	c #BDBDBD",
"N+	c #525252",
"O+	c #F0F0F0",
"P+	c #BABABA",
"Q+	c #A7A7A7",
"R+	c #656565",
"S+	c #DADADA",
"T+	c #949494",
"U+	c #8A8A8A",
"V+	c #A5A5A5",
"W+	c #C0C0C0",
"X+	c #AEAEAE",
"Y+	c #D1D1D1",
"Z+	c #8E8E8E",
"`+	c #EDEDED",
" @	c #DBDBDB",
".@	c #9B9B9B",
"+@	c #494949",
"@@	c #999999",
"#@	c #969696",
"$@	c #767676",
"%@	c #707070",
"&@	c #3E3E3E",
"                                                                                                ",
"                                                                                                ",
"                                                                                                ",
"                                                                                                ",
"                                                                                                ",
"                                                                                                ",
"                                                                                                ",
"                  . . . . . . . . . . . .                                                       ",
"              + @ # $ % & * = - ; > , ' ) ! ~ { ] ^ / .                                         ",
"            . ( _ : < [ [ } | 1 2 3 4 5 6 7 8 9 0 a b c d e f .                                 ",
"          . g h h i j k l m n . . . . . . . . o p e q r s t u k v .                             ",
"        + w x y z ! A . . . . B C ^ D E F G p H . . . . I J K L j 1 M N                         ",
"        . O * z P . Q R S T < U [ [ [ [ [ [ [ [ z r ] . . . . A V W X Y Z `                     ",
"       .` T ..2 +.@.#.[ [ [ [ $.a %.' _ &.[ *.=.-.U [ ;.>.,.. . . . '.& [ ).G !.                ",
"      . ~.4 {.].^.[ [ < /.(._.:.<.C I  .-.0 [.}.|.p 1.2.3.4.5.6.. . . . 7.8.[ y B               ",
"      . T 6 U [ 9 9.0.H . . . . . . . a.[ : . . . . b.c.d.e.f.g.h.. . . . . { [ | n             ",
"    i.j.[ [ > k.+ . . . . . . . . . p [ [ ( . . . . l.m.n.o.p.q.r.s.t.. . . . u.v.[ w.          ",
"    . c x.E . . . . . . . . . . . . _ [ [ y.. . . . z.A.B.C.D.E.F.G.H.I.. . . .  .%.[ J.        ",
"    . K.. . . . B B B B B B B B . L.M.N.| [ J . . O.. . P.Q.R.S.T.U.V.W.X.Y.. . . o Z.[ Y.      ",
"    . . `. +. . . .+L.L.L.L.L.L.. L.u %.' [ ++m . . .+. . . . . . . . . I i.O.L.O.. Q [ 7 .     ",
"  <.w @+9 )., #+. . .+$+.+.+.+.+B . %+[ v.&+[ *+=+. . B / $+.+.+.+.+.+.+. o $+.+$+. . -+[ ;+    ",
"  '.>+*+6 0 [ [ %.^ . o Y.A A A / . `.,+'+$.[ [ [ *.)+. . . A A A A A A A A A A A $+. !+[ ~+$+  ",
"  i.@ {+> 1 ]+++[ ^+/+. .  .}.}.}.A . Q #+& (+_+:+[ [ ].<+[+. . . A }.}.}.}.}.}.}.}.. }+$.|+.   ",
"  . 1+i L 6 2+8 z [ [ 3+. .  . .`  .}.. . + 4+5+~.6+@.7+*+1 9.] + . . . . . .+Y.[+}.. Q 9 8.o   ",
"  . 8+7 9+0+2 2+9 a+Y [ ].7.. . / Y.. . i.b+[ , L.I >+# c+= d+[ #.L ~ e+^ f A . . . . I ]+8.}.  ",
"  . c+u f+M.4 2 7 v.| &+[ d+g+<.o . h+=+++[ i K.. H i++ I }+j+S 4 [ [ [ ^+b T k+(+l+m+M a+: A   ",
"  . ( > n+c o+> u 7 i 7+p+[ [ ^+5 > $.[ [ q+g . }+r+/+s+t+h+Y.}.!.G a.> } [ [ p+2+s 1 > Y K /   ",
"  . u+L ~ v+9+8.*.u w+i 7+#.x+[ [ [ [ i /.y+. }+8+z+A+t+B+0.C+V D+L.L.f e+3+5 {+{+7 5+:+X !.E+  ",
"  . F+4+G+(+H+9+M...Z.1 #.[ [ [ j 6 I+k.Q . K.J+l /.9+m+y+j.^ @ # @ ^ n . . D+e+( ,+@+-.K+. 9.  ",
"  . n+T F m+g+_ _+-.'+$.#.8 > =.~+y+`.O.+ e S v %+        4+L+M+j.J.] 0.A+7.i.. . [+h+ .. <.    ",
"  . %+c K+=...w+++]+3 N+g+g !+ +O+$+f P+8+G+Q+R+              9 k+/+V m E K+P+[.<.'.f Q S+8+    ",
"  . q ^.b s = =.O R m S+h+}.Y.f [.K+T+U+V+1+o+                      8.Z W+>+s+e X+e+0.R Y+      ",
"  N V Z+e Y+i+N n O++ |.u.J.e+/+% =+e _.l+]+                            < W F K.:.@ W+ +(       ",
"  J ;+/ `+|.'. @Y+J G ] <+.@l K+e+l -+b                                       +@a.@@#@H+        ",
"  E G J X.j+I.# F <+z+W.I.P+g M T                                                               ",
"  W.K+$ z+/+V+K+G j+e+@@u+@.                                                                    ",
"  f+>+G G P+W.@@$@k u                                                                           ",
"    4+%@k &@x.                                                                                  ",
"                                                                                                ",
"                                                                                                ",
"                                                                                                ",
"                                                                                                ",
"                                                                                                ",
"                                                                                                ",
"                                                                                                ",
"                                                                                                ",
"                                                                                                ",
"                                                                                                "};
