/* XPM */
static char * komodo_edit_16x16_xpm[] = {
"16 16 117 2",
"  	c None",
". 	c #AEAEAE",
"+ 	c #BFBFBF",
"@ 	c #B5B5B5",
"# 	c #A4A4A4",
"$ 	c #868686",
"% 	c #676767",
"& 	c #494949",
"* 	c #282828",
"= 	c #070707",
"- 	c #181818",
"; 	c #414141",
"> 	c #9C9C9C",
", 	c #EFEFEF",
"' 	c #FFFFFF",
") 	c #4C4C4C",
"! 	c #EEEEEE",
"~ 	c #E1E1E1",
"{ 	c #D0D0D0",
"] 	c #ADADAD",
"^ 	c #919191",
"/ 	c #5C5C5C",
"( 	c #242424",
"_ 	c #000000",
": 	c #121212",
"< 	c #666666",
"[ 	c #D8D8D8",
"} 	c #D3D3D3",
"| 	c #F8F8F8",
"1 	c #E3E3E3",
"2 	c #D1D1D1",
"3 	c #B8B8B8",
"4 	c #898989",
"5 	c #3E3E3E",
"6 	c #2B2B2B",
"7 	c #767676",
"8 	c #D9D9D9",
"9 	c #EAEAEA",
"0 	c #CFCFCF",
"a 	c #9D9D9D",
"b 	c #2F2F2F",
"c 	c #444443",
"d 	c #B2B0AF",
"e 	c #F9F9F9",
"f 	c #DCDCDC",
"g 	c #A8A8A8",
"h 	c #959595",
"i 	c #737474",
"j 	c #565655",
"k 	c #1D1714",
"l 	c #29292A",
"m 	c #979593",
"n 	c #FEFEFE",
"o 	c #ECECEC",
"p 	c #D0CFCE",
"q 	c #A6A2A0",
"r 	c #8093A3",
"s 	c #ACBDC8",
"t 	c #909090",
"u 	c #434547",
"v 	c #4D4846",
"w 	c #AEA9A6",
"x 	c #F2ECE8",
"y 	c #5D6D7B",
"z 	c #4483AA",
"A 	c #CDEAF8",
"B 	c #E4FBFF",
"C 	c #CEE8F7",
"D 	c #7E929E",
"E 	c #32373C",
"F 	c #6C615D",
"G 	c #EAE4E1",
"H 	c #DDD4CD",
"I 	c #374F68",
"J 	c #0E669B",
"K 	c #63B5D1",
"L 	c #78C3D9",
"M 	c #77C2DA",
"N 	c #7DC8E5",
"O 	c #6AAFCF",
"P 	c #1D4A63",
"Q 	c #31383E",
"R 	c #A49F9D",
"S 	c #F1EDEB",
"T 	c #76777D",
"U 	c #154267",
"V 	c #207BA3",
"W 	c #4EBAD7",
"X 	c #5BC7E0",
"Y 	c #58C0DC",
"Z 	c #4DB6D5",
"` 	c #3DACD8",
" .	c #34799A",
"..	c #2C2A2A",
"+.	c #625F5D",
"@.	c #E3E1DE",
"#.	c #A69F9E",
"$.	c #6F7B8B",
"%.	c #517A94",
"&.	c #5286A0",
"*.	c #5B94AC",
"=.	c #6B9BAF",
"-.	c #789BA9",
";.	c #94A7B2",
">.	c #ABACAD",
",.	c #72706F",
"'.	c #FFFFFA",
").	c #F8EEEB",
"!.	c #E5DEE0",
"~.	c #E2DDE0",
"{.	c #EBE4E4",
"].	c #F4EBE8",
"^.	c #FAF2EF",
"/.	c #FCFCFB",
"(.	c #FCFCFC",
"_.	c #CCCCCC",
":.	c #FAFAFA",
"  . . . . . . . . . . . . . .   ",
". + @ # $ % & * = - ; > , ' ' ) ",
". ' ' ! ~ { + ] ^ / ( _ : < [ ) ",
". } ' ' ' ' ' | 1 2 3 4 5 _ _ ) ",
". _ 6 7 8 ' ' ' ' ' ' 9 0 a & ) ",
". b _ _ _ c d ' ' ' ' ' ' e f ) ",
". g h i j k _ l m ' ' ' ' ' ' ) ",
". n o p q r s t u v w ' ' ' ' ) ",
". ' ' x y z A B C D E F G ' ' ) ",
". ' ' H I J K L M N O P Q R ' ) ",
". ' ' S T U V W X Y Z `  ...+.) ",
". ' ' ' @.#.$.%.&.*.=.-.;.>.,.) ",
". n n ' ' ' '.).!.~.{.].^./.' ) ",
". (.(.(.(.' ' ' ' ' ' ' ' ' ' ) ",
". _.' :.:.:.:.:.:.:.:.:.:.:.. ) ",
"  ) ) ) ) ) ) ) ) ) ) ) ) ) )   "};
