/* XPM */
static char *komodo24_edit[] = {
/* columns rows colors chars-per-pixel */
"24 24 147 2 ",
"   c #818284",
".  c #888A8C",
"X  c #8A8C8D",
"o  c #8D8F92",
"O  c #8F9092",
"+  c #909293",
"@  c #929395",
"#  c #929495",
"$  c #929497",
"%  c #939597",
"&  c #949697",
"*  c #939598",
"=  c #959799",
"-  c #95979A",
";  c #96989A",
":  c #96989B",
">  c #97999B",
",  c #989A9C",
"<  c #989A9D",
"1  c #9A9B9D",
"2  c #999B9E",
"3  c #9A9C9E",
"4  c #9B9D9F",
"5  c #9B9DA0",
"6  c #9C9EA0",
"7  c #9D9FA0",
"8  c #9C9EA1",
"9  c #9D9FA2",
"0  c #9EA0A2",
"q  c #9FA1A3",
"w  c #A0A2A4",
"e  c #A2A4A6",
"r  c #A3A5A7",
"t  c #A4A6A8",
"y  c #A6A7AA",
"u  c #A6A8AA",
"i  c #A8AAAC",
"p  c #A9AAAC",
"a  c #A9ABAD",
"s  c #ACADB0",
"d  c #ACAEB0",
"f  c #ADAEB1",
"g  c #ADAFB1",
"h  c #AFB0B2",
"j  c #AFB1B2",
"k  c #AEB0B3",
"l  c #AFB1B3",
"z  c #B0B1B4",
"x  c #B0B2B4",
"c  c #B1B3B5",
"v  c #B2B3B5",
"b  c #B5B7B7",
"n  c #B4B6B8",
"m  c #B5B7B8",
"M  c #B6B7B8",
"N  c #B5B7BA",
"B  c #B6B8BA",
"V  c #B7B9BA",
"C  c #B9BABB",
"Z  c #B8BABC",
"A  c #B9BBBC",
"S  c #BABBBD",
"D  c #BABCBE",
"F  c #BBBDBE",
"G  c #BBBDBF",
"H  c #BCBEBF",
"J  c #BCBDC0",
"K  c #BCBEC0",
"L  c #BDBEC0",
"P  c #BDBFC1",
"I  c #BEBFC0",
"U  c #BEC0C1",
"Y  c #BEC0C2",
"T  c #BFC0C2",
"R  c #C0C2C3",
"E  c #C1C2C4",
"W  c #C1C3C4",
"Q  c #C1C3C5",
"!  c #C2C3C4",
"~  c #C2C2C5",
"^  c #C6C7C8",
"/  c #C7C9CA",
"(  c #C9CACB",
")  c #CACBCC",
"_  c #CDCDCE",
"`  c #CDCED0",
"'  c #CECFD0",
"]  c #CFD0D2",
"[  c #D0D1D1",
"{  c #D0D1D2",
"}  c #D0D1D3",
"|  c #D0D2D3",
" . c #D1D2D3",
".. c #D2D3D4",
"X. c #D3D3D4",
"o. c #D2D4D5",
"O. c #D3D4D5",
"+. c #D4D5D5",
"@. c #D4D5D6",
"#. c #D5D5D6",
"$. c #D5D6D6",
"%. c #D6D7D8",
"&. c #D7D7D9",
"*. c #DADADB",
"=. c #DBDBDC",
"-. c #DBDCDD",
";. c #DCDDDE",
":. c #DDDDDE",
">. c #DDDEDF",
",. c #DEDEDF",
"<. c #DEDFE0",
"1. c #DFE0E1",
"2. c #E0E1E1",
"3. c #E0E1E2",
"4. c #E2E3E3",
"5. c #E3E3E4",
"6. c #E4E5E5",
"7. c #E5E6E7",
"8. c #E6E7E8",
"9. c #E7E7E8",
"0. c #E8E8E9",
"q. c #E8E9EA",
"w. c #EAEAEB",
"e. c #EBECEC",
"r. c #ECECED",
"t. c gray93",
"y. c #EDEEEE",
"u. c #EEEEEF",
"i. c #EFEFF0",
"p. c #EFF0F0",
"a. c #F2F2F3",
"s. c #F3F3F3",
"d. c #F3F3F4",
"f. c #F4F4F4",
"g. c #F4F4F5",
"h. c #F5F6F6",
"j. c #F6F6F6",
"k. c gray97",
"l. c #F8F8F8",
"z. c #F9F9F9",
"x. c gray98",
"c. c gray99",
"v. c #FCFCFD",
"b. c #FDFDFD",
"n. c #FEFEFE",
"m. c white",
"M. c None",
/* pixels */
"M.M.M.M.M.M.M.M.M.M.M.M.M.M.M.M.M.M.M.M.M.M.M.M.",
"M.M.M.M.M.M.M.M.M.M.M.D M.M.M.M.M.M.M.M.M.M.M.M.",
"M.M.M.M.M.M.M.M.M.D J U U D M.M.M.M.M.M.M.M.M.M.",
"M.M.M.M.M.M.M.A J U U D J J D D M.M.M.M.M.M.M.M.",
"M.M.M.M.M.M.D J U J J J U J U D J M.M.M.M.M.M.M.",
"M.M.M.M.D J U J ] 8.e.8.8.8.` U U J D M.M.M.M.M.",
"M.M.D J U J U 1.1.J _ ;.1.;.e.4.U J J J J M.M.M.",
"M.M.J J D J &.;.U n.n.n.s.] s.;.&.! J J J M.M.M.",
"M.M.D D J J s.b l.n.n.n.s.[ 4.%.&.] A J D M.M.M.",
"M.M.A A D [ 0.D n.n.n.n.&.w U [ U J / A A M.M.M.",
"M.M.n A n <.e.D n.n.n.! k.J D D [ A <.d n M.M.M.",
"M.M.n n n <.n.d n.n.n.0 / ;.k b J i.~ r n M.M.M.",
"M.M.b k b [ n.[ 0.n.n.4.;.p w b n d 5 d b M.M.M.",
"M.M.k d k n n.n.[ n.n.n.n.p d d d d ! d d M.M.M.",
"M.M.d d d d [ n.l.s.n.i.i.` d d d b e.r d M.M.M.",
"M.M.p d p s.n.n.s.n.n.n.[ n 5 i d 8.[ < p M.M.M.",
"M.M.i r i ;.n.s.s._ n.n.n.1.^ [ s.e.> < i M.M.M.",
"M.M.r r r r - _ s.& J n.n.n.n.n.&.& & w w M.M.M.",
"M.M.- w w w r b n X 0 0 b D g & X & 0 w - M.M.M.",
"M.M.M.M.< 5 5 5 < > 0 5 < > & - < 0 < M.M.M.M.M.",
"M.M.M.M.M.M.5 5 5 5 5 5 < 5 5 < < M.M.M.M.M.M.M.",
"M.M.M.M.M.M.M.o > > < < < < < o M.M.M.M.M.M.M.M.",
"M.M.M.M.M.M.M.M.M.& > > < & M.M.M.M.M.M.M.M.M.M.",
"M.M.M.M.M.M.M.M.M.M.  &   M.M.M.M.M.M.M.M.M.M.M."
};
