/* XPM */
static char * komodo32_edit_xpm[] = {
"32 32 404 2",
"  	c None",
". 	c #013F51",
"+ 	c #024757",
"@ 	c #074C5D",
"# 	c #0E5161",
"$ 	c #155666",
"% 	c #125363",
"& 	c #105160",
"* 	c #0B4B5B",
"= 	c #054353",
"- 	c #276F80",
"; 	c #82A8B1",
"> 	c #9FB6BC",
", 	c #AABDC2",
"' 	c #C0CED1",
") 	c #D4DADC",
"! 	c #D7DBDC",
"~ 	c #D4D8D9",
"{ 	c #CFD4D6",
"] 	c #C7CFD1",
"^ 	c #BFCACD",
"/ 	c #B7C6CA",
"( 	c #ACBFC4",
"_ 	c #9BB5BB",
": 	c #81A3AC",
"< 	c #5E8994",
"[ 	c #326774",
"} 	c #00242F",
"| 	c #73ADBA",
"1 	c #FFF3EF",
"2 	c #FFF7F3",
"3 	c #FFFEF9",
"4 	c #ECE0DD",
"5 	c #BFC3C5",
"6 	c #A4B3B7",
"7 	c #94AAAF",
"8 	c #8AA5AB",
"9 	c #85A2A9",
"0 	c #86A4AA",
"a 	c #8DA8AF",
"b 	c #98AFB5",
"c 	c #A7BABE",
"d 	c #B7C5C8",
"e 	c #C6CED0",
"f 	c #CCD3D5",
"g 	c #C3CED0",
"h 	c #A5BBC1",
"i 	c #5C8892",
"j 	c #0F4B5A",
"k 	c #0B5263",
"l 	c #BDD0D5",
"m 	c #FFF9F6",
"n 	c #E4DEDD",
"o 	c #6F8D95",
"p 	c #226271",
"q 	c #095668",
"r 	c #09586C",
"s 	c #166275",
"t 	c #266D7E",
"u 	c #377888",
"v 	c #417F8E",
"w 	c #458190",
"x 	c #427F8E",
"y 	c #3B7B8B",
"z 	c #367787",
"A 	c #47818F",
"B 	c #6B97A2",
"C 	c #8FADB4",
"D 	c #B4C6CA",
"E 	c #D7DCDE",
"F 	c #D9DEE0",
"G 	c #97B5BC",
"H 	c #25606F",
"I 	c #3E8191",
"J 	c #EEEBEB",
"K 	c #E7E2E0",
"L 	c #4A7680",
"M 	c #09576B",
"N 	c #4D8795",
"O 	c #7FA6AF",
"P 	c #A7BFC5",
"Q 	c #C7D2D6",
"R 	c #DADDDE",
"S 	c #E2E1E1",
"T 	c #E8E3E3",
"U 	c #DADEDF",
"V 	c #D9DBDC",
"W 	c #BFCDD0",
"X 	c #9AB9C0",
"Y 	c #689BA7",
"Z 	c #4B8998",
"` 	c #558E9C",
" .	c #6998A3",
"..	c #99B5BC",
"+.	c #DCE0E0",
"@.	c #F4F1F0",
"#.	c #92B5BD",
"$.	c #094858",
"%.	c #010F18",
"&.	c #6AA3B1",
"*.	c #FFF7F4",
"=.	c #CACDCF",
"-.	c #A9BDC2",
";.	c #F3F1F2",
">.	c #FFFDF9",
",.	c #FFF0EC",
"'.	c #E0DAD9",
").	c #BEC4C6",
"!.	c #A1B3B7",
"~.	c #90A9AF",
"{.	c #6B919A",
"].	c #B3C1C5",
"^.	c #D8D7D7",
"/.	c #8BA7AE",
"(.	c #AFC0C4",
"_.	c #C3CDCF",
":.	c #C8D2D4",
"<.	c #A2C1D0",
"[.	c #6AA1B6",
"}.	c #6098A6",
"|.	c #679BA6",
"1.	c #6498A3",
"2.	c #9DB8BE",
"3.	c #FCF4F3",
"4.	c #E6F1F2",
"5.	c #3E7584",
"6.	c #001B26",
"7.	c #8AB9C4",
"8.	c #FFFBF9",
"9.	c #FFFFFE",
"0.	c #FFFAF6",
"a.	c #77969D",
"b.	c #457783",
"c.	c #2A6877",
"d.	c #206474",
"e.	c #226778",
"f.	c #166173",
"g.	c #41808F",
"h.	c #DCDDDE",
"i.	c #6A929C",
"j.	c #327989",
"k.	c #468594",
"l.	c #4D8897",
"m.	c #6B9AA8",
"n.	c #F0DEC0",
"o.	c #FFEECD",
"p.	c #ADC0C4",
"q.	c #71A4B3",
"r.	c #70A2AD",
"s.	c #6A9DAA",
"t.	c #6F9EA9",
"u.	c #D8DEDE",
"v.	c #FFFFFF",
"w.	c #6DA1AD",
"x.	c #002430",
"y.	c #C9E4EA",
"z.	c #9CADB0",
"A.	c #41737E",
"B.	c #0F5567",
"C.	c #0B586C",
"D.	c #216A7B",
"E.	c #317384",
"F.	c #377686",
"G.	c #397786",
"H.	c #296E7E",
"I.	c #C3D1D5",
"J.	c #FFFAF7",
"K.	c #568B98",
"L.	c #538E9C",
"M.	c #6B9FAC",
"N.	c #5C9BB1",
"O.	c #BCB183",
"P.	c #E4BF7D",
"Q.	c #BBC2BE",
"R.	c #B2CBD5",
"S.	c #95B8C1",
"T.	c #80ADB8",
"U.	c #85AFB9",
"V.	c #74A3AE",
"W.	c #CED7D9",
"X.	c #7CB1BD",
"Y.	c #08343E",
"Z.	c #80ABB6",
"`.	c #44717C",
" +	c #004357",
".+	c #0F5F71",
"++	c #2B7180",
"@+	c #2E6F7F",
"#+	c #2F6F7F",
"$+	c #327282",
"%+	c #377585",
"&+	c #2E7080",
"*+	c #588D99",
"=+	c #F3F0EF",
"-+	c #86AAB3",
";+	c #1B6B7D",
">+	c #4E8C9A",
",+	c #4B8A98",
"'+	c #468898",
")+	c #337D94",
"!+	c #287792",
"~+	c #23768B",
"{+	c #428290",
"]+	c #6D99A3",
"^+	c #598F9B",
"/+	c #3E8292",
"(+	c #458694",
"_+	c #2F7687",
":+	c #98B6BD",
"<+	c #4D8491",
"[+	c #09333D",
"}+	c #0B6277",
"|+	c #1A6374",
"1+	c #2F7182",
"2+	c #045164",
"3+	c #075467",
"4+	c #296D7C",
"5+	c #2D6F7F",
"6+	c #2D6E7E",
"7+	c #2D6F7E",
"8+	c #1B6476",
"9+	c #3B7A89",
"0+	c #FEF8F6",
"a+	c #ECEDED",
"b+	c #4D8997",
"c+	c #005067",
"d+	c #0D6478",
"e+	c #1F7082",
"f+	c #1C6F83",
"g+	c #1B6F83",
"h+	c #1D6F82",
"i+	c #146A7F",
"j+	c #12687C",
"k+	c #287080",
"l+	c #146679",
"m+	c #0A6074",
"n+	c #045A6E",
"o+	c #004057",
"p+	c #C2CED1",
"q+	c #A6CED8",
"r+	c #010B15",
"s+	c #001722",
"t+	c #95C3CE",
"u+	c #EBEDED",
"v+	c #ABC3C8",
"w+	c #3C7685",
"x+	c #003F54",
"y+	c #055265",
"z+	c #196273",
"A+	c #165F71",
"B+	c #1B6475",
"C+	c #0C5C70",
"D+	c #729BA6",
"E+	c #F1EDEC",
"F+	c #A7C5CD",
"G+	c #327E90",
"H+	c #046178",
"I+	c #126A7E",
"J+	c #277789",
"K+	c #2B7A8C",
"L+	c #2B798B",
"M+	c #29788A",
"N+	c #237487",
"O+	c #247386",
"P+	c #227183",
"Q+	c #206E80",
"R+	c #004E64",
"S+	c #6E9DA9",
"T+	c #BED8DF",
"U+	c #00212E",
"V+	c #000914",
"W+	c #83B6C2",
"X+	c #FCF7F7",
"Y+	c #90B0B8",
"Z+	c #075063",
"`+	c #176273",
" @	c #1F697A",
".@	c #156375",
"+@	c #005166",
"@@	c #176071",
"#@	c #477E8B",
"$@	c #A2B8BD",
"%@	c #DBE8EA",
"&@	c #CDE2E8",
"*@	c #99BEC6",
"=@	c #68A0AC",
"-@	c #328092",
";@	c #0A677C",
">@	c #086479",
",@	c #156C80",
"'@	c #1E7184",
")@	c #227286",
"!@	c #217184",
"~@	c #206F81",
"{@	c #00546A",
"]@	c #6C9EAA",
"^@	c #B8D4DB",
"/@	c #002330",
"(@	c #010107",
"_@	c #458899",
":@	c #FAF8F8",
"<@	c #F2F2F2",
"[@	c #FDFAFA",
"}@	c #DDE6E9",
"|@	c #508491",
"1@	c #004257",
"2@	c #003A50",
"3@	c #00475C",
"4@	c #00475E",
"5@	c #00556B",
"6@	c #9FC4CC",
"7@	c #A8C5CC",
"8@	c #003E51",
"9@	c #225663",
"0@	c #6D9AA5",
"a@	c #92C0CA",
"b@	c #9ECAD5",
"c@	c #A0C5CD",
"d@	c #8DB7C1",
"e@	c #5E9BAA",
"f@	c #337F91",
"g@	c #12687D",
"h@	c #065F74",
"i@	c #003E57",
"j@	c #A5C1C8",
"k@	c #A9CCD4",
"l@	c #00111D",
"m@	c #0F5F70",
"n@	c #F4F9FA",
"o@	c #F7F7F7",
"p@	c #F6F6F6",
"q@	c #F6F5F5",
"r@	c #B9CBD0",
"s@	c #6A95A0",
"t@	c #5D8E9C",
"u@	c #91B8C1",
"v@	c #F3F3F3",
"w@	c #E4EFF1",
"x@	c #3D8596",
"y@	c #01060B",
"z@	c #000103",
"A@	c #00141C",
"B@	c #1C4A55",
"C@	c #69949E",
"D@	c #AED2DA",
"E@	c #E1F5FA",
"F@	c #FEFFFF",
"G@	c #FBFCFC",
"H@	c #DDEAEC",
"I@	c #C0D6DB",
"J@	c #BAD5DB",
"K@	c #FAF6F5",
"L@	c #377989",
"M@	c #003446",
"N@	c #C5E0E6",
"O@	c #F9F9F9",
"P@	c #F9F9FA",
"Q@	c #FCFCFC",
"R@	c #E8EFF1",
"S@	c #81B3BF",
"T@	c #065568",
"U@	c #000F16",
"V@	c #010101",
"W@	c #000E17",
"X@	c #11444F",
"Y@	c #5D8C97",
"Z@	c #AED0D8",
"`@	c #F2FFFF",
" #	c #7BB2C0",
".#	c #002736",
"+#	c #000D1B",
"@#	c #8CC0CC",
"##	c #FEF8F7",
"$#	c #D2DADD",
"%#	c #9EBBC3",
"&#	c #679BA8",
"*#	c #307383",
"=#	c #004252",
"-#	c #001C29",
";#	c #010102",
">#	c #000910",
",#	c #05313C",
"'#	c #31606A",
")#	c #31707E",
"!#	c #004152",
"~#	c #010106",
"{#	c #4991A3",
"]#	c #DDE9EC",
"^#	c #B2CAD1",
"/#	c #80A9B4",
"(#	c #4E8594",
"_#	c #1E5E6F",
":#	c #003B4C",
"<#	c #002232",
"[#	c #001420",
"}#	c #000B12",
"|#	c #000101",
"1#	c #004556",
"2#	c #004253",
"3#	c #001D2C",
"4#	c #000B19",
"5#	c #000610",
"6#	c #00060B",
"7#	c #010204",
"                                                                ",
"                                                                ",
"                                                                ",
"                                                                ",
"                                                                ",
"                                                                ",
"                                                                ",
"        . + @ # $ $ % & * =                                     ",
"    - ; > , ' ) ! ~ { ] ^ / ( _ : < [                           ",
"  } | 1 2 3 4 5 6 7 8 9 0 a b c d e f g h i j                   ",
"  k l m n o p q r s t u v w x y z A B C D E F G H               ",
"  I J K L M N O P Q R S T ~ U V W X Y Z `  ...+.@.#.$.          ",
"%.&.*.=.-.;.>.,.'.).!.~.{.].^./.(._.:.<.[.}.|.1.2.3.4.5.        ",
"6.7.8.9.0.5 a.b.c.d.e.f.g.h.i.j.k.l.m.n.o.p.q.r.s.t.u.v.w.      ",
"x.y.v.z.A.B.C.D.E.F.G.H.I.J.K.L.Y M.N.O.P.Q.R.S.T.U.V.W.v.X.    ",
"Y.Z.`. +.+++@+#+$+%+&+*+=+9.-+;+>+,+'+)+!+~+{+]+^+/+(+_+:+v.<+  ",
"[+}+|+1+2+3+4+5+6+7+8+9+0+v.a+b+c+d+e+f+g+h+i+j+k+l+m+n+o+p+q+r+",
"s+t+v.u+v+w+x+y+z+A+B+C+D+E+v.v.F+G+H+I+J+K+L+M+N+O+P+Q+R+S+T+U+",
"V+W+v.X+v.v.Y+Z+x+`+ @.@+@@@#@$@%@&@*@=@-@;@>@,@'@)@!@~@{@]@^@/@",
"(@_@v.:@<@[@v.}@|@1@2@3@4@5@6@7@8@9@0@a@b@c@d@e@f@'@g@h@i@j@k@l@",
"  m@n@v.o@p@q@v.v.r@s@t@u@v@w@x@y@  z@A@B@C@D@E@F@G@H@I@J@K@L@  ",
"  M@N@v.O@P@Q@v.v.v.v.v.R@S@T@U@          V@W@X@Y@Z@`@v.v. #.#  ",
"  +#@#v.v.v.v.##$#%#&#*#=#-#;#                  V@>#,#'#)#!#    ",
"  ~#{#]#^#/#(#_#:#<#[#}#                                |#      ",
"    1#2#3#4#5#6#7#                                              ",
"    |#V@                                                        ",
"                                                                ",
"                                                                ",
"                                                                ",
"                                                                ",
"                                                                ",
"                                                                "};
