/* XPM */
static char * komodo_edit_64x64_xpm[] = {
"64 64 319 2",
"  	c None",
". 	c #FFFFFF",
"+ 	c #EDEDED",
"@ 	c #E8E8E8",
"# 	c #DBDBDB",
"$ 	c #C6C6C6",
"% 	c #BEBEBE",
"& 	c #C1C1C1",
"* 	c #AEAEAE",
"= 	c #A0A0A0",
"- 	c #9C9C9C",
"; 	c #969696",
"> 	c #8D8D8D",
", 	c #939393",
"' 	c #989898",
") 	c #A7A7A7",
"! 	c #B2B2B2",
"~ 	c #CCCCCC",
"{ 	c #DDDDDD",
"] 	c #F0F0F0",
"^ 	c #FCFCFC",
"/ 	c #848484",
"( 	c #797979",
"_ 	c #656565",
": 	c #5E5E5E",
"< 	c #4C4C4C",
"[ 	c #2C2C2C",
"} 	c #0E0E0E",
"| 	c #000000",
"1 	c #0C0C0C",
"2 	c #181818",
"3 	c #292929",
"4 	c #3A3A3A",
"5 	c #5A5A5A",
"6 	c #7F7F7F",
"7 	c #A6A6A6",
"8 	c #C7C7C7",
"9 	c #F9F9F9",
"0 	c #ABABAB",
"a 	c #696969",
"b 	c #747474",
"c 	c #6B6B6B",
"d 	c #2F2F2F",
"e 	c #060606",
"f 	c #040404",
"g 	c #101010",
"h 	c #404040",
"i 	c #545454",
"j 	c #666666",
"k 	c #717171",
"l 	c #787878",
"m 	c #828282",
"n 	c #858585",
"o 	c #838383",
"p 	c #575757",
"q 	c #4B4B4B",
"r 	c #232323",
"s 	c #1D1D1D",
"t 	c #171717",
"u 	c #2E2E2E",
"v 	c #444444",
"w 	c #C0C0C0",
"x 	c #7C7C7C",
"y 	c #0A0A0A",
"z 	c #070707",
"A 	c #454545",
"B 	c #7D7D7D",
"C 	c #CBCBCB",
"D 	c #DCDCDC",
"E 	c #EFEFEF",
"F 	c #F5F5F5",
"G 	c #FBFBFB",
"H 	c #F3F3F3",
"I 	c #E6E6E6",
"J 	c #DADADA",
"K 	c #B4B4B4",
"L 	c #A8A8A8",
"M 	c #505050",
"N 	c #343434",
"O 	c #868686",
"P 	c #686868",
"Q 	c #7E7E7E",
"R 	c #474747",
"S 	c #B6B6B6",
"T 	c #EBEBEB",
"U 	c #BABABA",
"V 	c #A2A2A2",
"W 	c #3E3E3E",
"X 	c #111111",
"Y 	c #333333",
"Z 	c #FDFDFD",
"` 	c #585858",
" .	c #7B7B7B",
"..	c #F6F6F6",
"+.	c #DEDEDE",
"@.	c #C8C8C8",
"#.	c #636363",
"$.	c #565656",
"%.	c #494949",
"&.	c #272727",
"*.	c #A1A1A1",
"=.	c #D8D8D8",
"-.	c #F2F2F2",
";.	c #6C6C6C",
">.	c #1B1B1B",
",.	c #898989",
"'.	c #F4F4F4",
").	c #606060",
"!.	c #4A4A4A",
"~.	c #F8F8F8",
"{.	c #D1D1D1",
"].	c #5B5B5B",
"^.	c #363636",
"/.	c #141414",
"(.	c #2D2D2D",
"_.	c #E5E5E5",
":.	c #C3C3C3",
"<.	c #818181",
"[.	c #242424",
"}.	c #161616",
"|.	c #D5D5D5",
"1.	c #323232",
"2.	c #727272",
"3.	c #282828",
"4.	c #1A1A1A",
"5.	c #313131",
"6.	c #424242",
"7.	c #4D4D4D",
"8.	c #5F5F5F",
"9.	c #555555",
"0.	c #646464",
"a.	c #020202",
"b.	c #474746",
"c.	c #B0AFAE",
"d.	c #CECECE",
"e.	c #151515",
"f.	c #2B2B2B",
"g.	c #CDCDCD",
"h.	c #C9C9C9",
"i.	c #888888",
"j.	c #3F3F3F",
"k.	c #4F4F4F",
"l.	c #0D0D0D",
"m.	c #303030",
"n.	c #676767",
"o.	c #878787",
"p.	c #9D9D9D",
"q.	c #B1B1B1",
"r.	c #BDBDBD",
"s.	c #6E6E6E",
"t.	c #CFCFCF",
"u.	c #C4C4C4",
"v.	c #AFAFAF",
"w.	c #79797A",
"x.	c #5C5A59",
"y.	c #1F1A18",
"z.	c #9E9B9A",
"A.	c #222222",
"B.	c #3B3B3B",
"C.	c #707070",
"D.	c #DFDFDF",
"E.	c #E7E7E7",
"F.	c #EEEEEE",
"G.	c #919191",
"H.	c #EAEAEA",
"I.	c #F1F1F1",
"J.	c #D4D3D2",
"K.	c #9F9D9D",
"L.	c #7F98A9",
"M.	c #C0CFD9",
"N.	c #949394",
"O.	c #434446",
"P.	c #514B49",
"Q.	c #BEB8B5",
"R.	c #F7F7F7",
"S.	c #A4A4A4",
"T.	c #212121",
"U.	c #252525",
"V.	c #E4E4E4",
"W.	c #777777",
"X.	c #BBBBBB",
"Y.	c #E9E9E9",
"Z.	c #CACACA",
"`.	c #EEE7E2",
" +	c #4E6576",
".+	c #4588AF",
"++	c #CBE8F6",
"@+	c #DAF7FF",
"#+	c #C6E5F4",
"$+	c #6F8593",
"%+	c #33363B",
"&+	c #7D726C",
"*+	c #F9F4F1",
"=+	c #010101",
"-+	c #AAAAAA",
";+	c #090909",
">+	c #DDD3CC",
",+	c #324B65",
"'+	c #09639A",
")+	c #5EB7D4",
"!+	c #77CAE0",
"~+	c #70C2DA",
"{+	c #74C6E5",
"]+	c #58A4C6",
"^+	c #13445D",
"/+	c #394044",
"(+	c #B0ADAA",
"_+	c #8B8B8B",
":+	c #808080",
"<+	c #131313",
"[+	c #F4F1EE",
"}+	c #807F82",
"|+	c #1E4463",
"1+	c #1E739A",
"2+	c #42ABCB",
"3+	c #51BBD6",
"4+	c #50B8D4",
"5+	c #44ABCC",
"6+	c #3AA0CC",
"7+	c #3F6A80",
"8+	c #322926",
"9+	c #757474",
"0+	c #A9A9A9",
"a+	c #B0B0B0",
"b+	c #A3A3A3",
"c+	c #FEFEFE",
"d+	c #F1EEEB",
"e+	c #C0B7B2",
"f+	c #8B909A",
"g+	c #69859B",
"h+	c #678EA4",
"i+	c #729BB0",
"j+	c #86A4B2",
"k+	c #98A7AF",
"l+	c #B4B9BD",
"m+	c #BBBABA",
"n+	c #7D7C7C",
"o+	c #767676",
"p+	c #B8B8B8",
"q+	c #1F1F1F",
"r+	c #6F6F6F",
"s+	c #5D5D5D",
"t+	c #2A2A2A",
"u+	c #FFFFFD",
"v+	c #FDF5F3",
"w+	c #FCF3F2",
"x+	c #FFF8F6",
"y+	c #FFFDFA",
"z+	c #ACACAC",
"A+	c #9A9A9A",
"B+	c #414141",
"C+	c #D4D4D4",
"D+	c #FEFFFF",
"E+	c #393939",
"F+	c #FAFAFA",
"G+	c #434343",
"H+	c #262626",
"I+	c #050505",
"J+	c #0B0B0B",
"K+	c #D6D6D6",
"L+	c #E3E3E3",
"M+	c #7A7A7A",
"N+	c #484848",
"O+	c #5C5C5C",
"P+	c #030303",
"Q+	c #D3D3D3",
"R+	c #E1E1E1",
"S+	c #1C1C1C",
"T+	c #202020",
"U+	c #999999",
"V+	c #757575",
"W+	c #BFBFBF",
"X+	c #3C3C3C",
"Y+	c #373737",
"Z+	c #9E9E9E",
"`+	c #464646",
" @	c #191919",
".@	c #626262",
"+@	c #8A8A8A",
"@@	c #E2E2E2",
"#@	c #C2C2C2",
"$@	c #353535",
"%@	c #9F9F9F",
"&@	c #535353",
"*@	c #3D3D3D",
"=@	c #1E1E1E",
"-@	c #0F0F0F",
";@	c #6D6D6D",
">@	c #D0D0D0",
",@	c #8C8C8C",
"'@	c #B7B7B7",
")@	c #D7D7D7",
"!@	c #9B9B9B",
"~@	c #525252",
"{@	c #595959",
"]@	c #979797",
"^@	c #909090",
"/@	c #B5B5B5",
"(@	c #C5C5C5",
"_@	c #BCBCBC",
":@	c #737373",
"<@	c #929292",
"[@	c #080808",
"}@	c #8F8F8F",
"|@	c #ADADAD",
"1@	c #121212",
"2@	c #ECECEC",
"3@	c #B9B9B9",
"4@	c #E0E0E0",
"5@	c #4E4E4E",
"6@	c #383838",
"7@	c #949494",
"8@	c #D2D2D2",
"9@	c #B3B3B3",
"0@	c #8E8E8E",
"a@	c #959595",
"b@	c #A5A5A5",
"c@	c #D9D9D9",
"d@	c #6A6A6A",
"                                                                                                                                ",
"                                                                                                                                ",
"                                                                                                                                ",
"                                                                                                                                ",
"                                                                                                                                ",
"                                                                                                                                ",
"                                                                                                                                ",
"                                                                                                                                ",
"                                                                                                                                ",
"                                                                                                                                ",
"                                                                                                                                ",
"                                                                                                                                ",
"                        . . . . . . . . . . . . . . .                                                                           ",
"                    . + @ # $ % & * = - ; > , = ' ) ! & ~ { ] . . . .                                                           ",
"                  ^ ' / ( _ : < [ } | | | | | | | | | | | 1 2 3 4 5 6 7 8 9 .                                                   ",
"                . 0 a b b c d e f g 3 h i j k l m n o l j p q h d r s 1 t u v n w . .                                           ",
"              . # a ( x p y z A B * C D E F G ^ . . . . ^ H I J $ K L , b M N s g u k C . .                                     ",
"            # . O P Q R | < S T . . . . . . . . . . . . . . . . . . . @ # ~ U V B W X f Y - Z .                                 ",
"            . ~ `  .v 1 = . . . . ..+.@.) O #.$.%.W d &.d h q #.*.=.. . . . . -.+.C L ;.s | >.,.^ '.                            ",
"          H . 6 ).!.e - ~.{.V 6 ].^./.| | | | | | | | | | | | | | | (.l # . . . . . G _.:.<.[.| }.L .                           ",
"          . |.q : s 1.2.h 3.4.| | | | | y 2 5.6.7.` 8.x 3 | 9.0.< 5.a.| | b.c.. . . . . . H d.<.e.| f.g..                       ",
"        h.. i.j.k.q q N [.} | | l.m.7.n.o.p.L q.r.% # s.a.q K t.u.v.- w.x.y.| [ z.. . . . . . 9 @.0.| | l .                     ",
"        . ..q !.< j.A.| | } B.C.= $ D.E.F.F Z . . . $ | y G.H.. . . I.J.K.L.M.N.O.P.Q.. . . . . . R.S.T.| U.V..                 ",
"        . ! (.h e.| | u W.X.Y.9 . . . . . . . . . F }.| t Z.. . . . . `. +.+++@+#+$+%+&+*+. . . . . . =.].| | 0 .               ",
"      r.. ;.=+| | !.-++ . . . . . . . . . . . . . W.| | ;+_.. . . . . >+,+'+)+!+~+{+]+^+/+(+. . . . . . 9 _+f | :+.             ",
"      . G | | p 8 . . . . . . . . . . . . . . . E <+1 =+| t.. . . . . [+}+|+1+2+3+4+5+6+7+8+9+... . . . . . 0+t | _ .           ",
"      . a+3 r.. . . . . . . . . . . . . . . . . b+1 B.t | B . . c+. . . d+e+f+g+h+i+j+k+l+m+n+o+t.. . c+. . . p+q+| P .         ",
"      . I . . . . Z Z Z Z Z Z Z Z Z Z Z Z Z c+. r+r s+t+f ;++.. c+Z Z c+. . . u+v+w+x+y+. . . =.-+J Z c+Z c+. . z+g | L .       ",
"    A+. . . + H . . . G G G G G G G G G G G ^ . 2.;+s.B+2 | s C+. . G G G Z D+. . . . . . c+c+. . V.~.Z G G ^ . Z <.| z . Y.    ",
"    @ . :+E+m.N p p.^ . . 9 F+F+F+F+F+F+F+F+F+. * | }.G+H+I+| J+-+. . G F+F+F+F+F+F+F+F+F+F+F+F+^ . G F+F+F+F+G . K+5.| 7 .     ",
"    9 . >.g [./.| | t+a+. . R.~.9 9 9 9 9 9 9 . L+).e | =+| | | | ]._.. . 9 ~.9 9 9 9 9 9 9 9 9 9 9 9 9 9 9 9 ~.. ..M+| N+.     ",
"    Z F T.[ d [.s <+| | O+] . ~...R.R.R.R.R.R.F+c+% c 6.q+P+| | | | J+o.I.. . G ....R.R.R.R.R.R.R.R.R.R.R.R.R.R.^ . 7 z X . Q+  ",
"    . R+S+1.1.&.T+4.}.z | H+t.. 9 H '.'.'.'.'.H F+c+$ U+ .n.s.p 5.X | | z V+=.. . . 9 '.'.'.'.'.'.'.'.'.'.'.'.'.F . W+T.| Y.]   ",
"    . Z.>.X+Y+(.H+T+4.e.} | P+Z+. . I.H H H H H -.~.. F.# u.].9.k C.8.`+>.| | 6.U+I . . . Z ~.F H H H H H H H H H . u.1.| h.F   ",
"    . p+4.%.h ^.(.U.q+ @<+X | | 2.Z . F I.-.-.-.-.I.I.. . o+| | 7 :.' ,. ..@h } | I+j.+@:.] . . . . . ^ ~.R...F '.. & Y+| % ~.  ",
"    . 0  @$.%.W N [ U.q+ @e.X a.| E+~ . . F -.-.-.. . @@< | | < . . G V.#@) , :+O+d a.| | }.7.6 = X.{.@ R.G . . . . @.$@| & F.  ",
"    . %@ @.@&@`+*@N (.U.=@ @/.-@z | a.;@>@. . . . I ,@g | | &.'@. H t.# ~.c+] )@'@!@ .~@r | | | | <+3 Y v {@j V+M+_+k 5.X K+{   ",
"    . ]@>.s.s+M `+B.Y f.[.=@2 <+} J+| | f *@a c < <+| | f $@^@H . C ^@V /@(@J ] . R.D _@%@:@v  @I+| P+ @r A.>.2 >.4.f.f.3.G :.  ",
"  P . <@q+M+P ].k.v X+1.[ [.S+t <+-@J+[@| | | | | | | T.k.}@_.. Q+^@- |@! /@K p+:.=.I.. ..D w %@c E+g a.1@3 `+&@` O+5 P+~@. p.  ",
"  a . _+s n :@#.p 7.v 4 Y t+A.s }.1@-@1 z a.| | =+A.A C.S.2@. Z.+@^@0 U ~ :.X.3@S K U @.D.'.. F 4@8 *.n.(.l.a.t H+5.} a.~ . s+  ",
"  a . +@s }@Q ;@.@p 7.G+4 1.f.3.q+t [@| | =+S+N 5@b U+8 c+F S m }@p.E+%. .-+@.Q+$ 3@S ! K w >@V.F 9 '.@ Q+0 ( %.r g U.0 . V.    ",
"  P . > s ' _+( ;@.@O+p q W t+1@e =+X T.6@M ;@_+) 8 -.c+# *.<.,@0 k.        4 W.0+C d.r./@! q.p+@.=.I ] I.F F _.J {.R+G T L     ",
"  _ . <@2 b+7 ' o.o+` $@=@1 l.t 3.A 8.x 7@z+#@+.R.R.4@U G.n , ) 8.                `+O X.g.:./@! v.! W+>@D.V.@ + I.'.I.{ K+;.    ",
"  ;.. - t 7 i.$.6@}.g -@[.B+].Q ]@-+_@g.@@I.H @ Q+3@A+,.> p.- M                       T.j ) @.8 '@q.* * '@u.t.|.C+8@h._@r.      ",
"  B . 9@| g /.} 3 N+;@7@0 r.C {.D.Y.+ + L+K+u.|@U+0@}@a@7 > d                               !.> % @.X.a+* z+|@a+a+|@-+~ 6       ",
"  o+R.d.j P A+r.C |.# R+V._.Y.E.R+# 8@(@! V ; 7@; ' b@V a                                       (.2.0 (@& ! * * * |@:.3@        ",
"  W.R+4@H.+ _.@@L+R+D.{ D # C+Z.r.a+S.- U+U+!@V 0 V l N                                               p ^@p+#@w & 8 !           ",
"  j d.=.D c@c@=.c@K+>@h.& '@z+V %@Z+= %@7 |@|@<@_ f.                                                      t+$.:@( `             ",
"  $.#@9@$ Z.$ w p+! z+7 b+V S.S.b@* ! q.U+k h                                                                                   ",
"    #@S.b+b@S.b+*.V S.7 L a+S '@! ^@r+*@                                                                                        ",
"    v.! b+S.S.7 0 9@S X./@!@Q 9.m.                                                                                              ",
"    7.& U K 3@/@) 0@ .M N                                                                                                       ",
"        d@k 5@^.                                                                                                                ",
"                                                                                                                                ",
"                                                                                                                                ",
"                                                                                                                                ",
"                                                                                                                                ",
"                                                                                                                                ",
"                                                                                                                                ",
"                                                                                                                                ",
"                                                                                                                                ",
"                                                                                                                                ",
"                                                                                                                                ",
"                                                                                                                                "};
