/* XPM */
static char * komodo48_edit_xpm[] = {
"48 48 844 2",
"  	c None",
". 	c #0D5A6D",
"+ 	c #01495C",
"@ 	c #075061",
"# 	c #0D5667",
"$ 	c #10596B",
"% 	c #145D6E",
"& 	c #196272",
"* 	c #1F6676",
"= 	c #226879",
"- 	c #24697A",
"; 	c #25697A",
"> 	c #236979",
", 	c #226676",
"' 	c #216475",
") 	c #1E6071",
"! 	c #195A6B",
"~ 	c #0F5262",
"{ 	c #084A5A",
"] 	c #034151",
"^ 	c #1F6779",
"/ 	c #478493",
"( 	c #6D97A1",
"_ 	c #7EA2AB",
": 	c #8CABB3",
"< 	c #95B1B7",
"[ 	c #9BB5BB",
"} 	c #A1B8BE",
"| 	c #A7BCC2",
"1 	c #ADC0C6",
"2 	c #B2C5CA",
"3 	c #B5C7CC",
"4 	c #B7C9CE",
"5 	c #B9CBD0",
"6 	c #B8CBCF",
"7 	c #B6CACF",
"8 	c #AFC6CB",
"9 	c #A3BEC5",
"0 	c #94B4BC",
"a 	c #82A9B1",
"b 	c #6D9AA5",
"c 	c #528795",
"d 	c #32707E",
"e 	c #185A69",
"f 	c #084757",
"g 	c #072D36",
"h 	c #1D778D",
"i 	c #93ADB3",
"j 	c #FEF0ED",
"k 	c #EDE5E4",
"l 	c #EFE6E5",
"m 	c #F3E9E7",
"n 	c #FFF4F1",
"o 	c #FFFFFB",
"p 	c #FFFEF9",
"q 	c #FFF3EF",
"r 	c #FAEBE7",
"s 	c #F0E4E1",
"t 	c #E6DDDA",
"u 	c #DCD5D4",
"v 	c #D5D1D0",
"w 	c #D3D0CF",
"x 	c #D3D1D0",
"y 	c #D6D4D3",
"z 	c #DBD8D8",
"A 	c #E1DEDD",
"B 	c #E2DFDF",
"C 	c #DFDFDF",
"D 	c #DCDFE0",
"E 	c #D2DBDD",
"F 	c #B9CCD0",
"G 	c #87ACB4",
"H 	c #4D8390",
"I 	c #225E6E",
"J 	c #044353",
"K 	c #055063",
"L 	c #538F9E",
"M 	c #E8E2E1",
"N 	c #E8E3E2",
"O 	c #D7D8D8",
"P 	c #E7E5E5",
"Q 	c #FBF1EF",
"R 	c #DCD6D5",
"S 	c #AEB6B8",
"T 	c #83999F",
"U 	c #6D8E97",
"V 	c #5F8992",
"W 	c #56828D",
"X 	c #4E7E8A",
"Y 	c #4A7C88",
"Z 	c #497B88",
"` 	c #4B7D89",
" .	c #4F808C",
"..	c #568590",
"+.	c #618C97",
"@.	c #6E949E",
"#.	c #7C9EA6",
"$.	c #90AAB0",
"%.	c #A2B5B9",
"&.	c #B7C0C3",
"*.	c #D2D3D4",
"=.	c #EAE7E6",
"-.	c #E6E8E8",
";.	c #B0C7CC",
">.	c #6594A0",
",.	c #236271",
"'.	c #013F50",
").	c #066278",
"!.	c #93AEB5",
"~.	c #FFF1EE",
"{.	c #D4D6D7",
"].	c #F2EDEC",
"^.	c #E8DFDD",
"/.	c #86979D",
"(.	c #43727C",
"_.	c #286675",
":.	c #226677",
"<.	c #2A6F80",
"[.	c #2E7384",
"}.	c #2F7485",
"|.	c #317586",
"1.	c #317687",
"2.	c #337788",
"3.	c #367889",
"4.	c #397B8A",
"5.	c #3A7C8C",
"6.	c #3B7C8C",
"7.	c #3E7E8D",
"8.	c #448291",
"9.	c #4D8795",
"0.	c #518996",
"a.	c #518793",
"b.	c #5B8C97",
"c.	c #7099A3",
"d.	c #8EA9B0",
"e.	c #B9C4C7",
"f.	c #DEDDDD",
"g.	c #F5EFED",
"h.	c #E3E8E9",
"i.	c #98B9C0",
"j.	c #437C8A",
"k.	c #0C4B5C",
"l.	c #002C37",
"m.	c #2B7E91",
"n.	c #C5CCCE",
"o.	c #ECE5E3",
"p.	c #F1ECEB",
"q.	c #DFD8D7",
"r.	c #416B75",
"s.	c #025063",
"t.	c #116175",
"u.	c #1B6879",
"v.	c #21697A",
"w.	c #296E7E",
"x.	c #3A7887",
"y.	c #508693",
"z.	c #60909C",
"A.	c #6E99A3",
"B.	c #79A0AA",
"C.	c #82A6AF",
"D.	c #87A9B2",
"E.	c #89AAB2",
"F.	c #84A8B0",
"G.	c #7CA3AC",
"H.	c #6E9AA5",
"I.	c #568C99",
"J.	c #498593",
"K.	c #558C9A",
"L.	c #6698A4",
"M.	c #689AA6",
"N.	c #6095A2",
"O.	c #598F9C",
"P.	c #8EACB2",
"Q.	c #C9D0D2",
"R.	c #F8F0EE",
"S.	c #F7F5F4",
"T.	c #AAC6CB",
"U.	c #47818E",
"V.	c #054555",
"W.	c #003A49",
"X.	c #5795A3",
"Y.	c #EBE5E4",
"Z.	c #EDE8E8",
"`.	c #DED8D7",
" +	c #2F5F6B",
".+	c #004F64",
"++	c #3A7B8A",
"@+	c #5B8B97",
"#+	c #7BA0A9",
"$+	c #93B0B6",
"%+	c #AABFC4",
"&+	c #CAD4D6",
"*+	c #E8E8E7",
"=+	c #FAF3F2",
"-+	c #FFFCF9",
";+	c #FFFFFC",
">+	c #FFFFFE",
",+	c #FFFFFF",
"'+	c #FFF6F4",
")+	c #F5EFEE",
"!+	c #FFFDFA",
"~+	c #FFF7F5",
"{+	c #E2E5E6",
"]+	c #B9CCD1",
"^+	c #89AEB7",
"/+	c #5A919E",
"(+	c #538C99",
"_+	c #6799A5",
":+	c #73A1AC",
"<+	c #72A1AC",
"[+	c #669AA6",
"}+	c #5D929E",
"|+	c #7FA3AC",
"1+	c #C8D0D2",
"2+	c #FFF8F5",
"3+	c #F1F3F2",
"4+	c #8EB4BC",
"5+	c #276B7B",
"6+	c #00485B",
"7+	c #78A4AF",
"8+	c #FBF0EE",
"9+	c #EBE8E8",
"0+	c #BDC3C4",
"a+	c #81A0A8",
"b+	c #B6C9CD",
"c+	c #D0D5D6",
"d+	c #EDE9E7",
"e+	c #FFFFFD",
"f+	c #FCEEEA",
"g+	c #E0DAD9",
"h+	c #CACCCD",
"i+	c #B5BDC0",
"j+	c #A1B0B4",
"k+	c #9AABAF",
"l+	c #7E989F",
"m+	c #9EB0B4",
"n+	c #F9F0EE",
"o+	c #AEB8BA",
"p+	c #99ACB1",
"q+	c #C9CECF",
"r+	c #EBE4E3",
"s+	c #F1E9E7",
"t+	c #E5E5E4",
"u+	c #B0C8CE",
"v+	c #6A9CA9",
"w+	c #57909D",
"x+	c #6C9EA9",
"y+	c #78A5B0",
"z+	c #6D9FAB",
"A+	c #6094A1",
"B+	c #88A9B1",
"C+	c #E3E3E3",
"D+	c #CEDFE3",
"E+	c #57929F",
"F+	c #013541",
"G+	c #02596D",
"H+	c #9AB6BD",
"I+	c #FFF4F2",
"J+	c #DBDCDD",
"K+	c #E4E4E5",
"L+	c #FEF4F3",
"M+	c #FFF1EF",
"N+	c #CDCBCB",
"O+	c #A3B1B4",
"P+	c #79949B",
"Q+	c #557D86",
"R+	c #427581",
"S+	c #366F7D",
"T+	c #2E6B7A",
"U+	c #2D6B7A",
"V+	c #1C6172",
"W+	c #256878",
"X+	c #CDD8DA",
"Y+	c #B9C0C1",
"Z+	c #2F6C7A",
"`+	c #3D7B8A",
" @	c #4B8390",
".@	c #598B98",
"+@	c #7199A3",
"@@	c #AEBDBF",
"#@	c #DDDFE2",
"$@	c #D2DDEA",
"%@	c #A2C3D2",
"&@	c #689EAD",
"*@	c #5F96A2",
"=@	c #77A4AF",
"-@	c #7AA6B1",
";@	c #7BA8B2",
">@	c #699DA9",
",@	c #6898A3",
"'@	c #B5C6CA",
")@	c #F5F9F8",
"!@	c #82BAC6",
"~@	c #114554",
"{@	c #13697E",
"]@	c #BAC9CE",
"^@	c #DFE0E0",
"/@	c #F8F4F3",
"(@	c #FFFEFB",
"_@	c #E0D9D8",
":@	c #9CA8AC",
"<@	c #60848C",
"[@	c #2D6471",
"}@	c #175B6C",
"|@	c #175F71",
"1@	c #256C7D",
"2@	c #307584",
"3@	c #377988",
"4@	c #3E7C8B",
"5@	c #407E8C",
"6@	c #2B7182",
"7@	c #BECED2",
"8@	c #FFFDF9",
"9@	c #5C8892",
"0@	c #418493",
"a@	c #5D93A0",
"b@	c #5E95A2",
"c@	c #5E96A3",
"d@	c #5994A2",
"e@	c #46899D",
"f@	c #658D8D",
"g@	c #ECDFB9",
"h@	c #FFFCED",
"i@	c #E3E3E2",
"j@	c #A0C1CB",
"k@	c #629AA6",
"l@	c #6EA0AB",
"m@	c #7CA9B3",
"n@	c #7DA9B3",
"o@	c #77A6B1",
"p@	c #6297A3",
"q@	c #90AFB6",
"r@	c #FDF6F4",
"s@	c #9FCFDA",
"t@	c #195564",
"u@	c #01171D",
"v@	c #267689",
"w@	c #D1CECD",
"x@	c #779097",
"y@	c #336773",
"z@	c #094F60",
"A@	c #0E5B6F",
"B@	c #277081",
"C@	c #327584",
"D@	c #357484",
"E@	c #377584",
"F@	c #397686",
"G@	c #3B7887",
"H@	c #3F7C89",
"I@	c #256B7B",
"J@	c #769FA9",
"K@	c #EAE3E2",
"L@	c #5C8B96",
"M@	c #488796",
"N@	c #5B919E",
"O@	c #5F95A1",
"P@	c #6498A5",
"Q@	c #689CA7",
"R@	c #5C9CB4",
"S@	c #81A09C",
"T@	c #FFCE6A",
"U@	c #FFC869",
"V@	c #E0B789",
"W@	c #D1D3D5",
"X@	c #C8D7DD",
"Y@	c #88B3BD",
"Z@	c #6BA0AD",
"`@	c #80ABB5",
" #	c #82ACB6",
".#	c #81ACB6",
"+#	c #689CA9",
"@#	c #7BA3AD",
"##	c #EBECEC",
"$#	c #AAD6E0",
"%#	c #1D5B6A",
"&#	c #00161D",
"*#	c #307E91",
"=#	c #FAEFEC",
"-#	c #7A9297",
";#	c #004C5E",
">#	c #176578",
",#	c #2C7081",
"'#	c #2E6E7F",
")#	c #307180",
"!#	c #327282",
"~#	c #347483",
"{#	c #367584",
"]#	c #3A7886",
"^#	c #2D7080",
"/#	c #C5D2D5",
"(#	c #FFFDFB",
"_#	c #FBF4F2",
":#	c #7EA4AD",
"<#	c #418191",
"[#	c #6398A4",
"}#	c #6499A6",
"|#	c #679CA8",
"1#	c #699EAC",
"2#	c #6BA1B0",
"3#	c #8E9B8C",
"4#	c #8C9B89",
"5#	c #67949A",
"6#	c #5F939F",
"7#	c #9EB9C0",
"8#	c #C0CCD0",
"9#	c #9FBDC4",
"0#	c #6FA4B0",
"a#	c #7CA9B4",
"b#	c #86AFB9",
"c#	c #8DB3BD",
"d#	c #7DAAB5",
"e#	c #86ABB5",
"f#	c #FBF8F7",
"g#	c #A3D3DD",
"h#	c #174C5A",
"i#	c #00151D",
"j#	c #368193",
"k#	c #A8B2B5",
"l#	c #35636F",
"m#	c #004D60",
"n#	c #1F6B7D",
"o#	c #2C7080",
"p#	c #286B7B",
"q#	c #2A6C7C",
"r#	c #2C6E7D",
"s#	c #2D6E7F",
"t#	c #2F7080",
"u#	c #317181",
"v#	c #337382",
"w#	c #387786",
"x#	c #2F7182",
"y#	c #5C8F9C",
"z#	c #F0EFEE",
"A#	c #F4EFEF",
"B#	c #B4C6CB",
"C#	c #206C7E",
"D#	c #448493",
"E#	c #4A8897",
"F#	c #488897",
"G#	c #438594",
"H#	c #3E8190",
"I#	c #398090",
"J#	c #227B9A",
"K#	c #217A99",
"L#	c #2A7A90",
"M#	c #2B798A",
"N#	c #156A7F",
"O#	c #6F959F",
"P#	c #60919C",
"Q#	c #2A7688",
"R#	c #2D7788",
"S#	c #377B8B",
"T#	c #448492",
"U#	c #3D7F8F",
"V#	c #4E8391",
"W#	c #EBEDED",
"X#	c #77B9C8",
"Y#	c #09262E",
"Z#	c #032027",
"`#	c #196C80",
" $	c #002D42",
".$	c #003048",
"+$	c #004B60",
"@$	c #004E62",
"#$	c #196273",
"$$	c #2D707F",
"%$	c #2E7080",
"&$	c #2E707F",
"*$	c #307080",
"=$	c #327181",
"-$	c #347282",
";$	c #357583",
">$	c #387685",
",$	c #397787",
"'$	c #206879",
")$	c #578C98",
"!$	c #FBF5F4",
"~$	c #F2EEED",
"{$	c #EFEDED",
"]$	c #FAF6F4",
"^$	c #6898A4",
"/$	c #00566C",
"($	c #226F81",
"_$	c #2B7587",
":$	c #237183",
"<$	c #1F6F82",
"[$	c #1E6F82",
"}$	c #1D6E81",
"|$	c #1D6F82",
"1$	c #1D7082",
"2$	c #1E7082",
"3$	c #207083",
"4$	c #156C80",
"5$	c #0C6478",
"6$	c #3B7886",
"7$	c #2E7181",
"8$	c #0D6377",
"9$	c #0D6175",
"0$	c #085D71",
"a$	c #065B6F",
"b$	c #004158",
"c$	c #357685",
"d$	c #96BAC2",
"e$	c #05475C",
"f$	c #031A20",
"g$	c #0C6378",
"h$	c #538A98",
"i$	c #91B0B8",
"j$	c #87AAB2",
"k$	c #548895",
"l$	c #175E6F",
"m$	c #004559",
"n$	c #0C586B",
"o$	c #246A7A",
"p$	c #246979",
"q$	c #236878",
"r$	c #226878",
"s$	c #216777",
"t$	c #156072",
"u$	c #0F5D70",
"v$	c #D5DDDF",
"w$	c #E8E9E9",
"x$	c #FFFAF7",
"y$	c #005369",
"z$	c #005A6F",
"A$	c #227284",
"B$	c #277587",
"C$	c #277588",
"D$	c #287688",
"E$	c #297789",
"F$	c #297689",
"G$	c #267688",
"H$	c #1B6F83",
"I$	c #257082",
"J$	c #257183",
"K$	c #1F6E81",
"L$	c #1E6C7E",
"M$	c #1B697C",
"N$	c #126477",
"O$	c #004A60",
"P$	c #C6D4D7",
"Q$	c #E2E0DF",
"R$	c #00556B",
"S$	c #010F15",
"T$	c #0A6378",
"U$	c #EDEDEE",
"V$	c #E1E6E7",
"W$	c #7EA3AD",
"X$	c #0A5365",
"Y$	c #003A50",
"Z$	c #0B586A",
"`$	c #135D6F",
" %	c #115B6D",
".%	c #125C6E",
"+%	c #155F71",
"@%	c #196374",
"#%	c #246B7B",
"$%	c #106073",
"%%	c #3E7B8A",
"&%	c #D8DCDD",
"*%	c #BAD0D4",
"=%	c #388090",
"-%	c #005B71",
";%	c #0A6479",
">%	c #277689",
",%	c #2C798C",
"'%	c #2A798B",
")%	c #2A788A",
"!%	c #29778A",
"~%	c #257587",
"{%	c #247385",
"]%	c #227183",
"^%	c #206E81",
"/%	c #1D6C7E",
"(%	c #1C6A7C",
"_%	c #00495F",
":%	c #80A9B3",
"<%	c #FFF6F3",
"[%	c #146B7E",
"}%	c #011821",
"|%	c #005267",
"1%	c #B7CDD2",
"2%	c #EDEEEE",
"3%	c #F0F0EF",
"4%	c #FFFDFC",
"5%	c #DDE5E7",
"6%	c #558693",
"7%	c #004055",
"8%	c #004C5F",
"9%	c #176172",
"0%	c #176071",
"a%	c #1B6374",
"b%	c #23697A",
"c%	c #246B7C",
"d%	c #216B7B",
"e%	c #005166",
"f%	c #0F586A",
"g%	c #6E939C",
"h%	c #A3B6BB",
"i%	c #A7B7BB",
"j%	c #CBCFD0",
"k%	c #C0D7DD",
"l%	c #5C9AA9",
"m%	c #126B80",
"n%	c #016075",
"o%	c #176D81",
"p%	c #27788A",
"q%	c #2B7A8B",
"r%	c #2B798B",
"s%	c #287689",
"t%	c #267587",
"u%	c #227083",
"v%	c #1F6E80",
"w%	c #1C6B7D",
"x%	c #76A4AE",
"y%	c #FDF2F0",
"z%	c #196C7F",
"A%	c #001C24",
"B%	c #00384D",
"C%	c #87B0BA",
"D%	c #F1F2F2",
"E%	c #F0F1F1",
"F%	c #F0F0F0",
"G%	c #A2BDC4",
"H%	c #0F5568",
"I%	c #003D52",
"J%	c #145F71",
"K%	c #1E6778",
"L%	c #186274",
"M%	c #0C5C6F",
"N%	c #166477",
"O%	c #0E6377",
"P%	c #004E64",
"Q%	c #003B53",
"R%	c #347280",
"S%	c #678F99",
"T%	c #568A97",
"U%	c #86B2BD",
"V%	c #C9D5D7",
"W%	c #E9E6E5",
"X%	c #CBD7DA",
"Y%	c #9AC0C8",
"Z%	c #5195A4",
"`%	c #166E82",
" &	c #036176",
".&	c #09657A",
"+&	c #207386",
"@&	c #29788A",
"#&	c #267487",
"$&	c #247284",
"%&	c #216F81",
"&&	c #1F6D7F",
"*&	c #004D63",
"=&	c #92B7C0",
"-&	c #F9EFED",
";&	c #086276",
">&	c #00263A",
",&	c #5592A1",
"'&	c #F7F5F5",
")&	c #F4F4F4",
"!&	c #F2F2F2",
"~&	c #FAF8F7",
"{&	c #E4EBED",
"]&	c #588995",
"^&	c #004156",
"/&	c #004F63",
"(&	c #0B5C6E",
"_&	c #126174",
":&	c #126376",
"<&	c #004B62",
"[&	c #5E98A5",
"}&	c #C1CFD2",
"|&	c #004C62",
"1&	c #004558",
"2&	c #015366",
"3&	c #307D8F",
"4&	c #7AB1BE",
"5&	c #B7CFD5",
"6&	c #D0D9DB",
"7&	c #CFDADC",
"8&	c #B9D3D9",
"9&	c #75AAB6",
"0&	c #3E8697",
"a&	c #257689",
"b&	c #156D80",
"c&	c #096479",
"d&	c #036075",
"e&	c #045F75",
"f&	c #035E73",
"g&	c #015C71",
"h&	c #00435B",
"i&	c #D8E6E9",
"j&	c #011216",
"k&	c #002332",
"l&	c #287B8E",
"m&	c #F5F5F5",
"n&	c #F5F5F6",
"o&	c #B0C5CB",
"p&	c #447887",
"q&	c #065266",
"r&	c #00445A",
"s&	c #00485E",
"t&	c #005368",
"u&	c #2E7485",
"v&	c #A4C5CD",
"w&	c #DDD6D5",
"x&	c #277B8E",
"y&	c #073B47",
"z&	c #010101",
"A&	c #03090B",
"B&	c #011E25",
"C&	c #003441",
"D&	c #004859",
"E&	c #2C7889",
"F&	c #78B0BD",
"G&	c #C8DDE2",
"H&	c #D2E4E7",
"I&	c #A4C4CC",
"J&	c #86B1BC",
"K&	c #77A7B3",
"L&	c #6A9EAB",
"M&	c #5E97A4",
"N&	c #478796",
"O&	c #639AA7",
"P&	c #6796A1",
"Q&	c #003C50",
"R&	c #001F29",
"S&	c #025E76",
"T&	c #F7F7F7",
"U&	c #F6F6F6",
"V&	c #FCFAFA",
"W&	c #D7E0E3",
"X&	c #A2BCC4",
"Y&	c #9EBAC2",
"Z&	c #CADCE1",
"`&	c #A6B1B3",
" *	c #187084",
".*	c #075C70",
"+*	c #060A0B",
"@*	c #000101",
"#*	c #01161B",
"$*	c #002E3A",
"%*	c #004658",
"&*	c #2A778A",
"**	c #79B1BE",
"=*	c #C2D7DC",
"-*	c #E0DBDA",
";*	c #075E74",
">*	c #03333E",
",*	c #001217",
"'*	c #003F58",
")*	c #A2BFC6",
"!*	c #F9F9F9",
"~*	c #FAFAFA",
"{*	c #B8BDBF",
"]*	c #4A808D",
"^*	c #03657C",
"/*	c #0A5667",
"(*	c #070A0B",
"_*	c #00171C",
":*	c #002835",
"<*	c #00495A",
"[*	c #347C8D",
"}*	c #72AAB8",
"|*	c #B9D4DA",
"1*	c #EDF0F0",
"2*	c #F4E9E7",
"3*	c #346F7E",
"4*	c #00546A",
"5*	c #03090A",
"6*	c #002D43",
"7*	c #72A3AF",
"8*	c #FCFCFC",
"9*	c #FBFBFB",
"0*	c #FDFDFD",
"a*	c #FFFCFA",
"b*	c #E1DCDC",
"c*	c #A7B2B6",
"d*	c #648892",
"e*	c #2F7587",
"f*	c #004F62",
"g*	c #0E333C",
"h*	c #001015",
"i*	c #001F2B",
"j*	c #014454",
"k*	c #2D7282",
"l*	c #5A97A6",
"m*	c #7FB0BB",
"n*	c #7FA8B2",
"o*	c #337A8C",
"p*	c #006881",
"q*	c #09262B",
"r*	c #002334",
"s*	c #328194",
"t*	c #FFF8F6",
"u*	c #D5D1D1",
"v*	c #A8B4B7",
"w*	c #718D96",
"x*	c #356977",
"y*	c #0F5D71",
"z*	c #004F66",
"A*	c #004455",
"B*	c #092B31",
"C*	c #010001",
"D*	c #00070B",
"E*	c #00161F",
"F*	c #002734",
"G*	c #003444",
"H*	c #065466",
"I*	c #0D272E",
"J*	c #001820",
"K*	c #005970",
"L*	c #F6F7F7",
"M*	c #EAE5E4",
"N*	c #B7BCBF",
"O*	c #8A9FA6",
"P*	c #5E8691",
"Q*	c #296474",
"R*	c #00475C",
"S*	c #003E55",
"T*	c #003A52",
"U*	c #003D51",
"V*	c #003947",
"W*	c #052A32",
"X*	c #030B0D",
"Y*	c #01090C",
"Z*	c #3A7F90",
"`*	c #377483",
" =	c #0B586C",
".=	c #003B50",
"+=	c #002F45",
"@=	c #002E43",
"#=	c #003245",
"$=	c #002F3C",
"%=	c #002229",
"&=	c #000102",
"*=	c #013A47",
"==	c #00364A",
"-=	c #002333",
";=	c #002531",
">=	c #001D25",
",=	c #001013",
"'=	c #000506",
")=	c #000001",
"                                                                                                ",
"                                                                                                ",
"                                                                                                ",
"                                                                                                ",
"                                                                                                ",
"                                                                                                ",
"                                                                                                ",
"                                                                                                ",
"                                                                                                ",
"                                                                                                ",
"                                                                                                ",
"        . + @ # $ % & * = - ; > , ' ) ! ~ { ]                                                   ",
"      ^ / ( _ : < [ } | 1 2 3 4 5 6 7 8 9 0 a b c d e f                                         ",
"    g h i j k l m n o p q r s t u v w x y z A B C D E F G H I J                                 ",
"    K L M N O P Q R S T U V W X Y Z `  ...+.@.#.$.%.&.*.B =.-.;.>.,.'.                          ",
"    ).!.~.{.].^./.(._.:.<.[.}.|.1.2.3.4.5.6.7.8.9.0.a.b.c.d.e.f.g.h.i.j.k.                      ",
"  l.m.n.o.p.q.r.s.t.u.v.w.x.y.z.A.B.C.D.E.F.G.H.I.J.K.L.M.N.O.>.P.Q.R.S.T.U.V.                  ",
"  W.X.Y.Z.`. +.+++@+#+$+%+&+*+=+-+;+>+,+'+)+!+~+{+]+^+/+(+_+:+<+[+}+|+1+2+3+4+5+                ",
"  6+7+8+9+0+a+b+c+d+e+,+,+f+g+h+i+j+k+l+m+n+o+p+q+r+s+t+u+v+w+x+7+y+z+A+B+C+,+D+E+F+            ",
"  G+H+I+J+K+L+-+,+M+N+O+P+Q+R+S+T+U+V+W+X+Y+Z+`+ @.@+@@@#@$@%@&@*@=@-@;@>@,@'@e+)@!@~@          ",
"  {@]@Q ^@/@(@_@:@<@[@}@|@1@2@3@4@5@6@7@8@9@0@a@b@c@d@e@f@g@h@i@j@k@l@m@n@o@p@q@r@,+s@t@        ",
"u@v@&+e+>+w@x@y@z@A@B@C@D@E@F@G@H@I@J@,+K@L@M@N@O@P@Q@R@S@T@U@V@W@X@Y@Z@`@ #.#+#@###,+$#%#      ",
"&#*#,+=#-#t@;#>#,#'#'#)#!#~#{#F@]#^#/#(#_#:#<#[#[#}#|#1#2#3#4#5#6#7#8#9#0#a#b#c#d#e#f#,+g#h#    ",
"i#j#k#l#m#n#o#5+p#q#r#s#t#u#v#w#x#y#z#A#!+B#C#D#E#F#G#H#I#J#K#L#M#N#B@O#P#Q#R#S#T#U#V#W#,+X#Y#  ",
"Z#`# $.$+$@$#$$$%$&$*$=$-$;$>$,$'$)$!$~${$]$^$/$($_$:$<$[$}$|$1$2$3$4$5$6$7$8$9$0$a$b$c$,+d$e$  ",
"f$g$h$i$j$k$l$m$n$o$p$; p$q$r$s$t$u$v$,+w$/@x$<+y$z$A$B$C$D$E$E$E$F$D$G$H$I$J$K$L$M$N$O$P$Q$R$  ",
"S$T$U$,+,+,+V$W$X$Y$Z$`$ %.%+%@%#%$%%%&%,+,+,+,+*%=%-%;%>%,%'%'%'%'%)%!%D$~%{%]%^%/%(%_%:%<%[%}%",
"  |%1%,+2%3%4%,+5%6%7%8%9%0%a%b%c%d%e%f%g%h%i%j%,+,+k%l%m%n%o%p%q%r%'%'%)%s%t%{%u%v%w%.+x%y%z%A%",
"  B%C%,+D%D%E%F%,+,+G%H%I%J%K%L%u$M%N%O%P%Q%R%S%T%U%V%W%X%Y%Z%`% &.&o%+&v@@&F$#&$&%&&&*&=&-&;&A%",
"  >&,&,+'&)&)&)&!&~&,+{&]&^&Y$/&(&_&:&y$<&[&,+}&|&1&2&3&4&5&6&7&8&9&0&a&b&c&d&e&f&g&R$h&i&j%_%j&",
"  k&l&,+4%m&n&n&n&m&)&,+,+o&p&q&r&s&t&u&v&,+w&x&y&z&A&B&C&D&E&F&G&)+,+,+H&I&J&K&L&M&N&O&,+P&Q&  ",
"  R&S&5%,+T&T&T&T&T&T&U&V&,+,+W&X&Y&Z&,+,+`& *.*+*        @*#*$*%*&***=*e+,+,+,+,+,+,+,+-*;*>*  ",
"  ,*'*)*,+!*!*!*!*!*!*!*!*~*,+,+,+,+>+{*]*^*/*(*                @*_*:*<*[*}*|*1*,+,+,+2*3*4*5*  ",
"    6*7*,+8*9*9*9*0*,+,+,+,+a*b*c*d*e*-%f*g*z&                        @*h*i*j*k*l*m*n*o*p*q*    ",
"    r*s*,+,+,+,+,+,+t*u*v*w*x*y*z*r&A*B*C*                                  @*D*E*F*G*H*I*      ",
"    J*K*L*,+M*N*O*P*Q*R*S*T*U*V*W*X*z&                                              @*@*        ",
"    Y*/$Z*`* =.=+=@=#=$=%=j&&=z&                                                                ",
"      *===-=;=>=,='=@*                                                                          ",
"      @*)=z&                                                                                    ",
"                                                                                                ",
"                                                                                                ",
"                                                                                                ",
"                                                                                                ",
"                                                                                                ",
"                                                                                                ",
"                                                                                                ",
"                                                                                                ",
"                                                                                                "};
