/* XPM */
static char * komodo64_edit_xpm[] = {
"64 64 675 2",
"  	c None",
". 	c #247384",
"+ 	c #257486",
"@ 	c #277586",
"# 	c #287687",
"$ 	c #297889",
"% 	c #2A798A",
"& 	c #2B798A",
"* 	c #2D7A8B",
"= 	c #2E7A8B",
"- 	c #2F7B8B",
"; 	c #1F7487",
"> 	c #22798B",
", 	c #237A8D",
"' 	c #257B8D",
") 	c #277D8F",
"! 	c #298092",
"~ 	c #2B8294",
"{ 	c #2D8496",
"] 	c #2E8596",
"^ 	c #2D8596",
"/ 	c #2E8597",
"( 	c #2F8597",
"_ 	c #2F8596",
": 	c #2E8495",
"< 	c #2E8393",
"[ 	c #2E8293",
"} 	c #2F8293",
"| 	c #2F8393",
"1 	c #308393",
"2 	c #308293",
"3 	c #318393",
"4 	c #318191",
"5 	c #307B8C",
"6 	c #227E91",
"7 	c #247E91",
"8 	c #257F92",
"9 	c #268093",
"0 	c #258092",
"a 	c #237E91",
"b 	c #227D90",
"c 	c #207C8F",
"d 	c #277E91",
"e 	c #3C8B9B",
"f 	c #5197A5",
"g 	c #61A0AD",
"h 	c #6FA8B4",
"i 	c #79AEB9",
"j 	c #81B3BD",
"k 	c #87B7C0",
"l 	c #8CB9C3",
"m 	c #8CBAC3",
"n 	c #8DBAC3",
"o 	c #8AB8C2",
"p 	c #86B6C0",
"q 	c #7FB2BD",
"r 	c #70A9B5",
"s 	c #5A9CA9",
"t 	c #3D8A9A",
"u 	c #2B8192",
"v 	c #2C8394",
"w 	c #2F8495",
"x 	c #308090",
"y 	c #2D798A",
"z 	c #357787",
"A 	c #217D91",
"B 	c #227E90",
"C 	c #2C8194",
"D 	c #5F9EAC",
"E 	c #93BDC7",
"F 	c #BFD7DC",
"G 	c #E2ECEE",
"H 	c #FAFCFC",
"I 	c #FDFDFE",
"J 	c #FDFDFD",
"K 	c #FDFEFE",
"L 	c #FCFDFD",
"M 	c #ECF2F4",
"N 	c #C1D8DD",
"O 	c #8FBBC4",
"P 	c #5699A8",
"Q 	c #318696",
"R 	c #318798",
"S 	c #2E8192",
"T 	c #267182",
"U 	c #307585",
"V 	c #2B8295",
"W 	c #5A9CAA",
"X 	c #BBD4DA",
"Y 	c #FEFDFD",
"Z 	c #FFFFFF",
"` 	c #FFFFFE",
" .	c #FFFEFE",
"..	c #FEFEFE",
"+.	c #F1F5F6",
"@.	c #ACCBD3",
"#.	c #64A1AF",
"$.	c #3E8E9E",
"%.	c #2F8092",
"&.	c #237082",
"*.	c #508896",
"=.	c #B0CFD6",
"-.	c #FCFBFB",
";.	c #ECF0F1",
">.	c #DFE9EB",
",.	c #D5E3E6",
"'.	c #CCDEE2",
").	c #C6DBDF",
"!.	c #BFD6DB",
"~.	c #BAD2D7",
"{.	c #B9D1D6",
"].	c #B9D1D7",
"^.	c #BED5DA",
"/.	c #C4DADE",
"(.	c #CADDE1",
"_.	c #D1E1E4",
":.	c #D8E5E8",
"<.	c #E0EAEC",
"[.	c #E9EFF1",
"}.	c #F2F4F5",
"|.	c #FDFCFC",
"1.	c #E0EAED",
"2.	c #91BCC5",
"3.	c #569BAA",
"4.	c #307F90",
"5.	c #E9EBED",
"6.	c #EFEFF0",
"7.	c #BFD2D8",
"8.	c #9EBFC7",
"9.	c #80AEB8",
"0.	c #669EAB",
"a.	c #4F92A0",
"b.	c #3D8798",
"c.	c #2F7F90",
"d.	c #24798B",
"e.	c #20778A",
"f.	c #217A8B",
"g.	c #237B8D",
"h.	c #247B8D",
"i.	c #277C8D",
"j.	c #318192",
"k.	c #338291",
"l.	c #3D8897",
"m.	c #4E93A1",
"n.	c #619EAA",
"o.	c #74A9B3",
"p.	c #89B5BE",
"q.	c #9DC1C8",
"r.	c #B0CCD2",
"s.	c #C9DADF",
"t.	c #E6ECEE",
"u.	c #EDF2F4",
"v.	c #A9CAD2",
"w.	c #23778A",
"x.	c #6D98A4",
"y.	c #4B91A0",
"z.	c #358496",
"A.	c #237A8C",
"B.	c #1E7A8D",
"C.	c #288193",
"D.	c #2A8394",
"E.	c #2C8495",
"F.	c #2F8697",
"G.	c #308697",
"H.	c #328798",
"I.	c #338899",
"J.	c #2B8495",
"K.	c #9DC3CC",
"L.	c #B9D5DA",
"M.	c #A2C7CF",
"N.	c #88B8C1",
"O.	c #76ADB8",
"P.	c #5497A5",
"Q.	c #328495",
"R.	c #3B899A",
"S.	c #4992A0",
"T.	c #70A7B2",
"U.	c #A0C1C9",
"V.	c #DEE6E8",
"W.	c #418B9B",
"X.	c #187184",
"Y.	c #2D7182",
"Z.	c #1F7B8F",
"`.	c #217C90",
" +	c #268092",
".+	c #288093",
"++	c #298294",
"@+	c #2A8295",
"#+	c #2C8395",
"$+	c #2D8495",
"%+	c #308696",
"&+	c #308698",
"*+	c #318797",
"=+	c #D1E1E5",
"-+	c #F8FAFB",
";+	c #BED2D7",
">+	c #3C8D9D",
",+	c #35899A",
"'+	c #348899",
")+	c #338898",
"!+	c #328697",
"~+	c #398A9A",
"{+	c #418F9F",
"]+	c #67A0AC",
"^+	c #D9E4E7",
"/+	c #EAF1F3",
"(+	c #74A8B5",
"_+	c #197488",
":+	c #2E7384",
"<+	c #1F7C90",
"[+	c #217D90",
"}+	c #278092",
"|+	c #298194",
"1+	c #2A8294",
"2+	c #318697",
"3+	c #C7DCE1",
"4+	c #F6F6F6",
"5+	c #408C9C",
"6+	c #34899A",
"7+	c #348998",
"8+	c #308597",
"9+	c #3C8A9A",
"0+	c #AEC9D0",
"a+	c #BCD3D9",
"b+	c #2C8091",
"c+	c #196E82",
"d+	c #2D7283",
"e+	c #1F7C8F",
"f+	c #257F91",
"g+	c #267F93",
"h+	c #278193",
"i+	c #2B8394",
"j+	c #278192",
"k+	c #AFCDD4",
"l+	c #93BAC2",
"m+	c #3D8D9D",
"n+	c #388A9A",
"o+	c #398B9B",
"p+	c #4792A2",
"q+	c #89B6C1",
"r+	c #4691A0",
"s+	c #277F91",
"t+	c #619CA9",
"u+	c #D3E3E6",
"v+	c #F5F8F9",
"w+	c #EBF2F3",
"x+	c #5C9AA9",
"y+	c #1D7387",
"z+	c #2B7182",
"A+	c #1E7B8F",
"B+	c #237D90",
"C+	c #278093",
"D+	c #2B8395",
"E+	c #2C8396",
"F+	c #77ACB8",
"G+	c #98C1C9",
"H+	c #A1C6CE",
"I+	c #C4DADF",
"J+	c #F9FAFB",
"K+	c #88B7C1",
"L+	c #4591A1",
"M+	c #76A9B5",
"N+	c #F6F8F8",
"O+	c #FBFCFC",
"P+	c #8AB7C1",
"Q+	c #28798D",
"R+	c #287081",
"S+	c #1D7A8E",
"T+	c #207C90",
"U+	c #257E91",
"V+	c #298193",
"W+	c #2C8496",
"X+	c #2E8496",
"Y+	c #358698",
"Z+	c #EAF0F2",
"`+	c #DCE8EB",
" @	c #A0C6CE",
".@	c #60A0AE",
"+@	c #3C8798",
"@@	c #68A2AF",
"#@	c #B9D2D7",
"$@	c #B4D0D7",
"%@	c #348193",
"&@	c #286E80",
"*@	c #1B798D",
"=@	c #67A2AF",
"-@	c #EDF3F5",
";@	c #CFE2E6",
">@	c #9CC2CB",
",@	c #65A0AD",
"'@	c #5C98A6",
")@	c #B2CBD2",
"!@	c #D9E7EA",
"~@	c #468A9C",
"{@	c #005E75",
"]@	c #256D7F",
"^@	c #19788C",
"/@	c #237E90",
"(@	c #247F92",
"_@	c #72A8B3",
":@	c #F4F8F9",
"<@	c #DDE9EC",
"[@	c #9CC1CA",
"}@	c #6B9EAB",
"|@	c #B2CAD1",
"1@	c #F0F5F7",
"2@	c #5795A5",
"3@	c #005C75",
"4@	c #236C7E",
"5@	c #17778C",
"6@	c #1A788D",
"7@	c #267F92",
"8@	c #298293",
"9@	c #5496A4",
"0@	c #D6E3E6",
"a@	c #D6E3E7",
"b@	c #A2BDC5",
"c@	c #D4DFE2",
"d@	c #FCFCFD",
"e@	c #F2F7F8",
"f@	c #5897A6",
"g@	c #005E76",
"h@	c #236B7E",
"i@	c #15768B",
"j@	c #19778C",
"k@	c #1C798D",
"l@	c #1E7B8E",
"m@	c #27798B",
"n@	c #297989",
"o@	c #288295",
"p@	c #297F91",
"q@	c #79AAB4",
"r@	c #D4E3E7",
"s@	c #EEF3F5",
"t@	c #FDFCFD",
"u@	c #F2F5F6",
"v@	c #E8ECEE",
"w@	c #FEFFFF",
"x@	c #EEF3F4",
"y@	c #4B90A0",
"z@	c #005F78",
"A@	c #1F697B",
"B@	c #13758A",
"C@	c #16768A",
"D@	c #1C798E",
"E@	c #2D7988",
"F@	c #1F7E96",
"G@	c #218197",
"H@	c #1C7C91",
"I@	c #22788B",
"J@	c #5E9AA7",
"K@	c #9ABFC7",
"L@	c #C5DADF",
"M@	c #E3EBED",
"N@	c #FFFDFD",
"O@	c #F3F6F6",
"P@	c #77A5B1",
"Q@	c #DBE8EB",
"R@	c #E5EDEF",
"S@	c #358396",
"T@	c #117388",
"U@	c #147489",
"V@	c #1A788C",
"W@	c #237D91",
"X@	c #267E90",
"Y@	c #616C5C",
"Z@	c #B85F20",
"`@	c #B56123",
" #	c #B86021",
".#	c #BE601D",
"+#	c #C35F18",
"@#	c #10738B",
"##	c #338093",
"$#	c #5696A4",
"%#	c #73A8B4",
"&#	c #97BDC6",
"*#	c #BFD5D9",
"=#	c #ECEFF0",
"-#	c #F2F5F5",
";#	c #26788C",
">#	c #1B7388",
",#	c #9DBFC8",
"'#	c #98BAC4",
")#	c #0C6B82",
"!#	c #1B6779",
"~#	c #0F7187",
"{#	c #127388",
"]#	c #217C91",
"^#	c #B36224",
"/#	c #B66223",
"(#	c #BC6221",
"_#	c #BE621F",
":#	c #B95F1F",
"<#	c #378495",
"[#	c #458E9F",
"}#	c #649EAB",
"|#	c #A3C2C9",
"1#	c #EAEDEE",
"2#	c #CCDEE3",
"3#	c #F9F9F9",
"4#	c #167086",
"5#	c #1A6579",
"6#	c #0C7086",
"7#	c #227D91",
"8#	c #247D90",
"9#	c #1E7184",
"0#	c #B56224",
"a#	c #BA6222",
"b#	c #B66122",
"c#	c #207589",
"d#	c #257C8F",
"e#	c #277E90",
"f#	c #5090A0",
"g#	c #F3F3F4",
"h#	c #3F8596",
"i#	c #00657D",
"j#	c #186478",
"k#	c #0A6F86",
"l#	c #0D7086",
"m#	c #16758A",
"n#	c #207B8F",
"o#	c #21798B",
"p#	c #B36225",
"q#	c #B96323",
"r#	c #BC6321",
"s#	c #B86222",
"t#	c #B35F22",
"u#	c #187287",
"v#	c #157389",
"w#	c #5994A2",
"x#	c #BBD0D5",
"y#	c #F3F7F7",
"z#	c #54909F",
"A#	c #006880",
"B#	c #166277",
"C#	c #096E85",
"D#	c #0B6F85",
"E#	c #18778C",
"F#	c #1E7A8E",
"G#	c #1F7B8E",
"H#	c #227C90",
"I#	c #217C8F",
"J#	c #207789",
"K#	c #1C6D80",
"L#	c #BB6222",
"M#	c #B66123",
"N#	c #0B6B82",
"O#	c #207488",
"P#	c #70A3AF",
"Q#	c #C2D6DC",
"R#	c #E5EEF0",
"S#	c #FAFBFB",
"T#	c #307A8D",
"U#	c #016880",
"V#	c #146276",
"W#	c #076C83",
"X#	c #096D84",
"Y#	c #117288",
"Z#	c #137489",
"`#	c #15758A",
" $	c #17768B",
".$	c #1A798D",
"+$	c #318496",
"@$	c #3A8393",
"#$	c #1F778A",
"$$	c #1E7286",
"%$	c #BB6221",
"&$	c #B56122",
"*$	c #00647C",
"=$	c #006179",
"-$	c #358093",
";$	c #7AACB8",
">$	c #B5CFD6",
",$	c #E1E9EB",
"'$	c #FDFBFB",
")$	c #F9F8F8",
"!$	c #9EBBC3",
"~$	c #086A81",
"{$	c #026981",
"]$	c #126075",
"^$	c #056B83",
"/$	c #0E7187",
"($	c #107288",
"_$	c #15758B",
":$	c #0A6F85",
"<$	c #4C94A4",
"[$	c #78A4AF",
"}$	c #267A8C",
"|$	c #1E798C",
"1$	c #1D7689",
"2$	c #1B7185",
"3$	c #B96222",
"4$	c #BC6322",
"5$	c #BB6321",
"6$	c #B86122",
"7$	c #005D76",
"8$	c #0F6C83",
"9$	c #398698",
"0$	c #5697A6",
"a$	c #6AA0AE",
"b$	c #6BA0AE",
"c$	c #5091A1",
"d$	c #0F6C82",
"e$	c #016981",
"f$	c #02657D",
"g$	c #105F74",
"h$	c #036A82",
"i$	c #056B82",
"j$	c #0A6E85",
"k$	c #0C6F86",
"l$	c #0D7087",
"m$	c #107187",
"n$	c #066B82",
"o$	c #7CB0BC",
"p$	c #B4C8CF",
"q$	c #25778B",
"r$	c #1B798E",
"s$	c #1C7A8E",
"t$	c #1B788D",
"u$	c #1A768A",
"v$	c #166C80",
"w$	c #B76323",
"x$	c #B86223",
"y$	c #006079",
"z$	c #00627A",
"A$	c #00647D",
"B$	c #00657E",
"C$	c #01637C",
"D$	c #0F5F73",
"E$	c #046A82",
"F$	c #066C83",
"G$	c #086C84",
"H$	c #086D84",
"I$	c #20798E",
"J$	c #B5D2D9",
"K$	c #D6DDE1",
"L$	c #207386",
"M$	c #137389",
"N$	c #16768B",
"O$	c #18768B",
"P$	c #177287",
"Q$	c #19788D",
"R$	c #17778B",
"S$	c #157186",
"T$	c #AD5F26",
"U$	c #B36124",
"V$	c #B76122",
"W$	c #B36022",
"X$	c #0E5E72",
"Y$	c #036981",
"Z$	c #046A81",
"`$	c #056A82",
" %	c #157489",
".%	c #609DAC",
"+%	c #EBF2F4",
"@%	c #DEE5E6",
"#%	c #267689",
"$%	c #0F7188",
"%%	c #107287",
"&%	c #127389",
"*%	c #126C82",
"=%	c #136D82",
"-%	c #14758A",
";%	c #127489",
">%	c #0E687E",
",%	c #B46124",
"'%	c #B76223",
")%	c #BB6322",
"!%	c #B45F22",
"~%	c #0F5E72",
"{%	c #00677F",
"]%	c #117188",
"^%	c #287F93",
"/%	c #5D9DAB",
"(%	c #C7D6DB",
"_%	c #2B798B",
":%	c #086D83",
"<%	c #106A80",
"[%	c #127187",
"}%	c #B46023",
"|%	c #B56124",
"1%	c #B46224",
"2%	c #B66224",
"3%	c #B56223",
"4%	c #84ABB6",
"5%	c #6EA7B5",
"6%	c #6AA5B3",
"7%	c #7CAFBC",
"8%	c #A4C7D0",
"9%	c #DFEAED",
"0%	c #A0BDC5",
"a%	c #227588",
"b%	c #0A6E84",
"c%	c #0B6E85",
"d%	c #0B6E84",
"e%	c #0C6A81",
"f%	c #0F6E83",
"g%	c #086B82",
"h%	c #06657C",
"i%	c #DBE1E4",
"j%	c #6097A5",
"k%	c #0C697F",
"l%	c #0B6F86",
"m%	c #066B83",
"n%	c #04667E",
"o%	c #026177",
"p%	c #DDE3E5",
"q%	c #6E9CA9",
"r%	c #1E758A",
"s%	c #01677E",
"t%	c #04677F",
"u%	c #086980",
"v%	c #026880",
"w%	c #02687F",
"x%	c #02637B",
"y%	c #B3C8CD",
"z%	c #2E7789",
"A%	c #05677F",
"B%	c #02677F",
"C%	c #05657C",
"D%	c #066A82",
"E%	c #046881",
"F%	c #5F97A5",
"G%	c #00667F",
"H%	c #036980",
"I%	c #01657D",
"J%	c #015D75",
"K%	c #F7F9F9",
"L%	c #78A1AD",
"M%	c #006881",
"N%	c #036880",
"O%	c #177389",
"P%	c #8DB5C0",
"Q%	c #147288",
"R%	c #02647C",
"S%	c #015E75",
"T%	c #025B72",
"U%	c #4B7D8B",
"V%	c #448D9E",
"W%	c #B7D0D7",
"X%	c #4B92A3",
"Y%	c #026780",
"Z%	c #02576C",
"`%	c #02657E",
" &	c #68A2B0",
".&	c #77ACB9",
"+&	c #65A2B1",
"@&	c #609FAE",
"#&	c #63A1B0",
"$&	c #67A3B1",
"%&	c #428798",
"&&	c #0E6B82",
"*&	c #085A6F",
"=&	c #68A1AF",
"-&	c #EEEFF0",
";&	c #A9C1C8",
">&	c #5F96A4",
",&	c #2E7C90",
"'&	c #0A6B81",
")&	c #07596E",
"!&	c #025F76",
"~&	c #317F93",
"{&	c #5A94A2",
"]&	c #3F8394",
"^&	c #1E7488",
"/&	c #117187",
"(&	c #046880",
"_&	c #01667E",
":&	c #02627A",
"<&	c #05596E",
"[&	c #05586D",
"}&	c #04576D",
"|&	c #04576C",
"1&	c #02667E",
"2&	c #01566B",
"                                                                                                                                ",
"                                                                                                                                ",
"                                                                                                                                ",
"                                                                                                                                ",
"                                                                                                                                ",
"                                                                                                                                ",
"                                                                                                                                ",
"                                                                                                                                ",
"                      . + @ # $ % & * = - -                                                                                     ",
"            ; > , ' ) ! ~ { ] ^ ^ / / ( _ : < [ } | 1 2 3 4 5                                                                   ",
"            6 7 8 9 0 a b c d e f g h i j k l m n o p q r s t u v w x y                                                         ",
"          z A a B C D E F G H I J I K K K K K K K K K K K I L M N O P Q R S T                                                   ",
"          U V W X Y Z Z Z Z Z Z `  . .Z Z Z Z Z Z Z Z Z Z ..Z Z Z Z Z +.@.#.$.%.&.                                              ",
"          *.=.Z Z -.;.>.,.'.).!.~.{.].^./.(._.:.<.[.}.|.Z Z Z Z Z ....Z Z Z 1.2.3.4.                                            ",
"          5.6.7.8.9.0.a.b.c.d.e.f.g.h.h.i.j.k.l.m.n.o.p.q.r.s.t.Z Z Z ....Z Z Z u.v.D w.                                        ",
"          x.y.z.A.B.B 8 C.D.E.] F.G.R H.I.J.K.L.M.N.O.P.Q.R.S.s T.U.V.Z Z ..Z ..Z Z M v.W.X.                                    ",
"          Y.Z.`.a 8  +.+++@+#+$+] %+&+*+H. +=+Z L -+H ;+>+,+'+)+!+~+{+]+^+Z Z ..Z Z Z ../+(+_+                                  ",
"          :+<+[+a 7 8 }+|+1+~ #+$+_ G.&+2+ +3+Z Z Z Z 4+5+6+7+)+I.H.R 8+9+0+J Z Z ......Z Z a+b+c+                              ",
"          d+e+`.b 7 f+g+h+|+1+i+#+$+_ ( G.j+k+Z Z Z ..Z l+m+n+o+$.p+q+X r+s+t+u+v+Z Z ......Z w+x+y+                            ",
"          z+A+c b B+7 8 C+C.++1+D+E+{ _ _ D.F+Z ..Z Z ..Z X G+H+I+J+Z Z u.K+L+' M+(.N+Z Z ....Z O+P+Q+                          ",
"          R+S+Z.T+b a U+ +C+V+1+1+D+W+{ ] X+Y+Z+Z ..Z ..Z Z Z Z Z Z Z Z Z Z `+ @.@+@@@#@Y Z Z ..Z Z $@%@                        ",
"          &@*@A+c `.B+7 8  +C+C.1+D+D+E.{ X+D+=@Z Z ..Z Z Z Z Z Z Z Z Z ..Z Z Z -@;@>@,@'@)@Z Z ..Z Z !@~@{@                    ",
"          ]@^@S+Z.c [+/@(@f+ +C+C.1+@+D+#+W+{ _ _@-.Z ....Z Z Z Z Z Z Z Z Z ..Z Z Z L :@<@[@}@|@Z Z Z Z 1@2@3@                  ",
"          4@5@6@S+Z.c `.a (@f+7@}+.+8@1+1+~ D+#+~ 9@0@....Z Z ..Z Z Z Z Z Z Z Z Z Z Z ..Z Z Z a@b@c@d@Z Z e@f@g@                ",
"          h@i@j@k@l@Z.c [+a 7 f+7@}+C+m@n@U+o@@+1+j+p@q@r@s@t@Z Z Z Z Z Z Z Z Z Z Z Z Z Z Z ..Z Z u@v@J w@-.x@y@z@              ",
"          A@B@C@j@D@l@Z.T+[+a 7 f+7@ +E@          F@G@H@I@J@K@L@M@N@Z Z Z Z ..Z Z Z Z Z Z Z Z Z ..Z Z Z O@P@Q@R@S@              ",
"          A@T@U@C@V@D@A+e+T+[+W@7 (@8 X@Y@Z@`@ #.#+#        @###$#%#&#*#=#Z Z Z Z Z Z Z Z Z Z Z Z Z Z Z -#;#>#,#'#)#            ",
"          !#~#{#U@C@V@k@A+e+T+[+b a 7 (@]#        ^#/#(#_#:#        Q+<#[#}#|#1#Z Z Z ..Z Z Z Z Z Z Z ..Z <@$@2#3#4#            ",
"          5#6#~#{#U@C@^@*@S+Z.c `.7#a a 7 8#9#          0#a#(#a#b#        c#d#e#f#|#g#Z Z Z ..Z Z Z Z Z Z Z  .Z Z h#i#          ",
"          j#k#l#~#{#U@m#^@*@S+l@Z.n#`.7#B b 7 o#            p#q#r#r#s#t#        u#v#_+w#x#y#H ..Z Z Z ..Z Z Z ..Z z#A#          ",
"          B#C#D#l#~#{#U@m#E#6@k@F#G#Z.H#I#`.b 6 b J#K#          0#a#r#r#L#M#          N#i#O#P#Q#R#S#Z Z Z Z Z Z Z T#U#          ",
"          V#W#X#D#l#~#Y#Z#`# $j@.$E#+$@$B.c c I#`.[+A #$$$          s#a#r#r#%$s#&$          *$=$-$;$>$,$'$Z Z )$!$~${$          ",
"          ]$^$W#X#D#6#/$(${#U@_$:$<$[$}$*@F#A+A+Z.Z.e+c T+|$1$2$        3$r#4$r#5$a#6$            7$8$9$0$a$b$c$d$e$f$          ",
"          g$h$i$W#X#j$k$l$m$/$n$o$p$q$i@^@6@*@r$s$s$S+S+S+s$s$t$u$v$      s#r#r#(#w$r#%$L#x$          y$z$z$A$i#B$C$            ",
"          D${$E$i$F$G$j$D#H$I$J$K$L$M$`#i@N$O$P$^@^@Q$6@Q$^@j@E#R$N$S$      M#L#r#3$T$U$a#r#%$%$V$W$                            ",
"          X$e$Y$Z$`$i$X# %.%+%@%#%$%%%{#&%M$*%  =%`#m#m#`#`#`#-%U@Z#;%Y#>%      L#L#L#`@    ,%'%r#L#)%a#`@&$!%                  ",
"          ~%i#A${%]%^%/%2#Z (%_%:%k$l#/$~#d$      <%[%M$&%&%{#T@($%%~#/$l$N#      /#a#)%3$}%          |%1%2%2%2%3%              ",
"          4%5%6%7%8%9%Z Z 0%a%U#H$b%c%d%e%            f%~#~#/$/$l#l#k$D#j$C#g%h%      /#3$a#3$V$                                ",
"          Z Z Z Z Z Z i%j%d${%^$F$W#~$                  k%d%l%D#j$c%:%H$H$W#m%i$n%o%        0#'%`@`@,%&$                        ",
"          ..Z Z Z p%q%r%s%A#Y$h$t%                          u%H$H$i$q$v%^$i$E$h$Y$w%x%                                          ",
"          ....y%z%A%Y$U#e${$B%                                C%D%^$E%F%G%Y$H%{$v%e${$I%J%                                      ",
"          K%L%3@M%{$v%{$U#I%                                      N%{$O%P%Q%U#U#U#{$v%{${$e$R%S%T%                              ",
"          U%y${$v%{${$v%I%                                          I%e$V%W%X%[%A$A$i#i#B${%e${$e$Y%                            ",
"          Z%e$v%{$v%e$`%                                              I%{$ &Z+k+.&+&@&#&$&%&&&U#v%I%                            ",
"          *&e${${${$B%                                                  i#Y$=&Z Z Z -&;&>&,&'&U#f$                              ",
"          )&e${$v%e$R%                                                  !&{%`$~&{&]&^&/&(&A#_&                                  ",
"          )&e${${$B%                                                      :&U#{${${$e$U#I%                                      ",
"          <&e$v%{$I%                                                        :&f$R%x%                                            ",
"          [&e${$v%                                                                                                              ",
"          }&e${$B%                                                                                                              ",
"          |&e$v%                                                                                                                ",
"          |&e$1&                                                                                                                ",
"          2&v%                                                                                                                  ",
"                                                                                                                                ",
"                                                                                                                                ",
"                                                                                                                                ",
"                                                                                                                                ",
"                                                                                                                                ",
"                                                                                                                                ",
"                                                                                                                                ",
"                                                                                                                                ",
"                                                                                                                                ",
"                                                                                                                                ",
"                                                                                                                                "};
