/* XPM */
static char *komodo16_edit[] = {
/* columns rows colors chars-per-pixel */
"16 16 145 2 ",
"   c black",
".  c #000001",
"X  c #010203",
"o  c #020505",
"O  c #070F12",
"+  c #0A1214",
"@  c #081316",
"#  c #0E191D",
"$  c #0E1A1D",
"%  c #0C1F25",
"&  c #101E23",
"*  c #182A2F",
"=  c #112B32",
"-  c #142B31",
";  c #153038",
":  c #1D353A",
">  c #153941",
",  c #19424C",
"<  c #1D4953",
"1  c #214952",
"2  c #295C68",
"3  c #366A76",
"4  c #3C6B74",
"5  c #356F7F",
"6  c #37707F",
"7  c #3A707E",
"8  c #3C717F",
"9  c #3C737F",
"0  c #465E63",
"q  c #4A6065",
"w  c #4E6166",
"e  c #406169",
"r  c #43666F",
"t  c #49666E",
"y  c #486C74",
"u  c #436F7B",
"i  c #516B70",
"p  c #516F77",
"a  c #377483",
"s  c #397280",
"d  c #3D7C8B",
"f  c #437C89",
"g  c #417D8B",
"h  c #457C89",
"j  c #547C87",
"k  c #4E818F",
"l  c #4F838F",
"z  c #57818D",
"x  c #438394",
"c  c #4B8492",
"v  c #4A8595",
"b  c #5A8792",
"n  c #598C97",
"m  c #668086",
"M  c #6A858C",
"N  c #6B868C",
"B  c #6B888F",
"V  c #668790",
"C  c #678F97",
"Z  c #628D98",
"A  c #628F9B",
"S  c #64929C",
"D  c #6D959E",
"F  c #79969E",
"G  c #5E92A1",
"H  c #6996A0",
"J  c #6D98A2",
"K  c #6F9DA8",
"L  c #709CA6",
"P  c #7898A2",
"I  c #7B9CA4",
"U  c #7C9FA8",
"Y  c #77A0A9",
"T  c #77A2AC",
"R  c #76A4AF",
"E  c #7FA6B1",
"W  c #9EA59E",
"Q  c #869FA5",
"!  c #86A0A7",
"~  c #81A4AD",
"^  c #84A5AD",
"/  c #8FA8AD",
"(  c #92A1A5",
")  c #9CA9AC",
"_  c #80A8B1",
"`  c #86A8B1",
"'  c #81ABB5",
"]  c #85ACB5",
"[  c #87ACB6",
"{  c #8BA9B1",
"}  c #8BAEB7",
"|  c #8BAFB7",
" . c #90AFB7",
".. c #97AEB5",
"X. c #8BB0B8",
"o. c #8DB2BA",
"O. c #8EB4BD",
"+. c #93B0B7",
"@. c #97B1B6",
"#. c #96B0B7",
"$. c #9EB3B7",
"%. c #97B2B9",
"&. c #96B3B9",
"*. c #A2B5B9",
"=. c #A1B8BE",
"-. c #B0B9BB",
";. c #B5C0B8",
":. c #A0BBC1",
">. c #A4BBC0",
",. c #A3BDC3",
"<. c #A7BEC4",
"1. c #B0BEC1",
"2. c #B1BEC2",
"3. c #ACC0C4",
"4. c #ABC1C8",
"5. c #ADC4CA",
"6. c #ABC6CC",
"7. c #ADC6CC",
"8. c #B0C0C5",
"9. c #B6C5C9",
"0. c #B6C6C8",
"q. c #B5C7CC",
"w. c #BCC6C8",
"e. c #BFC7CB",
"r. c #B9CACE",
"t. c #BDC9CD",
"y. c #C7CDCF",
"u. c #C5CFD2",
"i. c #C5D2D5",
"p. c #CBD3D5",
"a. c #C8D3D6",
"s. c #C5D4D8",
"d. c #C7D7DA",
"f. c #CCD7D9",
"g. c #D1D5D6",
"h. c #D1DBDC",
"j. c #DCDDDD",
"k. c #E4E7E8",
"l. c #EBEDEE",
"z. c #ECEDED",
"x. c #F0F2F3",
"c. c gray96",
"v. c #F8F8F8",
"b. c gray99",
"n. c None",
/* pixels */
"n.n.n.n.n.n.n.n.n.n.n.n.n.n.n.n.",
"n.n.n.n.n.n.n.n.n.n.n.n.n.n.n.n.",
"n.f K _ } _ _ K n n.n.n.n.n.n.n.",
"n.Y j.p.:.%.%.:.0.6.X.n.n.n.n.n.",
"n.:.9.i j ( &.+.I P ..0.J n.n.n.",
"n.r.y.g.p.<.*.0.<.6.E } t.U n.n.",
"1 f.w.B t p *.F B W -.o.X.i.V n.",
"< o.e e l G h.! C C j M S Y 2.n.",
", Y z x c c i.y.4 s 8 6 3 6 } = ",
"> f.z.~ d f c ( -.C 8 8 8 6 ~ = ",
"n.6.c.c.%.s f 3.: 0 / &.D b ..= ",
"n.O.v.v.v.x.i.y X X $ 0 <.x.#.O ",
"n.J v.k.) w * X n.n.n.X + * $ n.",
"n.2 f % + X X n.n.n.n.n.n.n.n.n.",
"n.n.X X n.n.n.n.n.n.n.n.n.n.n.n.",
"n.n.n.n.n.n.n.n.n.n.n.n.n.n.n.n."
};
