/* XPM */ 
static const unsigned char * komodoedit5_icon_32x32x32b_xpm[] = {
"32 32 213 2",
"  	c None",
"! 	c black",
"# 	c #D2D2D2",
"$ 	c #C0C0C0",
"% 	c #AAAAAA",
"& 	c #919191",
"' 	c #787878",
"( 	c #626262",
") 	c #585858",
"* 	c #616161",
"+ 	c #686868",
", 	c #727272",
"- 	c #868686",
". 	c #A1A1A1",
"0 	c #BABABA",
"1 	c #C8C8C8",
"2 	c #BFBFBF",
"3 	c #A3A3A3",
"4 	c #757575",
"5 	c #4A4A4A",
"6 	c #212121",
"7 	c #2D2D2D",
"8 	c #575757",
"9 	c #858585",
": 	c #8A8A8A",
"; 	c #828282",
"< 	c #6F6F6F",
"= 	c #373737",
"> 	c #282828",
"? 	c #393939",
"@ 	c #9C9C9C",
"A 	c #D4D4D4",
"B 	c #717171",
"C 	c #3F3F3F",
"D 	c #6C6C6C",
"E 	c #CECECE",
"F 	c #F8F8F8",
"G 	c #F3F3F3",
"H 	c #D1D1D1",
"I 	c #B9B9B9",
"J 	c #9E9E9E",
"K 	c #C4C4C4",
"L 	c #F2F2F2",
"M 	c #E3E3E3",
"N 	c #BDBDBD",
"O 	c #525252",
"P 	c #636363",
"Q 	c #C6C6C6",
"R 	c #BBBBBB",
"S 	c #8C8C8C",
"T 	c #424242",
"U 	c #5B5B5B",
"V 	c #8B8B8B",
"W 	c #5E5E5E",
"X 	c #2C2C2C",
"Y 	c #090909",
"Z 	c #040404",
"[ 	c #0B0B0B",
"] 	c #111111",
"^ 	c #121212",
"_ 	c #131313",
"` 	c #515151",
"a 	c #B8B8B8",
"b 	c #FEFEFE",
"c 	c white",
"d 	c #D5D5D5",
"e 	c #CBCBCB",
"f 	c #E2E2E2",
"g 	c #444444",
"h 	c #181818",
"i 	c #191919",
"j 	c #666666",
"k 	c #898989",
"l 	c #999999",
"m 	c #313131",
"n 	c #3A4146",
"o 	c #6D6F71",
"p 	c #E4E4E4",
"q 	c #1A1A1A",
"r 	c #9B9B9B",
"s 	c #9F9F9F",
"t 	c #2B2B2B",
"u 	c #151515",
"v 	c #A6A6A6",
"w 	c #DFDFDF",
"x 	c #FCFCFC",
"y 	c #AFAFAF",
"z 	c #010101",
"{ 	c #8F8F8F",
"| 	c #FDFDFD",
"} 	c #5E91B0",
"~ 	c #9AC9DB",
" !	c #769FB1",
"!!	c #6D7C84",
"#!	c #242424",
"$!	c #C5C5C5",
"%!	c #B5B5B5",
"&!	c #747474",
"'!	c #DEDEDE",
"(!	c #454545",
")!	c #0F0F0F",
"*!	c #8E8E8E",
"+!	c #A3BCCD",
",!	c #6AACC5",
"-!	c #68B2CB",
".!	c #76AFC7",
"0!	c #838689",
"1!	c #E0E0E0",
"2!	c #4B4B4B",
"3!	c #E8E8E8",
"4!	c #F1F1F1",
"5!	c #2E2E2E",
"6!	c #262626",
"7!	c #E6E6E6",
"8!	c #FBFBFB",
"9!	c #F7F7F8",
":!	c #E1E1E1",
";!	c #292929",
"<!	c #737373",
"=!	c #D3D3D3",
">!	c #494949",
"?!	c #3E3E3E",
"@!	c #F9F9F9",
"A!	c #252525",
"B!	c #080808",
"C!	c #FAFAFA",
"D!	c #141414",
"E!	c #B6B6B6",
"F!	c #161616",
"G!	c #A0A0A0",
"H!	c #F7F7F7",
"I!	c #F6F6F6",
"J!	c #A5A5A5",
"K!	c #050505",
"L!	c #5D5D5D",
"M!	c #D0D0D0",
"N!	c #DDDDDD",
"O!	c #3A3A3A",
"P!	c #2F2F2F",
"Q!	c #202020",
"R!	c #0D0D0D",
"S!	c #6D6D6D",
"T!	c #F0F0F0",
"U!	c #232323",
"V!	c #404040",
"W!	c #474747",
"X!	c #969696",
"Y!	c #DBDBDB",
"Z!	c #ECECEC",
"[!	c #272727",
"]!	c #979797",
"^!	c #4C4C4C",
"_!	c #0C0C0C",
"`!	c #3B3B3B",
"a!	c #C9C9C9",
"b!	c #EDEDED",
"c!	c #565656",
"d!	c #E9E9E9",
"e!	c #A9A9A9",
"f!	c #2A2A2A",
"g!	c #888888",
"h!	c #BEBEBE",
"i!	c #CDCDCD",
"j!	c #303030",
"k!	c #989898",
"l!	c #1F1F1F",
"m!	c #030303",
"n!	c #CACACA",
"o!	c #B3B3B3",
"p!	c #656565",
"q!	c #222222",
"r!	c #1E1E1E",
"s!	c #353535",
"t!	c #383838",
"u!	c #B7B7B7",
"v!	c #6E6E6E",
"w!	c #4F4F4F",
"x!	c #3C3C3C",
"y!	c #1D1D1D",
"z!	c #0A0A0A",
"{!	c #060606",
"|!	c #C2C2C2",
"}!	c #B2B2B2",
"~!	c #909090",
" #	c #B4B4B4",
"!#	c #B1B1B1",
"##	c #C3C3C3",
"$#	c #696969",
"%#	c #505050",
"&#	c #7B7B7B",
"'#	c #4E4E4E",
"(#	c #171717",
")#	c #333333",
"*#	c #B0B0B0",
"+#	c #414141",
",#	c #535353",
"-#	c #949494",
".#	c #AEAEAE",
"0#	c #D7D7D7",
"1#	c #545454",
"2#	c #363636",
"3#	c #A2A2A2",
"4#	c #939393",
"5#	c #ADADAD",
"6#	c #595959",
"7#	c #ABABAB",
"8#	c #959595",
"9#	c #CCCCCC",
":#	c #A7A7A7",
";#	c #9D9D9D",
"<#	c #555555",
"=#	c #848484",
">#	c #A4A4A4",
"                                                                ",
"                                                                ",
"                                                                ",
"                                                                ",
"                                                                ",
"                                                                ",
"                                                                ",
"        # $ % & ' ( ) * + , - . 0 1 2                           ",
"        3 4 5 6 7 8 4 9 : ; < ) = > ? ( @ #                     ",
"      A B C D E F G H I % J % K L M N & O > P Q                 ",
"    R S T U V W X Y Z [ ] ^ Z _ _ ` a b c d ; 6 W e             ",
"    f O g 7 h i = j k l 3 m m % l + n o I c b p < q r           ",
"    s t u ` v w x c c c y z { c c | } ~  !!!p c b 0 #!P $!      ",
"  %!5 &!'!b b b b b b | (!)!*!b b b +!,!-!.!0!R b b 1!? 2!0     ",
"  p 3!| x x x x x x x 4!m 5!6!7!x x x 8!9!x x :!1!x x f ;!<!    ",
"  =!>!?!B '!@!@!@!@!@!G 6!A!B!6 $ C!@!@!@!@!@!@!@!@!@!@!. D!=!  ",
"  E!5!A!F!i G!H!I!I!I!I!J!t u B!K!L!M!H!I!I!I!I!I!I!I!I!N!q R   ",
"  v O!P!Q!u R!S!T!G G G G w &!U!V!A!q W!X!Y!G G G G G G Z![!r   ",
"  ]!^!C 5!Q!u _!`!a!4!T!b!r R!c!d!e!9 * f!_ ;!L!g!J!h!i!e j!k!  ",
"  *!W O ?!7 l!_ [ Y ? ` U!m!X n!$ % o!E!%!k!p!q!_ r!m s!t!5!u!  ",
"  g!v!j w!x!t y!^ z!Z {!i c!|!}!~!~! #I I !#E!##v $#t A!;!T E   ",
"%#k &#&#P '#j!(#^ i )#B *#a!s S +#    ,#-#E!%!}!.#2 0#Q  #=!g!  ",
"1#~!W '#P!y!2#* S %!E R 3#4#V C             , 5#!#*#e!5#y }!    ",
"6#7#4 8#y 9#=!Q E!:#;#l 8#'                     <#r y 5#5#=#    ",
") >#N R o!% >#>#3#s k!D                               8         ",
"  J!3 >#J!J!v ]!v!?!                                            ",
"  ; @ V < 2!                                                    ",
"                                                                ",
"                                                                ",
"                                                                ",
"                                                                ",
"                                                                "};