/* XPM */
static char * komodoedit_orb_16_xpm[] = {
"16 16 195 2",
"  	c None",
". 	c #386875",
"+ 	c #779EA6",
"@ 	c #AECAD1",
"# 	c #AECBD2",
"$ 	c #6B919A",
"% 	c #698F97",
"& 	c #204752",
"* 	c #578995",
"= 	c #ADCAD1",
"- 	c #DDECEF",
"; 	c #E5F1F3",
"> 	c #E7F2F4",
", 	c #E9F3F6",
"' 	c #ACC9D0",
") 	c #467E8B",
"! 	c #1B4856",
"~ 	c #447480",
"{ 	c #71A6B2",
"] 	c #83B3BE",
"^ 	c #80B7C2",
"/ 	c #83B9C4",
"( 	c #90C1CB",
"_ 	c #89BDC8",
": 	c #89BCC6",
"< 	c #B2D2D9",
"[ 	c #B3D0D6",
"} 	c #669FAB",
"| 	c #32626F",
"1 	c #184553",
"2 	c #74A9B4",
"3 	c #62A2AF",
"4 	c #358C9E",
"5 	c #539EAD",
"6 	c #6CACB9",
"7 	c #74B1BD",
"8 	c #9DC8D1",
"9 	c #93C1CB",
"0 	c #92BFC9",
"a 	c #9DC5CE",
"b 	c #9EC6CE",
"c 	c #76AFBA",
"d 	c #4C8491",
"e 	c #64A3B1",
"f 	c #228094",
"g 	c #2F889B",
"h 	c #4294A4",
"i 	c #529DAC",
"j 	c #549EAD",
"k 	c #8FBEC8",
"l 	c #A0C7CF",
"m 	c #A4C9D2",
"n 	c #AED0D8",
"o 	c #A6CAD3",
"p 	c #97C2CA",
"q 	c #518C98",
"r 	c #5D8993",
"s 	c #6CA4B0",
"t 	c #2E869A",
"u 	c #218094",
"v 	c #288497",
"w 	c #3E91A2",
"x 	c #5DA1AF",
"y 	c #7BB2BE",
"z 	c #E2EFF3",
"A 	c #A0C7D0",
"B 	c #B1D1D9",
"C 	c #CBE2E7",
"D 	c #9EC5CE",
"E 	c #76ADB7",
"F 	c #76A4AE",
"G 	c #71ACB8",
"H 	c #14778D",
"I 	c #1E7E93",
"J 	c #248195",
"K 	c #268397",
"L 	c #268296",
"M 	c #91C0CA",
"N 	c #398C9E",
"O 	c #C7DFE4",
"P 	c #EBF6F9",
"Q 	c #A6CCD5",
"R 	c #8FBEC9",
"S 	c #96C2CA",
"T 	c #6D9EA8",
"U 	c #80AFB8",
"V 	c #8BBEC9",
"W 	c #097088",
"X 	c #14788E",
"Y 	c #1C7D91",
"Z 	c #1F7F93",
"` 	c #298497",
" .	c #D4E6EB",
"..	c #BFDAE0",
"+.	c #C1DAE0",
"@.	c #FDFFFF",
"#.	c #E6F4F8",
"$.	c #91BEC9",
"%.	c #BBDAE1",
"&.	c #8AB9C4",
"*.	c #71A1AC",
"=.	c #82B1BA",
"-.	c #BBDCE3",
";.	c #1E7C92",
">.	c #066E86",
",.	c #10758C",
"'.	c #1E7D92",
").	c #268094",
"!.	c #81B4C0",
"~.	c #F3FBFC",
"{.	c #E1F0F4",
"].	c #E1F2F5",
"^.	c #FFFFFF",
"/.	c #B2D4DC",
"(.	c #75AEBB",
"_.	c #73A1AB",
":.	c #72A1AB",
"<.	c #C7E6EB",
"[.	c #8EC0CB",
"}.	c #016881",
"|.	c #056E86",
"1.	c #097188",
"2.	c #1E7D93",
"3.	c #34869A",
"4.	c #C9DFE5",
"5.	c #DCEDF2",
"6.	c #D7EBEF",
"7.	c #F7FFFF",
"8.	c #6EAAB8",
"9.	c #81B8C3",
"0.	c #64939C",
"a.	c #A7D0D8",
"b.	c #66A7B6",
"c.	c #006680",
"d.	c #006A83",
"e.	c #016C85",
"f.	c #006982",
"g.	c #38899D",
"h.	c #68A5B3",
"i.	c #C5DCE2",
"j.	c #E4F2F6",
"k.	c #E5F3F7",
"l.	c #A1C9D3",
"m.	c #549DAE",
"n.	c #8CBDC6",
"o.	c #669BA6",
"p.	c #7CBBC9",
"q.	c #15738A",
"r.	c #1A7990",
"s.	c #056D85",
"t.	c #006B83",
"u.	c #006881",
"v.	c #5096A8",
"w.	c #BED8DF",
"x.	c #C6DFE5",
"y.	c #6FA9B7",
"z.	c #17768D",
"A.	c #AAD8E0",
"B.	c #548A95",
"C.	c #95C6CE",
"D.	c #C9E7ED",
"E.	c #7CB0BD",
"F.	c #6CA7B6",
"G.	c #14768D",
"H.	c #00657F",
"I.	c #00657E",
"J.	c #00647E",
"K.	c #00647D",
"L.	c #107189",
"M.	c #9FD1DB",
"N.	c #91C2CB",
"O.	c #93C6D0",
"P.	c #C7E8EF",
"Q.	c #E1F2F6",
"R.	c #B5D6DE",
"S.	c #3A8B9E",
"T.	c #1D798F",
"U.	c #35889C",
"V.	c #77B3C1",
"W.	c #C7EDF4",
"X.	c #92C2CA",
"Y.	c #5D8A92",
"Z.	c #ADD2D8",
"`.	c #E5FAFE",
" +	c #F0FFFF",
".+	c #E5F8FC",
"++	c #DFF7FB",
"@+	c #B7DAE0",
"#+	c #57878F",
"$+	c #0A2E35",
"%+	c #305A61",
"&+	c #4E7980",
"*+	c #547B82",
"=+	c #2F585F",
"-+	c #072B32",
"          . + @ # $ %           ",
"      & * = - ; > , ' ) !       ",
"    ~ { ] ^ / ( _ : < [ } |     ",
"  1 2 3 4 5 6 7 8 9 0 a b c     ",
"  d e f g h i j k l m n o p q   ",
"r s t u v g w x y z A B C D E   ",
"F G H I J K L M N O P o Q R S T ",
"U V W X Y Z `  ...+.@.#.$.%.&.*.",
"=.-.;.>.,.X '.).!.~.{.].^./.(._.",
":.<.[.}.|.1.W 2.3.4.5.6.7.8.9.0.",
"  a.b.c.d.e.f.g.h.i.j.k.l.m.n.  ",
"  o.p.q.r.s.t.u.v.w.x.y.z.A.B.  ",
"    C.D.E.F.G.H.I.J.K.L.M.N.    ",
"      O.P.Q.R.S.T.U.V.W.X.      ",
"        Y.Z.`. +.+++@+#+        ",
"          $+%+&+*+=+-+          "};
