/* XPM */
static char *komodo128_edit[] = {
/* columns rows colors chars-per-pixel */
"128 128 47 1 ",
"  c #848687",
". c #868789",
"X c #86888B",
"o c #898B8D",
"O c #8C8E91",
"+ c #8E9093",
"@ c #919395",
"# c #959799",
"$ c #97999B",
"% c #999B9E",
"& c #9C9EA1",
"* c #9FA0A3",
"= c #A1A3A5",
"- c #A5A6A9",
"; c #A7A9AB",
": c #AAACAE",
"> c #ACAEB1",
", c #AEB0B3",
"< c #B1B3B6",
"1 c #B4B6B8",
"2 c #B7B8BB",
"3 c #BABBBE",
"4 c #BCBEC0",
"5 c #BFC0C2",
"6 c #C2C3C5",
"7 c #C6C7C8",
"8 c #C7C8CA",
"9 c #CACCCD",
"0 c #CECFD0",
"q c #CFD0D1",
"w c #D3D3D5",
"e c #D6D7D8",
"r c #D7D8D9",
"t c #DBDCDD",
"y c #DEDFE0",
"u c #DFE0E1",
"i c #E3E3E4",
"p c #E7E7E8",
"a c #E7E8E8",
"s c #EBEBEC",
"d c #EFEFF0",
"f c #EFF0F0",
"g c #F3F4F4",
"h c #F7F7F8",
"j c #F7F8F8",
"k c #FFFFFF",
"l c None",
/* pixels */
"llllllllllllllllllllllllllllllllllllllllllllllllllllllllllllllllllllllllllllllllllllllllllllllllllllllllllllllllllllllllllllllll",
"llllllllllllllllllllllllllllllllllllllllllllllllllllllllllllllllllllllllllllllllllllllllllllllllllllllllllllllllllllllllllllllll",
"lllllllllllllllllllllllllllllllllllllllllllllllllllllllllllllll44lllllllllllllllllllllllllllllllllllllllllllllllllllllllllllllll",
"lllllllllllllllllllllllllllllllllllllllllllllllllllllllllllll444444lllllllllllllllllllllllllllllllllllllllllllllllllllllllllllll",
"llllllllllllllllllllllllllllllllllllllllllllllllllllllllllll44444444llllllllllllllllllllllllllllllllllllllllllllllllllllllllllll",
"llllllllllllllllllllllllllllllllllllllllllllllllllllllllll444444444444llllllllllllllllllllllllllllllllllllllllllllllllllllllllll",
"llllllllllllllllllllllllllllllllllllllllllllllllllllllll4444444444444444llllllllllllllllllllllllllllllllllllllllllllllllllllllll",
"lllllllllllllllllllllllllllllllllllllllllllllllllllllll444444444444444444lllllllllllllllllllllllllllllllllllllllllllllllllllllll",
"lllllllllllllllllllllllllllllllllllllllllllllllllllll4444444444444444444444lllllllllllllllllllllllllllllllllllllllllllllllllllll",
"lllllllllllllllllllllllllllllllllllllllllllllllllll44444444444444444444444444lllllllllllllllllllllllllllllllllllllllllllllllllll",
"llllllllllllllllllllllllllllllllllllllllllllllllll4444444444444444444444444444llllllllllllllllllllllllllllllllllllllllllllllllll",
"llllllllllllllllllllllllllllllllllllllllllllllll44444444444444444444444444444444llllllllllllllllllllllllllllllllllllllllllllllll",
"llllllllllllllllllllllllllllllllllllllllllllll444444444444444444444444444444444444llllllllllllllllllllllllllllllllllllllllllllll",
"lllllllllllllllllllllllllllllllllllllllllllll44444444444444444444444444444444444444lllllllllllllllllllllllllllllllllllllllllllll",
"lllllllllllllllllllllllllllllllllllllllllll444444444444444444444444444444444444444444lllllllllllllllllllllllllllllllllllllllllll",
"lllllllllllllllllllllllllllllllllllllllll4444444444444444444444444444444444444444444444lllllllllllllllllllllllllllllllllllllllll",
"llllllllllllllllllllllllllllllllllllllll444444444444444445353553444444444444444444444255llllllllllllllllllllllllllllllllllllllll",
"llllllllllllllllllllllllllllllllllllll4444444444444444444353553544444444444444444444444444llllllllllllllllllllllllllllllllllllll",
"llllllllllllllllllllllllllllllllllll44444444444444444444443535534444444444444444444444444444llllllllllllllllllllllllllllllllllll",
"lllllllllllllllllllllllllllllllllll4444444444444444444444453533544444444444544444444444444444lllllllllllllllllllllllllllllllllll",
"lllllllllllllllllllllllllllllllll44444444444444444444444444453534444444453535535444444444444444lllllllllllllllllllllllllllllllll",
"lllllllllllllllllllllllllllllll444444444444444444444444444443535444444443535335344444444444444444lllllllllllllllllllllllllllllll",
"llllllllllllllllllllllllllllll44444444444444444444444444444453534444444453535335444444444444444444llllllllllllllllllllllllllllll",
"llllllllllllllllllllllllllll444444444444444444444444444444533533444444443535355344444444444444444444llllllllllllllllllllllllllll",
"llllllllllllllllllllllllll44444444444444444453534454459rifhjkkkkkhiiw933535335354444444444444444444444llllllllllllllllllllllllll",
"lllllllllllllllllllllllll44444444444444444453535445qpjkkkkkkkkkkkkkkkkjsw535535344444444444444444444444lllllllllllllllllllllllll",
"lllllllllllllllllllllll44444444444444444445353335ujkkkkkkkkjkkkkkkkkkkkkkki635534444444444444444444444444lllllllllllllllllllllll",
"lllllllllllllllllllll44444444444444444444435356ikkkkkkkhar95<>:<<59tfjkkkkkka733444444444444444444444444444lllllllllllllllllllll",
"llllllllllllllllllll4444444444444444444444443ejkkkkkdw2=**===&*===&=*-5tjkkkkki64444444444444444444444444444llllllllllllllllllll",
"llllllllllllllllll44444444444444444444444455akkkkkt5=**=**=**==**===****=6fkkkkkr54444444444444444444444444444llllllllllllllllll",
"llllllllllllllll444444444444444444444444459hkkkki<=*&==**-:><123331<,>-*===7hkkkkhq54444444444444444444444444444llllllllllllllll",
"lllllllllllllll444444444444444444444444449jkkkf5=***==-<235559wrtttitrq93:=&-ikkkkki55444444444444444444444444444lllllllllllllll",
"llllllllllllll444444444444444444444444440kkkku>==*==>3536rshkkkkkkkkkkkkkjse3=<wjkkkk94344444444444444444444444444llllllllllllll",
"llllllllllllll44444444444444444444444440kkkkw==*==:335wfkkkkkkkkkkkkkkkkkkkkkj6==9hkkki344444444444444444444444444llllllllllllll",
"llllllllllllll3444444442424442244144437hkkk9=***-234tjkkkkkkkkkkkkkkkkkkkkkkkkks:==9hkks64433434343443433434434334llllllllllllll",
"llllllllllllll434244424444444444444445hkkk0***=:349hkkkkkkkkkkkkkkkkkkkkkkkkkkkkj6=&:tkkh6344343434334344344343444llllllllllllll",
"llllllllllllll34444224424444444444444pkkkt==*=<34ukkkkkkkkkkkkkkkkkkki6<,6hkkkkkkkw,==3hkh934344443444344343433434llllllllllllll",
"llllllllllllll4324444444424242444444rhkks=&=*<35skkkkkkkkkkkkkkkkkkkw*=%*=2kkkkkkkkr3>*-ikk93434334443434334344443llllllllllllll",
"llllllllllllll3344444244441444121245hkkk:=*%<35skkkkkkkkkkkkkkkkkkkkw=&**==kki5hkkkkt33:&9kh6333333343333433333333llllllllllllll",
"llllllllllllll332422442424442444444ikkk0*&=:33pkkkkkkkkkkkkkkkkkkkkkj:*-<<7kk5*=wkkkkw33<=6kk633333333333334333333llllllllllllll",
"llllllllllllll334334422423443433339kkkj=*&-33ekkkkkkkkkkkkkkkkkkkkkkks>333tkkw=%*5jkkk9333=6kh43333333333332333333llllllllllllll",
"llllllllllllll33233124424412323333skkk9&&*136kkkkkkkkkkkkkkkkkkkkkkkkka333akkj-=<=<hkkk9333:6ki3333332333333333133llllllllllllll",
"llllllllllllll33333344242433233339kkkk-*&>33ikkkkkkkkkkkkkkkkkkkkkkkkkks52rkkkt<31:<kkkk6233,ekw233333333333232333llllllllllllll",
"llllllllllllll3332332242423233233skkkt&&=236kkkkkkkkkkkkkkkkkkkkkkkkkkkkh93gkkk6333<skkkh3333<sk433232332232333323llllllllllllll",
"llllllllllllll3223221341114123236kkkk6%&:33tkkkkkkkkkkkkkkkkkkkkkkkspppsfhq6fkkj6232hkkkka32336ku32323323233132333llllllllllllll",
"llllllllllllll233323431324423232tkkkk:%*223hkkkkkkkkkkkkkkkkkkkkkr*&&&&%*=221skkh523wkkkkkt3213ik43322232313233222llllllllllllll",
"llllllllllllll223131121313123222hkkkk%%-225kkkkkkkkkkkkkkkkkkkkkki&&&&%&%**<2-ikks3323<39fk91319ku1122222313231322llllllllllllll",
"llllllllllllll221313133132222226kkkkf%&,220kkkkkkkkkkkkkkkkkkkkkkkt=&======*,<=qkka332=%%=rj6131hk<323223131223132llllllllllllll",
"llllllllllllll22212313122221222tkkkki%%<22ekkkkkkkkkkkkkkkkkkkkkkkkh63123131111=6kka31:&&%%6a333tk0<1414,411<4<422llllllllllllll",
"llllllllllllll22132212211222221akkkki%%322ykkkkkkkkkkkkkkkkkkskkkkkkk62231221321-<hks321<>:*>6110kh=11114<444<4121llllllllllllll",
"llllllllllllll22122213222222122kkkkki%=322ukkkkkkkkkkkkkkkkkk36kkkkkkt22122222212-:fks212231-&<34kk>,441<44<<14<22llllllllllllll",
"llllllllllllll11121111112111125kkkkka%=<11ukkkkkkkkkkkkkkkkkk2%tkkkkki,21111112111>-sks211112:=<3kk6-1111,1111<411llllllllllllll",
"llllllllllllll11111111121111129kkkkkf%=211ykkkkkkkkkkkkkkkkkk,%:jkkkki%<11111112111>-akd313<22,,3kkt&11111114<<<12llllllllllllll",
"llllllllllllll1111111111111111wkkkkkk%=<11ekkkkkkkkkkkkkkkkkk*%:wkkkkt%-111111111111,*pkf3<<1<2<4kks&,111111<,4,11llllllllllllll",
"llllllllllllll1<111111111<1111tkkkkkk:=1119kkkkkkkkkkkkkkkkkh%%:3kkkk9%=3694<1<1111111-dkh3<1<229kkh&;<,1111<4<<1<llllllllllllll",
"llllllllllllll11<111<111111<11ukkkkkk6*<116kkkkkkkkkkkkkkkkki%%><skkkwtfkks3111111<<11<;fkk6<2<1ikkw&&14<1<1,4<411llllllllllllll",
"llllllllllllll111<1<1<1111<111ukkkkkkt%<<<2kkkkkkkkkkkkkkkkk9$%<19kkkkkkh9<1<<<11<111<1<-hkk91<3kkk=%*<<1<11<11<1<llllllllllllll",
"llllllllllllll1<<1<1<1<<<<<<<1pkkkkkkk%><1<fkkkkkkkkkkkkkkkk<%%<<<tkkkkkh9<>:<1<<<<<<<<<<,kkkw6hkkt$$%1<<1<<<<<<<1llllllllllllll",
"llllllllllllll<<>1<<<<<<4<<<1,ikkkkkkk3-<<<tkkkkkkkkkkkkkkkk%%&<<<<3skkksks:*<<<<1<<1<<<<<3kkkkkkh=%%=<<<<<<<<1<<<llllllllllllll",
"llllllllllllll<<11,<<<<<,<<<<<ykkkkkkkt*<<19kkkkkkkkkkkkkkkt#%=<<<<:%6hks<4t4<<<<<<<<<<<<<>wkkkkk4%##<<<<<<<<<<<<<llllllllllllll",
"llllllllllllll<<,1<<<<<<,,,4>,tkkkkkkkk=,<,1kkkkkkkkkkkkkkk3%%:<<<<<=$%5sk6:<<<<,<<<,1,1<<<:ikkk7%##=<<<<<<<,1<,<<llllllllllllll",
"llllllllllllll,<1><,<,<,,,,,,,0kkkkkkkkw-<1,pkkkkkkkkkkkkkk%##<<<<,<<:%#%<t3&:<,<<<,<,<,,<<<<tt:$#$%<<<>,<<,,<,1<,llllllllllllll",
"llllllllllllll<<><><,<<<<<,>,,7kkkkkkkkk:,<<9kkkkkkkkkkkkki##*<<,<<,<><=%#%:-=><,<,,,<<<,<,<<*##$$$><,<,<<<,,1<,<<llllllllllllll",
"llllllllllllll,,,<<,,,,,,,,44:4hkkkkkkkkw>,,1kkkkkkkkkkkkk3-39q963,,<><<<=%%-,,,<,<<,,,,,,,,<<%###-<><,,><,<,>,,,,llllllllllllll",
"llllllllllllll<,,,,,,,,,,,,,,,,jkkkkkkkkk:<,,ukkkkkkkkkkkkhkkkkkkkki9,,,<,<;&-,,<<>,<><<><,,,,,&&-,,,,,,,,,,,,,,,,llllllllllllll",
"llllllllllllll>,,,,,,,,>,,,,,,,ukkkkkkkkki:,,5kkkkkkkkkkkkkkkkkkkkkkks<,,>>>,,,,>,><<>:<>,,>,>,,,,,,,,,,>,,,,,,>,,llllllllllllll",
"llllllllllllll,>,>,,,,,,,>,,,,,0kkkkkkkkkk3,,,dkkkkkkkkkkkkkkkkkkkkkkk0<><><,,,,<>,>:<<<,,,,,,,,,,,,,,,,,,,,,,,,,,llllllllllllll",
"llllllllllllll,>>>:,,:,>,>,>>,>1kkkkkkkkkkh,,>6kkkkkkkkkkkkkkkkkkkkkkke:>>>>>>>>>>>>,:::>>>>,,:,,,>,,,,-,>>>,>>,:,llllllllllllll",
"llllllllllllll>>,>>>>>>>>>>>>>>>ikkkkkkkkkkt,>>hkkkkkkkkkkkkkkkkkkkkkk9%>>>>>,>>>>>>>>>>>,,:,>,>>>>>>,>>>>>>>>>>>>llllllllllllll",
"llllllllllllll>>>>>>>>>>:>>>>>>>3kkkkkkkkkkk6:>0kkkkkkkkkkkkkkkkkkkkkk5#=>>>>>>>>>>>>>>>>:>>,::,>>>:,i:>>>>>>>>>>>llllllllllllll",
"llllllllllllll>,>::>>>>>>>>>>:>:>ykkkkkkkkkkk1>>hkkkkkkkkkkkkkkkkkkkkk,+&>>::>>>>>>>>:>>:>:::::>>>>>wj>>:>:>>>>:>>llllllllllllll",
"llllllllllllll>-:>>::>:::>:::>:>:>hkkkkkkkkkkf,:9kkkkkkkkkkkkkkkkkkkkk%#=1:>>:>::>::>:>:>:>>:,>:>:>2kf::>:>:>::>::llllllllllllll",
"llllllllllllll>>::>::>:>->>>>::::>1hkkkkkkkkkki::skkkkkkkkkkkkkkkkkkkp#:a,:::::::::::::::::>:>>:--,aky:$:::>:::::>llllllllllllll",
"llllllllllllll>->:::::,->:>->::>:::-tkkkkkkkkkke:5kkkkkkkkkkkkkkskkkk93k5:::::::::::::::::::->-:>>9kkw*#:::::>:>::llllllllllllll",
"llllllllllllll>>:-::-,->::::->:>::-:#=skkkkkkkkk9:ikkkkkkkkkkkk9+6kkkskt:::;::::::::::::::::>>:>->hkk6+#::::>:>>::llllllllllllll",
"llllllllllllll->::::>-,->-:>>-:-::::=#6kkkkkkkkkk6<kkkkkkkkkkkk6#$kkkkk<6739<::::;::::::::>->-:::wkkk=+%:-::->--::llllllllllllll",
"llllllllllllll:-->-:--:--::-:::::-:,9skkkkkkkkkkkk69kkkkkkkkkkktO+ikkkkkkkkw:::-:-:::-::-::-::--2kkkh++*:--:-:->-:llllllllllllll",
"llllllllllllll:::-::->->:--:----:6ikkkkkkkkkkkkkkkk5skkkkkkkkkkk#%rkkkkki5:::--:;:;;::-::-::-::>fkkkwO+=-:>->-:-:-llllllllllllll",
"llllllllllllll-:--:->--::::-:--9hkkkkkkkkkkkkkkkkkkk9kkkkkkkkkkk9%9kkkkf3=*&&*-::--:--------:--tkkkk,++-::->->->-:llllllllllllll",
"llllllllllllll-:-:---:-----:-,ikkkkkkkkkkkkkkkkkkkkkkhkkkkkkkkkkk-:kkkkkkf:o#%---:-;-::-::-:--9kkkkh+++-----------llllllllllllll",
"llllllllllllll-------::--:--,hkkkkkkkkkkkkkkkkkkkkkkkkkkkkkkkkkkka-:<390ww6&-:--:--:-:--:--:-6kkkkk9+O$---:-:---:-llllllllllllll",
"llllllllllllll------------:-ukkkkkkkkkkkkkkkkkstkkkkkkkkkkkkkkkkkki:&OOoo#%=----------------6kkkkkk#OO*-:---------llllllllllllll",
"llllllllllllll-:------------kkkkkkkkkkkkkkkkkkyO6kkkkkkkkkkkkkkkkkki:oo#ooo#=--------------6kkkkkk6+O+------------llllllllllllll",
"llllllllllllll--------------kkkkkkkkkkkkkkkkkkk%oqkkkkkkkkkkkkkkkkkkh2%%%##$%-------------tkkkkkkd+OO$------------llllllllllllll",
"llllllllllllll----=---------ekkkkkkkkkkkkkkkkkkt##wkkkkkkkkkkkkkkkkkkkw:--=-----=------=3skkkkkkk:ooO------*------llllllllllllll",
"llllllllllllll==---=--*------fkkkkkkkkkkkkkkkkkk<=%ikkkkkkkkkkkkkkkkkkkjw,-====---==--<ukkkkkkkk9ooo#-*--------*--llllllllllllll",
"llllllllllllll-=-**-*-*-*-**->pkkkkkkkkkkkkkkkkkh==&ikkkkkkkkkkkkkkkkkkkkks92-=====<9skkkkkkkkktooOO*--*-**--*--=-llllllllllllll",
"llllllllllllll==-*-=-*-*-*--==$5kkkkkkkkkkjhkkkkkw==$akkkkkkkkkkkkkkkkkkkkkkkkhsshkkkkkkkkkkkka+ooo&-*--*--**-**==llllllllllllll",
"llllllllllllll-==-**-**-=======O+2thkkkfw-o1kkkkki%==#ikkkkkkkkkkkkkkkkkkkkkkkkkkkkkkkkkkkkkka+Ooo#=====*-**-**-==llllllllllllll",
"llllllllllllll===**--*-*=======*+XXoO#oooo#hkkkkk2o===#ykkkkkkkkkkkkkkkkkkkkkkkkkkkkkkkkkkkkr+.oo#======-*-**--*==llllllllllllll",
"llllllllllllll*=*-*=*-*-*==*====*$oooXooo#akkkkkk+.#*=*+9kkkkkkkkkkkkkkkkkkkkkkkkkkkkkkkkkk6oo..+*=**=*=-*-*****=*llllllllllllll",
"llllllllllllll=*=*==****=*==&=*=***$+ooo+ikkkkkku..+=***+<jkkkkkkkkkkkkkkkkkkkkkkkkkkkkkks=oo.oO*=*==*=****=*-*-*=llllllllllllll",
"lllllllllllllll&**=**=*****=**=**=*==**-skjfkkkk2..$*****+%ikkkkkkkkkkkkkkkkkkkkkkkkkkkk6+o..O+********-*********lllllllllllllll",
"llllllllllllllll+*********************:sh9=skkkk+.o*=*****#o5jkkkkkkkkkkkkkkkkkkkkkkkkq$.o...#**-******&*=*=*=*+llllllllllllllll",
"llllllllllllllllll$****&&************,t3%*=kj9kt..O&*******#.+9jkkkkkkkkkkkkkkkkkkks4+.....o&***&********&&**$llllllllllllllllll",
"llllllllllllllllllll&*******&**&****=:=*=%,k<<k<..$***&**&***..+<ikkkkkkkkkkkkkki9&......o#&**&**&*&**&****&llllllllllllllllllll",
"lllllllllllllllllllllO&&*&&&&&*&&*&&*&*&&owr&3jo o&***&&*&**&&@...o-29ruuitr92-o........+&&&&&&&&*&&*&&*&&Olllllllllllllllllllll",
"lllllllllllllllllllllll$&*&&*&*&&&*&*&&%O$s=%:r# o%=&&&*&*&&&**$#o.......... .........#&&&*&**&&&&*&&*&&$lllllllllllllllllllllll",
"lllllllllllllllllllllllll&&&&&&&&&&&&&&$&:<&$:2#.#&%&*&&&&&&&**&%%#o..............o+$*&&&&&&&&&&&&&&&&&lllllllllllllllllllllllll",
"llllllllllllllllllllllllllO&&&&&&%&&&&&&&*&&+=*#.%%*%%*%&*$&&$&&&&%*%$+++O.+.o++$*%&&&%&&&&&&&&%&&&&&Ollllllllllllllllllllllllll",
"llllllllllllllllllllllllllll#&&%&&&&&&&&&%&%o&%$O&&&&*%&&&$&&&$&&%&%$*%&$&&$&&$&&&&%&&%&&&&&&%&&%&&#llllllllllllllllllllllllllll",
"llllllllllllllllllllllllllllll%%%&%%%&$%&%&$$%%##%%&%%&%&&&&$&&&%&&&*%&%*%%*&&&&%&&%&%%&%%%%&%%&%%llllllllllllllllllllllllllllll",
"lllllllllllllllllllllllllllllllo%%&%&$%&%&%%%%&$%%&%%%%&&$$&&$&&%&%%%&$*$*%&&$$&%&%&&%%&%&&%%&&&olllllllllllllllllllllllllllllll",
"lllllllllllllllllllllllllllllllll#$&$&&$%%%%%%%%%%%%%%%%&$&&$&$&%%%%%%&$&$&$&$&&%%%$%%%%%%%%%$#lllllllllllllllllllllllllllllllll",
"lllllllllllllllllllllllllllllllllll$&&$&&$&$&$&$%%%%$&$&$&$&&$&$%%%%$&$&$&$&$&&$%%&$&$&$%$&&#lllllllllllllllllllllllllllllllllll",
"llllllllllllllllllllllllllllllllllll.#&%$&$&$&$&%%%$%%&$&$&$$&$&%%%%&$&$*$&$&$$&&$$&$&$&%%$ollllllllllllllllllllllllllllllllllll",
"llllllllllllllllllllllllllllllllllllll#%&$$$&$%$%%%%%%%%$&$$&$$$%%$%&$$$$%$%$&$$$$%$$&$&%#llllllllllllllllllllllllllllllllllllll",
"llllllllllllllllllllllllllllllllllllllll#$&#&$$&$$%$%$$%$$$&$$&&$%%$$$&$&$%%$$$&$&$&$$$$llllllllllllllllllllllllllllllllllllllll",
"lllllllllllllllllllllllllllllllllllllllll.$&%$%$%$%%$%%$$$&$$$$$$%$&$%$%$%$%$$$$%$$$$$.lllllllllllllllllllllllllllllllllllllllll",
"lllllllllllllllllllllllllllllllllllllllllll+$$$$$$$$$$$$&$$$$$$$$$$$$$$$$$$$$$&$$$$&@lllllllllllllllllllllllllllllllllllllllllll",
"lllllllllllllllllllllllllllllllllllllllllllll$$$$$$$$$$$$$$$$$&$$$$$$%$$$$&$$$$$$$$lllllllllllllllllllllllllllllllllllllllllllll",
"llllllllllllllllllllllllllllllllllllllllllllll.$$%$$$$$%$$$$$$$$$$$$$$$$$$$$$$$$&.llllllllllllllllllllllllllllllllllllllllllllll",
"llllllllllllllllllllllllllllllllllllllllllllllll+#$$#$#$#$#$$#$#$$$$$$$$#$$$##$@llllllllllllllllllllllllllllllllllllllllllllllll",
"llllllllllllllllllllllllllllllllllllllllllllllllll#$$$$$$$$$$$$$$$$$#$#$#$$#$#llllllllllllllllllllllllllllllllllllllllllllllllll",
"lllllllllllllllllllllllllllllllllllllllllllllllllll.#$$#$#$$#$$$$$$$$$$$$$$$.lllllllllllllllllllllllllllllllllllllllllllllllllll",
"lllllllllllllllllllllllllllllllllllllllllllllllllllllO##########@$$$######+lllllllllllllllllllllllllllllllllllllllllllllllllllll",
"lllllllllllllllllllllllllllllllllllllllllllllllllllllll#########$#$@$$$##lllllllllllllllllllllllllllllllllllllllllllllllllllllll",
"llllllllllllllllllllllllllllllllllllllllllllllllllllllll.##$#####$$$$#$.llllllllllllllllllllllllllllllllllllllllllllllllllllllll",
"llllllllllllllllllllllllllllllllllllllllllllllllllllllllllO#####@$@@@+llllllllllllllllllllllllllllllllllllllllllllllllllllllllll",
"llllllllllllllllllllllllllllllllllllllllllllllllllllllllllll+###$@$@llllllllllllllllllllllllllllllllllllllllllllllllllllllllllll",
"lllllllllllllllllllllllllllllllllllllllllllllllllllllllllllll.####.lllllllllllllllllllllllllllllllllllllllllllllllllllllllllllll",
"lllllllllllllllllllllllllllllllllllllllllllllllllllllllllllllllOOlllllllllllllllllllllllllllllllllllllllllllllllllllllllllllllll",
"llllllllllllllllllllllllllllllllllllllllllllllllllllllllllllllllllllllllllllllllllllllllllllllllllllllllllllllllllllllllllllllll",
"llllllllllllllllllllllllllllllllllllllllllllllllllllllllllllllllllllllllllllllllllllllllllllllllllllllllllllllllllllllllllllllll",
"llllllllllllllllllllllllllllllllllllllllllllllllllllllllllllllllllllllllllllllllllllllllllllllllllllllllllllllllllllllllllllllll",
"llllllllllllllllllllllllllllllllllllllllllllllllllllllllllllllllllllllllllllllllllllllllllllllllllllllllllllllllllllllllllllllll",
"llllllllllllllllllllllllllllllllllllllllllllllllllllllllllllllllllllllllllllllllllllllllllllllllllllllllllllllllllllllllllllllll",
"llllllllllllllllllllllllllllllllllllllllllllllllllllllllllllllllllllllllllllllllllllllllllllllllllllllllllllllllllllllllllllllll"
};
