/* XPM */
static char * komodoedit_orb_32_xpm[] = {
"32 32 642 2",
"  	c None",
". 	c #2B525C",
"+ 	c #467B88",
"@ 	c #5F909C",
"# 	c #6796A2",
"$ 	c #6DA4B1",
"% 	c #5F939F",
"& 	c #427480",
"* 	c #2A525C",
"= 	c #25474F",
"- 	c #356C79",
"; 	c #4B8592",
"> 	c #7BA8B2",
", 	c #B1D3DA",
"' 	c #CFE2E5",
") 	c #DBE7E9",
"! 	c #DFEFF2",
"~ 	c #CBDEE2",
"{ 	c #A9C5CC",
"] 	c #76A4AF",
"^ 	c #4B8593",
"/ 	c #4C828F",
"( 	c #416168",
"_ 	c #3A7684",
": 	c #428391",
"< 	c #699BA6",
"[ 	c #B2CCD1",
"} 	c #EAF1F3",
"| 	c #FFFFFF",
"1 	c #FDFFFF",
"2 	c #E2ECEF",
"3 	c #AAC6CC",
"4 	c #60939E",
"5 	c #3B7C8B",
"6 	c #377381",
"7 	c #3A6C78",
"8 	c #3E7F8F",
"9 	c #498593",
"0 	c #83ACB5",
"a 	c #CBDDE1",
"b 	c #E4EDEF",
"c 	c #D5E4E7",
"d 	c #C5DBDF",
"e 	c #BED8DD",
"f 	c #BFD8DD",
"g 	c #C1D9DE",
"h 	c #C8DDE1",
"i 	c #DDE9EC",
"j 	c #F6F9FA",
"k 	c #EDF4F6",
"l 	c #BCD3D8",
"m 	c #74A1AB",
"n 	c #43808E",
"o 	c #3D7E8C",
"p 	c #2E606D",
"q 	c #508490",
"r 	c #518C9A",
"s 	c #4E8896",
"t 	c #8EB4BD",
"u 	c #B8D0D6",
"v 	c #9AC0C8",
"w 	c #7DB1BC",
"x 	c #79B1BC",
"y 	c #83B8C3",
"z 	c #8EBFC8",
"A 	c #94C2CB",
"B 	c #93C2CB",
"C 	c #8BBDC7",
"D 	c #84B7C2",
"E 	c #94BEC7",
"F 	c #CADDE1",
"G 	c #EBF2F4",
"H 	c #C2D8DD",
"I 	c #7AA6B0",
"J 	c #478290",
"K 	c #366B79",
"L 	c #417683",
"M 	c #5F99A6",
"N 	c #70A3AE",
"O 	c #94B9C1",
"P 	c #85B1BB",
"Q 	c #4D94A3",
"R 	c #529BAA",
"S 	c #66A8B5",
"T 	c #76B1BC",
"U 	c #81B7C1",
"V 	c #88BBC5",
"W 	c #8DBEC7",
"X 	c #8CBEC7",
"Y 	c #86BAC4",
"Z 	c #7CB4BF",
"` 	c #7AB1BC",
" .	c #63A4B1",
"..	c #85B4BE",
"+.	c #D9E7E9",
"@.	c #D4E5E8",
"#.	c #91BCC4",
"$.	c #5E99A4",
"%.	c #56909D",
"&.	c #3A6B79",
"*.	c #2A5B69",
"=.	c #56919F",
"-.	c #6FA2AD",
";.	c #95BCC4",
">.	c #6CA3AF",
",.	c #298294",
"'.	c #3D90A0",
").	c #559DAC",
"!.	c #60A4B1",
"~.	c #6BAAB7",
"{.	c #75B0BB",
"].	c #7BB4BF",
"^.	c #7FB6C0",
"/.	c #7DB5C0",
"(.	c #7DB4BF",
"_.	c #72AEBA",
":.	c #75ACB8",
"<.	c #B0CED5",
"[.	c #82B7C2",
"}.	c #4A91A0",
"|.	c #A8C8CF",
"1.	c #BCD6DB",
"2.	c #88BAC2",
"3.	c #76B0B9",
"4.	c #528D9A",
"5.	c #7FAAB4",
"6.	c #428291",
"7.	c #679CA8",
"8.	c #90B8C0",
"9.	c #5898A6",
"0.	c #217E91",
"a.	c #2D8698",
"b.	c #3D8FA0",
"c.	c #4C98A7",
"d.	c #569EAC",
"e.	c #67A8B5",
"f.	c #6DABB8",
"g.	c #80B4BF",
"h.	c #EBF4F6",
"i.	c #D4E7EB",
"j.	c #68A8B4",
"k.	c #75ABB7",
"l.	c #CCDFE3",
"m.	c #C7E0E5",
"n.	c #5396A5",
"o.	c #95BCC5",
"p.	c #A9C9D0",
"q.	c #81B0B9",
"r.	c #71AFB9",
"s.	c #56929E",
"t.	c #336C7A",
"u.	c #53909D",
"v.	c #8AB5BE",
"w.	c #639EAB",
"x.	c #1F7C90",
"y.	c #288396",
"z.	c #2C8597",
"A.	c #368B9C",
"B.	c #4292A2",
"C.	c #4B97A7",
"D.	c #539CAB",
"E.	c #5AA0AE",
"F.	c #5EA3B0",
"G.	c #5FA2AF",
"H.	c #BDD5DB",
"I.	c #DAE9ED",
"J.	c #E5F1F3",
"K.	c #76ABB7",
"L.	c #CDDFE3",
"M.	c #F3FAFC",
"N.	c #6FA7B4",
"O.	c #9EC3CB",
"P.	c #A4C6CD",
"Q.	c #79ABB5",
"R.	c #67AAB4",
"S.	c #3A6E7B",
"T.	c #468694",
"U.	c #71A5B0",
"V.	c #7EAFBA",
"W.	c #227C90",
"X.	c #238093",
"Y.	c #278295",
"Z.	c #2A8396",
"`.	c #308799",
" +	c #388C9D",
".+	c #4091A1",
"++	c #4695A4",
"@+	c #4D98A8",
"#+	c #4F99A8",
"$+	c #509AA9",
"%+	c #589FAD",
"&+	c #64A3B0",
"*+	c #98BCC5",
"=+	c #5498A7",
"-+	c #A3C6CE",
";+	c #DBEBEF",
">+	c #348395",
",+	c #B9D3D9",
"'+	c #E9F7F9",
")+	c #73A8B4",
"!+	c #B1D0D7",
"~+	c #90B8C1",
"{+	c #71ACB6",
"]+	c #5A9BA7",
"^+	c #235A68",
"/+	c #5895A2",
"(+	c #8EBAC3",
"_+	c #438E9F",
":+	c #197A8F",
"<+	c #237F93",
"[+	c #258194",
"}+	c #288295",
"|+	c #2B8496",
"1+	c #358A9C",
"2+	c #3A8E9F",
"3+	c #4191A1",
"4+	c #7AAEB9",
"5+	c #3C8F9F",
"6+	c #73AAB6",
"7+	c #EBF3F5",
"8+	c #ECF5F7",
"9+	c #D4E6EA",
"0+	c #5B9CAA",
"a+	c #A7C8CF",
"b+	c #B9D8DF",
"c+	c #8DB8C2",
"d+	c #C8DCE1",
"e+	c #B4D3DA",
"f+	c #88B5C0",
"g+	c #B1D1D7",
"h+	c #7DAEB8",
"i+	c #65A6B1",
"j+	c #245967",
"k+	c #357382",
"l+	c #72A8B3",
"m+	c #89B8C2",
"n+	c #1A788D",
"o+	c #1D7C90",
"p+	c #217E92",
"q+	c #2D8597",
"r+	c #92BCC5",
"s+	c #5B9FAE",
"t+	c #2A8395",
"u+	c #7AADB8",
"v+	c #F6FAFB",
"w+	c #F0F8FA",
"x+	c #DFEEF1",
"y+	c #6DA5B2",
"z+	c #B0CDD4",
"A+	c #F4FDFF",
"B+	c #C9DEE3",
"C+	c #D6E9ED",
"D+	c #70A6B3",
"E+	c #BAD7DD",
"F+	c #8EB9C3",
"G+	c #6FABB6",
"H+	c #397684",
"I+	c #438391",
"J+	c #8DBBC4",
"K+	c #71AAB7",
"L+	c #0B7087",
"M+	c #1A798E",
"N+	c #1E7C91",
"O+	c #207E91",
"P+	c #9DC5CE",
"Q+	c #1B7B8F",
"R+	c #3A8A9B",
"S+	c #DBE9ED",
"T+	c #E5F2F4",
"U+	c #EAF5F7",
"V+	c #E3F1F4",
"W+	c #72A8B4",
"X+	c #9CC1CA",
"Y+	c #EEF9FB",
"Z+	c #E3F2F5",
"`+	c #5396A6",
" @	c #AFD1D8",
".@	c #A3C8D0",
"+@	c #7BB1BC",
"@@	c #42818E",
"#@	c #8EAFB6",
"$@	c #518F9D",
"%@	c #A2CAD1",
"&@	c #61A2B0",
"*@	c #056D84",
"=@	c #15768C",
"-@	c #248093",
";@	c #268194",
">@	c #79AFBB",
",@	c #E3EFF2",
"'@	c #227E91",
")@	c #217C90",
"!@	c #92B8C1",
"~@	c #E9F4F6",
"{@	c #E1EFF2",
"]@	c #E6F2F4",
"^@	c #E1F0F3",
"/@	c #5F9DAC",
"(@	c #8FB9C3",
"_@	c #C4DCE1",
":@	c #368598",
"<@	c #C4DEE3",
"[@	c #AED0D7",
"}@	c #88B9C3",
"|@	c #498795",
"1@	c #79A0A9",
"2@	c #5A98A5",
"3@	c #AFD3DA",
"4@	c #66A5B3",
"5@	c #016A82",
"6@	c #10738A",
"7@	c #14768C",
"8@	c #19798E",
"9@	c #207D91",
"0@	c #227F93",
"a@	c #16788C",
"b@	c #A3C8D1",
"c@	c #B9D5DC",
"d@	c #4492A2",
"e@	c #4E909F",
"f@	c #F0F5F6",
"g@	c #F8FCFD",
"h@	c #ECF6F8",
"i@	c #E3F0F3",
"j@	c #E7F3F6",
"k@	c #4790A1",
"l@	c #146F85",
"m@	c #A5CBD4",
"n@	c #D0E5E9",
"o@	c #89B5C0",
"p@	c #9BC4CD",
"q@	c #4B8A98",
"r@	c #89ABB2",
"s@	c #77A3AB",
"t@	c #7AB3BD",
"u@	c #C2DFE4",
"v@	c #83B7C2",
"w@	c #00677F",
"x@	c #0C7188",
"y@	c #0F7389",
"z@	c #13758B",
"A@	c #17788D",
"B@	c #1A7A8F",
"C@	c #1F7D91",
"D@	c #1C7C90",
"E@	c #358799",
"F@	c #DDE8EB",
"G@	c #F7F8F9",
"H@	c #C6DCE1",
"I@	c #EEF6F7",
"J@	c #F1FAFC",
"K@	c #DBECF0",
"L@	c #AED0D9",
"M@	c #B6D5DC",
"N@	c #65A1AF",
"O@	c #A5CAD2",
"P@	c #4C8C9A",
"Q@	c #80A4AC",
"R@	c #77A1A9",
"S@	c #7BB2BC",
"T@	c #CCE5EA",
"U@	c #BDDAE0",
"V@	c #066B83",
"W@	c #056D85",
"X@	c #0E7289",
"Y@	c #11748A",
"Z@	c #197A8E",
"`@	c #298093",
" #	c #358597",
".#	c #358596",
"+#	c #5998A6",
"@#	c #D2E1E6",
"##	c #F7FDFE",
"$#	c #E3F0F4",
"%#	c #E2F0F3",
"&#	c #DFEEF2",
"*#	c #D9EBEF",
"=#	c #E4F2F5",
"-#	c #FEFFFF",
";#	c #7BB0BD",
">#	c #5C9CAC",
",#	c #A1C8D0",
"'#	c #4D8D9B",
")#	c #87AAB2",
"!#	c #87AAB1",
"~#	c #64A1AD",
"{#	c #AED6DC",
"]#	c #E5F5F8",
"^#	c #4490A2",
"/#	c #00657E",
"(#	c #076D85",
"_#	c #096F86",
":#	c #13768C",
"<#	c #11758B",
"[#	c #006A81",
"}#	c #79ADBA",
"|#	c #E9F3F5",
"1#	c #D9EAEE",
"2#	c #D8EAEE",
"3#	c #D7EAEE",
"4#	c #D3E7EC",
"5#	c #E5F3F6",
"6#	c #FAFFFF",
"7#	c #F6FCFD",
"8#	c #3D899C",
"9#	c #7AAFBC",
"0#	c #9CC6CE",
"a#	c #4F909D",
"b#	c #5E9CA8",
"c#	c #ACD5DC",
"d#	c #E6F7FA",
"e#	c #BBD8DF",
"f#	c #02677F",
"g#	c #026A82",
"h#	c #056C84",
"i#	c #076E85",
"j#	c #066D85",
"k#	c #066D84",
"l#	c #80AEBA",
"m#	c #E7F1F4",
"n#	c #DAEBEF",
"o#	c #D8EAED",
"p#	c #D8E9ED",
"q#	c #D5E8EC",
"r#	c #D7E9EE",
"s#	c #CDE2E8",
"t#	c #116F86",
"u#	c #9BC4CE",
"v#	c #A0CAD2",
"w#	c #5A9CA7",
"x#	c #4C8A96",
"y#	c #A4D2DA",
"z#	c #D6EEF2",
"A#	c #78B0BD",
"B#	c #00647D",
"C#	c #026B83",
"D#	c #036B83",
"E#	c #086F86",
"F#	c #0C7087",
"G#	c #74ABB9",
"H#	c #14748A",
"I#	c #368193",
"J#	c #A9C7CF",
"K#	c #D4E7EC",
"L#	c #D2E6EB",
"M#	c #78AFBB",
"N#	c #16748A",
"O#	c #ABD0D8",
"P#	c #7BB4C0",
"Q#	c #347582",
"R#	c #2C6A77",
"S#	c #98CCD5",
"T#	c #D1ECF0",
"U#	c #AECED6",
"V#	c #619BAA",
"W#	c #016881",
"X#	c #026A83",
"Y#	c #046C84",
"Z#	c #02667F",
"`#	c #B4CFD6",
" $	c #3A8A9D",
".$	c #005C76",
"+$	c #7DACB7",
"@$	c #D3E4E9",
"#$	c #D5E7EC",
"$$	c #D3E7EB",
"%$	c #CFE4E9",
"&$	c #09667F",
"*$	c #63A4B2",
"=$	c #C4E3E8",
"-$	c #75B1BD",
";$	c #1E5D6A",
">$	c #7DB7C1",
",$	c #D0ECF1",
"'$	c #61A2B1",
")$	c #005B76",
"!$	c #006780",
"~$	c #2F7F93",
"{$	c #A7C7D0",
"]$	c #8AB4C0",
"^$	c #C4D8DE",
"/$	c #EFF7F9",
"($	c #D0E5EA",
"_$	c #CFE5E9",
":$	c #E0EDF0",
"<$	c #308094",
"[$	c #05677F",
"}$	c #BBDBE1",
"|$	c #AFD8DF",
"1$	c #63A0AC",
"2$	c #518B96",
"3$	c #BDE3EA",
"4$	c #B0D5DD",
"5$	c #046981",
"6$	c #006A82",
"7$	c #00667F",
"8$	c #3F879A",
"9$	c #DEE8EB",
"0$	c #E0EFF2",
"a$	c #ABCBD3",
"b$	c #2C7E92",
"c$	c #005B75",
"d$	c #65A6B4",
"e$	c #D4EDF1",
"f$	c #A0CFD8",
"g$	c #387581",
"h$	c #82BAC3",
"i$	c #CBECF1",
"j$	c #73AFBD",
"k$	c #0B6B83",
"l$	c #0A6D85",
"m$	c #408EA0",
"n$	c #3B899C",
"o$	c #0D6E85",
"p$	c #096D85",
"q$	c #096A81",
"r$	c #5996A6",
"s$	c #A1C2CB",
"t$	c #BDD4DA",
"u$	c #93BBC5",
"v$	c #5293A3",
"w$	c #096B82",
"x$	c #005E78",
"y$	c #2E8397",
"z$	c #CFE9EE",
"A$	c #B0DAE2",
"B$	c #70ABB6",
"C$	c #2F6F7C",
"D$	c #A1D3DC",
"E$	c #C9E9EF",
"F$	c #C7E4EA",
"G$	c #D2E5E9",
"H$	c #25768C",
"I$	c #3A899C",
"J$	c #68A4B2",
"K$	c #00627C",
"L$	c #00627B",
"M$	c #00647E",
"N$	c #00617B",
"O$	c #247C91",
"P$	c #C2E1E7",
"Q$	c #C4E7EC",
"R$	c #89C2CD",
"S$	c #386C76",
"T$	c #4E8791",
"U$	c #96CCD6",
"V$	c #BDE1E8",
"W$	c #CFE7EC",
"X$	c #BAD6DD",
"Y$	c #5394A5",
"Z$	c #6DA5B3",
"`$	c #D6E8EC",
" %	c #308497",
".%	c #016B83",
"+%	c #448FA1",
"@%	c #CBE6EB",
"#%	c #CCECF1",
"$%	c #9BD0DA",
"%%	c #3B7985",
"&%	c #4D8B96",
"*%	c #9ACED8",
"=%	c #B2DBE2",
"-%	c #C1DFE5",
";%	c #B4D2D9",
">%	c #BFD8DE",
",%	c #E0F0F3",
"'%	c #CBE1E6",
")%	c #3A889B",
"!%	c #00607A",
"~%	c #006881",
"{%	c #2B7F94",
"]%	c #94C1CB",
"^%	c #E3F6F9",
"/%	c #CAECF1",
"(%	c #9FD5DE",
"_%	c #44828E",
":%	c #4D8792",
"<%	c #93C8D1",
"[%	c #BAE2E9",
"}%	c #CDE8ED",
"|%	c #D6ECF0",
"1%	c #DAECF0",
"2%	c #EDF7F9",
"3%	c #8BB9C5",
"4%	c #348599",
"5%	c #1C778D",
"6%	c #237C92",
"7%	c #3F8C9E",
"8%	c #6EA8B6",
"9%	c #B0D1D9",
"0%	c #E7F6F9",
"a%	c #E6FAFD",
"b%	c #C1E9F0",
"c%	c #92CAD4",
"d%	c #366770",
"e%	c #5B8F99",
"f%	c #B6E2E9",
"g%	c #CEECF2",
"h%	c #D8EEF2",
"i%	c #DFF0F3",
"j%	c #F5FEFF",
"k%	c #F8FFFF",
"l%	c #E8F5F7",
"m%	c #EEF8FA",
"n%	c #F9FFFF",
"o%	c #F7FFFF",
"p%	c #ECFDFF",
"q%	c #D2F3F8",
"r%	c #AEE0E8",
"s%	c #6DA9B5",
"t%	c #1F6271",
"u%	c #32656F",
"v%	c #7BB0B9",
"w%	c #B2DDE4",
"x%	c #D0F1F6",
"y%	c #E0FAFF",
"z%	c #E6FCFF",
"A%	c #E9FDFF",
"B%	c #ECFEFF",
"C%	c #F3FFFF",
"D%	c #DFFAFE",
"E%	c #CCF1F7",
"F%	c #A9DAE2",
"G%	c #6FA9B2",
"H%	c #2B5F68",
"I%	c #002027",
"J%	c #17424A",
"K%	c #3D6F78",
"L%	c #61969E",
"M%	c #7BAEB6",
"N%	c #86B9C1",
"O%	c #94BFC5",
"P%	c #84B1B8",
"Q%	c #5C929B",
"R%	c #386A73",
"S%	c #123E46",
"T%	c #001D24",
"U%	c #00151B",
"V%	c #001C23",
"W%	c #002128",
"X%	c #001B22",
"Y%	c #00141A",
"                        . + @ # $ % & *                         ",
"                  = - ; > , ' ) ! ~ { ] ^ / (                   ",
"                _ : < [ } | | | | | 1 2 3 4 5 6                 ",
"            7 8 9 0 a b c d e f g h i j k l m n o p             ",
"          q r s t u v w x y z A B C D E F G H I J 5 K           ",
"        L M N O P Q R S T U V W X Y Z `  ...+.@.#.$.%.&.        ",
"      *.=.-.;.>.,.'.).!.~.{.].^./.(._.:.<.[.}.|.1.2.3.4.5.      ",
"      6.7.8.9.0.a.b.c.d.!.e.f.f.g.h.i.j.k.l.m.n.o.p.q.r.s.      ",
"    t.u.v.w.x.y.z.A.B.C.D.E.F.!.G.H.I.:.J.K.L.M.N.O.P.Q.R.S.    ",
"    T.U.V.W.X.Y.Z.`. +.+++@+#+$+%+&+*+=+-+;+>+,+'+)+!+~+{+]+    ",
"  ^+/+(+_+:+<+[+}+|+`.1+2+3+4+5+6+7+8+9+0+a+b+c+d+e+f+g+h+i+j+  ",
"  k+l+m+n+o+p+X.[+Y.Z.q+`.|+r+s+t+u+v+w+x+y+z+A+B+C+D+E+F+G+H+  ",
"  I+J+K+L+M+N+p+<+[+Y.}+Z.O+w P+Q+R+S+T+U+V+W+X+Y+Z+`+ @.@+@@@  ",
"#@$@%@&@*@=@M+N+p+<+-@[+;@Q+>@,@'@)@!@~@{@]@^@/@(@_@:@<@[@}@|@  ",
"1@2@3@4@5@6@7@8@o+9@p+0@-@a@b@| c@d@e@f@g@h@i@j@k@l@m@n@o@p@q@r@",
"s@t@u@v@w@x@y@z@A@B@o+C@D@E@F@G@| | H@I@| J@! | K@L@| M@N@O@P@Q@",
"R@S@T@U@V@W@L+X@Y@7@A@8@Z@`@ #.#+#@###$#%#&#*#=#-#| | ;#>#,#'#)#",
"!#~#{#]#^#/#(#_#x@X@Y@z@7@:#<#<#[#}#|#;+1#2#3#4#5#6#7#8#9#0#a#  ",
"  b#c#d#e#f#g#h#i#_#L+x@X@y@y@j#k#l#m#n#2#o#p#q#r#6#s#t#u#v#w#  ",
"  x#y#z#| A#B#C#D#h#j#i#E#E#F#G#H#I#J#9+r#q#K#L#%#| M#N#O#P#Q#  ",
"  R#S#T#U#V#W#X#C#C#D#D#Y#Y#Z#`# $.$+$@$#$$$L#%$6#9+&$*$=$-$;$  ",
"    >$,$'$)$C#C#C#C#C#C#C#C#!$~${$]$^$/$#$($_$*#:$<$[$}$|$1$    ",
"    2$3$4$5$!$6$7$!$5@6$C#C#C#B#8$9$| | | 0$1#a$b$c$d$e$f$g$    ",
"      h$i$j$k$l$m$n$o$p$5@C#C#C#/#q$r$s$t$u$v$w$x$y$z$A$B$      ",
"      C$D$E$F$G$J#H$I$J$K$C#C#C#C#6$B#L$B#B#M$N$O$P$Q$R$S$      ",
"        T$U$V$W$X$Y$Z$`$ %K$C#C#C#C#C#C#.%7$L$+%@%#%$%%%        ",
"          &%*%=%-%;%>%,%'%)%!%/#~%!$/#K$/#{%]%^%/%(%_%          ",
"            :%<%[%}%|%1%Z+2%3%4%5%6%7%8%9%0%a%b%c%d%            ",
"              e%S@f%g%h%i%j%| k%l%m%n%o%p%q%r%s%t%              ",
"                  u%v%w%x%y%z%A%B%C%D%E%F%G%H%                  ",
"                    I%J%K%L%M%N%O%P%Q%R%S%T%                    ",
"                          U%V%W%W%X%Y%                          "};
