/* XPM */
static char * komodo_edit_32x32_xpm[] = {
"32 32 201 2",
"  	c None",
". 	c #FFFFFF",
"+ 	c #FCFCFC",
"@ 	c #E9E9E9",
"# 	c #E3E3E3",
"$ 	c #E4E4E4",
"% 	c #EBEBEB",
"& 	c #FBFBFB",
"* 	c #A8A8A8",
"= 	c #7F7F7F",
"- 	c #333333",
"; 	c #1B1B1B",
"> 	c #202020",
", 	c #272727",
"' 	c #444444",
") 	c #4A4A4A",
"! 	c #4E4E4E",
"~ 	c #5E5E5E",
"{ 	c #6E6E6E",
"] 	c #8A8A8A",
"^ 	c #AFAFAF",
"/ 	c #EAEAEA",
"( 	c #C0C0C0",
"_ 	c #606060",
": 	c #AEAEAE",
"< 	c #E2E2E2",
"[ 	c #F5F5F5",
"} 	c #F2F2F2",
"| 	c #D9D9D9",
"1 	c #C6C6C6",
"2 	c #787878",
"3 	c #525252",
"4 	c #474747",
"5 	c #555555",
"6 	c #919191",
"7 	c #2E2E2E",
"8 	c #515151",
"9 	c #CFCFCF",
"0 	c #FEFEFE",
"a 	c #D6D6D6",
"b 	c #A3A3A3",
"c 	c #717171",
"d 	c #5B5B5B",
"e 	c #656565",
"f 	c #ADADAD",
"g 	c #F9F9F9",
"h 	c #979797",
"i 	c #494949",
"j 	c #323232",
"k 	c #747474",
"l 	c #FAFAFA",
"m 	c #999999",
"n 	c #242424",
"o 	c #000000",
"p 	c #080808",
"q 	c #212121",
"r 	c #151515",
"s 	c #424242",
"t 	c #2B2B2B",
"u 	c #3C3A39",
"v 	c #7F7875",
"w 	c #C9C3C2",
"x 	c #C1C1C1",
"y 	c #3F3F3F",
"z 	c #222222",
"A 	c #090909",
"B 	c #2A2A2A",
"C 	c #B8B8B8",
"D 	c #F8F8F8",
"E 	c #969696",
"F 	c #939A9F",
"G 	c #466070",
"H 	c #838C90",
"I 	c #8B8789",
"J 	c #EAE0DC",
"K 	c #A2A2A2",
"L 	c #1F1F1F",
"M 	c #7A7A7A",
"N 	c #C2C2C2",
"O 	c #838383",
"P 	c #676767",
"Q 	c #B0B3BA",
"R 	c #246A91",
"S 	c #75D6F4",
"T 	c #2884A5",
"U 	c #244D61",
"V 	c #A39C9A",
"W 	c #FDFCFC",
"X 	c #F6F6F6",
"Y 	c #DADADA",
"Z 	c #D7D7D7",
"` 	c #BABABA",
" .	c #E5E5E5",
"..	c #878787",
"+.	c #FAF4F2",
"@.	c #AAB4BB",
"#.	c #81AEC1",
"$.	c #98CCDF",
"%.	c #A0BDCA",
"&.	c #9A9797",
"*.	c #C1C0C0",
"=.	c #F0F0F0",
"-.	c #414141",
";.	c #CCCCCC",
">.	c #F4F4F4",
",.	c #C8C8C8",
"'.	c #ECECEC",
").	c #D4D4D4",
"!.	c #232323",
"~.	c #A9A9A9",
"{.	c #EFEFEF",
"].	c #EEEEEE",
"^.	c #060606",
"/.	c #949494",
"(.	c #F7F7F7",
"_.	c #0B0B0B",
":.	c #111111",
"<.	c #FDFDFD",
"[.	c #696969",
"}.	c #050505",
"|.	c #9A9A9A",
"1.	c #3E3E3E",
"2.	c #CDCDCD",
"3.	c #181818",
"4.	c #040404",
"5.	c #3B3B3B",
"6.	c #101010",
"7.	c #636363",
"8.	c #B3B3B3",
"9.	c #D5D5D5",
"0.	c #303030",
"a.	c #252525",
"b.	c #3C3C3C",
"c.	c #282828",
"d.	c #B6B6B6",
"e.	c #9C9C9C",
"f.	c #313131",
"g.	c #5C5C5C",
"h.	c #989898",
"i.	c #D2D2D2",
"j.	c #F1F1F1",
"k.	c #E7E7E7",
"l.	c #353535",
"m.	c #262626",
"n.	c #1A1A1A",
"o.	c #5F5F5F",
"p.	c #C7C7C7",
"q.	c #888888",
"r.	c #030303",
"s.	c #E0E0E0",
"t.	c #959595",
"u.	c #020202",
"v.	c #0C0C0C",
"w.	c #404040",
"x.	c #6B6B6B",
"y.	c #7E7E7E",
"z.	c #6A6A6A",
"A.	c #464646",
"B.	c #686868",
"C.	c #1D1D1D",
"D.	c #A1A1A1",
"E.	c #DFDFDF",
"F.	c #E1E1E1",
"G.	c #070707",
"H.	c #5A5A5A",
"I.	c #909090",
"J.	c #4D4D4D",
"K.	c #AAAAAA",
"L.	c #767676",
"M.	c #D8D8D8",
"N.	c #DEDEDE",
"O.	c #DDDDDD",
"P.	c #727272",
"Q.	c #343434",
"R.	c #9F9F9F",
"S.	c #C3C3C3",
"T.	c #A0A0A0",
"U.	c #434343",
"V.	c #D0D0D0",
"W.	c #DCDCDC",
"X.	c #EDEDED",
"Y.	c #646464",
"Z.	c #757575",
"`.	c #9B9B9B",
" +	c #C9C9C9",
".+	c #BDBDBD",
"++	c #ACACAC",
"@+	c #A6A6A6",
"#+	c #CBCBCB",
"$+	c #E6E6E6",
"%+	c #7C7C7C",
"&+	c #929292",
"*+	c #666666",
"=+	c #828282",
"-+	c #C5C5C5",
";+	c #BEBEBE",
">+	c #BBBBBB",
",+	c #BFBFBF",
"'+	c #ABABAB",
")+	c #818181",
"!+	c #383838",
"                                                                ",
"                                                                ",
"                                                                ",
"                                                                ",
"                                                                ",
"                                                                ",
"            . . + @ # $ %                                       ",
"        & * = - ; > , - ' ) ! ~ { ] ^                           ",
"      / ( - ; _ : < [ & } < | 1 : 2 3 4 5 6 [                   ",
"      . 7 8 9 0 a b c d ) d e { f } . g h i j k                 ",
"    l m n d ! o o o p q 3 r o s t u v w . . x ' y b             ",
"    . z A o B 2 C $ + . D ; E . . F G H I J . . K L M           ",
"  N O o P 1 . . . . . . d o $ . . Q R S T U V W . X - s Y       ",
"  Z ` D . . . . . . .  .7 o ... . +.@.#.$.%.&.*.=.. . ' -.;.    ",
"  >.Y ,.'.. . l & + . ).!.r o ~.. . . . . . . {.].+ . . ^./.    ",
"  (._.o :.= . . X D <.. [.}.o o 3 Y . . . D D 0 <.D g . |.1.2.  ",
"  (.3.t 4.o 5. .. D } + & C k z o 6.7.8.D . . . . l (.. 9.0..   ",
"  (.a.b.c.3.o :.d.. . . . . 0.' % e.' z f.g.h.i.j.0 . . k.0..   ",
"  (.l.8 l.m.n.o o o.` p.q.r.o s.. Z % | t.y u.o v.w.x.y.z.1..   ",
"  (.A.B.A.- a.C.^.o o o o z 9.g D.8.E. .'.(.F.|.A.G.o o o c .   ",
"O (.H.I.x.J., G.o o :.' K [ < K.3 w.L.K.;.M.N.[ . O.K P.B.D q.  ",
"..(.! P.Q.q a.b.P R.).} % S.T.e         U.q.` V.2.W.g 0 . X.    ",
"q.(.-.Y.Z.`. +@ >.'.a .+++t.J.              !.[.@+,.#+1 $+%+    ",
"_ (.(.{.D ].W. +.+C f &+*+L                       i =+D.=       ",
"! Y -+;+>+,+( 8.m k U.                                          ",
"  f ,+'+|.)+_ !+                                                ",
"    A.,                                                         ",
"                                                                ",
"                                                                ",
"                                                                ",
"                                                                ",
"                                                                "};
