/* XPM */
static char * bookmark_7_xpm[] = {
"16 16 3 1",
" 	c None",
".	c #353535",
"+	c #9F873C",
"                ",
"                ",
"                ",
"    ........    ",
"    .++++++.    ",
"    .++++++.    ",
"    .....++.    ",
"        .++.    ",
"        .++.    ",
"        .++.    ",
"        .++.    ",
"        .++.    ",
"        ....    ",
"                ",
"                ",
"                "};
