<?xml version="1.0" encoding="UTF-8" standalone="no"?>
<svg
   xmlns:dc="http://purl.org/dc/elements/1.1/"
   xmlns:cc="http://creativecommons.org/ns#"
   xmlns:rdf="http://www.w3.org/1999/02/22-rdf-syntax-ns#"
   xmlns:svg="http://www.w3.org/2000/svg"
   xmlns="http://www.w3.org/2000/svg"
   xmlns:sodipodi="http://sodipodi.sourceforge.net/DTD/sodipodi-0.dtd"
   xmlns:inkscape="http://www.inkscape.org/namespaces/inkscape"
   preserveAspectRatio="xMidYMid"
   height="14"
   width="14"
   scaleAuto="16"
   id="svg2"
   version="1.1"
   inkscape:version="0.92.1 r"
   sodipodi:docname="apache.svg"
   viewBox="0 0 14 14">
  <metadata
     id="metadata10">
    <rdf:RDF>
      <cc:Work
         rdf:about="">
        <dc:format>image/svg+xml</dc:format>
        <dc:type
           rdf:resource="http://purl.org/dc/dcmitype/StillImage" />
      </cc:Work>
    </rdf:RDF>
  </metadata>
  <defs
     id="defs8" />
  <sodipodi:namedview
     pagecolor="#ffffff"
     bordercolor="#666666"
     borderopacity="1"
     objecttolerance="10"
     gridtolerance="10"
     guidetolerance="10"
     inkscape:pageopacity="0"
     inkscape:pageshadow="2"
     inkscape:window-width="1920"
     inkscape:window-height="1030"
     id="namedview6"
     showgrid="true"
     inkscape:zoom="14.75"
     inkscape:cx="-6.7118645"
     inkscape:cy="12.135593"
     inkscape:window-x="0"
     inkscape:window-y="25"
     inkscape:window-maximized="1"
     inkscape:current-layer="svg2">
    <inkscape:grid
       type="xygrid"
       id="grid7" />
  </sodipodi:namedview>
  <path
     d="m 12.533331,1 v 0 c 0,0 0.07424,0 0.07424,0 0,0 0,0 0,0 0.07424,0 0.07424,0 0.07424,0 0,0 0,0 0,0 0,0 0,0 0.07424,0 0,0 0,0 0,0 0,0 0,0 0,0 0,0 0.07424,0 0.07424,0 0,0 0,0 0,0 0,0.082474 0,0.082474 0,0.082474 0,0 0,0 0,0 0,0 0,0 0,0 0,0 0.07424,0 0.07424,0 0,0.082474 0,0.1649485 0,0.2474227 0,0 0,0 0,0 0,0 0,0.082474 0.07424,0.082474 0,0 0,0.082474 0,0.082474 0,0 0,0 0,0 0,0.082474 0,0.1649484 0,0.2474226 0,0 0,0.082474 0,0.082474 0,0 0,0 0,0 0,0.082474 0,0.1649484 0,0.2474226 v 0 c 0,0 0,0 0,0 0,0 0,0.082474 0,0.1649485 v 0 c 0,0 0,0 0,0 0,0.082474 0,0.082474 0,0.082474 0,0 0,0 0,0 0,0 0,0 0,0 -0.07424,0.082474 -0.07424,0.082474 -0.07424,0.1649485 0,0 0,0 0,0 0,0.082474 0,0.082474 0,0.1649484 0,0 0,0 0,0 -0.07424,0 -0.07424,0 -0.07424,0.082474 0,0 0,0 0,0 0,0 0,0 0,0 0,0 0,0 0,0 0,0 0,0.082474 -0.07424,0.082474 0,0 0,0 0,0 0,0 0,0 0,0 0,0.082474 0,0.082474 0,0.1649484 -0.07424,0 -0.07424,0 -0.07424,0.082474 0,0 -0.07424,0.082474 -0.07424,0.082474 0,0 0,0 0,0 0,0 -0.07424,-0.082474 -0.07424,-0.082474 0,0 0,-0.082474 -0.07424,-0.082474 0,0 0,0 0,0 0,0 0,0 0,0 0,0 0,0 0,0 -0.07424,-0.1649484 -0.148485,-0.2474226 -0.222727,-0.3298969 0,0 0,0 0,0 0,0 0,0 0,0 -0.07424,0 -0.07424,0 -0.07424,0 0,0 -0.07424,-0.082474 -0.148485,-0.082474 0.07424,0 0,0 0,0 0,0 0,0 0,0 0,-0.082474 0,-0.082474 -0.07424,-0.082474 0,0 0,0 0,0 0,0 0,0 0,0 0,0 0,0 0,0 0,0 0,0 0,0 0,0 0.07424,0 0.07424,0 0,0 0,0.082474 0,0.082474 v 0 c 0,0 0,0 0,0 0.07424,0 0.07424,0 0.07424,0.082474 0,0 0,0 0,0 0,0 0,0 0,0 0.07424,0 0.07424,0 0.07424,0 0,0 0,0.082474 0,0.082474 0.07424,0 0.07424,0 0.07424,0.082474 0,0 0,0 0,0 0,0 0,0 0,0 0.07424,0 0.07424,0 0.07424,0 0,0.082474 0,0.082474 0,0.082474 0,0 0,0 0,0 0.07424,0 0.07424,0.082474 0.07424,0.1649485 0,0 0,0 0,0 0,0.082474 0.07424,0.082474 0.07424,0.1649484 0,0 0,0.082474 0,0.082474 0,0.082474 -0.07424,0.082474 -0.07424,0.1649484 0,0 -0.07424,0 -0.07424,0 0,0.082474 -0.07424,0.082474 -0.148485,0.1649485 0,0 0,0 0,0 0,0 0,0 0,0 -0.07424,0 -0.07424,0 -0.07424,0 0,0.082474 -0.07424,0.1649484 -0.148485,0.2474226 -0.07424,0 -0.148485,0.082474 -0.222727,0.1649485 -0.07424,0.082474 -0.148485,0.082474 -0.222727,0.1649484 -0.07424,0.082474 -0.222728,0.1649485 -0.371213,0.2474227 -0.07424,0.082474 -0.148484,0.1649485 -0.222727,0.1649485 -0.07424,0.082474 -0.148485,0.082474 -0.222727,0.1649484 -0.07424,0.082474 -0.222727,0.1649485 -0.29697,0.2474227 0,0 0,0 -0.07424,0 0,0.082474 0,0.082474 0,0.082474 0,0 -0.07424,0 -0.07424,0 0,0 0,0 0,0.082474 -0.148485,0.082474 -0.2969701,0.1649484 -0.4454549,0.2474226 -0.074242,0.082474 -0.1484848,0.1649485 -0.2227272,0.1649485 0,0.082474 0,0.082474 -0.074242,0.082474 -0.074242,0.082474 -0.1484848,0.1649485 -0.2969697,0.2474227 0,0 0,0 0,0 -0.074242,0.082474 -0.074242,0.082474 -0.1484848,0.1649485 -0.074242,0 -0.074242,0.082474 -0.1484848,0.082474 0,0 0,0 0,0.082474 -0.074242,0 -0.074242,0 -0.074242,0 0,0 0,0.082474 -0.074242,0.082474 0,0 0,0 0,0 -0.2969711,0.2474267 -0.5196983,0.5773236 -0.816668,0.8247463 -0.074242,0.082474 -0.1484848,0.1649485 -0.2227272,0.2474227 -0.074242,0.082474 -0.074242,0.082474 -0.074242,0.082474 0,0 0,0 0,0 -0.074242,0.082474 -0.1484848,0.1649485 -0.2227272,0.2474227 0,0 0,0 -0.074242,0 0,0.082474 -0.074242,0.082474 -0.074242,0.1649485 v 0 c -0.074242,0 -0.074242,0.082474 -0.074242,0.082474 C 7.1136361,8.0927835 7.0393937,8.1752577 6.9651513,8.257732 6.7424241,8.4226804 6.4454545,8.6701031 6.2227272,8.8350515 c 0,0 -0.074242,0 -0.074242,0.082474 0,0 0,0 0,0 0,0 -0.074242,0 -0.074242,0 0,0 0,0.082474 -0.074242,0.082474 0,0 0,0 0,0 -0.074242,0 -0.1484848,0.082474 -0.2227272,0.082474 0,0 0,0.082474 0,0.082474 -0.074242,0 -0.1484848,0 -0.1484848,0 0,0 0,0 0,0 v 0 c 0,0 0,0 0,0.082474 -0.074243,0 -0.074243,0 -0.074243,0 0,0 0,0 -0.074242,0 0,0 0,0 0,0 0,0 0,0 0,0 0,0 0,0 0,0 0,0 -0.074242,0 -0.074242,0 0,0 0,0 0,0 0,0 0,0 0,0 -0.074242,0 -0.074242,0.082474 -0.074242,0.082474 -0.074242,0 -0.074242,0 -0.1484848,0 -0.074242,0 -0.2227272,0 -0.371212,0.082474 0,0 0,0 0,0 -0.074242,0 -0.1484849,0 -0.1484849,0 -0.074242,0 -0.1484848,0 -0.2227272,0 0,0 0,0 0,0 -0.074242,0.082474 -0.1484848,0.082474 -0.2227272,0.082474 -0.074242,0 -0.074242,0 -0.074242,0 -0.074242,0 -0.1484848,0 -0.2227273,0.082474 0,0 -0.074242,0 -0.074242,0 -0.074242,0.082474 -0.1484848,0.082474 -0.1484848,0.082474 L 3.4015157,9.742268 h 0.074242 c 0,0 -0.074242,0 -0.074242,0 -0.074242,0.1649485 -0.2227272,0.329897 -0.3712121,0.494845 0,0 0,0 0,0 0,0 0,0 0,0 -0.074242,0.164949 -0.1484848,0.247423 -0.2227272,0.412372 -0.074242,0 -0.074242,0.08247 -0.074242,0.08247 0,0 0,0 0,0 0,0 0,0 0,0 -0.074242,0.164948 -0.1484848,0.247422 -0.2227272,0.329897 0,0 -0.074242,0.08247 -0.074242,0.08247 0,0.08247 -0.074242,0.164948 -0.1484849,0.247423 0,0 0,0 0,0 0,0 0,0 0,0 -0.074242,0.164948 -0.1484848,0.247422 -0.2227272,0.329896 0,0 0,0 0,0 0,0 0,0 0,0 0,0 0,0 0,0 0,0.08248 0,0.08248 -0.074242,0.08248 0,0.08247 0,0.08247 0,0.164948 0,0 0,0 -0.074242,0 0,0 0,0 0,0 0,0 0,0.08247 0,0.08247 0,0 -0.074242,0.08248 -0.074242,0.08248 l -0.6681817,0.824742 -0.074242,-0.08247 c 0,0 0.074242,-0.08248 0.074242,-0.164949 0.074242,0 0.074242,-0.08247 0.074242,-0.08247 0,0 0,0 0,0 0.074242,-0.08247 0.074242,-0.164948 0.1484848,-0.164948 0,-0.08247 0,-0.08247 0,-0.08247 0,0 0,0 0,0 0.074242,-0.08247 0.074242,-0.08247 0.074242,-0.08247 0,0 0,0 0,0 0.074242,-0.164948 0.1484849,-0.247423 0.2227273,-0.412371 0,0 0.074242,-0.08247 0.074242,-0.08247 0,0 0,0 0,-0.08248 0.074242,0 0.074242,-0.08247 0.074242,-0.08247 0.074242,-0.08247 0.1484848,-0.164948 0.2227272,-0.329897 0,-0.08247 0.1484848,-0.247422 0.2227272,-0.329897 0.1484849,-0.247422 0.2969697,-0.494845 0.4454545,-0.742268 0.074242,-0.08247 0.074242,-0.08247 0.074242,-0.08247 0,0 0,0 0,0 0.074242,-0.08247 0.074242,-0.1649483 0.1484848,-0.1649483 0.074242,-0.1649484 0.1484848,-0.3298969 0.2227273,-0.4123711 0,0 0,0 0,0 0,-0.082474 0,-0.082474 0,-0.082474 0,0 0,0 0,0 0,0 0,0 0,0 0,0 0,-0.082474 0,-0.082474 0,0 0,0 0,-0.082474 0,0 0,0 0,0 0,0 0,0 0,-0.082474 0,0 0,0 0,0 0,0 0,0 0,0 0,-0.082474 0,-0.082474 0,-0.082474 0,-0.082474 0,-0.082474 0,-0.1649485 0,0 0,0 0,0 0,0 0,-0.082474 0,-0.082474 0,0 0.074242,0 0.074242,-0.082474 0,0 0,0 0,0 0,-0.082474 0,-0.082474 0,-0.082474 0,-0.082474 0,-0.082474 0,-0.082474 0.074242,0 0.074242,-0.082474 0.074242,-0.082474 0,-0.082474 0.074242,-0.1649485 0.074242,-0.2474227 0.074242,0 0.074242,-0.082474 0.074242,-0.082474 0.074242,-0.082474 0.074242,-0.1649485 0.074242,-0.1649485 0.074242,0 0.074242,0 0.074242,0 0,-0.082474 0,-0.082474 0,-0.082474 0,0 0.074242,-0.082474 0.074242,-0.082474 0,-0.082474 0.074242,-0.082474 0.074242,-0.1649485 0,0 0,0 0,0 0,0 0,-0.082474 0,-0.082474 0.074242,0 0.074242,0 0.074242,0 0,0 0,0 0,0 0.074242,-0.082474 0.074242,-0.1649485 0.1484849,-0.1649485 0,-0.082474 0.074242,-0.1649484 0.1484848,-0.2474227 0,0 0,0 0,0 0,-0.082474 0.074242,-0.082474 0.074242,-0.1649484 0,0 0.074242,0 0.074242,-0.082474 0,0 0,0 0,0 0,0 0,0 0,-0.082474 0.074242,0 0.074242,0 0.074242,0 0,-0.082474 0.074242,-0.1649484 0.1484848,-0.2474227 0,0 0.074242,0 0.074242,-0.082474 0,0 0.074242,0 0.074242,0 0,0 0,0 0,0 0,-0.082474 0,-0.082474 0.074242,-0.1649484 0,0 0,0 0,0 0,0 0,0 0,0 0,0 0,0 0,0 0.074242,0 0.074242,-0.082474 0.074242,-0.082474 0,0 0,0 0,0 0.074242,-0.082474 0.074242,-0.082474 0.1484848,-0.1649484 0,0 0,0 0,0 0,0 0,0 0,0 0.074242,-0.082474 0.1484848,-0.2474227 0.2969696,-0.3298969 0,0 0,0 0,0 0,0 0,-0.082474 0,-0.082474 0.074242,0 0.074242,0 0.074242,0 0,0 0,-0.082474 0,-0.082474 0,0 0,0 0,0 0.074242,-0.082474 0.1484848,-0.1649484 0.2227272,-0.2474227 0,0 0,0 0,0 0.074243,0 0.074243,0 0.074243,0 0,0 0,-0.082474 0,-0.082474 0.074242,0 0.074242,-0.082474 0.1484848,-0.082474 0,-0.082474 0,-0.082474 0,-0.082474 0,0 0,0 0,0 C 5.9257512,5.0412642 6.074236,4.95879 6.1484784,4.7938415 c 0.074242,0 0.074242,0 0.074242,0 0,0 0,0 0,0 0,-0.082474 0,-0.082474 0,-0.082474 0,0 0.074242,0 0.074242,0 0,-0.082474 0.074242,-0.1649484 0.1484849,-0.1649484 0,-0.082474 0,-0.082474 0.074242,-0.082474 0,0 0,0 0,-0.082474 0,0 0,0 0.074242,0 0,0 0,0 0,-0.082474 0,0 0.074242,0 0.074242,0 0,0 0,0 0,0 0,-0.082474 0.074242,-0.082474 0.074242,-0.082474 0.074242,-0.082474 0.1484848,-0.082474 0.2227272,-0.1649484 0,-0.082474 0.074242,-0.082474 0.074242,-0.1649485 0,0 0,0 0,0 0.074242,0 0.074242,0 0.074242,0 0,0 0.074242,-0.082474 0.074242,-0.082474 0,0 0.074242,0 0.074242,-0.082474 0,0 0,0 0.074242,0 0,0 0,0 0,0 0.074242,-0.082474 0.074242,-0.082474 0.1484848,-0.1649485 0.074242,-0.082474 0.1484848,-0.1649484 0.2969695,-0.1649484 0,0 0,0 0,0 0,0 0,-0.082474 0,-0.082474 0,0 0.074242,0 0.074242,0 0,0 0,0 0,0 0.074242,-0.082474 0.074242,-0.082474 0.074242,-0.082474 0,0 0,0 0,0 0,0 0,0 0,0 0.074242,0 0.074242,0 0.074242,-0.082474 0,0 0,0 0,0 0,0 0,0 0,0 0,0 0,0 0,0 0,0 0,0 0,0 0.074242,-0.082474 0.1484848,-0.082474 0.2969696,-0.1649485 0,0 0,0 0,0 0,0 0,0 0,0 0.074242,0 0.074242,-0.082474 0.074242,-0.082474 0,0 0.074242,0 0.074242,0 0,0 0,-0.082474 0.074242,-0.082474 C 8.5984704,2.7319888 8.7469556,2.6495143 8.821198,2.6495143 8.89544,2.5670403 8.89544,2.5670403 8.89544,2.5670403 c 0.074242,0 0.074242,0 0.074242,0 0,-0.082474 0,-0.082474 0.074242,-0.082474 0.074242,0 0.074242,-0.082474 0.1484848,-0.082474 0,0 0,0 0,0 0,0 0.074243,0 0.074243,0 0,-0.082474 0.074242,-0.082474 0.1484848,-0.1649485 0,0 0.074242,0 0.074242,0 0,0 0,0 0,0 0,0 0,0 0,0 0.074242,-0.082474 0.2227272,-0.1649485 0.371212,-0.2474227 0.074242,0 0.1484844,-0.082474 0.2227264,-0.082474 0.07424,0 0.07424,-0.082474 0.148485,-0.082474 0,0 0,0 0,0 0.07424,0 0.07424,-0.082474 0.148486,-0.082474 0,0 0,0 0,0 0,0 0,0 0,0 0.07424,0 0.07424,0 0.07424,-0.082474 0.07424,0 0.148486,0 0.148486,0 0,0 0.07424,-0.082474 0.07424,-0.082474 0,0 0,0 0,0 0.07424,0 0.07424,0 0.07424,0 0,0 0,0 0,0 0.07424,-0.082474 0.222728,-0.082474 0.29697,-0.1649485 0.07424,0 0.148484,0 0.222728,-0.082474 0,0 0,0 0,0 0,0 0.07424,0 0.07424,0 0,0 0.07424,0 0.07424,-0.082474 0.07424,0 0.148486,0 0.222728,-0.082474 0,0 0,0.082474 0,0.082474 0,0 0,0 0,-0.082474 0,0.082474 0,0.082474 0,0.1649484 0,0 0,0 0,0 0,0 0,0 0,0 0,0 0,0.082474 0,0.082474 0,0 0,0 0,0 0,0 0,0 0,0.082474 0,0 0,0.082474 0,0.1649484 0,0 0,0 -0.07424,0 0,0 0,0 0,0 0,0 0,0 0,0 0,0.082474 0,0.082474 0,0.082474 0,0 0,0 0,0 0,0.082474 0,0.082474 0,0.082474 0,0 0,0 0.07424,0 0,0 0,-0.082474 0,-0.082474 0,0 0,0 0,0 0,0 0,0 0,0 0,-0.082474 0,-0.082474 0,-0.082474 0,0 0,0 0,-0.082474 0,0 0,0 0,0 0.07424,0 0.07424,0 0.07424,0 0,0 0,0 0,0 0,-0.082474 0,-0.082474 0,-0.082474 0.07424,-0.1649485 0.07424,-0.2474227 0.07424,-0.3298969 0.07424,0 0.07424,0 0.07424,0 0,-0.082474 0.07424,-0.082474 0.07424,-0.082474 0.07424,0 0.07424,0 0.07424,0 0.07424,0 0.07424,0 0.07424,0 0.07424,0 0.07424,0 0.148485,-0.082474 0,0 0,0 0,0 0,0 0,0 0,0 0.07424,0 0.148486,0 0.222728,0 0,0 0,0 0,0 0.07424,0 0.07424,0 0.07424,0 0,0 0,0 0,0 z M 11.56818,1.9072165 c 0,0 0,0 0,0 0,0 0,0 0,0 0,0 0,0 0,0 z m 0.445454,1.8969072 z M 11.86515,3.8865979 Z M 4.515152,6.6907216 Z M 4.3666671,6.9381443 Z m 3.266666,0.5773196 z M 6.8166666,8.3402062 Z M 6.519697,8.6701031 Z m -0.074242,0 z m 0,0 z m 0,0 v 0.082474 z m 0,0.082474 z m -0.2227272,0.082474 z m 0,0.082474 z m -0.074242,0 z m 0,0 z M 6.0000001,9 Z m 0,0 z m 0,0 z M 5.7772729,9.1649485 Z m 0,0 z m 0,0 z m -0.074242,0 z m -0.074242,0 v 0.082474 z"
     id="path4"
     inkscape:connector-curvature="0"
     style="fill:#e91e63;fill-opacity:1;stroke-width:0.78250146" />
</svg>
