<?xml version="1.0" encoding="UTF-8" standalone="no"?>
<!-- Generated by IcoMoon.io -->

<svg
   xmlns:dc="http://purl.org/dc/elements/1.1/"
   xmlns:cc="http://creativecommons.org/ns#"
   xmlns:rdf="http://www.w3.org/1999/02/22-rdf-syntax-ns#"
   xmlns:svg="http://www.w3.org/2000/svg"
   xmlns="http://www.w3.org/2000/svg"
   xmlns:sodipodi="http://sodipodi.sourceforge.net/DTD/sodipodi-0.dtd"
   xmlns:inkscape="http://www.inkscape.org/namespaces/inkscape"
   version="1.1"
   width="32"
   height="32"
   viewBox="0 0 32 32"
   id="svg2"
   inkscape:version="0.91 r13725"
   sodipodi:docname="terminal.svg">
  <metadata
     id="metadata10">
    <rdf:RDF>
      <cc:Work
         rdf:about="">
        <dc:format>image/svg+xml</dc:format>
        <dc:type
           rdf:resource="http://purl.org/dc/dcmitype/StillImage" />
      </cc:Work>
    </rdf:RDF>
  </metadata>
  <defs
     id="defs8" />
  <sodipodi:namedview
     pagecolor="#ffffff"
     bordercolor="#666666"
     borderopacity="1"
     objecttolerance="10"
     gridtolerance="10"
     guidetolerance="10"
     inkscape:pageopacity="0"
     inkscape:pageshadow="2"
     inkscape:window-width="1280"
     inkscape:window-height="751"
     id="namedview6"
     showgrid="false"
     inkscape:zoom="7.375"
     inkscape:cx="16"
     inkscape:cy="16"
     inkscape:window-x="0"
     inkscape:window-y="0"
     inkscape:window-maximized="1"
     inkscape:current-layer="svg2" />
  <path
     d="m 29.589888,2.4101117 -27.1797769,0 c -1.2508106,0 -2.26498134,1.0141708 -2.26498134,2.2649814 l 0,22.6498139 c 0,1.25081 1.01417074,2.264981 2.26498134,2.264981 l 27.1797769,0 c 1.250811,0 2.264982,-1.014171 2.264982,-2.264981 l 0,-22.6498139 c 0,-1.2508106 -1.014171,-2.2649814 -2.264982,-2.2649814 z M 4.6750925,18.264981 9.2050549,13.735018 4.6750925,9.2050561 6.9400742,6.9400743 13.735018,13.735018 6.9400742,20.529963 4.6750925,18.264981 Z m 18.1198515,2.264982 -9.059926,0 0,-2.264982 9.059926,0 0,2.264982 z"
     id="path4"
     inkscape:connector-curvature="0"
     style="fill:#917c6f" />
</svg>
