<?xml version="1.0" encoding="UTF-8" standalone="no"?>
<svg
   xmlns:dc="http://purl.org/dc/elements/1.1/"
   xmlns:cc="http://creativecommons.org/ns#"
   xmlns:rdf="http://www.w3.org/1999/02/22-rdf-syntax-ns#"
   xmlns:svg="http://www.w3.org/2000/svg"
   xmlns="http://www.w3.org/2000/svg"
   xmlns:sodipodi="http://sodipodi.sourceforge.net/DTD/sodipodi-0.dtd"
   xmlns:inkscape="http://www.inkscape.org/namespaces/inkscape"
   width="14"
   height="14"
   viewBox="0 0 14 14"
   version="1.1"
   id="svg4"
   sodipodi:docname="c++.svg"
   inkscape:version="0.92.1 r">
  <metadata
     id="metadata10">
    <rdf:RDF>
      <cc:Work
         rdf:about="">
        <dc:format>image/svg+xml</dc:format>
        <dc:type
           rdf:resource="http://purl.org/dc/dcmitype/StillImage" />
      </cc:Work>
    </rdf:RDF>
  </metadata>
  <defs
     id="defs8" />
  <sodipodi:namedview
     pagecolor="#ffffff"
     bordercolor="#666666"
     borderopacity="1"
     objecttolerance="10"
     gridtolerance="10"
     guidetolerance="10"
     inkscape:pageopacity="0"
     inkscape:pageshadow="2"
     inkscape:window-width="640"
     inkscape:window-height="480"
     id="namedview6"
     showgrid="true"
     inkscape:zoom="33.808543"
     inkscape:cx="5.0419036"
     inkscape:cy="7.3719115"
     inkscape:current-layer="svg4">
    <inkscape:grid
       type="xygrid"
       id="grid12" />
  </sodipodi:namedview>
  <path
     d="M 7,1 V 2 H 6 V 3 H 7 V 4 H 8 V 3 H 9 V 2 H 8 V 1 Z m 4,0 v 1 h -1 v 1 h 1 v 1 h 1 V 3 h 1 V 2 H 12 V 1 Z M 2,6 C 1.446,6 1,6.446 1,7 v 5 c 0,0.554 0.446,1 1,1 h 5 c 0.554,0 1,-0.446 1,-1 V 11.334 L 7,11 c 0,0.554 -0.446,1 -1,1 H 3 C 2.446,12 2,11.554 2,11 V 8 C 2,7.446 2.446,7 3,7 H 6 C 6.554,7 7,7.446 7,8 L 8,7.666 V 7 C 8,6.446 7.554,6 7,6 Z"
     id="path2"
     inkscape:connector-curvature="0"
     style="fill:#1d70f7" />
</svg>
