<?xml version="1.0" encoding="UTF-8" standalone="no"?>
<svg
   xmlns:dc="http://purl.org/dc/elements/1.1/"
   xmlns:cc="http://creativecommons.org/ns#"
   xmlns:rdf="http://www.w3.org/1999/02/22-rdf-syntax-ns#"
   xmlns:svg="http://www.w3.org/2000/svg"
   xmlns="http://www.w3.org/2000/svg"
   xmlns:sodipodi="http://sodipodi.sourceforge.net/DTD/sodipodi-0.dtd"
   xmlns:inkscape="http://www.inkscape.org/namespaces/inkscape"
   preserveAspectRatio="xMidYMid"
   height="16"
   width="16"
   id="svg2"
   version="1.1"
   inkscape:version="0.91 r13725"
   sodipodi:docname="cpp.svg">
  <metadata
     id="metadata10">
    <rdf:RDF>
      <cc:Work
         rdf:about="">
        <dc:format>image/svg+xml</dc:format>
        <dc:type
           rdf:resource="http://purl.org/dc/dcmitype/StillImage" />
      </cc:Work>
    </rdf:RDF>
  </metadata>
  <defs
     id="defs8" />
  <sodipodi:namedview
     pagecolor="#ffffff"
     bordercolor="#666666"
     borderopacity="1"
     objecttolerance="10"
     gridtolerance="10"
     guidetolerance="10"
     inkscape:pageopacity="0"
     inkscape:pageshadow="2"
     inkscape:window-width="1280"
     inkscape:window-height="751"
     id="namedview6"
     showgrid="false"
     inkscape:zoom="29.5"
     inkscape:cx="4.5127565"
     inkscape:cy="9.0005699"
     inkscape:window-x="0"
     inkscape:window-y="0"
     inkscape:window-maximized="1"
     inkscape:current-layer="svg2" />
  <path
     d="m 9.7627119,2.7559322 0,1.7 c -0.5,-0.5 -1.1,-0.9 -1.7,-1.2 -0.7,-0.2 -1.3,-0.3 -2,-0.3 -1.4,0 -2.5,0.4 -3.2,1.2 -0.8,0.9 -1.1,2.1 -1.1,3.7 0,1.6 0.3,2.8000008 1.1,3.7000008 0.7,0.8 1.8,1.3 3.2,1.3 0.7,0 1.3,-0.2 2,-0.4 0.6,-0.3 1.2,-0.7 1.7,-1.2 l 0,1.7 c -0.6,0.4 -1.2,0.7 -1.8,0.9 -0.6,0.2 -1.3,0.3 -2,0.3 -1.9,0 -3.3,-0.6 -4.4,-1.7 -1.00000003,-1.1 -1.60000003,-2.6000008 -1.60000003,-4.6000008 0,-1.9 0.6,-3.5 1.60000003,-4.6 1.1,-1.1 2.5,-1.7 4.4,-1.7 0.7,0 1.4,0.1 2,0.3 0.7,0.2 1.3,0.5 1.8,0.9 z m -2,2.7 0,2.1 2.0999996,0 0,0.6 -2.0999996,0 0,2.1000008 -0.6,0 0,-2.1000008 -2.1,0 0,-0.6 2.1,0 0,-2.1 0.6,0 z m 6.0999991,0 0,2.1 2.1,0 0,0.6 -2.1,0 0,2.1000008 -0.6,0 0,-2.1000008 -2.1,0 0,-0.6 2.1,0 0,-2.1 0.6,0 z"
     id="path4"
     inkscape:connector-curvature="0"
     style="fill:#008000;fill-opacity:1" />
</svg>
