<?xml version="1.0" encoding="UTF-8" standalone="no"?>
<svg
   xmlns:dc="http://purl.org/dc/elements/1.1/"
   xmlns:cc="http://creativecommons.org/ns#"
   xmlns:rdf="http://www.w3.org/1999/02/22-rdf-syntax-ns#"
   xmlns:svg="http://www.w3.org/2000/svg"
   xmlns="http://www.w3.org/2000/svg"
   id="svg4"
   version="1.1"
   viewBox="0 0 14 14"
   height="14"
   width="14">
  <metadata
     id="metadata10">
    <rdf:RDF>
      <cc:Work
         rdf:about="">
        <dc:format>image/svg+xml</dc:format>
        <dc:type
           rdf:resource="http://purl.org/dc/dcmitype/StillImage" />
        <dc:title></dc:title>
      </cc:Work>
    </rdf:RDF>
  </metadata>
  <defs
     id="defs8" />
  <path
     style="fill:#1d70f7;stroke-width:1.14285707"
     id="path2"
     d="M 4.1428572,3.096 C 3.5097143,3.096 3,3.6057143 3,4.2388572 V 9.9531431 C 3,10.586285 3.5097143,11.096 4.1428572,11.096 H 9.8571428 C 10.490285,11.096 11,10.586285 11,9.9531431 V 9.192 L 9.8571428,8.8102853 c 0,0.6331431 -0.5097143,1.1428578 -1.1428571,1.1428578 H 5.2857143 c -0.6331428,0 -1.1428571,-0.5097147 -1.1428571,-1.1428578 v -3.428571 c 0,-0.6331428 0.5097143,-1.1428571 1.1428571,-1.1428571 h 3.4285714 c 0.6331428,0 1.1428571,0.5097143 1.1428571,1.1428571 L 11,5 V 4.2388572 C 11,3.6057143 10.490285,3.096 9.8571428,3.096 Z" />
</svg>
