<?xml version="1.0" encoding="UTF-8" standalone="no"?>
<svg
   xmlns:dc="http://purl.org/dc/elements/1.1/"
   xmlns:cc="http://creativecommons.org/ns#"
   xmlns:rdf="http://www.w3.org/1999/02/22-rdf-syntax-ns#"
   xmlns:svg="http://www.w3.org/2000/svg"
   xmlns="http://www.w3.org/2000/svg"
   xmlns:sodipodi="http://sodipodi.sourceforge.net/DTD/sodipodi-0.dtd"
   xmlns:inkscape="http://www.inkscape.org/namespaces/inkscape"
   preserveAspectRatio="xMidYMid"
   height="16"
   width="16"
   id="svg2"
   version="1.1"
   inkscape:version="0.91 r13725"
   sodipodi:docname="glyph__f10e.svg">
  <metadata
     id="metadata10">
    <rdf:RDF>
      <cc:Work
         rdf:about="">
        <dc:format>image/svg+xml</dc:format>
        <dc:type
           rdf:resource="http://purl.org/dc/dcmitype/StillImage" />
      </cc:Work>
    </rdf:RDF>
  </metadata>
  <defs
     id="defs8" />
  <sodipodi:namedview
     pagecolor="#ffffff"
     bordercolor="#666666"
     borderopacity="1"
     objecttolerance="10"
     gridtolerance="10"
     guidetolerance="10"
     inkscape:pageopacity="0"
     inkscape:pageshadow="2"
     inkscape:window-width="1280"
     inkscape:window-height="751"
     id="namedview6"
     showgrid="false"
     inkscape:zoom="20.85965"
     inkscape:cx="6.5023928"
     inkscape:cy="10.422574"
     inkscape:window-x="0"
     inkscape:window-y="0"
     inkscape:window-maximized="1"
     inkscape:current-layer="svg2" />
  <path
     d="m 10.45,6.5 c 0,0 -0.1,-1.8 -1.9,-1.8 C 6.85,4.6 5.95,6 5.95,8 c 0,2 1,3.5 2.7,3.5 1.7,0 1.8,-2 1.8,-2 l 3.3,0.2 c 0,0 0.2,1.8 -1.2,3.1 -1.3,1.4 -3,1.6 -4.2,1.6 -1.1,0 -2.8,0 -4.3,-1.6 -1.6,-1.6 -1.9,-3.1 -1.9,-4.7 0,-1.5 0.3,-3.5 2.2,-5.1 1.3,-1 2.5,-1.4 3.8,-1.4 5.4,0 5.7,4.9 5.7,4.9 z"
     id="path4"
     inkscape:connector-curvature="0"
     style="fill:#008000" />
</svg>
