<?xml version="1.0" encoding="UTF-8" standalone="no"?>
<!-- Generated by IcoMoon.io -->

<svg
   xmlns:dc="http://purl.org/dc/elements/1.1/"
   xmlns:cc="http://creativecommons.org/ns#"
   xmlns:rdf="http://www.w3.org/1999/02/22-rdf-syntax-ns#"
   xmlns:svg="http://www.w3.org/2000/svg"
   xmlns="http://www.w3.org/2000/svg"
   xmlns:sodipodi="http://sodipodi.sourceforge.net/DTD/sodipodi-0.dtd"
   xmlns:inkscape="http://www.inkscape.org/namespaces/inkscape"
   version="1.1"
   width="32"
   height="32"
   viewBox="0 0 32 32"
   id="svg2"
   inkscape:version="0.91 r13725"
   sodipodi:docname="coffeescript.svg">
  <metadata
     id="metadata10">
    <rdf:RDF>
      <cc:Work
         rdf:about="">
        <dc:format>image/svg+xml</dc:format>
        <dc:type
           rdf:resource="http://purl.org/dc/dcmitype/StillImage" />
      </cc:Work>
    </rdf:RDF>
  </metadata>
  <defs
     id="defs8" />
  <sodipodi:namedview
     pagecolor="#ffffff"
     bordercolor="#666666"
     borderopacity="1"
     objecttolerance="10"
     gridtolerance="10"
     guidetolerance="10"
     inkscape:pageopacity="0"
     inkscape:pageshadow="2"
     inkscape:window-width="1280"
     inkscape:window-height="751"
     id="namedview6"
     showgrid="false"
     inkscape:zoom="7.375"
     inkscape:cx="16"
     inkscape:cy="16"
     inkscape:window-x="0"
     inkscape:window-y="0"
     inkscape:window-maximized="1"
     inkscape:current-layer="svg2" />
  <path
     d="M 16.805948,4.0285855 C 16.256622,4.1906368 15.03025,4.7385902 14.062062,5.2879168 11.834542,6.5472481 10.284068,6.8370173 9.4133852,6.1915591 8.864059,5.7397379 8.8324729,5.6436058 9.2527072,5.3524626 9.510891,5.158825 10.285441,5.0613195 10.9309,5.0942791 c 0.678418,0.031586 1.226372,-0.064546 1.226372,-0.2265973 0.03159,-0.5809128 -3.0995752,-0.5809128 -3.6804887,0 -1.1947845,1.2263718 -0.032959,2.454117 2.5186627,2.6793409 1.484555,0.1290919 2.098428,-0.031591 4.325948,-1.0327343 2.905937,-1.3238771 5.100497,-1.7427387 6.166191,-1.1947854 0.80751,0.4518211 0.903642,1.1618258 0.160678,1.452969 -0.936602,0.3543152 -2.614795,0.1936372 -3.03503,-0.2581836 -0.420235,-0.5479533 -1.290918,-0.3227293 -1.290918,0.3227289 0,1.3238776 4.90686,1.5175154 6.166192,0.2265977 C 25.522389,5.0613195 21.034389,3.0274378 16.805948,4.0285855 Z M 2.3064725,6.1599727 C -0.34128182,7.5799826 2.2103405,9.5177312 7.9878829,10.485921 15.3159,11.712292 26.842146,10.808649 29.940348,8.7747671 30.941496,8.1293088 31.006042,6.8054315 30.102398,6.3206508 29.553072,6.0295077 29.45694,6.0624673 29.45694,6.6117939 c 0,1.7756987 -5.133457,2.9375245 -13.106933,2.9375245 -8.7809859,0 -13.8169373,-1.2593316 -13.1714785,-3.3247997 0.1936376,-0.6454589 0.1936376,-0.6454589 -0.872056,-0.064546 z m 0.013733,4.9068603 c 0.1290918,0.48478 0.4202349,1.549101 0.6454587,2.325025 0.420235,1.388423 0.3872754,1.420009 -0.7100045,2.550249 -2.48570298,2.583209 -2.26047905,6.133231 0.5809129,8.233033 0.9681881,0.710004 3.6159424,0.872056 4.229815,0.258183 0.2581838,-0.258183 0.160678,-0.355689 -0.3556896,-0.355689 -0.8390959,0 -2.8084318,-1.679566 -3.4868502,-2.937524 C 2.5783892,19.849192 2.642935,17.846897 3.384526,16.943254 l 0.6138724,-0.77455 0.3227294,0.80751 c 0.1936377,0.451821 1.1618258,2.066842 2.1959332,3.551396 1.0327344,1.517516 2.0984282,3.39072 2.3895707,4.196856 0.4847803,1.259331 0.80751,1.582061 2.4211573,2.421157 1.58206,0.77455 2.356611,0.968188 4.810727,1.065694 4.777768,0.226597 8.23166,-1.194786 8.7494,-3.518437 0.129092,-0.549327 1.13024,-2.325025 2.227519,-3.938672 2.065468,-3.066616 3.00207,-4.93982 3.874126,-7.941889 0.774552,-2.647755 0.742964,-2.679342 -1.194784,-1.807286 -2.905939,1.323878 -7.554615,1.871832 -14.399225,1.679566 -7.0052867,-0.193636 -9.5884957,-0.678418 -13.0423868,-2.421156 -0.1290917,-0.06455 -0.1606779,0.28977 -0.031586,0.80751 z"
     id="path4"
     inkscape:connector-curvature="0"
     style="fill:#5c5ca3;fill-opacity:1" />
</svg>
