<?xml version="1.0" encoding="UTF-8" standalone="no"?>
<!-- Created with Inkscape (http://www.inkscape.org/) -->

<svg
   xmlns:dc="http://purl.org/dc/elements/1.1/"
   xmlns:cc="http://creativecommons.org/ns#"
   xmlns:rdf="http://www.w3.org/1999/02/22-rdf-syntax-ns#"
   xmlns:svg="http://www.w3.org/2000/svg"
   xmlns="http://www.w3.org/2000/svg"
   version="1.1"
   width="16"
   height="16"
   id="svg2">
  <defs
     id="defs4">
    <linearGradient
       id="linearGradient3859">
      <stop
         id="stop3861"
         style="stop-color:#eec73e;stop-opacity:1"
         offset="0" />
      <stop
         id="stop3863"
         style="stop-color:#9a8022;stop-opacity:1"
         offset="1" />
    </linearGradient>
    <linearGradient
       id="linearGradient3851">
      <stop
         id="stop3853"
         style="stop-color:#6699cc;stop-opacity:1"
         offset="0" />
      <stop
         id="stop3855"
         style="stop-color:#0054a7;stop-opacity:1"
         offset="1" />
    </linearGradient>
  </defs>
  <metadata
     id="metadata7">
    <rdf:RDF>
      <cc:Work
         rdf:about="">
        <dc:format>image/svg+xml</dc:format>
        <dc:type
           rdf:resource="http://purl.org/dc/dcmitype/StillImage" />
        <dc:title></dc:title>
      </cc:Work>
    </rdf:RDF>
  </metadata>
  <g
     transform="translate(0,-1036.3622)"
     id="layer1"
     style="fill:#c4a000;fill-opacity:1">
    <path
       d="m 2,0 c 1,0 11,0 12,0 1,0 2,1 2,2 0,1 0,11 0,12 0,1 -1,2 -2,2 C 13,16 3,16 2,16 1,16 0,15 0,14 0,13 0,3 0,2 0,1 1,0 2,0 z"
       transform="translate(0,1036.3622)"
       id="rect2995"
       style="fill:#c4a000;fill-opacity:1;stroke:none" />
    <text
       x="5.1758919"
       y="14.543665"
       transform="translate(0,1036.3622)"
       id="text3921"
       xml:space="preserve"
       style="font-size:12px;font-style:normal;font-variant:normal;font-weight:normal;font-stretch:normal;line-height:125%;letter-spacing:0px;word-spacing:0px;fill:#c4a000;fill-opacity:1;stroke:none;font-family:Ubuntu Mono;-inkscape-font-specification:Ubuntu Mono"><tspan
         x="5.1758919"
         y="14.543665"
         id="tspan3923"
         style="fill:#c4a000;fill-opacity:1" /></text>
    <g
       id="text3925"
       style="font-size:12px;font-style:normal;font-variant:normal;font-weight:normal;font-stretch:normal;line-height:125%;letter-spacing:0px;word-spacing:0px;fill:#c4a000;fill-opacity:1;stroke:none;font-family:Ubuntu Mono;-inkscape-font-specification:Ubuntu Mono" />
  </g>
  <g
     id="text4084"
     style="font-size:12px;font-style:normal;font-variant:normal;font-weight:normal;font-stretch:normal;line-height:125%;letter-spacing:0px;word-spacing:0px;fill:#ffffff;fill-opacity:1;stroke:none;font-family:Ubuntu Mono;-inkscape-font-specification:Ubuntu Mono">
    <path
       d="m 4.3871875,6.0722656 c -0.4557319,4.8e-6 -0.8085961,0.1718796 -1.0585938,0.515625 -0.2500018,0.3411498 -0.3750017,0.8177118 -0.375,1.4296875 -1.7e-6,1.2734391 0.4778624,1.9101572 1.4335938,1.9101563 0.4010381,9e-7 0.8867147,-0.1002594 1.4570312,-0.3007813 l 0,1.0156249 c -0.4687541,0.195313 -0.9921911,0.292969 -1.5703125,0.292969 -0.8307313,0 -1.4661474,-0.251302 -1.90625,-0.753906 C 1.9275514,9.6764335 1.7074995,8.9524759 1.7075,8.0097656 1.7074995,7.4160191 1.8155723,6.8964883 2.0317187,6.4511719 2.2478636,6.0032601 2.5577591,5.6608125 2.9614062,5.4238281 3.3676541,5.1842505 3.842914,5.0644589 4.3871875,5.0644531 c 0.5546838,5.8e-6 1.1119749,0.1341203 1.671875,0.4023438 l -0.390625,0.984375 C 5.4548916,6.3496139 5.2400481,6.2610723 5.0239062,6.1855469 4.8077568,6.1100308 4.5955175,6.0722704 4.3871875,6.0722656"
       id="path2996"
       style="font-size:8px;font-weight:bold;letter-spacing:-0.27000001px;fill:#ffffff;fill-opacity:1;font-family:Sans;-inkscape-font-specification:Sans Bold" />
    <path
       d="m 10.15625,9.2714844 c -4e-6,0.515626 -0.1862018,0.9218756 -0.5585937,1.2187496 -0.3697949,0.296875 -0.8854194,0.445313 -1.546875,0.445313 -0.6093764,0 -1.1484384,-0.114583 -1.6171876,-0.34375 l 0,-1.1250001 c 0.385416,0.1718762 0.7109365,0.2929698 0.9765625,0.3632812 0.2682276,0.070314 0.513019,0.1054697 0.7343751,0.1054688 0.2656226,9e-7 0.4687474,-0.05078 0.609375,-0.1523438 C 8.8971326,9.6816418 8.9687471,9.5306003 8.96875,9.3300781 8.9687471,9.2181006 8.9374971,9.1191424 8.875,9.0332031 8.8124973,8.9446634 8.7200494,8.860028 8.5976563,8.7792969 8.4778622,8.6985699 8.2317687,8.5696637 7.859375,8.3925781 7.5104152,8.2285183 7.2486967,8.0709663 7.0742187,7.9199219 6.8997387,7.7688833 6.760416,7.5931022 6.65625,7.3925781 6.5520828,7.192061 6.4999996,6.9576862 6.5,6.6894531 6.4999996,6.1842495 6.6705723,5.7871144 7.0117187,5.4980469 7.3554675,5.20899 7.8294253,5.0644589 8.4335938,5.0644531 c 0.2968723,5.8e-6 0.5794241,0.035162 0.8476562,0.1054688 0.2708298,0.070318 0.5533816,0.1692763 0.847656,0.296875 L 9.7382813,6.4082031 C 9.4335904,6.2832077 9.1809865,6.1959682 8.9804688,6.1464844 8.7825494,6.09701 8.5872371,6.0722704 8.3945313,6.0722656 8.1653625,6.0722704 7.9895814,6.1256558 7.8671875,6.2324219 7.74479,6.3391972 7.6835921,6.47852 7.6835937,6.6503906 c -1.6e-6,0.106775 0.024738,0.2005249 0.074219,0.28125 0.049477,0.078129 0.1276023,0.1549517 0.234375,0.2304688 0.109373,0.07292 0.3658831,0.2057326 0.7695313,0.3984375 0.5338509,0.2552113 0.8997359,0.5117215 1.0976562,0.7695312 0.1979128,0.2552106 0.2968708,0.5690124 0.2968748,0.9414063"
       id="path2998"
       style="font-size:8px;font-weight:bold;letter-spacing:-0.27000001px;fill:#ffffff;fill-opacity:1;font-family:Sans;-inkscape-font-specification:Sans Bold" />
    <path
       d="m 14.2925,9.2714844 c -4e-6,0.515626 -0.186202,0.9218756 -0.558594,1.2187496 -0.369795,0.296875 -0.885419,0.445313 -1.546875,0.445313 -0.609376,0 -1.148438,-0.114583 -1.617187,-0.34375 l 0,-1.1250001 c 0.385416,0.1718762 0.710936,0.2929698 0.976562,0.3632812 0.268228,0.070314 0.513019,0.1054697 0.734375,0.1054688 0.265623,9e-7 0.468748,-0.05078 0.609375,-0.1523438 C 13.033383,9.6816418 13.104997,9.5306003 13.105,9.3300781 13.104997,9.2181006 13.07375,9.1191424 13.01125,9.0332031 12.948747,8.9446634 12.856299,8.860028 12.733906,8.7792969 12.614112,8.6985699 12.368019,8.5696637 11.995625,8.3925781 11.646665,8.2285183 11.384947,8.0709663 11.210469,7.9199219 11.035989,7.7688833 10.896666,7.5931022 10.7925,7.3925781 10.688333,7.192061 10.63625,6.9576862 10.63625,6.6894531 c 0,-0.5052036 0.170572,-0.9023387 0.511719,-1.1914062 0.343748,-0.2890569 0.817706,-0.433588 1.421875,-0.4335938 0.296872,5.8e-6 0.579424,0.035162 0.847656,0.1054688 0.27083,0.070318 0.553382,0.1692763 0.847656,0.296875 L 13.874531,6.4082031 C 13.56984,6.2832077 13.317236,6.1959682 13.116719,6.1464844 12.918799,6.09701 12.723487,6.0722704 12.530781,6.0722656 c -0.229168,4.8e-6 -0.40495,0.05339 -0.527343,0.1601563 -0.122398,0.1067753 -0.183596,0.2460981 -0.183594,0.4179687 -2e-6,0.106775 0.02474,0.2005249 0.07422,0.28125 0.04948,0.078129 0.127602,0.1549517 0.234375,0.2304688 0.109372,0.07292 0.365883,0.2057326 0.769531,0.3984375 0.533851,0.2552113 0.899736,0.5117215 1.097656,0.7695312 0.197913,0.2552106 0.296871,0.5690124 0.296875,0.9414063"
       id="path3000"
       style="font-size:8px;font-weight:bold;letter-spacing:-0.27000001px;fill:#ffffff;fill-opacity:1;font-family:Sans;-inkscape-font-specification:Sans Bold" />
  </g>
</svg>
