<?xml version="1.0" encoding="UTF-8" standalone="no"?>
<svg
   xmlns:dc="http://purl.org/dc/elements/1.1/"
   xmlns:cc="http://creativecommons.org/ns#"
   xmlns:rdf="http://www.w3.org/1999/02/22-rdf-syntax-ns#"
   xmlns:svg="http://www.w3.org/2000/svg"
   xmlns="http://www.w3.org/2000/svg"
   xmlns:sodipodi="http://sodipodi.sourceforge.net/DTD/sodipodi-0.dtd"
   xmlns:inkscape="http://www.inkscape.org/namespaces/inkscape"
   width="14"
   height="14"
   viewBox="0 0 14 14"
   version="1.1"
   id="svg4"
   sodipodi:docname="css.svg"
   inkscape:version="0.92.1 r">
  <metadata
     id="metadata10">
    <rdf:RDF>
      <cc:Work
         rdf:about="">
        <dc:format>image/svg+xml</dc:format>
        <dc:type
           rdf:resource="http://purl.org/dc/dcmitype/StillImage" />
      </cc:Work>
    </rdf:RDF>
  </metadata>
  <defs
     id="defs8" />
  <sodipodi:namedview
     pagecolor="#ffffff"
     bordercolor="#666666"
     borderopacity="1"
     objecttolerance="10"
     gridtolerance="10"
     guidetolerance="10"
     inkscape:pageopacity="0"
     inkscape:pageshadow="2"
     inkscape:window-width="640"
     inkscape:window-height="480"
     id="namedview6"
     showgrid="true"
     inkscape:zoom="33.808543"
     inkscape:cx="6.9824806"
     inkscape:cy="6.0550914"
     inkscape:current-layer="svg4">
    <inkscape:grid
       type="xygrid"
       id="grid12" />
  </sodipodi:namedview>
  <path
     d="m 5.508,0.998 c -1.165,0.411 -2,1.507 -2,2.814 v 0.381 c 0,0.74 -0.404,1.378 -1,1.723 v 2.166 c 0.596,0.345 1,0.981 1,1.721 v 0.381 c 0,1.307 0.835,2.403 2,2.814 v -1.092 c -0.596,-0.345 -1,-0.983 -1,-1.723 V 9.802 C 4.508,8.502 3.682,7.414 2.528,6.997 3.682,6.58 4.508,5.492 4.508,4.192 V 3.811 c 0,-0.74 0.404,-1.378 1,-1.723 z m 4,0 V 2.09 c 0.596,0.345 1,0.983 1,1.723 v 0.381 c 0,1.299 0.827,2.388 1.98,2.805 -1.154,0.416 -1.98,1.505 -1.98,2.805 v 0.381 c 0,0.74 -0.404,1.378 -1,1.723 V 13 c 1.165,-0.411 2,-1.507 2,-2.814 V 9.805 c 0,-0.74 0.404,-1.376 1,-1.721 V 5.918 c -0.596,-0.345 -1,-0.983 -1,-1.723 V 3.814 c 0,-1.307 -0.835,-2.403 -2,-2.814 M 1,11.58 V 13 h 1.508 v -1.42 z"
     id="path2"
     inkscape:connector-curvature="0"
     style="color:#000000;color-interpolation:sRGB;color-interpolation-filters:linearRGB;fill:#f9d24c;color-rendering:auto;image-rendering:auto;shape-rendering:auto;text-rendering:auto" />
</svg>
