<?xml version="1.0" encoding="UTF-8" standalone="no"?>
<svg
   xmlns:dc="http://purl.org/dc/elements/1.1/"
   xmlns:cc="http://creativecommons.org/ns#"
   xmlns:rdf="http://www.w3.org/1999/02/22-rdf-syntax-ns#"
   xmlns:svg="http://www.w3.org/2000/svg"
   xmlns="http://www.w3.org/2000/svg"
   xmlns:sodipodi="http://sodipodi.sourceforge.net/DTD/sodipodi-0.dtd"
   xmlns:inkscape="http://www.inkscape.org/namespaces/inkscape"
   preserveAspectRatio="xMidYMid"
   height="16"
   width="16"
   scaleAuto="16"
   id="svg2"
   version="1.1"
   inkscape:version="0.91 r13725"
   sodipodi:docname="go.svg">
  <metadata
     id="metadata10">
    <rdf:RDF>
      <cc:Work
         rdf:about="">
        <dc:format>image/svg+xml</dc:format>
        <dc:type
           rdf:resource="http://purl.org/dc/dcmitype/StillImage" />
        <dc:title></dc:title>
      </cc:Work>
    </rdf:RDF>
  </metadata>
  <defs
     id="defs8" />
  <sodipodi:namedview
     pagecolor="#ffffff"
     bordercolor="#666666"
     borderopacity="1"
     objecttolerance="10"
     gridtolerance="10"
     guidetolerance="10"
     inkscape:pageopacity="0"
     inkscape:pageshadow="2"
     inkscape:window-width="1077"
     inkscape:window-height="741"
     id="namedview6"
     showgrid="false"
     inkscape:zoom="29.5"
     inkscape:cx="7.3207628"
     inkscape:cy="6.8277594"
     inkscape:window-x="699"
     inkscape:window-y="225"
     inkscape:window-maximized="0"
     inkscape:current-layer="svg2" />
  <g
     style="fill:#3e9ade"
     id="g4"
     transform="matrix(0.12773855,0,0,0.12773855,-0.15528691,-0.17910188)">
    <path
       style="fill:#3e9ade"
       id="path6"
       d="m 108.2,64.8 c -0.1,-0.1 -0.2,-0.2 -0.4,-0.2 l -0.1,-0.1 c -0.1,-0.1 -0.2,-0.1 -0.2,-0.2 l -0.1,-0.1 c -0.1,0 -0.2,-0.1 -0.2,-0.1 L 107,64 c -0.1,0 -0.2,-0.1 -0.2,-0.1 l -0.2,-0.1 c -0.1,0 -0.2,-0.1 -0.2,-0.1 -0.1,0 -0.1,0 -0.2,-0.1 l -0.3,-0.1 c -0.1,0 -0.1,0 -0.2,-0.1 l -0.3,-0.1 -0.1,0 -0.4,-0.1 -0.2,0 c -0.1,0 -0.2,0 -0.3,-0.1 l -2.3,0 C 101.5,49.8 102.7,36.3 99.3,23.5 112.2,18.9 102.1,1.2 90.9,9.1 83.5,2.7 73.3,1.3 62.6,1.3 52.1,2 42.2,4.2 35.2,9.7 32.4,8.3 29.7,7.9 27.3,8.6 l 0,0.1 c -0.1,0 -0.3,0.1 -0.4,0.2 -0.1,0 -0.3,0.1 -0.4,0.2 l -0.1,0 c -0.1,0 -0.2,0.1 -0.4,0.2 l -0.1,0 -0.3,0.2 -0.1,0 -0.3,0.2 -0.1,0 -0.3,0.2 c 0,0 -0.1,0 -0.1,0.1 l -0.3,0.2 c 0,0 -0.1,0 -0.1,0.1 L 24,10.5 c 0,0 -0.1,0 -0.1,0.1 l -0.3,0.2 -0.1,0.1 C 23.4,11 23.3,11 23.3,11.1 l -0.1,0.1 -0.2,0.2 -0.1,0.1 c -0.1,0.1 -0.1,0.2 -0.2,0.2 l -0.1,0.1 C 22.5,11.9 22.5,12 22.4,12 l -0.1,0.1 c -0.1,0.1 -0.1,0.2 -0.2,0.2 L 22,12.4 c -0.1,0.1 -0.1,0.2 -0.2,0.2 l -0.1,0.1 c -0.1,0.1 -0.1,0.2 -0.2,0.2 l -0.1,0.1 -0.1,0.3 c 0,0 0,0.1 -0.1,0.1 l -0.1,0.3 c 0,0 0,0.1 -0.1,0.1 l -0.1,0.3 c 0,0 0,0.1 -0.1,0.1 l -0.1,0.3 c 0,0 0,0.1 -0.1,0.1 C 21,14.9 21,15 21,15 l 0,0.1 -0.1,0.3 0,0.1 c 0,0.1 0,0.2 -0.1,0.3 l 0,3.1 c 0,0.1 0,0.2 0.1,0.3 l 0,0.1 0.1,0.3 0,0.1 0.1,0.3 c 0,0 0,0.1 0.1,0.1 l 0.1,0.3 c 0,0 0,0.1 0.1,0.1 l 0.1,0.3 c 0,0 0,0.1 0.1,0.1 l 0.2,0.3 c 0,0 0,0.1 0.1,0.1 l 0.2,0.3 c 0,0 0,0.1 0.1,0.1 l 0.2,0.3 0.1,0.1 0.3,0.3 0.3,0.3 0.1,0 c 1,0.9 2,1.6 4,2.2 l 0,-0.2 C 23,37.3 26.5,50 26.7,63 26.1,63 26,63.4 25,63.5 l -0.5,0 c -0.1,0 -0.3,0 -0.5,0.1 -0.1,0 -0.3,0 -0.4,0.1 l -0.4,0.1 -0.1,0 -0.4,0.1 -0.1,0 -0.3,0.1 -0.1,0 -0.3,0.1 c 0,0 -0.1,0 -0.1,0.1 l -0.3,0.1 -0.2,0.1 c -0.1,0 -0.2,0.1 -0.2,0.1 l -0.2,0.1 -0.2,0.1 c -0.1,0 -0.2,0.1 -0.2,0.1 l -0.2,0.1 -0.4,0.3 c -0.1,0.1 -0.2,0.2 -0.3,0.2 l -0.4,0.4 -0.1,0.1 c -0.1,0.2 -0.3,0.4 -0.4,0.5 l -0.2,0.3 -0.3,0.6 -0.1,0.3 0,0.3 c 0,0.5 0.2,0.9 0.9,1.2 0.2,3.7 3.9,2 5.6,0.8 l 0.1,-0.1 c 0.2,-0.2 0.5,-0.3 0.6,-0.3 l 0.1,0 0.2,-0.1 c 0.1,0 0.1,0 0.2,-0.1 0.2,-0.1 0.4,-0.1 0.5,-0.2 0.1,0 0.1,-0.1 0.1,-0.2 l 0.1,-0.1 c 0.1,-0.2 0.2,-0.6 0.2,-1.2 l 0.1,-1.3 0,1.8 c -0.5,13.1 -4,30.7 3.3,42.5 1.3,2.1 2.9,3.9 4.7,5.4 l -0.5,0 c -0.2,0.2 -0.5,0.4 -0.8,0.6 l -0.9,0.6 -0.3,0.2 -0.6,0.4 -0.9,0.7 -1.1,1 c -0.2,0.2 -0.3,0.4 -0.4,0.5 l -0.4,0.6 -0.2,0.3 c -0.1,0.2 -0.2,0.4 -0.2,0.6 l -0.1,0.3 c -0.2,0.8 0,1.7 0.6,2.7 l 0.4,0.4 0.2,0 c 0.1,0 0.2,0 0.4,0.1 0.2,0.4 1.2,2.5 3.9,0.9 2.8,-1.5 4.7,-4.6 8.1,-5.1 l -0.5,-0.6 c 5.9,2.8 12.8,4 19,4.2 8.7,0.3 18.6,-0.9 26.5,-5.2 2.2,0.7 3.9,3.9 5.8,5.4 l 0.1,0.1 0.1,0.1 0.1,0.1 0.1,0.1 c 0,0 0.1,0 0.1,0.1 0,0 0.1,0 0.1,0.1 0,0 0.1,0 0.1,0.1 l 2.1,0 c 0,0 0.1,0 0.1,-0.1 l 0.1,0 c 0,0 0.1,0 0.1,-0.1 l 0.1,0 c 0,0 0.1,0 0.1,-0.1 0,0 0.1,0 0.1,-0.1 l 0.1,-0.1 c 0,0 0.1,0 0.1,-0.1 l 0.1,-0.1 0.1,0 0.2,-0.2 0.2,-0.1 0.1,0 0.1,-0.1 0.1,0 0.1,-0.1 0.1,-0.1 0.1,-0.1 0.1,-0.1 0.1,-0.1 0.1,-0.1 0.1,-0.1 0,-0.1 c 0,0 0,-0.1 0.1,-0.1 l 0,-0.1 c 0,0 0,-0.1 0.1,-0.1 l 0,-0.1 c 0,0 0,-0.1 0.1,-0.1 l 0,-1.4 c 0,0 -0.3,0 -0.3,-0.1 l -0.3,-0.1 0,-0.1 0.3,-0.1 c 0,0 0.2,0 0.2,-0.1 l 0.1,-0.1 0,-2.1 c 0,0 0,-0.1 -0.1,-0.1 l 0,-0.1 c 0,0 0,-0.1 -0.1,-0.1 l 0,-0.1 c 0,0 0,-0.1 -0.1,-0.1 0,0 0,-0.1 -0.1,-0.1 0,0 0,-0.1 -0.1,-0.1 0,0 0,-0.1 -0.1,-0.1 0,0 0,-0.1 -0.1,-0.1 0,0 0,-0.1 -0.1,-0.1 0,0 0,-0.1 -0.1,-0.1 0,0 0,-0.1 -0.1,-0.1 0,0 0,-0.1 -0.1,-0.1 0,0 0,-0.1 -0.1,-0.1 0,0 0,-0.1 -0.1,-0.1 0,0 0,-0.1 -0.1,-0.1 0,0 0,-0.1 -0.1,-0.1 0,0 0,-0.1 -0.1,-0.1 l -0.1,-0.1 -0.1,-0.1 -0.1,-0.1 -0.1,-0.1 -0.1,-0.1 -0.1,-0.1 -0.1,-0.1 -0.1,-0.1 -0.1,-0.1 -0.1,-0.1 -0.1,-0.1 -0.1,-0.1 0,-0.1 -0.1,-0.1 -0.1,-0.1 -0.1,-0.1 -0.1,-0.1 -0.1,-0.1 -0.1,-0.1 -0.1,-0.1 -0.1,-0.1 -0.1,-0.1 -0.1,-0.1 -0.1,-0.1 -0.1,-0.1 -0.1,-0.1 -0.1,-0.1 -0.1,-0.1 -0.1,-0.1 -0.1,-0.1 -0.1,-0.1 -0.1,-0.1 c 2,-1.9 3.8,-4.2 5.1,-6.9 5.9,-11.8 4.9,-26.2 4.1,-39.2 l 0.1,0 c 0.1,0 0.2,0.1 0.2,0.1 l 0.3,0 c 0,0 0.1,0 0.1,0.1 l 0.1,0 c 0,0 0.1,0 0.1,0.1 l 0.2,0.1 c 1.7,1.2 5.4,2.9 5.6,-0.8 1.6,0.6 -0.3,-1.8 -1.3,-2.5 z M 36,23 C 32.8,7 58.4,4 59.3,19.6 60.1,32.6 39.3,35.9 36,23 Z m 36.1,15 c -1.3,1.4 -2.7,1.2 -4.1,0.7 0,1.9 0.4,3.9 0.1,5.9 -0.5,0.9 -1.5,1 -2.3,1.4 -1.2,-0.2 -2.1,-0.9 -2.6,-2 L 63,43.9 c -3.9,5.2 -6.3,-1.1 -5.2,-5 -1.2,0.1 -2.2,-0.2 -3,-1.5 -1.4,-2.6 0.7,-5.8 3.4,-6.3 0.7,3 8.7,2.6 10.1,-0.2 3.1,1.5 6.5,4.3 3.8,7.1 z m -7,-17.5 C 64.2,6.7 85.4,3 88.5,16.5 92,31.5 67.7,35.4 65.1,20.5 Z M 41.7,17 c -1.9,0 -3.5,1.7 -3.5,3.8 0,2.1 1.6,3.8 3.5,3.8 1.9,0 3.5,-1.7 3.5,-3.8 0,-2.1 -1.5,-3.8 -3.5,-3.8 z m 1.6,5.7 c -0.5,0 -0.8,-0.4 -0.8,-1 0,-0.5 0.4,-1 0.8,-1 0.5,0 0.8,0.4 0.8,1 0,0.5 -0.3,1 -0.8,1 z m 27.8,-6.6 c -1.9,0 -3.4,1.7 -3.4,3.8 0,2.1 1.5,3.8 3.4,3.8 1.9,0 3.4,-1.7 3.4,-3.8 0,-2.1 -1.5,-3.8 -3.4,-3.8 z m 1.6,5.6 c -0.4,0 -0.8,-0.4 -0.8,-1 0,-0.5 0.4,-1 0.8,-1 0.4,0 0.8,0.4 0.8,1 0,0.6 -0.4,1 -0.8,1 z"
       inkscape:connector-curvature="0" />
  </g>
</svg>
