<?xml version="1.0" encoding="UTF-8" standalone="no"?>
<svg
   xmlns:dc="http://purl.org/dc/elements/1.1/"
   xmlns:cc="http://creativecommons.org/ns#"
   xmlns:rdf="http://www.w3.org/1999/02/22-rdf-syntax-ns#"
   xmlns:svg="http://www.w3.org/2000/svg"
   xmlns="http://www.w3.org/2000/svg"
   xmlns:sodipodi="http://sodipodi.sourceforge.net/DTD/sodipodi-0.dtd"
   xmlns:inkscape="http://www.inkscape.org/namespaces/inkscape"
   viewBox="0 0 14 14"
   version="1.1"
   id="svg4"
   sodipodi:docname="go.svg"
   width="14"
   height="14"
   inkscape:version="0.92.1 r">
  <metadata
     id="metadata10">
    <rdf:RDF>
      <cc:Work
         rdf:about="">
        <dc:format>image/svg+xml</dc:format>
        <dc:type
           rdf:resource="http://purl.org/dc/dcmitype/StillImage" />
      </cc:Work>
    </rdf:RDF>
  </metadata>
  <defs
     id="defs8" />
  <sodipodi:namedview
     pagecolor="#ffffff"
     bordercolor="#666666"
     borderopacity="1"
     objecttolerance="10"
     gridtolerance="10"
     guidetolerance="10"
     inkscape:pageopacity="0"
     inkscape:pageshadow="2"
     inkscape:window-width="640"
     inkscape:window-height="480"
     id="namedview6"
     showgrid="true"
     inkscape:zoom="33.808543"
     inkscape:cx="1.1867395"
     inkscape:cy="7.3719115"
     inkscape:current-layer="svg4">
    <inkscape:grid
       type="xygrid"
       id="grid12" />
  </sodipodi:namedview>
  <path
     d="M 3.970213,0.92820515 A 3,3 0 0 0 0.97021297,3.928205 a 3,3 0 0 0 3.00000003,3 3,3 0 0 0 3,-3 3,3 0 0 0 -3,-2.99999985 m 3,2.99999985 a 3,3 0 0 0 3,3 3,3 0 0 0 3,-3 3,3 0 0 0 -3,-2.99999985 3,3 0 0 0 -3,2.99999985 m -3,-2 a 2,2 0 0 1 2,2 2,2 0 0 1 -2,2 2,2 0 0 1 -1.371094,-0.5488 1.5,1.5 0 0 0 0.371094,0.049 1.5,1.5 0 0 0 1.5,-1.5 1.5,1.5 0 0 0 -1.5,-1.5 1.5,1.5 0 0 0 -0.375,0.049 2,2 0 0 1 1.375,-0.5488 m 6,-4e-4 a 2,2 0 0 1 2,2 2,2 0 0 1 -2,2 2,2 0 0 1 -1.371094,-0.5488 1.5,1.5 0 0 0 0.371094,0.049 1.5,1.5 0 0 0 1.5,-1.5 1.5,1.5 0 0 0 -1.5,-1.5 1.5,1.5 0 0 0 -0.375,0.049 2,2 0 0 1 1.375,-0.5488 m 1.08,6.152 c -0.935,0.531 -2.457,0.847 -4.08,0.848 -1.394,-10e-4 -2.725,-0.234 -3.67,-0.645 l -0.629,0.734 c 0.384,0.198 0.83,0.354 1.299,0.49 v 1.42 a 2,2 0 0 0 2,2 2,2 0 0 0 1.5,-0.6797 2,2 0 0 0 1.5,0.6797 2,2 0 0 0 2,-2 v -1.773 c 0.272,-0.122 0.528,-0.253 0.754,-0.4 z m -1.08,1.4254 v 1.424 a 1,1 0 0 1 -1,1 1,1 0 0 1 -1,-1 v -1.059 c 0.712,-0.061 1.382,-0.185 2,-0.365 m -5,0.238 c 0.638,0.114 1.309,0.185 2,0.186 v 1 a 1,1 0 0 1 -1,1 1,1 0 0 1 -1,-1 z"
     id="path2"
     inkscape:connector-curvature="0"
     style="color:#4d4d4d;color-interpolation:sRGB;color-interpolation-filters:linearRGB;fill:#6c7a89;color-rendering:auto;image-rendering:auto;shape-rendering:auto;text-rendering:auto" />
</svg>
