<?xml version="1.0" encoding="UTF-8" standalone="no"?>
<!-- Generated by IcoMoon.io -->

<svg
   xmlns:dc="http://purl.org/dc/elements/1.1/"
   xmlns:cc="http://creativecommons.org/ns#"
   xmlns:rdf="http://www.w3.org/1999/02/22-rdf-syntax-ns#"
   xmlns:svg="http://www.w3.org/2000/svg"
   xmlns="http://www.w3.org/2000/svg"
   xmlns:sodipodi="http://sodipodi.sourceforge.net/DTD/sodipodi-0.dtd"
   xmlns:inkscape="http://www.inkscape.org/namespaces/inkscape"
   version="1.1"
   width="32"
   height="32"
   viewBox="0 0 32 32"
   id="svg2"
   inkscape:version="0.91 r13725"
   sodipodi:docname="html5.svg">
  <metadata
     id="metadata10">
    <rdf:RDF>
      <cc:Work
         rdf:about="">
        <dc:format>image/svg+xml</dc:format>
        <dc:type
           rdf:resource="http://purl.org/dc/dcmitype/StillImage" />
      </cc:Work>
    </rdf:RDF>
  </metadata>
  <defs
     id="defs8" />
  <sodipodi:namedview
     pagecolor="#ffffff"
     bordercolor="#666666"
     borderopacity="1"
     objecttolerance="10"
     gridtolerance="10"
     guidetolerance="10"
     inkscape:pageopacity="0"
     inkscape:pageshadow="2"
     inkscape:window-width="1280"
     inkscape:window-height="751"
     id="namedview6"
     showgrid="true"
     inkscape:zoom="7.375"
     inkscape:cx="16"
     inkscape:cy="16"
     inkscape:window-x="0"
     inkscape:window-y="0"
     inkscape:window-maximized="1"
     inkscape:current-layer="svg2">
    <inkscape:grid
       type="xygrid"
       id="grid4138" />
  </sodipodi:namedview>
  <path
     d="m 1.9796879,0.07415288 2.5518465,28.66776212 11.4517666,3.183932 11.483927,-3.18888 2.554321,-28.66281413 -28.0430979,0 z m 5.3016064,6.80327472 -0.084113,-0.9437998 8.7910677,0 0,3.5154375 -4.954021,0 0.320373,3.6007877 4.633648,0 0,3.515437 -7.8435571,0 -0.8633974,-9.6890994 z m 16.7818227,7.1174614 -0.825051,9.256164 -0.05319,0.593741 -7.201576,1.998926 -7.1916795,-1.998926 -0.4923097,-5.520548 3.5240962,0 0.249866,2.804186 3.912502,1.056363 3.914975,-1.058837 0.406959,-4.55943 -4.310803,0 0,-3.515438 8.14785,0 -0.08535,0.943799 z m 0.635797,-7.1174614 -0.159568,1.7824579 -0.0705,0.7904168 -8.468223,0 0,-3.5154375 8.78241,0 -0.08411,0.9425628 z"
     id="path4"
     style="opacity:0.81999966;fill:#ee6a11;fill-opacity:1"
     inkscape:connector-curvature="0" />
</svg>
