<?xml version="1.0" encoding="UTF-8" standalone="no"?>
<svg
   xmlns:dc="http://purl.org/dc/elements/1.1/"
   xmlns:cc="http://creativecommons.org/ns#"
   xmlns:rdf="http://www.w3.org/1999/02/22-rdf-syntax-ns#"
   xmlns:svg="http://www.w3.org/2000/svg"
   xmlns="http://www.w3.org/2000/svg"
   xmlns:sodipodi="http://sodipodi.sourceforge.net/DTD/sodipodi-0.dtd"
   xmlns:inkscape="http://www.inkscape.org/namespaces/inkscape"
   preserveAspectRatio="xMidYMid"
   height="16"
   width="16"
   id="svg2"
   version="1.1"
   inkscape:version="0.91 r13725"
   sodipodi:docname="html.svg">
  <metadata
     id="metadata10">
    <rdf:RDF>
      <cc:Work
         rdf:about="">
        <dc:format>image/svg+xml</dc:format>
        <dc:type
           rdf:resource="http://purl.org/dc/dcmitype/StillImage" />
      </cc:Work>
    </rdf:RDF>
  </metadata>
  <defs
     id="defs8" />
  <sodipodi:namedview
     pagecolor="#ffffff"
     bordercolor="#666666"
     borderopacity="1"
     objecttolerance="10"
     gridtolerance="10"
     guidetolerance="10"
     inkscape:pageopacity="0"
     inkscape:pageshadow="2"
     inkscape:window-width="1280"
     inkscape:window-height="751"
     id="namedview6"
     showgrid="false"
     inkscape:zoom="41.7193"
     inkscape:cx="2.9187468"
     inkscape:cy="9.05457"
     inkscape:window-x="0"
     inkscape:window-y="0"
     inkscape:window-maximized="1"
     inkscape:current-layer="svg2" />
  <path
     d="m 14.190148,0.033051 0,0 c 0.687794,0 1.146323,0.57316181 1.146323,1.1463236 l 0,0 c 0,0 0,0.1146324 0,0.1146324 l -1.146323,11.119339 c 0,0.45853 -0.229265,0.802427 -0.687794,1.031691 l -4.929192,2.40728 c -0.1146324,0.114632 -0.3438971,0.114632 -0.4585295,0.114632 -0.1146323,0 -0.3438971,0 -0.4585294,-0.114632 L 2.7269115,13.445037 C 2.4976468,13.330405 2.2683821,13.215773 2.1537497,12.986508 2.0391173,12.871876 2.0391173,12.642611 2.0391173,12.527978 L 0.77816136,1.294007 c 0,0 -0.11463236,0 -0.11463236,-0.1146324 l 0,0 c 0,-0.57316179 0.5731618,-1.1463236 1.260956,-1.1463236 l 12.265663,0 z M 5.0195588,7.7134192 4.9049264,7.4841545 6.9683089,5.420772 c 0.3438971,-0.4585294 0.3438971,-1.0316912 0,-1.3755883 -0.3438971,-0.3438971 -1.0316913,-0.3438971 -1.3755883,0 l -1.8341178,1.8341178 -0.9170589,0.9170589 0,0 C 2.7269115,7.0256251 2.6122792,7.2548898 2.6122792,7.4841545 c 0,0.1146324 -0.1146324,0.1146324 -0.1146324,0.2292647 0,0.1146324 0.2292647,0.3438971 0.3438971,0.4585295 l 0,0 2.7511767,2.7511763 c 0.343897,0.343897 1.0316912,0.343897 1.3755883,0 0.3438971,-0.343897 0.3438971,-1.0316909 0,-1.375588 z M 13.502354,8.1719487 C 13.731618,7.942684 13.846251,7.7134192 13.846251,7.4841545 l 0,-0.1146323 c -0.114633,0 -0.114633,0 -0.114633,0 0,-0.2292648 0,-0.4585295 -0.229264,-0.5731618 l 0,0 -2.751177,-2.7511767 c -0.343897,-0.3438971 -0.917059,-0.3438971 -1.2609561,0 -0.3438971,0.3438971 -0.4585295,1.0316912 0,1.3755883 L 11.324339,7.2548898 11.553603,7.4841545 9.4902209,9.547537 c -0.3438971,0.3438971 -0.3438971,1.031691 0,1.375588 0.3438971,0.343897 0.9170591,0.343897 1.2609561,0 l 1.94875,-1.8341174 z"
     id="path4"
     inkscape:connector-curvature="0"
     style="fill:#ff6600" />
</svg>
