<?xml version="1.0" encoding="UTF-8" standalone="no"?>
<svg
   xmlns:dc="http://purl.org/dc/elements/1.1/"
   xmlns:cc="http://creativecommons.org/ns#"
   xmlns:rdf="http://www.w3.org/1999/02/22-rdf-syntax-ns#"
   xmlns:svg="http://www.w3.org/2000/svg"
   xmlns="http://www.w3.org/2000/svg"
   xmlns:sodipodi="http://sodipodi.sourceforge.net/DTD/sodipodi-0.dtd"
   xmlns:inkscape="http://www.inkscape.org/namespaces/inkscape"
   preserveAspectRatio="xMidYMid"
   height="16"
   width="16"
   id="svg2"
   version="1.1"
   inkscape:version="0.91 r13725"
   sodipodi:docname="javascript.svg">
  <metadata
     id="metadata10">
    <rdf:RDF>
      <cc:Work
         rdf:about="">
        <dc:format>image/svg+xml</dc:format>
        <dc:type
           rdf:resource="http://purl.org/dc/dcmitype/StillImage" />
      </cc:Work>
    </rdf:RDF>
  </metadata>
  <defs
     id="defs8" />
  <sodipodi:namedview
     pagecolor="#ffffff"
     bordercolor="#666666"
     borderopacity="1"
     objecttolerance="10"
     gridtolerance="10"
     guidetolerance="10"
     inkscape:pageopacity="0"
     inkscape:pageshadow="2"
     inkscape:window-width="1280"
     inkscape:window-height="751"
     id="namedview6"
     showgrid="false"
     inkscape:zoom="14.75"
     inkscape:cx="-1.8983051"
     inkscape:cy="8"
     inkscape:window-x="0"
     inkscape:window-y="0"
     inkscape:window-maximized="1"
     inkscape:current-layer="svg2" />
  <path
     d="m 11,7.1 c 0.1,0 0.2,0 0.4,0 0.3,0.1 0.6,0.2 0.9,0.4 0.2,0.1 0.4,0.3 0.5,0.5 0,0 0.1,0.1 0.1,0.1 0,0 -0.9,0.6 -0.9,0.6 -0.1,0 -0.1,0 -0.1,-0.1 -0.1,0 -0.1,-0.1 -0.2,-0.2 -0.1,-0.1 -0.3,-0.2 -0.5,-0.2 -0.3,0 -0.4,0.1 -0.5,0.2 -0.1,0.1 -0.1,0.2 -0.1,0.3 -0.1,0.2 0,0.3 0.1,0.4 0.1,0.2 0.3,0.3 0.8,0.5 0.7,0.3 1,0.5 1.3,0.7 0.1,0.2 0.2,0.3 0.3,0.5 0.1,0.2 0.2,0.4 0.2,0.8 0,0.4 -0.2,0.8 -0.5,1.1 -0.3,0.3 -0.7,0.5 -1.2,0.6 -0.2,0 -0.6,0 -0.8,0 C 10,13.1 9.4,12.8 9,12.1 9,12.1 9,12 9,12 c 0,0 1,-0.6 1,-0.6 0,0 0,0.1 0,0.2 0.3,0.4 0.7,0.6 1.2,0.6 0.3,0 0.5,-0.1 0.7,-0.2 0,-0.1 0.1,-0.2 0.1,-0.2 0.1,-0.2 0,-0.5 -0.1,-0.6 C 11.8,11.1 11.6,10.9 11,10.7 10.7,10.6 10.4,10.5 10.3,10.4 9.6,10 9.3,9.5 9.3,8.8 9.3,8.3 9.5,7.9 9.8,7.6 10.1,7.4 10.5,7.2 11,7.1 Z m -3.9,2.3 0,-2.2 0.6,0 0.6,0 0,2.2 c 0,1.5 0,2.3 0,2.3 -0.1,0.7 -0.4,1.2 -1,1.4 C 6.8,13.3 6.2,13.3 5.7,13.2 5.3,13 4.9,12.7 4.6,12.2 l 0,0 0.5,-0.3 c 0.3,-0.2 0.5,-0.3 0.5,-0.3 0,-0.1 0,0 0.1,0.1 0.2,0.3 0.4,0.5 0.7,0.5 0.2,0 0.4,-0.1 0.5,-0.2 C 7,12 7,11.9 7,11.7 L 7.1,11.6 Z M 2.8,1.3 C 2,1.3 1.3,2 1.3,2.8 l 0,10.4 c 0,0.8 0.7,1.5 1.5,1.5 l 10.4,0 c 0.9,0 1.5,-0.7 1.5,-1.5 l 0,-10.4 C 14.7,2 14.1,1.3 13.2,1.3 l -10.4,0 z m 0,0.8 10.4,0 c 0.4,0 0.7,0.3 0.7,0.7 l 0,10.4 c 0,0.4 -0.3,0.7 -0.7,0.7 l -10.4,0 C 2.5,13.9 2.1,13.6 2.1,13.2 L 2.1,2.8 C 2.1,2.4 2.5,2.1 2.8,2.1 Z"
     id="path4"
     inkscape:connector-curvature="0"
     style="fill:#00a400;fill-opacity:1" />
</svg>
