<?xml version="1.0" encoding="UTF-8" standalone="no"?>
<svg
   xmlns:dc="http://purl.org/dc/elements/1.1/"
   xmlns:cc="http://creativecommons.org/ns#"
   xmlns:rdf="http://www.w3.org/1999/02/22-rdf-syntax-ns#"
   xmlns:svg="http://www.w3.org/2000/svg"
   xmlns="http://www.w3.org/2000/svg"
   xmlns:sodipodi="http://sodipodi.sourceforge.net/DTD/sodipodi-0.dtd"
   xmlns:inkscape="http://www.inkscape.org/namespaces/inkscape"
   preserveAspectRatio="xMidYMid"
   height="16"
   width="16"
   id="svg2"
   version="1.1"
   inkscape:version="0.91 r13725"
   sodipodi:docname="java.svg">
  <metadata
     id="metadata10">
    <rdf:RDF>
      <cc:Work
         rdf:about="">
        <dc:format>image/svg+xml</dc:format>
        <dc:type
           rdf:resource="http://purl.org/dc/dcmitype/StillImage" />
      </cc:Work>
    </rdf:RDF>
  </metadata>
  <defs
     id="defs8" />
  <sodipodi:namedview
     pagecolor="#ffffff"
     bordercolor="#666666"
     borderopacity="1"
     objecttolerance="10"
     gridtolerance="10"
     guidetolerance="10"
     inkscape:pageopacity="0"
     inkscape:pageshadow="2"
     inkscape:window-width="1280"
     inkscape:window-height="751"
     id="namedview6"
     showgrid="false"
     inkscape:zoom="14.75"
     inkscape:cx="-0.47457627"
     inkscape:cy="8"
     inkscape:window-x="0"
     inkscape:window-y="0"
     inkscape:window-maximized="1"
     inkscape:current-layer="svg2" />
  <path
     d="m 6.2626417,11.725212 c 0,-0.1 0.1,-0.1 0.1,-0.1 0.4,0 0,0.2 -0.1,0.4 1,0.2 2.1,0.1 3.1,-0.1 0.3,0.2 0.7000003,0.4 1.1000003,0.5 -1.1000003,0.5 -2.4000003,0.7 -3.6000003,0.5 -0.4,-0.1 -1,-0.1 -1.3,-0.6 -0.2,-0.4 0.4,-0.6 0.7,-0.6 z m -0.4,-1.5 0,0 c 0.2,0 0.6,-0.2 0.3,0.1 0,0.1 -0.4,0.2 -0.2,0.3 1.3,0.3 2.6,0.2 3.9,-0.1 0.2000003,0.3 0.5000003,0.4 0.9000003,0.5 -1.5000003,0.4 -3.0000003,0.6 -4.5000003,0.4 -0.4,-0.1 -0.9,-0.1 -1.1,-0.5 -0.1,-0.4 0.4,-0.6 0.7,-0.7 z m 5.1000003,-6.1999998 0,0 c 0.1,0.1 0.5,0 0.2,0.1 -0.7,0.6 -1.7000003,1 -2.2000003,1.9 -0.2,0.6 0.4,1 0.6,1.6 0.3,0.7 -0.3,1.3 -0.9,1.7 -0.2,0.1 -0.7,0.2 -0.3,-0.2 0.4,-0.3 0.5,-0.8 0.2,-1.2 -0.6,-0.6 -0.9,-1.4 -0.4,-2.1 0.6,-1 1.7,-1.4 2.8000003,-1.8 z m -6.1000003,8.5999998 0,0 c 0.3,0 0.6,0.2 0.8,0.4 -0.5,-0.1 -1.1,0 -1.6,0.3 0.2,0.1 0.5,0.1 0.7,0.2 2,0.3 4.1,0.2 6.0000003,0 0.5,-0.1 1,-0.1 1.2,-0.5 0.1,-0.1 -0.3,-0.3 -0.2,-0.3 0.3,0 0.8,0.2 0.6,0.6 -0.4,0.5 -1.2,0.6 -1.8,0.7 -2.3000003,0.4 -4.8000003,0.4 -7.1000003,-0.1 -0.3,0 -0.6,-0.3 -0.4,-0.6 0.5,-0.5 1.2,-0.6 1.8,-0.7 z m 1.5,-3.8999998 0,0 c 0.2,-0.1 0.3,0 0.5,0.1 -0.4,0.2 -0.9,0.2 -1.3,0.4 -0.1,0.1 -0.4,0.2 -0.2,0.2 1.2,0.2 2.4,0.1 3.6,0 0.7,0 1.4000003,-0.3 2.2000003,-0.2 -0.2,0.2 -0.4,0.3 -0.7,0.4 -0.5000003,0.3 -1.2000003,0.3 -1.9000003,0.3999998 -1.3,0.1 -2.8,0.2 -4.1,-0.1999998 -0.3,0 -0.5,-0.3 -0.3,-0.5 0.6,-0.4 1.4,-0.6 2.2,-0.6 z m 5.4000003,-0.2 c 0.7,0 1.4,0.6 1.2,1.4 -0.3,0.8999998 -1.3,1.2999998 -2.1,1.4999998 -0.5,0.2 -0.6,0.1 -0.2,-0.2 0.6,-0.4 1.2,-0.7 1.5,-1.2999998 0.2,-0.6 -0.4,-1.1 -0.9,-0.9 -0.2,0 -0.6,0.3 -0.5,0.1 0.2,-0.4 0.6,-0.6 1,-0.6 z m -2.6000003,-7 0,0 c 0,-0.2 0,-0.3 -0.1,-0.5 0.2,0.2 0.5,0.4 0.6,0.7 0.4000003,0.9 -0.1,1.9 -0.7,2.6 -0.6,0.7 -1.7,1.1 -1.9,2.2 -0.1,1 1,1.6 1.2,2.6 -0.4,-0.3 -0.8,-0.7 -1.1,-1 -0.6,-0.6 -1.2,-1.4 -0.9,-2.2 0.4,-1 1.4,-1.5 2.2,-2.2 0.6,-0.5 1,-1.4 0.7,-2.2 z m 3.6000003,11.9999998 0,0 c 0.1,-0.1 0.3,-0.6 0.2,-0.2 0.2,0.6 -0.4,1 -0.9,1.1 -1.7,0.6 -3.5000003,0.6 -5.3000003,0.5 -0.8,-0.1 -1.7,-0.1 -2.3,-0.7 2.2,0.3 4.4,0.4 6.5000003,0 0.6,-0.2 1.4,-0.3 1.8,-0.7 z"
     id="path4"
     inkscape:connector-curvature="0"
     style="fill:#d40000" />
</svg>
