<?xml version="1.0" encoding="UTF-8" standalone="no"?>
<!-- Created with Inkscape (http://www.inkscape.org/) -->

<svg
   xmlns:dc="http://purl.org/dc/elements/1.1/"
   xmlns:cc="http://creativecommons.org/ns#"
   xmlns:rdf="http://www.w3.org/1999/02/22-rdf-syntax-ns#"
   xmlns:svg="http://www.w3.org/2000/svg"
   xmlns="http://www.w3.org/2000/svg"
   xmlns:sodipodi="http://sodipodi.sourceforge.net/DTD/sodipodi-0.dtd"
   xmlns:inkscape="http://www.inkscape.org/namespaces/inkscape"
   version="1.1"
   width="16"
   height="16"
   id="svg2"
   inkscape:version="0.48.5 r10040"
   sodipodi:docname="javascript.svg">
  <sodipodi:namedview
     pagecolor="#ffffff"
     bordercolor="#666666"
     borderopacity="1"
     objecttolerance="10"
     gridtolerance="10"
     guidetolerance="10"
     inkscape:pageopacity="0"
     inkscape:pageshadow="2"
     inkscape:window-width="1920"
     inkscape:window-height="1022"
     id="namedview19"
     showgrid="false"
     inkscape:zoom="1"
     inkscape:cx="8"
     inkscape:cy="8"
     inkscape:window-x="0"
     inkscape:window-y="29"
     inkscape:window-maximized="1"
     inkscape:current-layer="svg2">
    <inkscape:grid
       type="xygrid"
       id="grid3011" />
  </sodipodi:namedview>
  <defs
     id="defs4">
    <linearGradient
       id="linearGradient3859">
      <stop
         id="stop3861"
         style="stop-color:#eec73e;stop-opacity:1"
         offset="0" />
      <stop
         id="stop3863"
         style="stop-color:#9a8022;stop-opacity:1"
         offset="1" />
    </linearGradient>
    <linearGradient
       id="linearGradient3851">
      <stop
         id="stop3853"
         style="stop-color:#6699cc;stop-opacity:1"
         offset="0" />
      <stop
         id="stop3855"
         style="stop-color:#0054a7;stop-opacity:1"
         offset="1" />
    </linearGradient>
  </defs>
  <metadata
     id="metadata7">
    <rdf:RDF>
      <cc:Work
         rdf:about="">
        <dc:format>image/svg+xml</dc:format>
        <dc:type
           rdf:resource="http://purl.org/dc/dcmitype/StillImage" />
        <dc:title />
      </cc:Work>
    </rdf:RDF>
  </metadata>
  <g
     transform="translate(0,-1036.3622)"
     id="layer1"
     style="fill:#4e9a06;fill-opacity:1">
    <path
       d="m 2,0 c 1,0 11,0 12,0 1,0 2,1 2,2 0,1 0,11 0,12 0,1 -1,2 -2,2 C 13,16 3,16 2,16 1,16 0,15 0,14 0,13 0,3 0,2 0,1 1,0 2,0 z"
       transform="translate(0,1036.3622)"
       id="rect2995"
       style="fill:#4e9a06;fill-opacity:1;stroke:none" />
    <text
       x="5.1758919"
       y="14.543665"
       transform="translate(0,1036.3622)"
       id="text3921"
       xml:space="preserve"
       style="font-size:12px;font-style:normal;font-variant:normal;font-weight:normal;font-stretch:normal;line-height:125%;letter-spacing:0px;word-spacing:0px;fill:#4e9a06;fill-opacity:1;stroke:none;font-family:Ubuntu Mono;-inkscape-font-specification:Ubuntu Mono"><tspan
         x="5.1758919"
         y="14.543665"
         id="tspan3923"
         style="fill:#4e9a06;fill-opacity:1" /></text>
    <g
       id="text3925"
       style="font-size:12px;font-style:normal;font-variant:normal;font-weight:normal;font-stretch:normal;line-height:125%;letter-spacing:0px;word-spacing:0px;fill:#4e9a06;fill-opacity:1;stroke:none;font-family:Ubuntu Mono;-inkscape-font-specification:Ubuntu Mono" />
  </g>
  <g
     style="font-size:12px;font-style:normal;font-variant:normal;font-weight:normal;font-stretch:normal;line-height:125%;letter-spacing:0px;word-spacing:0px;fill:#ffffff;fill-opacity:1;stroke:none;font-family:Ubuntu Mono;-inkscape-font-specification:Ubuntu Mono"
     id="text3018"
     transform="translate(0,1.1987166)">
    <path
       d="m 3.5673828,11.207059 c -0.410156,-2e-6 -0.7675775,-0.03368 -1.0722656,-0.101029 l 0,-1.1847963 c 0.3125006,0.061226 0.5976565,0.091844 0.8554687,0.091845 0.3984372,-10e-7 0.6835931,-0.097969 0.8554688,-0.2939035 C 4.3779287,9.5263016 4.4638661,9.223214 4.4638672,8.8099129 l 0,-6.2913585 1.8164062,0 0,6.2821746 c -2.9e-6,0.7837405 -0.2285183,1.38073 -0.6855468,1.790971 -0.457033,0.410237 -1.1328136,0.615357 -2.0273438,0.615359"
       style="font-weight:bold;fill:#ffffff;font-family:Noto Sans Old South Arabian;-inkscape-font-specification:Noto Sans Old South Arabian Bold"
       id="path3023"
       inkscape:connector-curvature="0" />
    <path
       d="m 13.504883,8.7060547 c -6e-6,0.7734391 -0.279303,1.3828133 -0.837891,1.8281253 -0.554692,0.445312 -1.328129,0.667968 -2.320312,0.667968 -0.9140649,0 -1.7226578,-0.171875 -2.4257816,-0.515625 l 0,-1.6874996 c 0.5781239,0.2578144 1.0664047,0.4394548 1.4648438,0.5449219 0.4023413,0.1054702 0.7695288,0.1582045 1.1015628,0.1582031 0.398434,1.4e-6 0.703121,-0.07617 0.914062,-0.2285156 0.21484,-0.152342 0.322261,-0.3789042 0.322266,-0.6796875 -5e-6,-0.1679663 -0.04688,-0.3164036 -0.140625,-0.4453125 C 11.489254,8.2158232 11.350582,8.0888702 11.166992,7.9677734 10.987301,7.8466829 10.618161,7.6533237 10.05957,7.3876953 9.5361306,7.1416055 9.1435529,6.9052776 8.8818359,6.6787109 8.6201159,6.4521531 8.4111318,6.1884815 8.2548828,5.8876953 8.0986321,5.5869196 8.0205072,5.2353574 8.0205078,4.8330078 8.0205072,4.0752023 8.2763663,3.4794998 8.7880859,3.0458984 9.303709,2.6123132 10.014646,2.3955165 10.920898,2.3955078 c 0.445309,8.7e-6 0.869137,0.052743 1.271485,0.1582031 0.406245,0.1054772 0.830072,0.2539146 1.271484,0.4453125 L 12.87793,4.4111328 C 12.420893,4.2236397 12.041988,4.0927804 11.741211,4.0185547 11.444332,3.9443431 11.151363,3.9072337 10.862305,3.9072266 10.518552,3.9072337 10.25488,3.9873118 10.071289,4.1474609 9.8876928,4.307624 9.795896,4.5166081 9.7958984,4.7744141 c -2.4e-6,0.1601624 0.037107,0.3007872 0.1113282,0.421875 0.074216,0.1171932 0.1914034,0.2324275 0.3515624,0.3457031 0.16406,0.1093804 0.548825,0.308599 1.154297,0.5976562 0.800776,0.3828171 1.349604,0.7675823 1.646484,1.1542969 0.296869,0.3828159 0.445307,0.8535186 0.445313,1.4121094"
       style="font-weight:bold;fill:#ffffff;font-family:Noto Sans Old South Arabian;-inkscape-font-specification:Noto Sans Old South Arabian Bold"
       id="path3025"
       inkscape:connector-curvature="0" />
  </g>
</svg>
