<?xml version="1.0" encoding="UTF-8" standalone="no"?>
<svg
   xmlns:dc="http://purl.org/dc/elements/1.1/"
   xmlns:cc="http://creativecommons.org/ns#"
   xmlns:rdf="http://www.w3.org/1999/02/22-rdf-syntax-ns#"
   xmlns:svg="http://www.w3.org/2000/svg"
   xmlns="http://www.w3.org/2000/svg"
   version="1.1"
   id="svg2"
   viewBox="0 0 14 14"
   height="14"
   width="14">
  <metadata
     id="metadata10">
    <rdf:RDF>
      <cc:Work
         rdf:about="">
        <dc:format>image/svg+xml</dc:format>
        <dc:type
           rdf:resource="http://purl.org/dc/dcmitype/StillImage" />
        <dc:title></dc:title>
      </cc:Work>
    </rdf:RDF>
  </metadata>
  <defs
     id="defs8" />
  <path
     id="path4-3"
     d="m 5.02,0.999 c -1.165,0.411 -2,1.507 -2,2.814 v 0.381 c 0,0.74 -0.404,1.378 -1,1.723 v 2.166 c 0.596,0.345 1,0.981 1,1.721 v 0.381 c 0,1.307 0.835,2.403 2,2.814 v -1.092 c -0.596,-0.345 -1,-0.983 -1,-1.723 V 9.803 C 4.02,8.503 3.194,7.415 2.04,6.998 3.194,6.581 4.02,5.493 4.02,4.193 V 3.812 c 0,-0.74 0.404,-1.378 1,-1.723 z m 4,0 v 1.092 c 0.596,0.345 1,0.983 1,1.723 V 4.195 C 10.02,5.494 10.847,6.583 12,7 10.846,7.416 10.02,8.505 10.02,9.805 v 0.381 c 0,0.74 -0.404,1.378 -1,1.723 v 1.092 c 1.165,-0.411 2,-1.507 2,-2.814 V 9.806 c 0,-0.74 0.404,-1.376 1,-1.721 V 5.919 c -0.596,-0.345 -1,-0.983 -1,-1.723 V 3.815 c 0,-1.307 -0.835,-2.403 -2,-2.814"
     style="color:#000000;color-interpolation:sRGB;color-interpolation-filters:linearRGB;fill:#cf74e0;fill-opacity:1;color-rendering:auto;image-rendering:auto;shape-rendering:auto;text-rendering:auto" />
</svg>
