<?xml version="1.0" encoding="UTF-8" standalone="no"?>
<!-- Generated by IcoMoon.io -->

<svg
   xmlns:dc="http://purl.org/dc/elements/1.1/"
   xmlns:cc="http://creativecommons.org/ns#"
   xmlns:rdf="http://www.w3.org/1999/02/22-rdf-syntax-ns#"
   xmlns:svg="http://www.w3.org/2000/svg"
   xmlns="http://www.w3.org/2000/svg"
   xmlns:sodipodi="http://sodipodi.sourceforge.net/DTD/sodipodi-0.dtd"
   xmlns:inkscape="http://www.inkscape.org/namespaces/inkscape"
   version="1.1"
   width="14"
   height="14"
   id="svg4"
   sodipodi:docname="komodoproject.svg"
   viewbox="0 0 14 14"
   inkscape:version="0.92.1 r">
  <metadata
     id="metadata10">
    <rdf:RDF>
      <cc:Work
         rdf:about="">
        <dc:format>image/svg+xml</dc:format>
        <dc:type
           rdf:resource="http://purl.org/dc/dcmitype/StillImage" />
      </cc:Work>
    </rdf:RDF>
  </metadata>
  <defs
     id="defs8" />
  <sodipodi:namedview
     pagecolor="#ffffff"
     bordercolor="#666666"
     borderopacity="1"
     objecttolerance="10"
     gridtolerance="10"
     guidetolerance="10"
     inkscape:pageopacity="0"
     inkscape:pageshadow="2"
     inkscape:window-width="640"
     inkscape:window-height="480"
     id="namedview6"
     showgrid="true"
     inkscape:zoom="23.90625"
     inkscape:cx="8.7843137"
     inkscape:cy="9.3071895"
     inkscape:current-layer="svg4">
    <inkscape:grid
       type="xygrid"
       id="grid12" />
  </sodipodi:namedview>
  <path
     d="M 12.085385,5.927212 C 11.191394,5.1180906 10.195874,4.5052618 9.0399858,4.1486027 7.4576692,3.6602141 5.8378639,3.4540287 4.1847361,3.4227885 3.4490292,3.4753762 2.7133223,3.5305672 1.9770946,3.5789896 1.8635885,3.586279 1.7990254,3.6320979 1.7464377,3.7310253 1.4116468,4.3610361 1.2299329,5.036866 1.1466257,5.7402914 0.96178777,7.2996987 1.2377429,8.8002701 1.733421,10.272205 c 0.042695,0.127043 0.1187127,0.167134 0.2514837,0.142663 0.5149428,-0.09424 1.0330096,-0.174945 1.5474317,-0.27283 0.8684778,-0.1650534 1.731749,-0.3535359 2.54035,-0.725815 0.4535038,-0.2087888 0.8757673,-0.4587105 1.0980934,-0.9450164 0.022389,-0.049464 0.1296469,-0.088514 0.1947307,-0.083828 0.1327709,0.00937 0.2665832,0.041133 0.394668,0.081225 0.7757985,0.2431522 1.5463904,0.5024459 2.3253125,0.7346648 0.529521,0.1577631 1.068936,0.2827239 1.605227,0.4165362 0.212954,0.053109 0.405601,-0.010934 0.534728,-0.1843172 C 12.379564,9.2298226 12.546179,9.0205132 12.64094,8.785691 13.034567,7.8063104 13.061642,6.8113097 12.085385,5.9277323 Z M 6.2294082,8.7393518 C 5.8040204,8.9783393 5.3416652,9.121003 4.8694174,9.2277404 3.9801127,9.4281983 3.0882047,9.6177223 2.1983795,9.815577 2.08227,9.8416105 2.030203,9.8176596 2.0041694,9.6947815 1.839117,8.9049249 1.6698992,8.1161095 1.4959954,7.3283355 1.4678791,7.1997299 1.5189049,7.1622417 1.6303283,7.1367288 1.9974008,7.0518596 2.3545804,7.0992406 2.675834,7.2752271 3.0850808,7.499636 3.469856,7.7693431 3.872334,8.0072894 4.1587026,8.1765073 4.4466333,8.3504111 4.7527873,8.4764133 5.2146218,8.6669785 5.6733321,8.6055395 6.1002819,8.3478077 6.2278462,8.2707486 6.3626998,8.1916067 6.4590238,8.082266 6.6178281,7.902114 6.7880873,7.9177342 7,8 6.8188068,8.3389563 6.5449343,8.5618032 6.2283668,8.7393518 Z M 12.227528,8.6492758 C 11.999995,9.0538365 11.730289,9.1959795 11.284595,9.076746 10.69832,8.9195036 10.116732,8.7388311 9.5460772,8.532125 8.5411837,8.1681765 7.5290009,7.8391129 6.4709991,7.6631264 6.2674171,7.6292828 6.0633144,7.5589924 5.8779556,7.4673544 5.5561814,7.3075087 5.4135177,6.999272 5.4713121,6.6431335 5.5468093,6.1750511 5.8040204,5.8064165 6.1242328,5.4737083 c 0.027075,-0.028116 0.05415,-0.056753 0.080704,-0.08591 0.0026,-0.0026 5.207e-4,-0.00937 5.207e-4,-0.035926 -1.719253,-0.021348 -3.2994869,0.4071636 -4.7407019,1.3839409 0,-0.087993 -0.00417,-0.1598458 5.206e-4,-0.2311776 0.052588,-0.7554925 0.1827553,-1.4917201 0.4790166,-2.1967075 0.1202748,-0.2868892 0.29522,-0.4108088 0.6107461,-0.4337182 1.7437245,-0.1275643 3.4801597,-0.087473 5.203578,0.21764 1.5047368,0.2660626 2.8553541,0.8731639 3.9909361,1.9139837 0.19369,0.1775484 0.392586,0.3670725 0.525356,0.5888779 0.122878,0.2061854 0.195773,0.4587105 0.227012,0.69926 0.06143,0.4753719 -0.03697,0.9340824 -0.273872,1.3553046 z M 11.739661,6.5624297 C 10.927935,5.7303987 10.001143,5.0847677 8.9092976,4.6874963 7.9429338,4.336044 6.933875,4.2116038 5.9123198,4.1824463 5.1422486,4.1605782 4.3763428,4.1933804 3.6250157,4.3886317 3.1158002,4.5208819 2.6956195,4.7708036 2.432681,5.2430514 2.417061,5.2706474 2.406127,5.3008454 2.384259,5.3482268 2.433202,5.3419768 2.461318,5.3393768 2.4889136,5.3346898 3.2756463,5.2019189 4.0602962,5.0545692 4.8496323,4.9410631 c 0.658127,-0.094761 1.3256265,-0.1358949 1.9821916,-0.00156 1.3407257,0.2743931 2.4804727,0.9351235 3.4707861,1.8671232 0.01042,0.00989 0.01406,0.027075 0.03749,0.074456 -0.06196,-0.040612 -0.09008,-0.060918 -0.119236,-0.078621 C 9.9105463,6.6134553 9.6012682,6.4228901 9.2893869,6.2364901 9.1810874,6.171927 9.0707054,6.1328768 8.9368931,6.1839024 8.8119323,6.2312834 8.67812,6.2672097 8.5453491,6.2781438 8.4557938,6.2854331 8.3178163,6.2692924 8.280328,6.2120187 8.2303437,6.1354802 8.2485671,6.0084366 8.2532532,5.9037819 8.2553359,5.8616077 8.2985514,5.821516 8.327709,5.7730937 7.8091215,5.5033866 7.2598144,5.3966492 6.6943666,5.3523922 c -0.03176,-0.0026 -0.070811,0.011975 -0.096845,0.031241 C 6.4251797,5.514842 6.2882434,5.6767705 6.2783507,5.9017 c -0.018224,0.4118501 0.083307,0.80027 0.4128914,1.0621672 0.3056335,0.2431529 0.637821,0.4691238 0.989794,0.6352175 1.3303123,0.628449 2.7564279,0.8065182 4.2096189,0.8278657 0.04634,5.207e-4 0.118712,-0.055711 0.136415,-0.1020514 0.246798,-0.640945 0.236383,-1.2256576 -0.286368,-1.7619479 z"
     id="path2"
     inkscape:connector-curvature="0"
     style="fill:#444444;stroke-width:0.52067018" />
</svg>
