<?xml version="1.0" encoding="UTF-8" standalone="no"?>
<!-- Created with Inkscape (http://www.inkscape.org/) -->

<svg
   xmlns:dc="http://purl.org/dc/elements/1.1/"
   xmlns:cc="http://creativecommons.org/ns#"
   xmlns:rdf="http://www.w3.org/1999/02/22-rdf-syntax-ns#"
   xmlns:svg="http://www.w3.org/2000/svg"
   xmlns="http://www.w3.org/2000/svg"
   version="1.1"
   width="16"
   height="16"
   id="svg2">
  <defs
     id="defs4">
    <linearGradient
       id="linearGradient3859">
      <stop
         id="stop3861"
         style="stop-color:#eec73e;stop-opacity:1"
         offset="0" />
      <stop
         id="stop3863"
         style="stop-color:#9a8022;stop-opacity:1"
         offset="1" />
    </linearGradient>
    <linearGradient
       id="linearGradient3851">
      <stop
         id="stop3853"
         style="stop-color:#6699cc;stop-opacity:1"
         offset="0" />
      <stop
         id="stop3855"
         style="stop-color:#0054a7;stop-opacity:1"
         offset="1" />
    </linearGradient>
  </defs>
  <metadata
     id="metadata7">
    <rdf:RDF>
      <cc:Work
         rdf:about="">
        <dc:format>image/svg+xml</dc:format>
        <dc:type
           rdf:resource="http://purl.org/dc/dcmitype/StillImage" />
        <dc:title></dc:title>
      </cc:Work>
    </rdf:RDF>
  </metadata>
  <g
     transform="translate(0,-1036.3622)"
     id="layer1"
     style="fill:#336699;fill-opacity:1">
    <path
       d="m 2,0 c 1,0 11,0 12,0 1,0 2,1 2,2 0,1 0,11 0,12 0,1 -1,2 -2,2 C 13,16 3,16 2,16 1,16 0,15 0,14 0,13 0,3 0,2 0,1 1,0 2,0 z"
       transform="translate(0,1036.3622)"
       id="rect2995"
       style="fill:#336699;fill-opacity:1;stroke:none" />
    <text
       x="5.1758919"
       y="14.543665"
       transform="translate(0,1036.3622)"
       id="text3921"
       xml:space="preserve"
       style="font-size:12px;font-style:normal;font-variant:normal;font-weight:normal;font-stretch:normal;line-height:125%;letter-spacing:0px;word-spacing:0px;fill:#336699;fill-opacity:1;stroke:none;font-family:Ubuntu Mono;-inkscape-font-specification:Ubuntu Mono"><tspan
         x="5.1758919"
         y="14.543665"
         id="tspan3923"
         style="fill:#336699;fill-opacity:1" /></text>
    <g
       id="text3925"
       style="font-size:12px;font-style:normal;font-variant:normal;font-weight:normal;font-stretch:normal;line-height:125%;letter-spacing:0px;word-spacing:0px;fill:#336699;fill-opacity:1;stroke:none;font-family:Ubuntu Mono;-inkscape-font-specification:Ubuntu Mono" />
  </g>
  <path
     d="m 2.5203078,11.28324 c -0.4464504,0 -0.7711872,-0.09281 -0.9741298,-0.278491 C 1.3432354,10.819177 1.2417641,10.488389 1.2417641,10.01239 V 9.1764446 c 0,-0.4270321 -0.1420364,-0.6404949 -0.42620812,-0.6404949 V 7.88526 c 0.28417172,0 0.42620812,-0.2281482 0.42620812,-0.6846025 v -0.798704 c 0,-0.4917939 0.1003577,-0.8374762 0.3010821,-1.0369413 0.2007154,-0.1996762 0.5265659,-0.299461 0.9775065,-0.299461 v 0.6507431 c -0.324692,0 -0.4870604,0.208972 -0.4870604,0.6269718 v 0.7682238 c 0,0.5767888 -0.1623325,0.9409593 -0.4870694,1.0924062 v 0.013468 c 0.3247369,0.1446325 0.4870694,0.5020421 0.4870694,1.0720688 v 0.7150831 c 0,0.228201 0.038077,0.389896 0.1141877,0.485243 0.076065,0.09525 0.2004101,0.142786 0.3728727,0.142786 v 0.650692"
     id="path9"
     style="fill:#ffffff" />
  <path
     d="m 3.9815519,8.869218 c 0,0.1512891 0.031701,0.2661295 0.095158,0.3444677 0.063403,0.078338 0.1484037,0.1175873 0.2548951,0.1175873 0.053344,0 0.1065902,-0.00576 0.1598359,-0.017542 0.053255,-0.011732 0.1065453,-0.023503 0.159791,-0.035554 v 0.798598 c -0.1129035,0.03545 -0.2323898,0.0646 -0.3585935,0.08753 -0.1262038,0.02304 -0.2575264,0.03444 -0.3938692,0.03444 -0.1250003,0 -0.2386223,-0.02467 -0.3410635,-0.07395 C 3.4552554,10.075506 3.3678836,10.004514 3.2955542,9.9119138 3.2232607,9.819211 3.1673029,9.7073779 3.1276627,9.576373 3.0880585,9.4453158 3.0682114,9.2977783 3.0682114,9.1335473 V 4.7763863 H 3.981489 v 4.0928274"
     id="path11"
     style="fill:#ffffff" />
  <path
     d="m 6.90404,7.957524 c 0,-0.4819692 -0.1734864,-0.7229538 -0.5203334,-0.7229538 -0.1478289,0 -0.2757659,0.069039 -0.3838648,0.2072297 C 5.8917429,7.5799881 5.8258615,7.7519314 5.8024133,7.957524 H 6.90404 M 7.7564204,8.608266 H 5.8081069 c 0.031701,0.5300919 0.3078894,0.79527 0.828582,0.79527 0.3323883,0 0.6244359,-0.1023747 0.8762238,-0.3072788 V 9.9232219 C 7.2344795,10.106945 6.8729942,10.198806 6.4283669,10.198806 5.9425908,10.198806 5.5655332,10.038432 5.2972481,9.7176303 5.0289989,9.3967751 4.8948294,8.9494054 4.8948294,8.3755749 c 0,-0.5956994 0.1440481,-1.067367 0.4319108,-1.4148985 0.2879974,-0.3475837 0.6418313,-0.5213228 1.0617261,-0.5213228 0.4356827,0 0.7726151,0.1534015 1.0107435,0.4602581 0.2381284,0.3069089 0.3572555,0.723165 0.3572555,1.2488717 V 8.608266 z"
     id="path13"
     style="fill:#ffffff" />
  <path
     d="M 8.1217314,9.9999755 V 9.0238876 c 0.1553457,0.1280467 0.3103321,0.2232886 0.4647348,0.2858323 0.1544116,0.062491 0.3004534,0.093716 0.4381343,0.093716 0.1673976,0 0.2994297,-0.023291 0.3961862,-0.069988 0.096756,-0.046698 0.1450629,-0.1174816 0.1450629,-0.2124592 0,-0.069935 -0.021913,-0.1283634 -0.065648,-0.1750071 C 9.4564664,8.8992832 9.4001494,8.8584506 9.3313314,8.8234286 9.2625403,8.7884078 9.1872024,8.7569275 9.1053986,8.7291368 9.0235857,8.7012504 8.9449789,8.6696527 8.8694435,8.6341626 8.747739,8.5807037 8.6405291,8.5230207 8.5478677,8.4607413 8.4552872,8.3986231 8.3775785,8.3267782 8.3148493,8.2450594 8.2520752,8.1633406 8.2041729,8.0688377 8.1712053,7.9614453 8.1382467,7.8542127 8.1217224,7.7270115 8.1217224,7.5802121 c 0,-0.2003098 0.037988,-0.3729397 0.1136579,-0.5179423 0.075886,-0.1450026 0.1766565,-0.2634346 0.302546,-0.3552426 0.1259343,-0.091967 0.2701979,-0.1595303 0.4327909,-0.2027935 0.1627725,-0.043317 0.3319033,-0.064923 0.5075809,-0.064923 0.1369625,0 0.2762509,0.012573 0.4176228,0.037772 0.1414621,0.025253 0.2806601,0.061969 0.4176681,0.1101918 V 7.4695467 C 10.190546,7.3912084 10.058693,7.3324675 9.9178514,7.293325 9.7770992,7.2541346 9.6388884,7.2345873 9.5030755,7.2345873 c -0.063313,0 -0.1232671,0.00544 -0.1797638,0.01638 -0.056488,0.010937 -0.1062759,0.026884 -0.1493376,0.047914 -0.043107,0.021178 -0.076963,0.048276 -0.1017407,0.081399 -0.024786,0.033229 -0.03718,0.070788 -0.03718,0.1129906 0,0.065499 0.018231,0.1216014 0.054692,0.1683517 0.036461,0.046698 0.083968,0.086997 0.142216,0.1208612 0.058374,0.033912 0.123312,0.06423 0.1949769,0.090911 0.071665,0.026777 0.1427549,0.054034 0.2131714,0.081932 0.1274071,0.051241 0.2427624,0.1071804 0.3457873,0.1677704 0.103025,0.060646 0.191376,0.1317962 0.264953,0.2135161 0.07355,0.081665 0.129985,0.1775951 0.169311,0.2875226 0.03933,0.1098747 0.05891,0.2406146 0.05891,0.3920614 0,0.2123537 -0.03942,0.3935938 -0.118417,0.5438272 -0.07894,0.1503379 -0.183859,0.2726782 -0.314868,0.3671811 C 9.9147801,10.02171 9.7639337,10.090644 9.5929349,10.133853 9.4219811,10.177173 9.2445702,10.198833 9.0606664,10.198833 8.7225395,10.198778 8.4095852,10.132532 8.1216775,10"
     id="path15"
     style="fill:#ffffff" />
  <path
     d="M 10.800622,9.9999755 V 9.0238876 c 0.155382,0.1280467 0.310368,0.2232886 0.46469,0.2858323 0.154501,0.062491 0.300498,0.093716 0.438134,0.093716 0.167398,0 0.299565,-0.023291 0.396276,-0.069988 0.09662,-0.046698 0.145063,-0.1174816 0.145063,-0.2124592 0,-0.069935 -0.02191,-0.1283634 -0.06574,-0.1750071 -0.04383,-0.046645 -0.09996,-0.08753 -0.16878,-0.1225525 -0.06879,-0.035021 -0.144219,-0.066502 -0.226032,-0.094292 -0.08181,-0.027886 -0.16041,-0.059483 -0.235901,-0.094974 -0.121758,-0.05346 -0.228959,-0.111142 -0.321585,-0.1734215 -0.09253,-0.062119 -0.170289,-0.1339631 -0.233054,-0.2156819 -0.06268,-0.081719 -0.110631,-0.1762217 -0.143599,-0.2836142 -0.03296,-0.1072326 -0.04948,-0.2344337 -0.04948,-0.3812332 0,-0.2003097 0.0379,-0.3729397 0.113703,-0.5179423 0.0758,-0.1450026 0.176602,-0.2634345 0.302546,-0.3552426 0.125934,-0.091967 0.270198,-0.1595302 0.432791,-0.2027934 0.162772,-0.043318 0.331903,-0.064923 0.507527,-0.064923 0.137061,0 0.276304,0.012573 0.417631,0.037772 0.141462,0.025253 0.280742,0.061969 0.417668,0.1101918 V 7.4695467 C 12.869437,7.3912084 12.737629,7.3324675 12.596742,7.293325 12.45599,7.254135 12.317689,7.234587 12.182047,7.234587 c -0.0634,0 -0.123357,0.00544 -0.179809,0.01638 -0.0564,0.010937 -0.106222,0.026884 -0.149284,0.047914 -0.0432,0.021178 -0.07714,0.048276 -0.10183,0.081399 -0.02479,0.033229 -0.03709,0.070788 -0.03709,0.1129906 0,0.065499 0.01823,0.1216014 0.05469,0.1683517 0.03646,0.046698 0.08388,0.086997 0.142261,0.1208612 0.05828,0.033912 0.123267,0.06423 0.194977,0.090911 0.07157,0.026777 0.14271,0.054034 0.213126,0.081932 0.127452,0.051241 0.242709,0.1071804 0.345787,0.1677704 0.102981,0.060646 0.191286,0.1317962 0.264954,0.2135161 0.07355,0.081665 0.129984,0.1775951 0.169265,0.2875226 0.03943,0.1098747 0.05891,0.2406146 0.05891,0.3920614 0,0.2123537 -0.03951,0.3935938 -0.118373,0.5438272 -0.07903,0.1503379 -0.183994,0.2726782 -0.314867,0.3671811 -0.131004,0.094504 -0.281985,0.1634387 -0.452849,0.2066477 -0.171007,0.04332 -0.348364,0.06498 -0.532313,0.06498 -0.338037,-5.2e-5 -0.650992,-0.0663 -0.938989,-0.19883"
     id="path17"
     style="fill:#ffffff" />
  <path
     d="m 15.184399,8.5359497 c -0.284216,0 -0.426208,0.2168966 -0.426208,0.6506897 v 0.8043037 c 0,0.4902629 -0.09555,0.8282869 -0.286839,1.0138059 -0.191241,0.185731 -0.501483,0.278491 -0.930808,0.278491 v -0.650746 c 0.170514,0 0.294356,-0.04706 0.371409,-0.141146 0.07696,-0.09413 0.115616,-0.254138 0.115616,-0.480067 V 9.2678837 c 0,-0.5557645 0.142036,-0.903296 0.426208,-1.0426466 V 8.2106059 C 14.169605,8.0592646 14.027569,7.68305 14.027569,7.0821199 V 6.3432138 c 0,-0.4179987 -0.162377,-0.6269718 -0.48698,-0.6269718 V 5.0654989 c 0.427457,0 0.737205,0.099784 0.929425,0.2994611 0.192175,0.199465 0.288222,0.5403399 0.288222,1.0223091 v 0.8212595 c 0,0.4510669 0.141991,0.6766803 0.426208,0.6766803 v 0.6507419"
     id="path19"
     style="fill:#ffffff" />
</svg>
