<?xml version="1.0" encoding="UTF-8" standalone="no"?>
<!-- Generated by IcoMoon.io -->

<svg
   xmlns:dc="http://purl.org/dc/elements/1.1/"
   xmlns:cc="http://creativecommons.org/ns#"
   xmlns:rdf="http://www.w3.org/1999/02/22-rdf-syntax-ns#"
   xmlns:svg="http://www.w3.org/2000/svg"
   xmlns="http://www.w3.org/2000/svg"
   xmlns:sodipodi="http://sodipodi.sourceforge.net/DTD/sodipodi-0.dtd"
   xmlns:inkscape="http://www.inkscape.org/namespaces/inkscape"
   version="1.1"
   width="32"
   height="32"
   viewBox="0 0 32 32"
   id="svg2"
   inkscape:version="0.91 r13725"
   sodipodi:docname="less.svg">
  <metadata
     id="metadata10">
    <rdf:RDF>
      <cc:Work
         rdf:about="">
        <dc:format>image/svg+xml</dc:format>
        <dc:type
           rdf:resource="http://purl.org/dc/dcmitype/StillImage" />
      </cc:Work>
    </rdf:RDF>
  </metadata>
  <defs
     id="defs8" />
  <sodipodi:namedview
     pagecolor="#ffffff"
     bordercolor="#666666"
     borderopacity="1"
     objecttolerance="10"
     gridtolerance="10"
     guidetolerance="10"
     inkscape:pageopacity="0"
     inkscape:pageshadow="2"
     inkscape:window-width="1920"
     inkscape:window-height="1030"
     id="namedview6"
     showgrid="false"
     inkscape:zoom="7.375"
     inkscape:cx="-5.1525424"
     inkscape:cy="14.915254"
     inkscape:window-x="0"
     inkscape:window-y="25"
     inkscape:window-maximized="1"
     inkscape:current-layer="svg2" />
  <path
     d="m 7.1042166,8.5189457 0,9.1908703 c 0,1.106144 0.1227643,1.269407 1.2213147,1.584545 L 8.0622845,20.834609 C 7.4763063,20.70172 6.9118437,20.642237 6.4018023,20.441005 5.4285471,20.05879 5.2754081,19.176659 5.2716113,18.270481 c -0.012656,-2.5983 -0.00506,-5.1966 -0.00506,-7.793635 l 0,-0.5138393 c -0.4467608,0.03417 -0.8580846,0.03037 -1.2529553,0.1063083 -0.4543546,0.08606 -0.7138049,0.459417 -0.7289922,1.006161 -0.021516,0.761897 -0.00759,1.523796 -0.02025,2.285694 -0.00633,0.349309 -0.021516,0.699883 -0.063281,1.045395 -0.078468,0.65179 -0.3784179,1.182081 -0.9276932,1.537718 0.00506,0.04936 -0.00253,0.08607 0.01012,0.09492 0.823913,0.575853 0.9656615,1.439 0.9808489,2.350241 0.011391,0.72393 0,1.449124 0.0038,2.173055 0.00633,1.092222 0.2898249,1.38711 1.3858445,1.456718 l 0.1771855,0.02658 0,1.425079 C 4.070546,23.451895 3.3263665,23.420254 2.6454676,23.055758 1.8873663,22.649496 1.6317128,21.945817 1.5950101,21.151012 c -0.037968,-0.822647 -0.024047,-1.647825 -0.03164,-2.471738 -0.00127,-0.149342 0.00506,-0.29995 -0.0038,-0.450558 -0.054421,-0.954271 -0.4265111,-1.374454 -1.36559473,-1.536452 -0.00759,-0.04303 -0.0215156,-0.08986 -0.0215156,-0.137952 -0.00253,-0.399934 -0.001271,-0.798601 -0.001271,-1.185878 l 0.067077,-0.06074 c 0.98844253,-0.2392 1.31243903,-0.641664 1.32382953,-1.674403 0.00759,-0.661915 -0.011391,-1.32383 0.00633,-1.985745 0.011391,-0.448027 0.030374,-0.901115 0.1101083,-1.340282 0.1759199,-0.9707243 0.8821311,-1.5579693 2.0123221,-1.7098413 0.3341214,-0.04429 0.6707741,-0.07214 1.0074267,-0.07721 0.7846791,-0.01139 1.5706239,-0.0038 2.407193,-0.0038 l 0,0 z M 10.28976,17.126369 c -0.116436,0.960598 0.623946,1.841464 1.651623,2.032571 0.97199,0.180983 1.909808,0.01392 2.880532,-0.289825 0.07721,0.450558 0.161998,0.885928 0.217685,1.325095 0.0088,0.06708 -0.106307,0.194905 -0.188576,0.220217 -1.423813,0.445495 -2.860282,0.592306 -4.289157,0.04429 -0.8808654,-0.337916 -1.5174685,-0.966924 -1.856652,-1.84779 -0.5378846,-1.401031 -0.5442131,-2.810923 0.089857,-4.182845 0.9264268,-2.005994 3.234902,-2.527427 4.962461,-1.723763 1.04413,0.485995 1.547843,1.389641 1.72756,2.473004 0.102518,0.62015 0.09366,1.258018 0.139217,1.947776 -1.833871,-0.0012 -3.586742,-0.0012 -5.333286,-0.0012 l 0,0 z m 3.452588,-1.354204 c 0.02151,-1.169426 -0.641665,-1.900949 -1.680732,-1.894621 -0.993505,0.0064 -1.800965,0.856818 -1.775652,1.894621 l 3.456384,0 z m 13.430668,7.7139 0,-1.447859 0.415121,-0.02911 c 0.780883,-0.06327 1.128926,-0.410058 1.149175,-1.192206 0.01898,-0.749242 0,-1.498484 0.01392,-2.247726 0.0064,-0.360699 0.02784,-0.725196 0.081,-1.082097 0.09239,-0.617619 0.407527,-1.113738 0.987176,-1.489626 -1.025145,-0.650524 -1.059316,-1.644029 -1.069441,-2.643861 -0.0076,-0.687228 0.0076,-1.374455 -0.0064,-2.060415 -0.01898,-0.932757 -0.363232,-1.273207 -1.298518,-1.3149723 l -0.258185,-0.01772 0,-1.439 c 0.812523,0.01772 1.617451,0.04303 2.329991,0.503713 0.66318,0.429042 0.870741,1.1086763 0.902381,1.8401993 0.03923,0.885928 0.01898,1.773122 0.03543,2.659049 0.005,0.260717 0.01772,0.529026 0.0848,0.778352 0.170857,0.641664 0.615086,0.973254 1.289658,0.996036 l 0,1.403563 c -0.645463,0.02784 -1.107411,0.335387 -1.2808,0.978318 -0.06835,0.249325 -0.08607,0.516369 -0.09113,0.775819 -0.01772,0.874538 0,1.749075 -0.03164,2.622347 -0.04935,1.385845 -0.779616,2.156602 -2.159132,2.317335 -0.354371,0.04176 -0.712539,0.05695 -1.092223,0.08733 l 0,0 z m 0.337919,-10.756431 -0.332856,1.45039 c -0.772022,-0.255653 -1.532656,-0.431572 -2.329991,-0.303745 -0.502447,0.08099 -0.7986,0.301214 -0.860615,0.653055 -0.06835,0.380949 0.117702,0.718867 0.578384,0.946677 0.389808,0.192373 0.803663,0.336653 1.204863,0.506244 0.240466,0.102519 0.482197,0.202499 0.716336,0.320201 1.126394,0.561931 1.516202,1.282063 1.387109,2.550206 -0.08986,0.88846 -0.730258,1.54278 -1.856652,1.790841 -1.342813,0.294887 -2.671705,0.212622 -4.009456,-0.291091 l 0.293621,-1.460516 c 0.575853,0.131624 1.123863,0.302482 1.684529,0.369559 0.463214,0.05568 0.945411,0.01139 1.413688,-0.03543 0.308809,-0.03037 0.568259,-0.188577 0.644196,-0.535355 0.07847,-0.356902 -0.02278,-0.666976 -0.323996,-0.85049 -0.369559,-0.225279 -0.774555,-0.394871 -1.166894,-0.583447 -0.470808,-0.225279 -0.961865,-0.41512 -1.414954,-0.67204 -1.333955,-0.753038 -1.321298,-3.084295 0.161998,-3.793038 0.439167,-0.210091 0.937819,-0.336652 1.422547,-0.404995 0.94035,-0.134154 1.855387,0.05948 2.789409,0.342981 z m -6.047091,-0.06581 -0.348043,1.518734 c -0.773289,-0.263248 -1.522531,-0.429042 -2.309742,-0.308809 -0.526494,0.081 -0.821382,0.303746 -0.884662,0.673305 -0.06328,0.374621 0.126561,0.70368 0.601166,0.935286 0.413854,0.201233 0.851756,0.354372 1.275736,0.532824 0.206295,0.08733 0.412589,0.177185 0.613821,0.277169 1.166894,0.580914 1.574421,1.364328 1.388376,2.652721 -0.127826,0.888459 -0.902381,1.570623 -2.043962,1.750341 -1.1593,0.182247 -2.309741,0.151873 -3.441198,-0.210092 -0.277168,-0.0886 -0.393605,-0.19617 -0.308809,-0.499917 0.101248,-0.356902 0.161998,-0.725195 0.241731,-1.092222 0.572058,0.129092 1.120067,0.301215 1.680733,0.367027 0.463213,0.05442 0.945411,0.01139 1.413688,-0.03543 0.329059,-0.03164 0.584712,-0.216419 0.654321,-0.574587 0.06708,-0.345512 -0.05315,-0.645462 -0.337918,-0.811257 -0.429043,-0.249325 -0.892257,-0.437901 -1.340284,-0.653056 -0.41512,-0.198701 -0.845427,-0.37209 -1.242829,-0.5999 -1.335221,-0.765695 -1.313705,-3.079232 0.191107,-3.827208 0.669509,-0.332857 1.378251,-0.456886 2.105977,-0.399934 0.687227,0.05442 1.368126,0.19617 2.092056,0.305012 l 0,0 z"
     id="path4"
     inkscape:connector-curvature="0"
     style="fill:#c4a000" />
</svg>
