<?xml version="1.0" encoding="UTF-8" standalone="no"?>
<svg
   xmlns:dc="http://purl.org/dc/elements/1.1/"
   xmlns:cc="http://creativecommons.org/ns#"
   xmlns:rdf="http://www.w3.org/1999/02/22-rdf-syntax-ns#"
   xmlns:svg="http://www.w3.org/2000/svg"
   xmlns="http://www.w3.org/2000/svg"
   id="svg4"
   version="1.1"
   viewBox="0 0 14 14"
   height="14"
   width="14">
  <metadata
     id="metadata10">
    <rdf:RDF>
      <cc:Work
         rdf:about="">
        <dc:format>image/svg+xml</dc:format>
        <dc:type
           rdf:resource="http://purl.org/dc/dcmitype/StillImage" />
        <dc:title></dc:title>
      </cc:Work>
    </rdf:RDF>
  </metadata>
  <defs
     id="defs8" />
  <path
     d="m 7.9925789,0.998 c -1.165,0.411 -2,1.507 -2,2.814 v 0.381 c 0,0.74 -0.404,1.378 -1,1.723 v 2.166 c 0.596,0.3449998 1,0.9809998 1,1.7209998 V 10.184 c 0,1.307 0.835,2.403 2,2.814 v -1.092 c -0.596,-0.345 -1,-0.983 -1,-1.723 V 9.8019998 c 0,-1.3 -0.826,-2.3879998 -1.98,-2.8049998 1.154,-0.417 1.98,-1.505 1.98,-2.805 V 3.811 c 0,-0.74 0.404,-1.378 1,-1.723 z M 5.508,0.998 c -1.165,0.411 -2,1.507 -2,2.814 v 0.381 c 0,0.74 -0.404,1.378 -1,1.723 v 2.166 c 0.596,0.345 1,0.981 1,1.721 v 0.381 c 0,1.307 0.835,2.403 2,2.814 v -1.092 c -0.596,-0.345 -1,-0.983 -1,-1.723 V 9.802 C 4.508,8.502 3.682,7.414 2.528,6.997 3.682,6.58 4.508,5.492 4.508,4.192 V 3.811 c 0,-0.74 0.404,-1.378 1,-1.723 z m 4,0 V 2.09 c 0.596,0.345 1,0.983 1,1.723 v 0.381 c 0,1.299 0.827,2.388 1.98,2.805 -1.154,0.416 -1.98,1.505 -1.98,2.805 v 0.381 c 0,0.74 -0.404,1.378 -1,1.723 V 13 c 1.165,-0.411 2,-1.507 2,-2.814 V 9.805 c 0,-0.74 0.404,-1.376 1,-1.721 V 5.918 c -0.596,-0.345 -1,-0.983 -1,-1.723 V 3.814 c 0,-1.307 -0.835,-2.403 -2,-2.814 M 1,11.58 V 13 h 1.508 v -1.42 z"
     style="color:#000000;color-interpolation:sRGB;color-interpolation-filters:linearRGB;fill:#f9d24c;color-rendering:auto;image-rendering:auto;shape-rendering:auto;text-rendering:auto"
     id="path2-6" />
</svg>
