<?xml version="1.0" encoding="UTF-8" standalone="no"?>
<svg
   xmlns:dc="http://purl.org/dc/elements/1.1/"
   xmlns:cc="http://creativecommons.org/ns#"
   xmlns:rdf="http://www.w3.org/1999/02/22-rdf-syntax-ns#"
   xmlns:svg="http://www.w3.org/2000/svg"
   xmlns="http://www.w3.org/2000/svg"
   xmlns:sodipodi="http://sodipodi.sourceforge.net/DTD/sodipodi-0.dtd"
   xmlns:inkscape="http://www.inkscape.org/namespaces/inkscape"
   preserveAspectRatio="xMidYMid"
   height="14"
   width="14"
   id="svg2"
   version="1.1"
   inkscape:version="0.92.1 r"
   sodipodi:docname="node.js.svg"
   viewBox="0 0 14 14">
  <metadata
     id="metadata10">
    <rdf:RDF>
      <cc:Work
         rdf:about="">
        <dc:format>image/svg+xml</dc:format>
        <dc:type
           rdf:resource="http://purl.org/dc/dcmitype/StillImage" />
      </cc:Work>
    </rdf:RDF>
  </metadata>
  <defs
     id="defs8" />
  <sodipodi:namedview
     pagecolor="#ffffff"
     bordercolor="#666666"
     borderopacity="1"
     objecttolerance="10"
     gridtolerance="10"
     guidetolerance="10"
     inkscape:pageopacity="0"
     inkscape:pageshadow="2"
     inkscape:window-width="1920"
     inkscape:window-height="1025"
     id="namedview6"
     showgrid="true"
     inkscape:zoom="20.85965"
     inkscape:cx="-5.9005396"
     inkscape:cy="5.4836792"
     inkscape:window-x="0"
     inkscape:window-y="27"
     inkscape:window-maximized="1"
     inkscape:current-layer="svg2">
    <inkscape:grid
       type="xygrid"
       id="grid7" />
  </sodipodi:namedview>
  <path
     d="m 6.9861707,12.470227 c -0.1580661,0 -0.3161322,0 -0.3951653,-0.07903 L 5.2474435,11.600862 c -0.2370991,-0.158065 -0.1580661,-0.158065 -0.079033,-0.237099 0.3161322,-0.07903 0.3161322,-0.07903 0.6322644,-0.237099 0,0 0.079033,0 0.079033,0 l 1.0274297,0.632265 c 0.079033,0 0.079033,0 0.1580661,0 L 11.095878,9.387941 c 0,0 0.07903,0 0.07903,-0.079033 V 4.6459579 c 0,0 -0.07903,-0.079033 -0.07903,-0.079033 L 7.0652038,2.1959332 c -0.079033,0 -0.079033,0 -0.1580661,0 L 2.8764519,4.5669248 c 0,0 0,0.079033 0,0.079033 v 4.6629498 c 0,0.079033 0,0.079033 0,0.079033 l 1.1064628,0.6322634 c 0.6322644,0.31613 1.0274297,0 1.0274297,-0.3951645 V 5.0411231 c 0,-0.079033 0,-0.079033 0.079033,-0.079033 h 0.5532314 c 0,0 0.079033,0 0.079033,0.079033 v 4.5839171 c 0,0.7903258 -0.4741983,1.2645248 -1.1854957,1.2645248 -0.2370992,0 -0.3951653,0 -0.9483967,-0.237099 L 2.5603198,10.020205 C 2.2441877,9.8621394 2.0861218,9.6250402 2.0861218,9.308908 V 4.6459579 c 0,-0.3161323 0.1580659,-0.5532315 0.474198,-0.7112975 L 6.5910054,1.5636688 c 0.2370992,-0.079033 0.5532314,-0.079033 0.7903306,0 l 4.030674,2.3709916 c 0.316132,0.158066 0.474198,0.3951652 0.474198,0.7112975 V 9.308908 c 0,0.3161322 -0.158066,0.5532314 -0.474198,0.711297 l -3.951641,2.370988 c -0.1580661,0.07903 -0.3161322,0.07903 -0.4741983,0.07903 z M 8.2506996,9.308908 c -1.7387272,0 -2.1338925,-0.8693636 -2.1338925,-1.501628 0,-0.079033 0.079033,-0.1580661 0.079033,-0.1580661 h 0.5532314 c 0.079033,0 0.079033,0.079033 0.079033,0.1580661 0.079033,0.4741983 0.3161322,0.7903305 1.422595,0.7903305 0.8693635,0 1.1854957,-0.2370991 1.1854957,-0.6322645 0,-0.3161321 -0.079033,-0.4741982 -1.4225949,-0.6322644 -1.1064626,-0.079033 -1.738727,-0.3161321 -1.738727,-1.1854957 0,-0.8693636 0.6322644,-1.343562 1.8177601,-1.343562 1.2645289,0 1.8967915,0.4741984 1.9758226,1.422595 0,0 0,0.079033 0,0.079033 0,0 -0.079029,0.079033 -0.079029,0.079033 H 9.436195 c -0.079033,0 -0.079033,-0.079033 -0.079033,-0.1580662 C 9.1990962,5.6733875 8.882964,5.5153215 8.0926334,5.5153215 c -0.9483966,0 -1.0274296,0.3161321 -1.0274296,0.5532313 0,0.3161322 0.079033,0.3951652 1.3435619,0.5532314 1.2645288,0.1580661 1.8177553,0.3951653 1.8177553,1.2645288 0,0.8693636 -0.7112926,1.422595 -1.9758214,1.422595 z"
     id="path4"
     inkscape:connector-curvature="0"
     style="fill:#00cc00;fill-opacity:1;stroke-width:0.79033053" />
</svg>
