<?xml version="1.0" encoding="UTF-8" standalone="no"?>
<!-- Created with Inkscape (http://www.inkscape.org/) -->

<svg
   xmlns:dc="http://purl.org/dc/elements/1.1/"
   xmlns:cc="http://creativecommons.org/ns#"
   xmlns:rdf="http://www.w3.org/1999/02/22-rdf-syntax-ns#"
   xmlns:svg="http://www.w3.org/2000/svg"
   xmlns="http://www.w3.org/2000/svg"
   version="1.1"
   width="16"
   height="16"
   id="svg2">
  <defs
     id="defs4">
    <linearGradient
       id="linearGradient3859">
      <stop
         id="stop3861"
         style="stop-color:#eec73e;stop-opacity:1"
         offset="0" />
      <stop
         id="stop3863"
         style="stop-color:#9a8022;stop-opacity:1"
         offset="1" />
    </linearGradient>
    <linearGradient
       id="linearGradient3851">
      <stop
         id="stop3853"
         style="stop-color:#6699cc;stop-opacity:1"
         offset="0" />
      <stop
         id="stop3855"
         style="stop-color:#0054a7;stop-opacity:1"
         offset="1" />
    </linearGradient>
  </defs>
  <metadata
     id="metadata7">
    <rdf:RDF>
      <cc:Work
         rdf:about="">
        <dc:format>image/svg+xml</dc:format>
        <dc:type
           rdf:resource="http://purl.org/dc/dcmitype/StillImage" />
        <dc:title></dc:title>
      </cc:Work>
    </rdf:RDF>
  </metadata>
  <g
     transform="translate(0,-1036.3622)"
     id="layer1"
     style="fill:#4fb020;fill-opacity:1">
    <path
       d="m 2,0 c 1,0 11,0 12,0 1,0 2,1 2,2 0,1 0,11 0,12 0,1 -1,2 -2,2 C 13,16 3,16 2,16 1,16 0,15 0,14 0,13 0,3 0,2 0,1 1,0 2,0 z"
       transform="translate(0,1036.3622)"
       id="rect2995"
       style="fill:#4fb020;fill-opacity:1;stroke:none" />
    <text
       x="5.1758919"
       y="14.543665"
       transform="translate(0,1036.3622)"
       id="text3921"
       xml:space="preserve"
       style="font-size:12px;font-style:normal;font-variant:normal;font-weight:normal;font-stretch:normal;line-height:125%;letter-spacing:0px;word-spacing:0px;fill:#4fb020;fill-opacity:1;stroke:none;font-family:Ubuntu Mono;-inkscape-font-specification:Ubuntu Mono"><tspan
         x="5.1758919"
         y="14.543665"
         id="tspan3923"
         style="fill:#4fb020;fill-opacity:1" /></text>
    <g
       id="text3925"
       style="font-size:12px;font-style:normal;font-variant:normal;font-weight:normal;font-stretch:normal;line-height:125%;letter-spacing:0px;word-spacing:0px;fill:#4fb020;fill-opacity:1;stroke:none;font-family:Ubuntu Mono;-inkscape-font-specification:Ubuntu Mono" />
  </g>
  <path
     d="m 3.9574637,7.5945807 c 0,-0.057392 -0.030184,-0.1100843 -0.079643,-0.1384676 L 2.5583939,6.6966528 c -0.022325,-0.013072 -0.047367,-0.019939 -0.072667,-0.020893 h -0.01366 c -0.025226,9.547e-4 -0.050195,0.00783 -0.072851,0.020893 L 1.079754,7.4561131 C 1.030551,7.4844601 1,7.5371521 1,7.5945807 l 0.0029,2.0445911 c 0,0.02846 0.014762,0.055 0.039767,0.06885 0.024492,0.01469 0.054785,0.01469 0.079166,0 L 1.9059697,9.2589823 c 0.049608,-0.029449 0.079754,-0.081406 0.079754,-0.1383207 V 8.1655621 c 0,-0.056952 0.030146,-0.109753 0.07957,-0.1379902 l 0.3339231,-0.192261 c 0.024895,-0.014541 0.052105,-0.021554 0.079901,-0.021554 0.027172,0 0.055079,0.00698 0.079277,0.021554 l 0.3337397,0.192261 c 0.049423,0.028237 0.079681,0.081039 0.079681,0.1379902 v 0.9550995 c 0,0.056914 0.030587,0.1092759 0.079864,0.1383207 l 0.7839139,0.4490379 c 0.024639,0.01469 0.055336,0.01469 0.079717,0 0.024271,-0.01384 0.039582,-0.04039 0.039582,-0.06885 l 0.00257,-2.0445905"
     id="path3999"
     style="fill:#ffffff;fill-rule:evenodd" />
  <path
     d="m 10.292262,8.6592132 c 0,0.014247 -0.0077,0.027355 -0.02001,0.034516 L 9.8190652,8.9548017 c -0.01234,0.00712 -0.02739,0.00712 -0.03973,0 l -0.45326,-0.2610725 c -0.01237,-0.00716 -0.0199,-0.020305 -0.0199,-0.034516 V 8.1358563 c 0,-0.014247 0.0075,-0.027392 0.01983,-0.034443 l 0.453224,-0.2617696 c 0.01245,-0.00712 0.0275,-0.00712 0.03995,0 l 0.4530768,0.2617702 c 0.01234,0.00705 0.02001,0.020233 0.02001,0.034443 v 0.5233563 m 0.122458,-3.8753666 c -0.02475,-0.013806 -0.05483,-0.013476 -0.07928,8.445e-4 -0.02427,0.014321 -0.03922,0.040427 -0.03922,0.068702 v 2.0249094 c 0,0.019865 -0.01076,0.038335 -0.02787,0.048286 -0.01722,0.010023 -0.03852,0.010023 -0.05589,0 L 9.8821072,6.7362364 c -0.04939,-0.02853 -0.110047,-0.028421 -0.159251,0 L 8.4028804,7.49801 c -0.04935,0.028494 -0.079754,0.081003 -0.079754,0.1379903 v 1.5238411 c 0,0.056952 0.030403,0.1094956 0.079717,0.1381003 L 9.7225996,10.06027 c 0.04942,0.02853 0.110194,0.02853 0.159471,0 L 11.202233,9.2979412 c 0.04931,-0.028568 0.07968,-0.081148 0.07968,-0.1381003 V 5.3612538 c 0,-0.057686 -0.03121,-0.1109644 -0.08173,-0.1391285 L 10.414719,4.7838466 z"
     id="path4001"
     style="fill:#ffffff;fill-rule:evenodd" />
  <path
     d="m 14.870325,8.1222703 c 0.04924,-0.028567 0.07935,-0.081039 0.07935,-0.13788 V 7.6151066 c 0,-0.056841 -0.0301,-0.1093488 -0.07935,-0.1378434 l -1.31142,-0.7614799 c -0.04928,-0.028714 -0.11031,-0.028714 -0.159728,-2.203e-4 L 12.07964,7.4773367 C 12.03029,7.5058307 12,7.5583757 12,7.6154004 v 1.523327 c 0,0.057318 0.03077,0.1101571 0.08045,0.1385043 l 1.311312,0.7471623 c 0.04828,0.02768 0.107702,0.02787 0.156203,8.82e-4 l 0.793168,-0.4408159 c 0.02526,-0.014027 0.0409,-0.040427 0.04102,-0.069106 1.84e-4,-0.028751 -0.01505,-0.055298 -0.03998,-0.069692 L 13.014361,8.6835579 c -0.0249,-0.014173 -0.04014,-0.040611 -0.04014,-0.069142 v -0.477458 c 0,-0.028347 0.01517,-0.054785 0.03992,-0.068995 L 13.42741,7.8296558 c 0.02457,-0.014174 0.05493,-0.014174 0.07954,0 l 0.413493,0.2383067 c 0.02468,0.014211 0.03992,0.040611 0.03992,0.068995 v 0.3755994 c 0,0.028567 0.01524,0.054858 0.03995,0.069215 0.02471,0.014137 0.05512,0.014026 0.07979,-2.57e-4 l 0.790233,-0.4592453"
     id="path4003"
     style="fill:#ffffff;fill-rule:evenodd" />
  <path
     d="m 6.0375735,6.7075216 c 0.049278,-0.028383 0.1100832,-0.028383 0.1593608,0 l 1.3197932,0.7616268 c 0.049387,0.028494 0.079754,0.081076 0.079754,0.1381003 v 1.5244286 c 0,0.056914 -0.030367,0.1094592 -0.079643,0.1381005 l -1.31983,0.7622172 c -0.04935,0.02849 -0.1101207,0.02849 -0.1594341,0 L 4.718074,9.2697778 C 4.6687971,9.2411735 4.6384305,9.1885918 4.6384305,9.1316773 v -1.524502 c 0,-0.056952 0.030367,-0.1094957 0.079717,-0.1380269 L 6.0375737,6.7075216"
     id="path4005"
     style="fill:#ffffff;fill-rule:evenodd" />
</svg>
