<?xml version="1.0" encoding="UTF-8" standalone="no"?>
<svg
   xmlns:dc="http://purl.org/dc/elements/1.1/"
   xmlns:cc="http://creativecommons.org/ns#"
   xmlns:rdf="http://www.w3.org/1999/02/22-rdf-syntax-ns#"
   xmlns:svg="http://www.w3.org/2000/svg"
   xmlns="http://www.w3.org/2000/svg"
   xmlns:sodipodi="http://sodipodi.sourceforge.net/DTD/sodipodi-0.dtd"
   xmlns:inkscape="http://www.inkscape.org/namespaces/inkscape"
   width="14"
   height="14"
   viewBox="0 0 14 14"
   version="1.1"
   id="svg4"
   sodipodi:docname="perl.svg"
   inkscape:version="0.92.1 r">
  <metadata
     id="metadata10">
    <rdf:RDF>
      <cc:Work
         rdf:about="">
        <dc:format>image/svg+xml</dc:format>
        <dc:type
           rdf:resource="http://purl.org/dc/dcmitype/StillImage" />
      </cc:Work>
    </rdf:RDF>
  </metadata>
  <defs
     id="defs8" />
  <sodipodi:namedview
     pagecolor="#ffffff"
     bordercolor="#666666"
     borderopacity="1"
     objecttolerance="10"
     gridtolerance="10"
     guidetolerance="10"
     inkscape:pageopacity="0"
     inkscape:pageshadow="2"
     inkscape:window-width="640"
     inkscape:window-height="480"
     id="namedview6"
     showgrid="true"
     inkscape:zoom="11.953125"
     inkscape:cx="-3.6023835"
     inkscape:cy="7.5700255"
     inkscape:current-layer="svg4">
    <inkscape:grid
       type="xygrid"
       id="grid12" />
  </sodipodi:namedview>
  <path
     d="m 4.5019606,13 c -0.239,-0.062 -0.215,-0.129 0.179,-0.498 0.679,-0.635 0.792,-1.267 0.599,-3.347 -0.154,-1.659 -0.189,-1.786 -0.448,-1.647 -0.562,0.301 -1.263,-0.087 -2.06,-1.138 -0.394,-0.52 -0.431,-0.672 -0.364,-1.481 0.041,-0.496 0.126,-1.095 0.188,-1.331 0.095,-0.362 0.065,-0.429 -0.198,-0.429 -0.171,0 -0.399,-0.107 -0.507,-0.237 -0.272,-0.328 0.213,-0.855 0.787,-0.855 0.233,0 0.512,-0.105 0.619,-0.234 0.276,-0.332 0.697,-0.29 1.17,0.117 0.503,0.433 0.674,1.435 0.392,2.291 -0.319,0.968 -0.098,1.063 0.349,0.149 0.25,-0.511 0.603,-0.957 0.894,-1.129 0.264,-0.156 0.65,-0.553 0.858,-0.882 0.208,-0.329 0.468,-0.656 0.579,-0.727 0.34,-0.217 1.274,-0.516 1.622,-0.519 0.475,-0.01 1.1119994,0.552 1.2249994,1.069 0.054,0.244 0.34,0.82 0.636,1.279 0.296,0.459 0.538,0.916 0.538,1.014 0,0.098 0.21,0.444 0.468,0.767 0.385,0.485 0.467,0.729 0.461,1.386 -0.007,0.901 -0.492,2.049 -0.67,1.586 -0.056,-0.146 -0.033,-0.395 0.052,-0.553 0.177,-0.331 0.021,-1.799 -0.171,-1.607 -0.134,0.134 -0.221,1.566 -0.184,3.01 0.049,1.874 -0.042,3.64 -0.19,3.688 -0.378,0.12 -0.543,-0.191 -0.388,-0.732 0.233,-0.814 0.185,-2.979 -0.074,-3.321 -0.12,-0.158 -0.264,-0.561 -0.32,-0.896 -0.057,-0.335 -0.164,-0.646 -0.239,-0.692 -0.245999,-0.152 -0.6169994,0.832 -0.6169994,1.635 0,0.629 -0.095,0.919 -0.468,1.435 -0.528,0.729 -0.569,0.944 -0.234,1.223 0.261,0.217 0.312,0.713 0.087,0.852 -0.081,0.05 -0.291,-0.064 -0.468,-0.254 -0.25,-0.268 -0.321,-0.29 -0.321,-0.1 0,0.285 -0.578,0.478 -0.897,0.3 -0.171,-0.095 -0.13,-0.18 0.183,-0.386 0.559,-0.366 0.505,-0.666 -0.242,-1.349 -0.582,-0.532 -0.634,-0.639 -0.538,-1.112 0.302,-1.498 0.301,-1.537 -0.048,-1.537 -0.228,0 -0.329,0.098 -0.329,0.322 0,0.177 -0.077,0.467 -0.172,0.644 -0.167,0.312 -0.217,0.563 -0.621,3.127 -0.201,1.278 -0.251,1.327 -1.121,1.1 m 4.187,-2.721 c 0.202,-0.392 0.232,-0.727 0.145,-1.654 -0.115,-1.231 -0.2,-1.274 -0.537,-0.272 -0.115,0.343 -0.34,0.791 -0.5,0.995 -0.371,0.476 -0.364,0.62 0.049,1.06 0.443,0.471 0.539,0.457 0.843,-0.13"
     id="path2"
     inkscape:connector-curvature="0"
     style="fill:#22a7f0" />
</svg>
