<?xml version="1.0" encoding="UTF-8" standalone="no"?>
<svg
   xmlns:dc="http://purl.org/dc/elements/1.1/"
   xmlns:cc="http://creativecommons.org/ns#"
   xmlns:rdf="http://www.w3.org/1999/02/22-rdf-syntax-ns#"
   xmlns:svg="http://www.w3.org/2000/svg"
   xmlns="http://www.w3.org/2000/svg"
   xmlns:sodipodi="http://sodipodi.sourceforge.net/DTD/sodipodi-0.dtd"
   xmlns:inkscape="http://www.inkscape.org/namespaces/inkscape"
   preserveAspectRatio="xMidYMid"
   height="16"
   width="16"
   id="svg2"
   version="1.1"
   inkscape:version="0.91 r13725"
   sodipodi:docname="perl.svg">
  <metadata
     id="metadata10">
    <rdf:RDF>
      <cc:Work
         rdf:about="">
        <dc:format>image/svg+xml</dc:format>
        <dc:type
           rdf:resource="http://purl.org/dc/dcmitype/StillImage" />
      </cc:Work>
    </rdf:RDF>
  </metadata>
  <defs
     id="defs8" />
  <sodipodi:namedview
     pagecolor="#ffffff"
     bordercolor="#666666"
     borderopacity="1"
     objecttolerance="10"
     gridtolerance="10"
     guidetolerance="10"
     inkscape:pageopacity="0"
     inkscape:pageshadow="2"
     inkscape:window-width="1280"
     inkscape:window-height="751"
     id="namedview6"
     showgrid="false"
     inkscape:zoom="14.75"
     inkscape:cx="-0.47457627"
     inkscape:cy="8"
     inkscape:window-x="0"
     inkscape:window-y="0"
     inkscape:window-maximized="1"
     inkscape:current-layer="svg2" />
  <path
     d="m 10.567157,1.05 0,0 c 0.3,0 0.5,0 0.9,0.1 0.3,0.2 0.5,0.4 0.8,0.6 0.2,0.4 0.3,0.8 0.5,1.2 0.1,0.3 0.3,0.5 0.5,0.7 0.1,0.1 0.3,0.3 0.4,0.5 0.4,0.8 0.7,1.4 1.4,2.1 0.3,0.3 0.4,0.5 0.4,0.9 0.1,0.7 0.1,1.2 -0.1,1.8 0,0.1 -0.2,0.2 -0.3,0.4 -0.2,0.3 -0.2,0.3 -0.3,0.3 0,0.1 -0.1,0.1 -0.1,0.1 -0.1,-0.1 -0.1,-0.1 -0.2,-0.2 0,-0.1 0,-0.2 0.2,-0.4 0.2,-0.3 0.3,-0.7 0.2,-1 -0.1,-0.3 0,-0.5 -0.1,-0.8 0,-0.2 -0.1,-0.4 -0.2,-0.4 -0.2,0 -0.2,0.2 -0.4,0.7 l -0.1,0.9 c 0,0.7 0,1.2 0.1,1.4 0,0.1 0,0.6 0,0.8 0,0.2 0,0.3 0,0.5 0.1,0.2 0.2,0.3 0.2,0.5 -0.1,0.2 -0.1,0.3 -0.2,0.5 -0.1,0.1 -0.1,0.2 -0.1,0.5 0,0.2 0,0.4 0,0.4 -0.1,0.3 -0.1,0.4 0.1,0.8 0.1,0.3 0.1,0.5 0.1,0.6 0,0.1 0,0.3 0,0.4 -0.2,0 -0.5,-0.1 -1.1,-0.2 0.1,0 0.1,0 0.1,0 0.1,-0.2 0.1,-0.2 0.1,-0.4 0,-0.2 0.1,-0.4 0.2,-0.8 0.1,-0.2 0.2,-0.3 0.2,-0.4 0,-0.3 0,-0.8 -0.1,-0.9 0,-0.2 -0.1,-0.4 -0.1,-0.8 0,-0.3 0,-0.4 0,-0.5 0,-0.2 -0.1,-0.5 -0.3,-0.7 -0.1,-0.3 -0.2,-0.4 -0.3,-0.6 -0.1,-0.3 -0.3,-0.6 -0.3,-0.9 -0.1,-0.3 -0.2,-0.5 -0.3,-0.5 -0.1,0 -0.2,0.1 -0.3,0.3 -0.3,0.4 -0.5,0.7 -0.5,1.2 -0.1,0.3 -0.1,0.7 -0.1,1.1 l 0,0.5 0,0.1 c -0.1,0 -0.2,0.1 -0.2,0.2 -0.1,0.1 -0.2,0.2 -0.3,0.3 -0.1,0.2 -0.2,0.3 -0.3,0.5 -0.2,0.2 -0.3,0.4 -0.4,0.5 0,0.1 0,0.3 0.1,0.3 0,0.1 0.1,0.1 0.2,0.2 0.2,0.1 0.3,0.2 0.3,0.5 0,0.1 0,0.2 0,0.3 0,0.1 -0.1,0.2 -0.1,0.3 -0.2,0 -0.4,0 -0.5,0 -0.1,-0.1 -0.1,-0.1 -0.2,-0.2 -0.1,-0.1 -0.1999997,-0.2 -0.1999997,-0.2 -0.1,0 -0.1,0 -0.2,0.2 0,0 -0.1,0.1 -0.1,0.1 -0.5,0 -0.9,0 -1.3,0 0,0 0,0 0,0 0,-0.1 0.1,-0.2 0.3,-0.3 0.2,-0.1 0.3,-0.1 0.4,-0.2 0.1,-0.1 0.2,-0.4 0.2,-0.5 0,-0.3 -0.2,-0.5 -0.4,-0.7 -0.1,-0.1 -0.4,-0.4 -0.6,-0.5 -0.3,-0.1 -0.5,-0.3 -0.5,-0.4 -0.1,0 -0.1,-0.1 -0.1,-0.2 -0.1,-0.1 -0.1,-0.1 -0.1,-0.4 0,-0.4 0,-0.5 0.2,-0.7 0.1,-0.2 0.2,-0.3 0.2,-0.6 0,-0.1 0,-0.3 0,-0.4 0.1,-0.2 0.1,-0.3 0,-0.3 0,-0.1 -0.2,-0.1 -0.4,-0.1 0,0 -0.1,0 -0.1,0 -0.1,0 -0.2,0 -0.3,0.1 -0.1,0.1 -0.2,0.3 -0.2,0.6 0,0.3 0,0.3 -0.2,0.6 -0.1,0.3 -0.2,0.4 -0.2,0.7 -0.1,0.2 -0.1,0.3 -0.1,0.6 0,0.4 0,0.4 0,0.5 0,0.1 -0.1,0.3 -0.2,0.4 -0.1,0.2 -0.1,0.3 -0.1,0.5 -0.1,0.2 -0.1,0.3 -0.1,0.4 0,0.1 -0.1,0.3 -0.1,0.4 0,0.2 0,0.4 -0.1,0.6 -0.3,0 -0.6,0 -0.7,0 l 0,0 c 0.1,-0.1 0.2,-0.3 0.2,-0.4 0.1,-0.2 0.2,-0.5 0.3,-0.7 0,-0.5 0.1,-0.7 0,-0.8 0,-0.1 0,-0.3 0,-0.5 0,-0.4 0,-0.5 -0.1,-0.6 0,-0.1 0,-0.3 0,-0.4 0,-0.2 -0.1,-0.6 -0.1,-0.8 -0.1,-0.3 -0.1,-0.8 0,-1 0,-0.3 0,-0.4 -0.1,-0.5 -0.1,-0.1 -0.2,-0.1 -0.5,0 -0.9,0.2 -1.9,-0.4 -2.4,-1 -0.3,-0.5 -0.9,-0.8 -0.9,-1.5 0,-0.5 -0.1,-0.9 -0.1,-1.4 0,-0.5 0.3,-0.8 0.4,-1.3 0,-0.4 -0.7,-0.3 -1.00000001,-0.4 -0.2,-0.1 -0.3,-0.3 -0.3,-0.4 0.1,-0.2 0.3,-0.5 0.5,-0.6 0.30000001,-0.1 0.70000001,-0.1 1.10000001,-0.2 0.3,0 0.5,-0.1 0.7,-0.2 0.2,-0.3 0.3,-0.3 0.6,-0.3 1.1,0.1 1.5,1.2 1.6,2.1 0.1,0.6 -0.2,1.2 -0.4,1.8 -0.1,0.2 0.2,0.6 0.4,0.3 0.2,-0.5 0.3,-0.9 0.6,-1.3 0.4,-0.4 0.7,-0.7 1.1,-0.9 0.3,-0.2 0.6,-0.4 0.8,-0.6 0.1,-0.1 0.4,-0.5 0.4,-0.6 0.2,-0.5 0.7,-0.8 1.3,-1 0.3,-0.1 0.7,-0.2 0.9999997,-0.3 0.1,0 0.2,0 0.4,0 z m -0.4,7.9 0,0 c 0,0 -0.1,0 -0.1,0 -0.1,0 -0.1,0.1 -0.1999997,0.4 -0.1,0.3 -0.1,0.4 -0.2,0.5 -0.2,0.3 -0.2,0.3 -0.3,0.6 0,0.3 0,0.3 -0.3,0.5 -0.1,0.1 -0.3,0.2 -0.3,0.3 -0.2,0.1 -0.3,0.3 -0.3,0.4 0,0.1 0.1,0.2 0.2,0.4 0.2,0.2 0.2,0.3 0.3,0.4 0.2,0.1 0.4,0.3 0.5,0.3 0.1,0.1 0.2,0.1 0.3,0.1 0.1,-0.1 0.1,-0.2 0.2,-0.3 0.1,-0.1 0.1,-0.2 0.1999997,-0.3 0.2,-0.4 0.3,-0.5 0.3,-0.9 0,-0.1 0,-0.3 0.1,-0.4 0,-0.2 0,-0.3 -0.1,-0.9 0,-0.1 -0.1,-0.3 -0.1,-0.6 0,-0.4 0,-0.4 -0.1,-0.5 -0.1,0 -0.1,0 -0.1,0 z"
     id="path4"
     inkscape:connector-curvature="0"
     style="fill:#008080" />
</svg>
