<?xml version="1.0" encoding="UTF-8" standalone="no"?>
<!-- Created with Inkscape (http://www.inkscape.org/) -->

<svg
   xmlns:dc="http://purl.org/dc/elements/1.1/"
   xmlns:cc="http://creativecommons.org/ns#"
   xmlns:rdf="http://www.w3.org/1999/02/22-rdf-syntax-ns#"
   xmlns:svg="http://www.w3.org/2000/svg"
   xmlns="http://www.w3.org/2000/svg"
   version="1.1"
   width="16"
   height="16"
   id="svg2">
  <defs
     id="defs4">
    <linearGradient
       id="linearGradient3859">
      <stop
         id="stop3861"
         style="stop-color:#eec73e;stop-opacity:1"
         offset="0" />
      <stop
         id="stop3863"
         style="stop-color:#9a8022;stop-opacity:1"
         offset="1" />
    </linearGradient>
    <linearGradient
       id="linearGradient3851">
      <stop
         id="stop3853"
         style="stop-color:#6699cc;stop-opacity:1"
         offset="0" />
      <stop
         id="stop3855"
         style="stop-color:#0054a7;stop-opacity:1"
         offset="1" />
    </linearGradient>
  </defs>
  <metadata
     id="metadata7">
    <rdf:RDF>
      <cc:Work
         rdf:about="">
        <dc:format>image/svg+xml</dc:format>
        <dc:type
           rdf:resource="http://purl.org/dc/dcmitype/StillImage" />
        <dc:title></dc:title>
      </cc:Work>
    </rdf:RDF>
  </metadata>
  <g
     transform="translate(0,-1036.3622)"
     id="layer1"
     style="fill:#388294;fill-opacity:1">
    <path
       d="m 2,0 c 1,0 11,0 12,0 1,0 2,1 2,2 0,1 0,11 0,12 0,1 -1,2 -2,2 C 13,16 3,16 2,16 1,16 0,15 0,14 0,13 0,3 0,2 0,1 1,0 2,0 z"
       transform="translate(0,1036.3622)"
       id="rect2995"
       style="fill:#388294;fill-opacity:1;stroke:none" />
    <text
       x="5.1758919"
       y="14.543665"
       transform="translate(0,1036.3622)"
       id="text3921"
       xml:space="preserve"
       style="font-size:12px;font-style:normal;font-variant:normal;font-weight:normal;font-stretch:normal;line-height:125%;letter-spacing:0px;word-spacing:0px;fill:#388294;fill-opacity:1;stroke:none;font-family:Ubuntu Mono;-inkscape-font-specification:Ubuntu Mono"><tspan
         x="5.1758919"
         y="14.543665"
         id="tspan3923"
         style="fill:#388294;fill-opacity:1" /></text>
    <g
       id="text3925"
       style="font-size:12px;font-style:normal;font-variant:normal;font-weight:normal;font-stretch:normal;line-height:125%;letter-spacing:0px;word-spacing:0px;fill:#388294;fill-opacity:1;stroke:none;font-family:Ubuntu Mono;-inkscape-font-specification:Ubuntu Mono" />
  </g>
  <g
     transform="translate(0.6689556,0.56901215)"
     id="text3799"
     style="font-size:11.51937866px;font-style:normal;font-variant:normal;font-weight:normal;font-stretch:normal;line-height:125%;letter-spacing:0px;word-spacing:0px;fill:#ffffff;fill-opacity:1;stroke:none;font-family:Ubuntu Mono;-inkscape-font-specification:Ubuntu Mono">
    <path
       d="m 2.581921,5.230784 c 0.2815828,4.8e-6 0.5273293,0.035843 0.7372403,0.1075142 0.2150256,0.071681 0.3916559,0.1740751 0.5298914,0.3071834 0.1433491,0.1279974 0.2483033,0.281589 0.314863,0.4607752 0.071673,0.1791941 0.1075107,0.3788631 0.1075142,0.5990077 -3.5e-6,0.4966161 -0.1459154,0.880595 -0.4377364,1.1519379 -0.291827,0.2662275 -0.7295629,0.3993402 -1.3132092,0.3993385 l -0.5529301,0 0,1.7739841 -0.6297261,0 0,-4.6845472 C 1.4299825,5.3255036 1.529817,5.3075846 1.637332,5.2922207 1.7499649,5.2768663 1.8600389,5.264067 1.9675542,5.2538228 2.0801868,5.2435881 2.1877009,5.2384684 2.2900968,5.2384636 2.3976094,5.2333487 2.494884,5.2307888 2.581921,5.230784 m 0.046078,0.5452506 c -0.1331146,4.3e-6 -0.2611076,0.00256 -0.3839793,0.00768 -0.1228748,4.2e-6 -0.2150297,0.00512 -0.2764651,0.015359 l 0,1.9198964 0.5222118,0 C 2.8737432,7.7189722 3.1578876,7.6421764 3.3422,7.4885823 3.5316271,7.3349932 3.6263419,7.0815672 3.6263447,6.7283033 3.6263419,6.0934614 3.2935601,5.7760389 2.6279986,5.7760346"
       id="path3804"
       style="font-size:7.67958593px;letter-spacing:-0.28798446px;fill:#ffffff;fill-opacity:1" />
    <path
       d="m 6.3180397,6.3827219 c 0.4812516,3.6e-6 0.8524312,0.1510353 1.11354,0.4530956 0.2611025,0.2969468 0.3916553,0.750042 0.3916588,1.3592867 l 0,0.222708 -2.5496225,0 c 0.025598,0.3686213 0.145911,0.6502059 0.3609405,0.8447544 0.2201467,0.1894304 0.5273298,0.2841452 0.9215504,0.2841447 0.2252654,5e-7 0.4172548,-0.017919 0.5759689,-0.053757 0.1587085,-0.035837 0.2790219,-0.074235 0.3609405,-0.1151938 l 0.084475,0.537571 c -0.076799,0.040958 -0.2150315,0.084475 -0.4146977,0.1305525 -0.1996718,0.04608 -0.4249395,0.06912 -0.6758035,0.06912 -0.3071853,0 -0.5785304,-0.04608 -0.8140361,-0.1382328 C 5.4425658,9.8794935 5.2505763,9.7489407 5.0969855,9.5851092 4.9433932,9.4212787 4.8281995,9.2267294 4.7514042,9.0014607 4.674608,8.7710744 4.6362101,8.522768 4.6362104,8.2565409 4.6362101,7.9391201 4.6848474,7.6626552 4.7821225,7.4271456 4.8793967,7.1916411 5.0073897,6.9970918 5.1661018,6.843497 5.3248123,6.6899087 5.5040024,6.574715 5.7036728,6.4979157 5.9033405,6.4211234 6.1081292,6.3827255 6.3180397,6.3827219 m 0.8601136,1.520558 C 7.1781505,7.6012186 7.0987948,7.3631517 6.9400862,7.1890784 6.7813723,7.0098911 6.5714638,6.920296 6.3103601,6.9202929 6.1618863,6.920296 6.0262137,6.9484549 5.9033421,7.0047679 5.7855869,7.0610879 5.6831926,7.1353238 5.5961586,7.2274759 5.5091226,7.3196339 5.4400059,7.4245879 5.3888098,7.542339 5.3376118,7.660095 5.3043338,7.7804084 5.2889748,7.9032795 l 1.8891781,0"
       id="path3806"
       style="font-size:7.67958593px;letter-spacing:-0.28798446px;fill:#ffffff;fill-opacity:1" />
    <path
       d="m 8.7025512,10.030525 0,-3.371338 C 9.2247617,6.4800002 9.7520928,6.3904051 10.284546,6.3904015 c 0.163829,3.6e-6 0.31998,0.00768 0.468455,0.023039 0.148469,0.010243 0.3123,0.035842 0.491493,0.076796 L 11.1293,7.0508459 c -0.163834,-0.046074 -0.309746,-0.074233 -0.437736,-0.084475 -0.122876,-0.015356 -0.258549,-0.023036 -0.407018,-0.023039 -0.3123053,3e-6 -0.6297279,0.043521 -0.9522687,0.1305529 l 0,2.9566402 -0.6297261,0"
       id="path3808"
       style="font-size:7.67958593px;letter-spacing:-0.28798446px;fill:#ffffff;fill-opacity:1" />
    <path
       d="m 13.331052,10.115001 c -0.22527,0 -0.41214,-0.03072 -0.560609,-0.09215 C 12.621969,9.961409 12.504215,9.8692541 12.417182,9.7463805 12.330145,9.6235076 12.268708,9.4724759 12.232872,9.293285 12.197032,9.1089758 12.179115,8.8965075 12.179115,8.6558793 l 0,-3.3713382 -1.029065,0 0,-0.537571 1.658791,0 0,3.9089092 c -2e-6,0.1791916 0.01024,0.3251035 0.03072,0.4377364 0.0256,0.1126348 0.06143,0.2047897 0.107514,0.2764651 0.05119,0.066557 0.112632,0.1126345 0.18431,0.1382326 0.07167,0.025599 0.156149,0.038398 0.253427,0.038398 0.148469,5e-7 0.286701,-0.017919 0.414697,-0.053757 0.12799,-0.035837 0.227825,-0.074235 0.299504,-0.1151938 l 0.09215,0.537571 c -0.03072,0.015359 -0.07424,0.035838 -0.130553,0.061437 -0.05632,0.020479 -0.122876,0.040958 -0.199669,0.061437 -0.0768,0.02048 -0.161274,0.0384 -0.253426,0.05376 -0.08704,0.01536 -0.179193,0.02304 -0.276466,0.02304"
       id="path3810"
       style="font-size:7.67958593px;letter-spacing:-0.28798446px;fill:#ffffff;fill-opacity:1" />
  </g>
</svg>
