<?xml version="1.0" encoding="UTF-8" standalone="no"?>
<svg
   xmlns:dc="http://purl.org/dc/elements/1.1/"
   xmlns:cc="http://creativecommons.org/ns#"
   xmlns:rdf="http://www.w3.org/1999/02/22-rdf-syntax-ns#"
   xmlns:svg="http://www.w3.org/2000/svg"
   xmlns="http://www.w3.org/2000/svg"
   xmlns:sodipodi="http://sodipodi.sourceforge.net/DTD/sodipodi-0.dtd"
   xmlns:inkscape="http://www.inkscape.org/namespaces/inkscape"
   preserveAspectRatio="xMidYMid"
   height="16"
   width="16"
   id="svg2"
   version="1.1"
   inkscape:version="0.91 r13725"
   sodipodi:docname="glyph__f135.svg">
  <metadata
     id="metadata10">
    <rdf:RDF>
      <cc:Work
         rdf:about="">
        <dc:format>image/svg+xml</dc:format>
        <dc:type
           rdf:resource="http://purl.org/dc/dcmitype/StillImage" />
      </cc:Work>
    </rdf:RDF>
  </metadata>
  <defs
     id="defs8" />
  <sodipodi:namedview
     pagecolor="#ffffff"
     bordercolor="#666666"
     borderopacity="1"
     objecttolerance="10"
     gridtolerance="10"
     guidetolerance="10"
     inkscape:pageopacity="0"
     inkscape:pageshadow="2"
     inkscape:window-width="1376"
     inkscape:window-height="648"
     id="namedview6"
     showgrid="false"
     inkscape:zoom="14.75"
     inkscape:cx="8"
     inkscape:cy="7.4576271"
     inkscape:window-x="0"
     inkscape:window-y="25"
     inkscape:window-maximized="0"
     inkscape:current-layer="svg2" />
  <path
     d="m 7.5414352,3.5888109 c 1.911849,0 3.9192908,0.2867774 5.6399548,1.051517 1.529479,0.6691471 3.154551,2.2942188 2.676589,4.1104753 C 14.997647,10.853837 12.607836,11.714169 10.600394,12.192132 7.4458427,12.670094 3.9089221,12.478909 1.3279259,10.471467 0.08522405,9.5155428 -0.3927382,7.6036938 0.56318631,6.360992 2.1882579,4.3535505 5.0560315,3.7799958 7.5414352,3.5888109 Z m 0.2867773,1.1471094 0,0 c -1.3382943,0 -2.5809961,0.1911849 -3.823698,0.5735547 C 2.7618126,5.7874373 1.0411485,6.6477693 1.136741,8.272841 1.5191108,9.8979127 3.4309598,10.56706 4.8648466,10.94943 7.8282125,11.618577 11.173949,11.522984 13.754945,9.8023202 14.710869,9.133173 15.284424,7.7948787 14.424092,6.8389542 12.703428,5.1182901 10.122432,4.7359203 7.8282125,4.7359203 Z m -3.9192904,5.0663999 0.6691471,-3.1545509 1.4338868,0 c 0.6691471,0 0.9559245,0.2867774 0.9559245,0.8603321 0,0.9559245 -0.7647396,1.5294792 -1.4338868,1.4338867 l -0.6691471,0 -0.1911849,0.8603321 z m 1.1471094,-1.4338868 0.3823698,0 c 0.3823698,0 0.7647396,-0.095592 0.7647396,-0.7647396 0,-0.2867773 -0.1911849,-0.3823698 -0.4779623,-0.3823698 l -0.4779622,0 z m 1.7206641,0.5735547 0.5735547,-3.1545508 0.7647396,0 -0.095593,0.860332 0.6691472,0 c 0.6691471,0 0.8603321,0.2867774 0.7647396,0.6691472 l -0.2867774,1.6250716 -0.7647396,0 0.2867774,-1.4338867 c 0,-0.1911849 0,-0.2867774 -0.1911849,-0.2867774 l -0.6691472,0 -0.2867773,1.7206641 z m 2.4854037,0.8603321 0.5735552,-3.1545509 1.5294795,0 c 0.573554,0 0.955924,0.2867774 0.955924,0.8603321 0,0.9559245 -0.764739,1.5294792 -1.433887,1.4338867 l -0.764739,0 -0.09559,0.8603321 z m 1.0515177,-1.4338868 0.477962,0 c 0.38237,0 0.669147,-0.095592 0.669147,-0.7647396 0,-0.2867773 -0.191185,-0.3823698 -0.38237,-0.3823698 l -0.573554,0 z"
     id="path4"
     inkscape:connector-curvature="0"
     style="fill:#3465a4" />
</svg>
