<?xml version="1.0" encoding="UTF-8" standalone="no"?>
<svg
   xmlns:dc="http://purl.org/dc/elements/1.1/"
   xmlns:cc="http://creativecommons.org/ns#"
   xmlns:rdf="http://www.w3.org/1999/02/22-rdf-syntax-ns#"
   xmlns:svg="http://www.w3.org/2000/svg"
   xmlns="http://www.w3.org/2000/svg"
   xmlns:sodipodi="http://sodipodi.sourceforge.net/DTD/sodipodi-0.dtd"
   xmlns:inkscape="http://www.inkscape.org/namespaces/inkscape"
   preserveAspectRatio="xMidYMid"
   height="16"
   width="16"
   id="svg2"
   version="1.1"
   inkscape:version="0.91 r13725"
   sodipodi:docname="python3.svg">
  <metadata
     id="metadata10">
    <rdf:RDF>
      <cc:Work
         rdf:about="">
        <dc:format>image/svg+xml</dc:format>
        <dc:type
           rdf:resource="http://purl.org/dc/dcmitype/StillImage" />
      </cc:Work>
    </rdf:RDF>
  </metadata>
  <defs
     id="defs8" />
  <sodipodi:namedview
     pagecolor="#ffffff"
     bordercolor="#666666"
     borderopacity="1"
     objecttolerance="10"
     gridtolerance="10"
     guidetolerance="10"
     inkscape:pageopacity="0"
     inkscape:pageshadow="2"
     inkscape:window-width="1920"
     inkscape:window-height="1030"
     id="namedview6"
     showgrid="false"
     inkscape:zoom="14.75"
     inkscape:cx="-22.915254"
     inkscape:cy="7.4576271"
     inkscape:window-x="0"
     inkscape:window-y="25"
     inkscape:window-maximized="1"
     inkscape:current-layer="svg2" />
  <path
     style="fill:#03a9f4;fill-opacity:1"
     d="m 8,1.05 c 3.5,0 3.2,1.9 3.2,1.9 l 0,3 c 0,1.9 -1.8,1.9 -1.8,1.9 l -3.2,0 c -1.9,0 -1.8,1.9 -1.8,1.9 l 0,1.7 -1.2,0 c 0,0 -1.9,0.1 -1.9,-3.5 0,-3.5 2.2,-3.3 2.2,-3.3 l 4.5,0 0,-0.5 -3.2,0 0,-1.6 c 0,0 -0.2,-1.5 3.2,-1.5 z"
     id="path4139" />
  <path
     style="fill:#03a9f4;fill-opacity:1"
     d="m 6.2,2.15 c -0.3,0 -0.6,0.2 -0.6,0.6 0,0.4 0.3,0.6 0.6,0.6 0.3,0 0.6,-0.3 0.6,-0.6 0,-0.3 -0.3,-0.6 -0.6,-0.6 z"
     id="path4137" />
  <path
     style="fill:#fbc02d;fill-opacity:1"
     d="m 8.1,14.95 c -3.6,0 -3.3,-1.8 -3.3,-1.8 l 0,-3.1 c 0,-1.9 1.8,-1.8 1.8,-1.8 l 3.2,0 c 1.9,0 1.9,-2 1.9,-2 l 0,-1.7 1.1,0 c 0,0 1.9,-0.1 1.9,3.5 0,3.6 -2.2,3.3 -2.2,3.3 l -4.5,0 0,0.5 3.2,0 0,1.6 c 0,0 0.3,1.5 -3.1,1.5 z"
     id="path4135" />
  <path
     style="fill:#fbc02d;fill-opacity:1"
     d="m 9.9,13.85 c 0.3,0 0.5,-0.2 0.5,-0.6 0,-0.4 -0.2,-0.6 -0.5,-0.6 -0.3,0 -0.6,0.3 -0.6,0.6 0,0.3 0.2,0.6 0.6,0.6 z"
     id="path4" />
</svg>
