<?xml version="1.0" encoding="UTF-8" standalone="no"?>
<!-- Created with Inkscape (http://www.inkscape.org/) -->

<svg
   xmlns:dc="http://purl.org/dc/elements/1.1/"
   xmlns:cc="http://creativecommons.org/ns#"
   xmlns:rdf="http://www.w3.org/1999/02/22-rdf-syntax-ns#"
   xmlns:svg="http://www.w3.org/2000/svg"
   xmlns="http://www.w3.org/2000/svg"
   version="1.1"
   width="16"
   height="16"
   id="svg2">
  <defs
     id="defs4">
    <linearGradient
       id="linearGradient3859">
      <stop
         id="stop3861"
         style="stop-color:#eec73e;stop-opacity:1"
         offset="0" />
      <stop
         id="stop3863"
         style="stop-color:#9a8022;stop-opacity:1"
         offset="1" />
    </linearGradient>
    <linearGradient
       id="linearGradient3851">
      <stop
         id="stop3853"
         style="stop-color:#6699cc;stop-opacity:1"
         offset="0" />
      <stop
         id="stop3855"
         style="stop-color:#0054a7;stop-opacity:1"
         offset="1" />
    </linearGradient>
  </defs>
  <metadata
     id="metadata7">
    <rdf:RDF>
      <cc:Work
         rdf:about="">
        <dc:format>image/svg+xml</dc:format>
        <dc:type
           rdf:resource="http://purl.org/dc/dcmitype/StillImage" />
        <dc:title></dc:title>
      </cc:Work>
    </rdf:RDF>
  </metadata>
  <g
     transform="translate(0,-1036.3622)"
     id="layer1"
     style="fill:#980101;fill-opacity:1">
    <path
       d="m 2,0 c 1,0 11,0 12,0 1,0 2,1 2,2 0,1 0,11 0,12 0,1 -1,2 -2,2 C 13,16 3,16 2,16 1,16 0,15 0,14 0,13 0,3 0,2 0,1 1,0 2,0 z"
       transform="translate(0,1036.3622)"
       id="rect2995"
       style="fill:#980101;fill-opacity:1;stroke:none" />
    <text
       x="5.1758919"
       y="14.543665"
       transform="translate(0,1036.3622)"
       id="text3921"
       xml:space="preserve"
       style="font-size:12px;font-style:normal;font-variant:normal;font-weight:normal;font-stretch:normal;line-height:125%;letter-spacing:0px;word-spacing:0px;fill:#980101;fill-opacity:1;stroke:none;font-family:Ubuntu Mono;-inkscape-font-specification:Ubuntu Mono"><tspan
         x="5.1758919"
         y="14.543665"
         id="tspan3923"
         style="fill:#980101;fill-opacity:1" /></text>
    <g
       id="text3925"
       style="font-size:12px;font-style:normal;font-variant:normal;font-weight:normal;font-stretch:normal;line-height:125%;letter-spacing:0px;word-spacing:0px;fill:#980101;fill-opacity:1;stroke:none;font-family:Ubuntu Mono;-inkscape-font-specification:Ubuntu Mono" />
  </g>
  <path
     d="m 2.1874412,7.4869199 h 0.4921392 c 0.053202,0 0.1563985,-0.016628 0.3093605,-0.049876 0.077032,-0.015075 0.1401044,-0.053202 0.1889858,-0.1151644 0.0491,-0.061852 0.073601,-0.1324563 0.073601,-0.2122629 0,-0.1181576 -0.038573,-0.2089373 -0.1158296,-0.272339 C 3.0584397,6.7738797 2.9132376,6.7421749 2.7004213,6.7421749 H 2.1874438 V 7.4869225 M 1.0169492,9.8279048 V 5.997203 h 1.9428401 c 0.3607906,0 0.6364553,0.030699 0.8267705,0.09222 0.1904269,0.061625 0.3439432,0.1753522 0.4604379,0.3416152 0.1168282,0.1662638 0.1750197,0.3685506 0.1750197,0.6068611 0,0.2084939 -0.045442,0.3879469 -0.1362245,0.5385809 -0.09089,0.1508566 -0.2159203,0.2734476 -0.3749784,0.3675529 -0.101421,0.059304 -0.240306,0.1086249 -0.4164343,0.1479744 0.135782,0.049763 0.2346532,0.099646 0.2967247,0.1495254 0.042116,0.034025 0.1031938,0.1055218 0.1830004,0.2147009 0.079808,0.1090691 0.1330097,0.19342 0.1596125,0.2527201 l 0.6076363,1.118951 H 3.4401787 L 2.787651,8.6258223 C 2.7085068,8.4699781 2.6379038,8.3692231 2.5764975,8.323334 2.4922557,8.2622585 2.3969327,8.2318901 2.2905249,8.2318901 H 2.1874412 v 1.5960147 h -1.170492 z"
     id="path13"
     style="fill:#ffffff" />
  <path
     d="M 7.8537994,9.8279048 H 6.8603216 V 9.3607055 C 6.7127907,9.5485827 6.5643738,9.6822584 6.4142932,9.7617316 6.2644352,9.8413122 6.0799936,9.8811086 5.861191,9.8811086 5.57012,9.8811086 5.3417856,9.7940998 5.1759652,9.6200761 5.0102565,9.4460541 4.9274576,9.1780376 4.9274576,8.8161384 v -1.754852 h 1.0640843 v 1.4972551 c 0,0.1708072 0.031921,0.291847 0.095878,0.3636729 0.064174,0.071716 0.1542922,0.1076272 0.2705652,0.1076272 0.1263601,0 0.2299973,-0.047659 0.31058,-0.1433184 C 6.7492541,8.7909772 6.789604,8.6191718 6.789604,8.3714402 V 7.0612864 h 1.0640843 v 2.7666184"
     id="path15"
     style="fill:#ffffff" />
  <path
     d="m 9.5487962,8.4271938 c 0,0.2675722 0.044229,0.4616565 0.1325671,0.5818095 0.088342,0.1203747 0.2005139,0.1803399 0.3364057,0.1803399 0.125141,0 0.23033,-0.058963 0.315346,-0.1775685 0.08524,-0.1182685 0.12769,-0.3170087 0.12769,-0.5963308 0,-0.2467338 -0.04157,-0.4276289 -0.12514,-0.5429042 -0.08335,-0.1151654 -0.18422,-0.1729135 -0.302045,-0.1729135 -0.1430978,0 -0.2597034,0.060185 -0.349707,0.1805617 C 9.5939093,8.0003408 9.5487962,8.1826762 9.5487962,8.4271938 M 8.4922501,5.997203 h 1.0640834 v 1.3017288 c 0.1058543,-0.096987 0.2257856,-0.1696995 0.3599047,-0.2182483 0.1341178,-0.04855 0.2823138,-0.072711 0.4446978,-0.072711 0.336517,0 0.61462,0.1205964 0.834197,0.361345 0.21969,0.2407494 0.329645,0.5862437 0.329645,1.0362629 0,0.300382 -0.0501,0.564962 -0.150412,0.7935181 -0.100202,0.228667 -0.239087,0.3993642 -0.416767,0.5123124 -0.17768,0.1130582 -0.374646,0.1696986 -0.590788,0.1696986 -0.184995,0 -0.354695,-0.035474 -0.5086543,-0.1065186 C 9.7423262,9.7191717 9.6158561,9.6149776 9.4790765,9.4621264 V 9.8279048 H 8.4922501 V 5.997203 z"
     id="path17"
     style="fill:#ffffff" />
  <path
     d="m 11.737595,7.0612864 h 1.090686 l 0.585246,1.8421951 0.552216,-1.8421951 h 1.017308 l -1.0939,2.9519456 c -0.12359,0.336522 -0.249617,0.56375 -0.378415,0.681797 -0.181781,0.166817 -0.458886,0.25006 -0.831316,0.25006 -0.150746,0 -0.383957,-0.01962 -0.699857,-0.05886 l -0.08236,-0.71161 c 0.150301,0.05265 0.31734,0.07892 0.501338,0.07892 0.122481,0 0.221684,-0.03114 0.297611,-0.09355 0.07604,-0.0624 0.140326,-0.1735812 0.192866,-0.333748 L 11.737594,7.0612829"
     id="path19"
     style="fill:#ffffff" />
</svg>
