<?xml version="1.0" encoding="UTF-8" standalone="no"?>
<!-- Created with Inkscape (http://www.inkscape.org/) -->

<svg
   xmlns:dc="http://purl.org/dc/elements/1.1/"
   xmlns:cc="http://creativecommons.org/ns#"
   xmlns:rdf="http://www.w3.org/1999/02/22-rdf-syntax-ns#"
   xmlns:svg="http://www.w3.org/2000/svg"
   xmlns="http://www.w3.org/2000/svg"
   version="1.1"
   width="16"
   height="16"
   id="svg2">
  <defs
     id="defs4">
    <linearGradient
       id="linearGradient3859">
      <stop
         id="stop3861"
         style="stop-color:#eec73e;stop-opacity:1"
         offset="0" />
      <stop
         id="stop3863"
         style="stop-color:#9a8022;stop-opacity:1"
         offset="1" />
    </linearGradient>
    <linearGradient
       id="linearGradient3851">
      <stop
         id="stop3853"
         style="stop-color:#6699cc;stop-opacity:1"
         offset="0" />
      <stop
         id="stop3855"
         style="stop-color:#0054a7;stop-opacity:1"
         offset="1" />
    </linearGradient>
  </defs>
  <metadata
     id="metadata7">
    <rdf:RDF>
      <cc:Work
         rdf:about="">
        <dc:format>image/svg+xml</dc:format>
        <dc:type
           rdf:resource="http://purl.org/dc/dcmitype/StillImage" />
        <dc:title></dc:title>
      </cc:Work>
    </rdf:RDF>
  </metadata>
  <g
     transform="translate(0,-1036.3622)"
     id="layer1"
     style="fill:#75507b;fill-opacity:1">
    <path
       d="m 2,0 c 1,0 11,0 12,0 1,0 2,1 2,2 0,1 0,11 0,12 0,1 -1,2 -2,2 C 13,16 3,16 2,16 1,16 0,15 0,14 0,13 0,3 0,2 0,1 1,0 2,0 z"
       transform="translate(0,1036.3622)"
       id="rect2995"
       style="fill:#75507b;fill-opacity:1;stroke:none" />
    <text
       x="5.1758919"
       y="14.543665"
       transform="translate(0,1036.3622)"
       id="text3921"
       xml:space="preserve"
       style="font-size:12px;font-style:normal;font-variant:normal;font-weight:normal;font-stretch:normal;line-height:125%;letter-spacing:0px;word-spacing:0px;fill:#75507b;fill-opacity:1;stroke:none;font-family:Ubuntu Mono;-inkscape-font-specification:Ubuntu Mono"><tspan
         x="5.1758919"
         y="14.543665"
         id="tspan3923"
         style="fill:#75507b;fill-opacity:1" /></text>
    <g
       id="text3925"
       style="font-size:12px;font-style:normal;font-variant:normal;font-weight:normal;font-stretch:normal;line-height:125%;letter-spacing:0px;word-spacing:0px;fill:#75507b;fill-opacity:1;stroke:none;font-family:Ubuntu Mono;-inkscape-font-specification:Ubuntu Mono" />
  </g>
  <g
     id="text4161"
     style="font-size:9.19725227px;font-style:normal;font-variant:normal;font-weight:normal;font-stretch:normal;line-height:125%;letter-spacing:0px;word-spacing:0px;fill:#ffffff;fill-opacity:1;stroke:none;font-family:Ubuntu Mono;-inkscape-font-specification:Ubuntu Mono">
    <path
       d="M 3.9357844,8.9745136 C 3.9357813,9.3697088 3.7930723,9.6810738 3.5076571,9.9086095 3.2242324,10.136146 2.8290384,10.249914 2.3220739,10.249914 c -0.467049,0 -0.8802064,-0.08782 -1.2394734,-0.2634632 l 0,-0.8622423 c 0.2953973,0.1317324 0.5448884,0.2245431 0.7484743,0.2784324 0.2055797,0.053891 0.393197,0.080836 0.5628526,0.080835 0.2035832,7e-7 0.3592657,-0.03892 0.4670479,-0.116762 C 2.9707494,9.2888737 3.0256375,9.1731098 3.0256397,9.0194221 3.0256375,8.9335983 3.0016863,8.857753 2.9537862,8.7918859 2.9058817,8.7240257 2.8350262,8.659158 2.7412195,8.5972826 2.6494048,8.5354104 2.4607894,8.4366119 2.1753729,8.3008868 1.907917,8.1751451 1.7073261,8.0543914 1.5735996,7.9386252 1.4398716,7.8228636 1.3330893,7.6881383 1.2532526,7.5344491 1.173415,7.3807652 1.1334964,7.2011316 1.1334967,6.9955476 1.1334964,6.6083405 1.2642298,6.3039613 1.5256973,6.082409 1.7891592,5.860865 2.1524184,5.7500909 2.6154758,5.7500865 c 0.2275341,4.4e-6 0.4440925,0.026949 0.6496757,0.080835 0.2075741,0.053894 0.4241325,0.1297398 0.6496756,0.2275362 L 3.6154374,6.7799871 C 3.3819109,6.6841859 3.1883057,6.6173222 3.0346214,6.579396 2.8829285,6.5414769 2.7332338,6.5225156 2.5855368,6.5225119 c -0.1756436,3.7e-6 -0.3103688,0.04092 -0.4041761,0.1227498 -0.09381,0.081837 -0.1407144,0.1886189 -0.1407131,0.320347 -1.3e-6,0.081836 0.01896,0.1536898 0.056884,0.2155606 0.037921,0.059881 0.097799,0.1187608 0.1796338,0.1766399 0.083828,0.055889 0.2804266,0.1576812 0.5897977,0.3053775 0.4091635,0.1956036 0.6895916,0.3922026 0.8412851,0.5897977 0.1516877,0.195603 0.2275331,0.4361125 0.2275362,0.7215292"
       id="path4185"
       style="font-size:6.1315012px;font-weight:bold;fill:#ffffff;font-family:Sans;-inkscape-font-specification:Sans Bold" />
    <path
       d="M 7.4087051,10.190036 7.091352,9.1481596 l -1.5957472,0 -0.3173531,1.0418764 -0.9999616,0 1.5448509,-4.3950411 1.134687,0 1.5508387,4.3950411 -0.9999616,0 M 6.8698036,8.3697464 C 6.5763993,7.4256736 6.4107371,6.8917625 6.3728167,6.7680115 6.3368878,6.6442673 6.3109407,6.5464667 6.2949754,6.4746096 6.2291076,6.7300922 6.0404922,7.3618039 5.7291288,8.3697464 l 1.1406748,0"
       id="path4187"
       style="font-size:6.1315012px;font-weight:bold;fill:#ffffff;font-family:Sans;-inkscape-font-specification:Sans Bold" />
    <path
       d="m 11.540283,8.9745136 c -3e-6,0.3951952 -0.142712,0.7065602 -0.428127,0.9340959 -0.283425,0.2275365 -0.678619,0.3413045 -1.1855833,0.3413045 -0.467049,0 -0.8802063,-0.08782 -1.2394733,-0.2634632 l 0,-0.8622423 c 0.2953972,0.1317324 0.5448884,0.2245431 0.7484742,0.2784324 0.2055797,0.053891 0.3931971,0.080836 0.5628527,0.080835 0.2035827,7e-7 0.3592657,-0.03892 0.4670477,-0.116762 0.109774,-0.07784 0.164662,-0.1936043 0.164665,-0.347292 -3e-6,-0.085824 -0.02395,-0.1616691 -0.07185,-0.2275362 -0.0479,-0.06786 -0.11876,-0.1327279 -0.212567,-0.1946033 C 10.253904,8.5354104 10.065288,8.4366119 9.7798718,8.3008868 9.5124159,8.1751451 9.311825,8.0543914 9.1780985,7.9386252 9.0443704,7.8228636 8.9375882,7.6881383 8.8577515,7.5344491 8.7779139,7.3807652 8.7379953,7.2011316 8.7379956,6.9955476 8.7379953,6.6083405 8.8687286,6.3039613 9.1301961,6.082409 9.3936581,5.860865 9.7569172,5.7500909 10.219975,5.7500865 c 0.227534,4.4e-6 0.444092,0.026949 0.649675,0.080835 0.207575,0.053894 0.424133,0.1297398 0.649676,0.2275362 l -0.29939,0.7215292 C 10.98641,6.6841859 10.792805,6.6173222 10.63912,6.579396 10.487427,6.541477 10.337733,6.522516 10.190036,6.522512 c -0.175644,3.7e-6 -0.3103691,0.04092 -0.4041764,0.1227498 -0.09381,0.081837 -0.1407144,0.1886189 -0.1407132,0.320347 -1.2e-6,0.081836 0.01896,0.1536898 0.056884,0.2155606 0.037921,0.059881 0.097799,0.1187608 0.1796338,0.1766399 0.083827,0.055889 0.2804268,0.1576812 0.5897978,0.3053775 0.409163,0.1956036 0.689592,0.3922026 0.841285,0.5897977 0.151688,0.195603 0.227533,0.4361125 0.227536,0.7215292"
       id="path4189"
       style="font-size:6.1315012px;font-weight:bold;fill:#ffffff;font-family:Sans;-inkscape-font-specification:Sans Bold" />
    <path
       d="m 14.917399,8.9745136 c -3e-6,0.3951952 -0.142712,0.7065602 -0.428127,0.9340959 -0.283424,0.2275365 -0.678619,0.3413045 -1.185583,0.3413045 -0.467049,0 -0.880206,-0.08782 -1.239473,-0.2634632 l 0,-0.8622423 c 0.295397,0.1317324 0.544888,0.2245431 0.748474,0.2784324 0.20558,0.053891 0.393197,0.080836 0.562852,0.080835 0.203584,7e-7 0.359266,-0.03892 0.467048,-0.116762 0.109774,-0.07784 0.164663,-0.1936043 0.164665,-0.347292 -2e-6,-0.085824 -0.02395,-0.1616691 -0.07185,-0.2275362 -0.0479,-0.06786 -0.11876,-0.1327279 -0.212566,-0.1946033 C 13.63102,8.5354104 13.442405,8.4366119 13.156988,8.3008868 12.889532,8.1751451 12.688941,8.0543914 12.555215,7.9386252 12.421487,7.8228636 12.314704,7.6881383 12.234868,7.5344491 12.15503,7.3807652 12.115111,7.2011316 12.115112,6.9955476 c -10e-7,-0.3872071 0.130733,-0.6915863 0.3922,-0.9131386 0.263462,-0.221544 0.626721,-0.3323181 1.089779,-0.3323225 0.227534,4.4e-6 0.444092,0.026949 0.649676,0.080835 0.207574,0.053894 0.424132,0.1297398 0.649675,0.2275362 l -0.29939,0.7215292 C 14.363526,6.6841859 14.169921,6.6173222 14.016236,6.579396 13.864544,6.541477 13.714849,6.522516 13.567152,6.522512 c -0.175644,3.7e-6 -0.310369,0.04092 -0.404176,0.1227498 -0.09381,0.081837 -0.140715,0.1886189 -0.140713,0.320347 -2e-6,0.081836 0.01896,0.1536898 0.05688,0.2155606 0.03792,0.059881 0.0978,0.1187608 0.179633,0.1766399 0.08383,0.055889 0.280427,0.1576812 0.589798,0.3053775 0.409164,0.1956036 0.689592,0.3922026 0.841285,0.5897977 0.151688,0.195603 0.227533,0.4361125 0.227536,0.7215292"
       id="path4191"
       style="font-size:6.1315012px;font-weight:bold;fill:#ffffff;font-family:Sans;-inkscape-font-specification:Sans Bold" />
  </g>
</svg>
