<?xml version="1.0" encoding="UTF-8" standalone="no"?>
<svg
   xmlns:dc="http://purl.org/dc/elements/1.1/"
   xmlns:cc="http://creativecommons.org/ns#"
   xmlns:rdf="http://www.w3.org/1999/02/22-rdf-syntax-ns#"
   xmlns:svg="http://www.w3.org/2000/svg"
   xmlns="http://www.w3.org/2000/svg"
   xmlns:sodipodi="http://sodipodi.sourceforge.net/DTD/sodipodi-0.dtd"
   xmlns:inkscape="http://www.inkscape.org/namespaces/inkscape"
   viewBox="0 0 547.828 547.828"
   height="547.828"
   width="547.828"
   xml:space="preserve"
   id="svg2"
   version="1.1"
   inkscape:version="0.91 r13725"
   sodipodi:docname="sass.svg"><sodipodi:namedview
     pagecolor="#ffffff"
     bordercolor="#666666"
     borderopacity="1"
     objecttolerance="10"
     gridtolerance="10"
     guidetolerance="10"
     inkscape:pageopacity="0"
     inkscape:pageshadow="2"
     inkscape:window-width="1277"
     inkscape:window-height="744"
     id="namedview13"
     showgrid="false"
     fit-margin-top="0"
     fit-margin-left="0"
     fit-margin-right="0"
     fit-margin-bottom="0"
     inkscape:zoom="0.60923359"
     inkscape:cx="223.12352"
     inkscape:cy="219.00225"
     inkscape:window-x="0"
     inkscape:window-y="0"
     inkscape:window-maximized="0"
     inkscape:current-layer="svg2" /><metadata
     id="metadata8"><rdf:RDF><cc:Work
         rdf:about=""><dc:format>image/svg+xml</dc:format><dc:type
           rdf:resource="http://purl.org/dc/dcmitype/StillImage" /><dc:title></dc:title></cc:Work></rdf:RDF></metadata><defs
     id="defs6"><clipPath
       id="clipPath20"
       clipPathUnits="userSpaceOnUse"><path
         id="path18"
         d="M 0,4108.71 0,0 l 4108.71,0 0,4108.71 z"
         inkscape:connector-curvature="0" /></clipPath></defs><g
     transform="matrix(1.3333333,0,0,-1.3333333,0,547.82799)"
     id="g10"><g
       id="g12"
       transform="matrix(0.09971138,0,0,0.09971138,0.59293417,0.59292171)"
       style="fill:#ff9955"><g
         id="g14"
         style="fill:#ff9955"><g
           clip-path="url(#clipPath20)"
           id="g16"
           style="fill:#ff9955"><path
             style="fill:#ff9955;fill-opacity:1;fill-rule:evenodd;stroke:none"
             d="M 273.91406,0 C 122.6354,0 0,122.6354 0,273.91406 c 0,151.2784 122.6354,273.91406 273.91406,273.91406 151.27867,0 273.91406,-122.63566 273.91406,-273.91406 C 547.82812,122.6354 425.19273,0 273.91406,0 Z m 76.38867,66.578125 c 47.94809,0.03043 87.09575,17.974782 95.42969,50.660155 12.19733,47.83333 -29.33172,105.05691 -82.51172,125.62891 -47.484,18.36666 -86.747,15.45935 -102.875,10.16601 -18.33466,-6.016 -29.08898,-18.10968 -31.70898,-24.92968 -1.028,-2.67467 -2.80533,-7.16151 0,-8.71485 1.72133,-0.95333 2.40753,-0.72391 7.01953,4.35742 4.38,4.82667 21.98836,17.78645 55.42969,14.03711 87.77466,-9.83733 140.63821,-78.03971 123.93554,-114.73437 -11.69333,-25.685335 -79.355,-37.274824 -163.875,4.83984 C 147.96915,179.302 142.37414,221.6872 141.49414,237.7832 c -2.42,44.276 54.64629,67.5751 85.51563,100.50977 0.72666,0.77467 1.42847,1.55708 2.11914,2.34375 9.34,-3.476 22.27193,-5.43244 42.83593,-5.78711 49.932,-0.86 78.13133,32.05771 76.97266,61.48437 -0.90933,23.17747 -22.18596,32.72396 -26.14062,33.39063 -2.87334,0.48693 -4.4338,0.56947 -4.8418,-1.68359 -0.284,-1.5496 0.74457,-2.27014 4.11523,-4.35547 3.36934,-2.08387 13.44867,-8.98759 15.25,-21.54493 1.80267,-12.55333 -7.62645,-42.55596 -55.67578,-48.16796 -17.028,-1.98934 -30.42659,-0.63161 -41.91992,2.40039 8.332,18.36933 9.92786,55.29706 -9.24414,83.89453 -19.86667,29.63333 -56.83404,47.6616 -92.85938,37.63867 -11.62706,-3.23493 -29.18959,-27.26679 -14.03906,-60.75586 14.35853,-31.74427 75.71499,-62.79521 84.09766,-66.92187 l 0,-0.14649 C 179.25035,325.6047 110.09464,292.61262 100.3457,242.14062 c -2.76413,-14.30399 3.94117,-48.53456 45.99024,-87.86523 35.36533,-33.08 84.55104,-58.414687 129.98437,-74.554687 25.05038,-8.899625 50.56592,-13.157439 73.98242,-13.142578 z M 219.47852,365.15625 c -0.84667,0.46667 -1.6832,0.92257 -2.50586,1.36523 l 0.0449,0.0859 c 0,0 -28.56145,13.49123 -48.41211,34.47656 -18.452,19.50387 -23.6085,43.98344 -13.3125,49.95118 9.53467,5.53226 31.76893,-1.032 47.68359,-18.39454 5.21734,-5.69066 9.47768,-11.85642 12.65235,-18.44335 0.63466,-1.31734 1.22677,-2.65262 1.77343,-4.00196 0.54667,-1.352 1.05048,-2.71889 1.50782,-4.10156 4.116,-12.44933 4.55369,-26.19617 0.56836,-40.9375 z"
             transform="matrix(7.5000002,0,0,-7.5000002,0,4108.71)"
             id="path22"
             inkscape:connector-curvature="0" /></g></g></g></g></svg>