<?xml version="1.0" encoding="UTF-8" standalone="no"?>
<!-- Created with Inkscape (http://www.inkscape.org/) -->

<svg
   xmlns:dc="http://purl.org/dc/elements/1.1/"
   xmlns:cc="http://creativecommons.org/ns#"
   xmlns:rdf="http://www.w3.org/1999/02/22-rdf-syntax-ns#"
   xmlns:svg="http://www.w3.org/2000/svg"
   xmlns="http://www.w3.org/2000/svg"
   version="1.1"
   width="16"
   height="16"
   id="svg2">
  <defs
     id="defs4">
    <linearGradient
       id="linearGradient3859">
      <stop
         id="stop3861"
         style="stop-color:#eec73e;stop-opacity:1"
         offset="0" />
      <stop
         id="stop3863"
         style="stop-color:#9a8022;stop-opacity:1"
         offset="1" />
    </linearGradient>
    <linearGradient
       id="linearGradient3851">
      <stop
         id="stop3853"
         style="stop-color:#6699cc;stop-opacity:1"
         offset="0" />
      <stop
         id="stop3855"
         style="stop-color:#0054a7;stop-opacity:1"
         offset="1" />
    </linearGradient>
  </defs>
  <metadata
     id="metadata7">
    <rdf:RDF>
      <cc:Work
         rdf:about="">
        <dc:format>image/svg+xml</dc:format>
        <dc:type
           rdf:resource="http://purl.org/dc/dcmitype/StillImage" />
        <dc:title></dc:title>
      </cc:Work>
    </rdf:RDF>
  </metadata>
  <g
     transform="translate(0,-1036.3622)"
     id="layer1"
     style="fill:#5c3566;fill-opacity:1">
    <path
       d="m 2,0 c 1,0 11,0 12,0 1,0 2,1 2,2 0,1 0,11 0,12 0,1 -1,2 -2,2 C 13,16 3,16 2,16 1,16 0,15 0,14 0,13 0,3 0,2 0,1 1,0 2,0 z"
       transform="translate(0,1036.3622)"
       id="rect2995"
       style="fill:#5c3566;fill-opacity:1;stroke:none" />
    <text
       x="5.1758919"
       y="14.543665"
       transform="translate(0,1036.3622)"
       id="text3921"
       xml:space="preserve"
       style="font-size:12px;font-style:normal;font-variant:normal;font-weight:normal;font-stretch:normal;line-height:125%;letter-spacing:0px;word-spacing:0px;fill:#5c3566;fill-opacity:1;stroke:none;font-family:Ubuntu Mono;-inkscape-font-specification:Ubuntu Mono"><tspan
         x="5.1758919"
         y="14.543665"
         id="tspan3923"
         style="fill:#5c3566;fill-opacity:1" /></text>
    <g
       id="text3925"
       style="font-size:12px;font-style:normal;font-variant:normal;font-weight:normal;font-stretch:normal;line-height:125%;letter-spacing:0px;word-spacing:0px;fill:#5c3566;fill-opacity:1;stroke:none;font-family:Ubuntu Mono;-inkscape-font-specification:Ubuntu Mono" />
  </g>
  <g
     transform="translate(0.27118644,4.4745767)"
     id="text2998"
     style="font-size:10.3639164px;font-style:normal;font-variant:normal;font-weight:normal;font-stretch:normal;line-height:125%;letter-spacing:0px;word-spacing:0px;fill:#ffffff;fill-opacity:1;stroke:none;font-family:Ubuntu Mono;-inkscape-font-specification:Ubuntu Mono">
    <path
       d="m 1.1060267,4.51345 c 0.1704277,0.1381867 0.354675,0.2510381 0.5527422,0.3385546 0.2026704,0.087518 0.4030393,0.1312771 0.6011071,0.1312763 0.2349131,8e-7 0.4053418,-0.039152 0.5112866,-0.1174578 C 2.8817083,4.787519 2.9369825,4.6815768 2.9369852,4.5479964 2.9369825,4.4789049 2.9208608,4.4190246 2.8886203,4.3683552 2.8563743,4.3176886 2.8103125,4.2739299 2.7504347,4.2370789 2.6905518,4.1956248 2.6168529,4.1587754 2.5293379,4.1265305 2.4464243,4.0896827 2.3496945,4.0505301 2.2391482,4.0090727 L 1.6587689,3.7603388 C 1.5344005,3.714279 1.4123368,3.6543986 1.2925772,3.5806975 1.1774216,3.5070009 1.0760856,3.4217865 0.98856899,3.3250543 0.90105074,3.2237208 0.82965495,3.1085663 0.77438139,2.9795904 0.7237128,2.846014 0.69837881,2.6963131 0.69837933,2.5304874 0.69837881,2.3462434 0.73753134,2.1735116 0.81583705,2.0122916 0.89874765,1.8464728 1.0115991,1.7036812 1.1543916,1.5839164 1.3017884,1.4595537 1.4768233,1.3628239 1.6794967,1.2937267 1.8821672,1.2246385 2.1055669,1.1900921 2.3496966,1.1900875 c 0.2763687,4.6e-6 0.5435271,0.050673 0.8014762,0.1520042 0.2579431,0.1013404 0.4905553,0.2487381 0.697837,0.4421937 L 3.330814,2.4268482 C 3.1742007,2.3116971 3.0198937,2.2241796 2.8678925,2.1642957 2.7158858,2.0998128 2.543154,2.0675695 2.3496966,2.0675658 c -0.1980679,3.7e-6 -0.3523749,0.036853 -0.4629215,0.1105484 -0.1059439,0.069096 -0.158915,0.1681292 -0.1589134,0.297099 -1.6e-6,0.1381887 0.069091,0.2418277 0.2072783,0.3109174 0.1381836,0.069096 0.3155216,0.1427946 0.5320144,0.2210969 L 3.0129873,3.2421429 C 3.3123862,3.3526938 3.5473014,3.5046978 3.7177336,3.6981553 3.8927649,3.8916169 3.9802823,4.1472599 3.9802861,4.4650851 3.9802823,4.6539398 3.9411298,4.8335808 3.8628284,5.0040087 3.7845196,5.169832 3.6716682,5.3172297 3.5242738,5.4462024 3.3768727,5.5705697 3.1949286,5.6719056 2.9784409,5.7502107 2.7619476,5.8239096 2.5132139,5.860759 2.2322389,5.8607591 1.928229,5.860759 1.6265242,5.8077879 1.3271236,5.7018457 1.0323269,5.5912975 0.76286533,5.4277781 0.51873812,5.211287 L 1.1060267,4.51345"
       id="path3771"
       style="font-size:6.90927744px;font-weight:bold;letter-spacing:-0.49000001px;fill:#ffffff;font-family:Source Code Pro;-inkscape-font-specification:Source Code Pro Bold" />
    <path
       d="M 4.2061521,3.5530604 C 4.2061517,3.179962 4.2614258,2.8483171 4.3719747,2.5581245 4.4825225,2.2633322 4.6345265,2.0145984 4.827987,1.8119225 5.0214456,1.6092545 5.2494515,1.4549475 5.5120055,1.3490009 5.7745561,1.2430632 6.0555331,1.1900921 6.3549373,1.1900875 c 0.2901869,4.6e-6 0.5458299,0.059885 0.7669298,0.1796413 0.2256996,0.1151589 0.414553,0.246435 0.5665608,0.3938288 L 7.1287764,2.3923018 C 7.022831,2.2955754 6.9076765,2.2172704 6.7833125,2.1573864 6.6589427,2.0975097 6.5161511,2.0675695 6.3549373,2.0675658 6.1937185,2.0675695 6.0463207,2.1021158 5.9127436,2.1712049 5.7791623,2.2356951 5.6617047,2.3301218 5.5603704,2.4544853 5.4636389,2.5788555 5.3876369,2.7308595 5.3323643,2.9104976 5.2770886,3.0901415 5.2494515,3.2928135 5.249453,3.518514 c -1.5e-6,0.4652265 0.1059407,0.8268117 0.3178267,1.0847566 0.2118826,0.2533411 0.4882534,0.3800111 0.8291133,0.3800103 0.1612138,8e-7 0.3063084,-0.036849 0.4352845,-0.1105485 0.1335762,-0.073698 0.25564,-0.1704277 0.3661917,-0.2901896 L 7.7575207,5.1974685 C 7.3798099,5.6396624 6.9053734,5.860759 6.3342095,5.8607591 6.0440176,5.860759 5.7699499,5.8123941 5.5120055,5.7156643 5.2540577,5.6143284 5.0283549,5.4669306 4.8348963,5.2734705 4.6414357,5.0800114 4.4871287,4.8404901 4.3719747,4.5549057 4.2614258,4.2647175 4.2061517,3.9307694 4.2061521,3.5530604"
       id="path3773"
       style="font-size:6.90927744px;font-weight:bold;letter-spacing:-0.49000001px;fill:#ffffff;font-family:Source Code Pro;-inkscape-font-specification:Source Code Pro Bold" />
    <path
       d="m 8.4117618,4.51345 c 0.1704278,0.1381867 0.354675,0.2510381 0.5527422,0.3385546 0.2026705,0.087518 0.4030393,0.1312771 0.6011071,0.1312763 0.2349132,8e-7 0.4053418,-0.039152 0.5112869,-0.1174578 0.110545,-0.078304 0.16582,-0.1842463 0.165822,-0.3178267 -2e-6,-0.069091 -0.01612,-0.1289718 -0.04837,-0.1796412 C 10.16211,4.3176882 10.11605,4.2739302 10.05617,4.2370789 9.9962869,4.1956248 9.922588,4.1587754 9.835073,4.1265305 9.7521594,4.0896827 9.6554296,4.0505301 9.5448833,4.0090727 L 8.964504,3.7603388 C 8.8401357,3.714279 8.7180719,3.6543986 8.5983123,3.5806975 8.4831567,3.5070009 8.3818207,3.4217865 8.2943041,3.3250543 8.2067859,3.2237208 8.1353901,3.1085663 8.0801165,2.9795904 8.0294479,2.846014 8.0041139,2.6963131 8.0041144,2.5304874 c -5e-7,-0.184244 0.039152,-0.3569758 0.1174578,-0.5181958 0.082911,-0.1658188 0.195762,-0.3086104 0.3385546,-0.4283752 0.1473967,-0.1243627 0.3224316,-0.2210925 0.525105,-0.2901897 0.2026705,-0.069088 0.4260702,-0.1036346 0.6702,-0.1036392 0.2763686,4.6e-6 0.5435272,0.050673 0.8014762,0.1520042 0.257943,0.1013404 0.490555,0.2487381 0.697837,0.4421937 L 10.636549,2.4268482 C 10.479936,2.3116971 10.325629,2.2241796 10.173628,2.1642957 10.021621,2.0998128 9.8488892,2.0675695 9.6554318,2.0675658 c -0.198068,3.7e-6 -0.352375,0.036853 -0.4629216,0.1105484 -0.1059439,0.069096 -0.158915,0.1681292 -0.1589134,0.297099 -1.6e-6,0.1381887 0.069091,0.2418277 0.2072783,0.3109174 0.1381837,0.069096 0.3155216,0.1427946 0.5320144,0.2210969 l 0.5458325,0.2349154 c 0.299399,0.1105509 0.534314,0.2625549 0.704747,0.4560124 0.175031,0.1934616 0.262548,0.4491046 0.262552,0.7669298 -4e-6,0.1888547 -0.03916,0.3684957 -0.117457,0.5389236 -0.07831,0.1658233 -0.191161,0.313221 -0.338555,0.4421937 C 10.682608,5.5705697 10.500664,5.6719056 10.284176,5.7502107 10.067683,5.8239096 9.818949,5.860759 9.537974,5.8607591 9.2339641,5.860759 8.9322593,5.8077879 8.6328587,5.7018457 8.338062,5.5912975 8.0686004,5.4277781 7.8244732,5.211287 L 8.4117618,4.51345"
       id="path3775"
       style="font-size:6.90927744px;font-weight:bold;letter-spacing:-0.49000001px;fill:#ffffff;font-family:Source Code Pro;-inkscape-font-specification:Source Code Pro Bold" />
    <path
       d="m 12.06463,4.51345 c 0.170427,0.1381867 0.354675,0.2510381 0.552742,0.3385546 0.20267,0.087518 0.403039,0.1312771 0.601107,0.1312763 0.234913,8e-7 0.405342,-0.039152 0.511286,-0.1174578 0.110546,-0.078304 0.16582,-0.1842463 0.165823,-0.3178267 -3e-6,-0.069091 -0.01612,-0.1289718 -0.04837,-0.1796412 -0.03225,-0.050667 -0.07831,-0.094425 -0.138185,-0.1312763 -0.05988,-0.041454 -0.133582,-0.078304 -0.221097,-0.1105484 -0.08291,-0.036848 -0.179644,-0.076 -0.29019,-0.1174578 L 12.617372,3.7603388 C 12.493003,3.714279 12.37094,3.6543986 12.25118,3.5806975 12.136024,3.5070009 12.034689,3.4217865 11.947172,3.3250543 11.859654,3.2237208 11.788258,3.1085663 11.732984,2.9795904 c -0.05067,-0.1335764 -0.076,-0.2832773 -0.076,-0.449103 0,-0.184244 0.03915,-0.3569758 0.117458,-0.5181958 0.08291,-0.1658188 0.195762,-0.3086104 0.338555,-0.4283752 0.147396,-0.1243627 0.322431,-0.2210925 0.525105,-0.2901897 0.20267,-0.069088 0.42607,-0.1036346 0.6702,-0.1036392 0.276368,4.6e-6 0.543527,0.050673 0.801476,0.1520042 0.257943,0.1013404 0.490555,0.2487381 0.697837,0.4421937 L 14.289417,2.4268482 C 14.132804,2.3116971 13.978497,2.2241796 13.826495,2.1642957 13.674489,2.0998128 13.501757,2.0675695 13.3083,2.0675658 c -0.198068,3.7e-6 -0.352375,0.036853 -0.462922,0.1105484 -0.105944,0.069096 -0.158915,0.1681292 -0.158913,0.297099 -2e-6,0.1381887 0.06909,0.2418277 0.207278,0.3109174 0.138184,0.069096 0.315521,0.1427946 0.532014,0.2210969 l 0.545833,0.2349154 c 0.299399,0.1105509 0.534314,0.2625549 0.704746,0.4560124 0.175032,0.1934616 0.262549,0.4491046 0.262553,0.7669298 -4e-6,0.1888547 -0.03916,0.3684957 -0.117458,0.5389236 -0.07831,0.1658233 -0.19116,0.313221 -0.338554,0.4421937 -0.147401,0.1243673 -0.329346,0.2257032 -0.545833,0.3040083 -0.216493,0.073699 -0.465227,0.1105483 -0.746202,0.1105484 -0.30401,-1e-7 -0.605715,-0.052971 -0.905116,-0.1589134 C 11.99093,5.5912975 11.721468,5.4277781 11.477341,5.211287 L 12.06463,4.51345"
       id="path3777"
       style="font-size:6.90927744px;font-weight:bold;letter-spacing:-0.49000001px;fill:#ffffff;font-family:Source Code Pro;-inkscape-font-specification:Source Code Pro Bold" />
  </g>
</svg>
