<?xml version="1.0" encoding="UTF-8" standalone="no"?>
<svg
   xmlns:dc="http://purl.org/dc/elements/1.1/"
   xmlns:cc="http://creativecommons.org/ns#"
   xmlns:rdf="http://www.w3.org/1999/02/22-rdf-syntax-ns#"
   xmlns:svg="http://www.w3.org/2000/svg"
   xmlns="http://www.w3.org/2000/svg"
   xmlns:sodipodi="http://sodipodi.sourceforge.net/DTD/sodipodi-0.dtd"
   xmlns:inkscape="http://www.inkscape.org/namespaces/inkscape"
   preserveAspectRatio="xMidYMid"
   height="16"
   width="16"
   id="svg2"
   version="1.1"
   inkscape:version="0.91 r13725"
   sodipodi:docname="sql.svg">
  <metadata
     id="metadata10">
    <rdf:RDF>
      <cc:Work
         rdf:about="">
        <dc:format>image/svg+xml</dc:format>
        <dc:type
           rdf:resource="http://purl.org/dc/dcmitype/StillImage" />
      </cc:Work>
    </rdf:RDF>
  </metadata>
  <defs
     id="defs8" />
  <sodipodi:namedview
     pagecolor="#ffffff"
     bordercolor="#666666"
     borderopacity="1"
     objecttolerance="10"
     gridtolerance="10"
     guidetolerance="10"
     inkscape:pageopacity="0"
     inkscape:pageshadow="2"
     inkscape:window-width="1280"
     inkscape:window-height="751"
     id="namedview6"
     showgrid="false"
     inkscape:zoom="14.75"
     inkscape:cx="8"
     inkscape:cy="8"
     inkscape:window-x="0"
     inkscape:window-y="0"
     inkscape:window-maximized="1"
     inkscape:current-layer="svg2" />
  <path
     d="m 13.3,2.45 c 0,0.8 -2.3,1.4 -5.2,1.4 -3,0 -5.3,-0.6 -5.3,-1.4 0,-0.8 2.3,-1.4 5.3,-1.4 2.9,0 5.2,0.6 5.2,1.4 z M 2.8,3.55 c 0,0 0,0.3 1.1,0.7 0.3,0.1 0.9,0.2 1.4,0.3 0.7,0.1 1.6,0.2 2.7,0.2 0.6,0 1.1,0 1.6,-0.1 0.8,0 0.9,-0.1 1.5,-0.2 0.5,0 1,-0.2 1.4,-0.4 0.7,-0.2 0.8,-0.5 0.8,-0.5 l 0,2.7 c 0,0 -0.5,0.7 -1.8,0.9 -0.5,0.1 -0.6,0.2 -1.5,0.3 -0.7,0.1 -1.7,0.1 -2,0.1 -0.3,0 -1.1,0 -2.3,-0.2 -0.8,-0.1 -1.5,-0.3 -1.9,-0.4 -0.7,-0.3 -1,-0.7 -1,-0.7 z m 0,3.6 c 0,0 0,0.4 1.1,0.7 0.3,0.1 0.9,0.3 1.3,0.4 0.8,0.1 1.7,0.2 2.8,0.2 0.6,0 1.1,-0.1 1.6,-0.1 0.7,-0.1 0.9,-0.1 1.4,-0.2 0.6,-0.1 1.1,-0.2 1.5,-0.4 0.7,-0.3 0.8,-0.6 0.8,-0.6 l 0,2.8 c 0,0 -0.5,0.6 -1.8,0.9 -0.5,0.1 -0.7,0.2 -1.5,0.2 -0.8,0.1 -1.7,0.2 -2,0.2 -0.3,0 -1.1,0 -2.4,-0.2 -0.7,-0.1 -1.5,-0.3 -1.8,-0.5 -0.8,-0.2 -1,-0.6 -1,-0.6 z m -0.1,3.8 c 0,0 0.1,0.3 1.2,0.7 0.3,0.1 0.9,0.2 1.3,0.3 0.7,0.1 1.6,0.2 2.7,0.2 0.6,0 1.2,0 1.7,0 0.7,-0.1 0.8,-0.1 1.4,-0.2 0.6,-0.1 1.1,-0.3 1.5,-0.4 0.6,-0.3 0.8,-0.6 0.8,-0.6 l 0,2.8 c 0,0 -0.5,0.6 -1.8,0.9 -0.5,0 -0.7,0.1 -1.5,0.2 -0.8,0.1 -1.8,0.1 -2.1,0.1 -0.3,0 -1,0 -2.3,-0.2 -0.7,-0.1 -1.5,-0.2 -1.8,-0.4 -0.8,-0.3 -1.1,-0.6 -1.1,-0.6 z"
     id="path4"
     inkscape:connector-curvature="0"
     style="fill:#9d7a62;fill-opacity:1" />
</svg>
