<?xml version="1.0" encoding="UTF-8" standalone="no"?>
<svg
   xmlns:dc="http://purl.org/dc/elements/1.1/"
   xmlns:cc="http://creativecommons.org/ns#"
   xmlns:rdf="http://www.w3.org/1999/02/22-rdf-syntax-ns#"
   xmlns:svg="http://www.w3.org/2000/svg"
   xmlns="http://www.w3.org/2000/svg"
   id="svg4"
   version="1.1"
   viewBox="0 0 14 14"
   height="14"
   width="14">
  <metadata
     id="metadata10">
    <rdf:RDF>
      <cc:Work
         rdf:about="">
        <dc:format>image/svg+xml</dc:format>
        <dc:type
           rdf:resource="http://purl.org/dc/dcmitype/StillImage" />
        <dc:title></dc:title>
      </cc:Work>
    </rdf:RDF>
  </metadata>
  <defs
     id="defs8" />
  <path
     style="fill:#8e44ad"
     id="path2"
     d="M 7,0.98209714 A 6,2 0 0 0 1,2.9820972 v 7.9999998 a 6,2 0 0 0 6,2 6,2 0 0 0 6,-2 V 2.9820972 A 6,2 0 0 0 7,0.98209714 M 7,1.9820972 a 5,1 0 0 1 5,1 5,1 0 0 1 -5,1 5,1 0 0 1 -5,-1 5,1 0 0 1 5,-1 m -5,2.101563 a 6,2 0 0 0 5,0.898437 6,2 0 0 0 5,-0.896484 v 2.896484 a 5,1 0 0 1 -5,1 5,1 0 0 1 -5,-1 z m 0,4 a 6,2 0 0 0 5,0.898437 6,2 0 0 0 5,-0.896484 v 2.8964838 a 5,1 0 0 1 -5,1 5,1 0 0 1 -5,-1 z" />
</svg>
