<?xml version="1.0" encoding="UTF-8" standalone="no"?>
<!-- Generated by IcoMoon.io -->

<svg
   xmlns:dc="http://purl.org/dc/elements/1.1/"
   xmlns:cc="http://creativecommons.org/ns#"
   xmlns:rdf="http://www.w3.org/1999/02/22-rdf-syntax-ns#"
   xmlns:svg="http://www.w3.org/2000/svg"
   xmlns="http://www.w3.org/2000/svg"
   xmlns:sodipodi="http://sodipodi.sourceforge.net/DTD/sodipodi-0.dtd"
   xmlns:inkscape="http://www.inkscape.org/namespaces/inkscape"
   version="1.1"
   width="34"
   height="32"
   viewBox="0 0 34 32"
   id="svg2"
   inkscape:version="0.91 r13725"
   sodipodi:docname="tcl.svg">
  <metadata
     id="metadata10">
    <rdf:RDF>
      <cc:Work
         rdf:about="">
        <dc:format>image/svg+xml</dc:format>
        <dc:type
           rdf:resource="http://purl.org/dc/dcmitype/StillImage" />
      </cc:Work>
    </rdf:RDF>
  </metadata>
  <defs
     id="defs8" />
  <sodipodi:namedview
     pagecolor="#ffffff"
     bordercolor="#666666"
     borderopacity="1"
     objecttolerance="10"
     gridtolerance="10"
     guidetolerance="10"
     inkscape:pageopacity="0"
     inkscape:pageshadow="2"
     inkscape:window-width="1280"
     inkscape:window-height="751"
     id="namedview6"
     showgrid="false"
     inkscape:zoom="7.375"
     inkscape:cx="17"
     inkscape:cy="16"
     inkscape:window-x="0"
     inkscape:window-y="0"
     inkscape:window-maximized="1"
     inkscape:current-layer="svg2" />
  <path
     d="m 22.602232,1.0605109 c -1.342238,-1.19657868 -2.967371,-0.71626185 -4.572038,0.7078354 -0.238353,0.2118691 -0.475502,0.4466103 -0.711447,0.697001 -2.743463,2.9107921 -5.290708,8.3026187 -6.082809,12.4208237 0.308173,0.624773 0.548933,1.422894 0.707835,2.032017 0.04093,0.156494 0.07705,0.303358 0.107142,0.42735 0.06982,0.294931 0.107142,0.487539 0.107142,0.487539 0,0 -0.02408,-0.09269 -0.125196,-0.38642 -0.01926,-0.05658 -0.04093,-0.117972 -0.06621,-0.190201 -0.01084,-0.03009 -0.02528,-0.06621 -0.04214,-0.104733 -0.179367,-0.416515 -0.67413,-1.294086 -0.892018,-1.676895 -0.186588,0.550137 -0.35151,1.064161 -0.488743,1.530031 0.629588,1.150834 1.012398,3.123865 1.012398,3.123865 0,0 -0.03371,-0.127602 -0.191405,-0.574213 -0.140845,-0.394846 -0.83905,-1.619113 -1.005175,-1.905618 -0.282893,1.046103 -0.3960499,1.751531 -0.293727,1.923675 0.197423,0.333453 0.385216,0.907666 0.550138,1.543273 0.371974,1.431321 0.630792,3.174426 0.630792,3.174426 0,0 0.0084,0.115564 0.02288,0.293727 -0.05176,1.202598 -0.02047,2.448533 0.07223,3.57529 0.123992,1.491511 0.355121,2.772355 0.651257,3.458522 l 0.201035,-0.109546 c -0.434573,-1.350665 -0.611531,-3.121458 -0.534489,-5.163105 0.116769,-3.121456 0.835439,-6.88454 2.162028,-10.80773 2.242683,-5.9214987 5.353306,-10.6729034 8.199092,-12.9420693 -2.594192,2.3438016 -6.106884,9.9289553 -7.157803,12.7374233 -1.177318,3.145534 -2.011553,6.097255 -2.513538,8.924985 0.867941,-2.650771 3.671595,-3.790772 3.671595,-3.790772 0,0 1.375945,-1.696155 2.98302,-4.119408 -0.963041,0.219091 -2.543632,0.595881 -3.073305,0.818585 -0.781268,0.327434 -0.991932,0.439388 -0.991932,0.439388 0,0 2.53039,-1.540867 4.700844,-2.239072 2.985428,-4.702048 6.2381,-11.3831461 2.962556,-14.3059763 z"
     id="path4"
     inkscape:connector-curvature="0"
     style="fill:#4a4ab5;fill-opacity:1" />
</svg>
