<?xml version="1.0" encoding="UTF-8" standalone="no"?>
<!-- Created with Inkscape (http://www.inkscape.org/) -->

<svg
   xmlns:dc="http://purl.org/dc/elements/1.1/"
   xmlns:cc="http://creativecommons.org/ns#"
   xmlns:rdf="http://www.w3.org/1999/02/22-rdf-syntax-ns#"
   xmlns:svg="http://www.w3.org/2000/svg"
   xmlns="http://www.w3.org/2000/svg"
   version="1.1"
   width="16"
   height="16"
   id="svg2">
  <defs
     id="defs4">
    <linearGradient
       id="linearGradient3859">
      <stop
         id="stop3861"
         style="stop-color:#eec73e;stop-opacity:1"
         offset="0" />
      <stop
         id="stop3863"
         style="stop-color:#9a8022;stop-opacity:1"
         offset="1" />
    </linearGradient>
    <linearGradient
       id="linearGradient3851">
      <stop
         id="stop3853"
         style="stop-color:#6699cc;stop-opacity:1"
         offset="0" />
      <stop
         id="stop3855"
         style="stop-color:#0054a7;stop-opacity:1"
         offset="1" />
    </linearGradient>
  </defs>
  <metadata
     id="metadata7">
    <rdf:RDF>
      <cc:Work
         rdf:about="">
        <dc:format>image/svg+xml</dc:format>
        <dc:type
           rdf:resource="http://purl.org/dc/dcmitype/StillImage" />
        <dc:title></dc:title>
      </cc:Work>
    </rdf:RDF>
  </metadata>
  <g
     transform="translate(0,-1036.3622)"
     id="layer1"
     style="fill:#546984;fill-opacity:1">
    <path
       d="m 2,0 c 1,0 11,0 12,0 1,0 2,1 2,2 0,1 0,11 0,12 0,1 -1,2 -2,2 C 13,16 3,16 2,16 1,16 0,15 0,14 0,13 0,3 0,2 0,1 1,0 2,0 z"
       transform="translate(0,1036.3622)"
       id="rect2995"
       style="fill:#546984;fill-opacity:1;stroke:none" />
    <text
       x="5.1758919"
       y="14.543665"
       transform="translate(0,1036.3622)"
       id="text3921"
       xml:space="preserve"
       style="font-size:12px;font-style:normal;font-variant:normal;font-weight:normal;font-stretch:normal;line-height:125%;letter-spacing:0px;word-spacing:0px;fill:#546984;fill-opacity:1;stroke:none;font-family:Ubuntu Mono;-inkscape-font-specification:Ubuntu Mono"><tspan
         x="5.1758919"
         y="14.543665"
         id="tspan3923"
         style="fill:#546984;fill-opacity:1" /></text>
    <g
       id="text3925"
       style="font-size:12px;font-style:normal;font-variant:normal;font-weight:normal;font-stretch:normal;line-height:125%;letter-spacing:0px;word-spacing:0px;fill:#546984;fill-opacity:1;stroke:none;font-family:Ubuntu Mono;-inkscape-font-specification:Ubuntu Mono" />
  </g>
  <g
     id="text3819"
     style="font-size:13.56924534px;font-style:normal;font-variant:normal;font-weight:normal;font-stretch:normal;line-height:125%;letter-spacing:0px;word-spacing:0px;fill:#ffffff;fill-opacity:1;stroke:none;font-family:Ubuntu Mono;-inkscape-font-specification:Ubuntu Mono">
    <path
       d="m 3.2726659,5.8651049 -1.9539713,0 0,-0.6332314 4.6678204,0 0,0.6332314 -1.9539714,0 0,5.3010521 -0.7598777,0 0,-5.3010521"
       id="path3845"
       style="font-size:9.04616356px;letter-spacing:-0.86000001px;fill:#ffffff;font-family:Source Code Pro;-inkscape-font-specification:Source Code Pro" />
    <path
       d="M 6.2266129,8.9769852 C 6.2266122,8.6091104 6.2899353,8.2834489 6.4165824,7.9999995 6.5492584,7.7105257 6.7271661,7.4662796 6.950306,7.2672603 7.1734431,7.0682488 7.4327661,6.9174795 7.7282761,6.8149521 8.0298123,6.7124334 8.3464278,6.6611718 8.6781233,6.6611673 c 0.361843,4.5e-6 0.6724276,0.063328 0.9317548,0.1899695 0.2653498,0.1266504 0.4884879,0.2774197 0.6694159,0.4523081 L 9.9084015,7.7828916 C 9.727474,7.626095 9.5375048,7.5024642 9.3384932,7.4119989 9.1455047,7.3215411 8.9344278,7.2763103 8.7052618,7.2763064 8.4519662,7.2763103 8.2197816,7.3185257 8.0087072,7.4029527 7.7976277,7.4813565 7.6167046,7.5959411 7.4659373,7.7467069 7.3211969,7.8974796 7.2066123,8.0784027 7.1221831,8.2894768 7.0377507,8.4945258 6.9955353,8.7236951 6.9955368,8.9769852 c -1.5e-6,0.2532945 0.039199,0.4824638 0.1176002,0.6875084 0.084429,0.2050477 0.1990138,0.3829554 0.3437542,0.5337234 0.1507673,0.14474 0.328675,0.259324 0.5337236,0.343754 0.2110745,0.0784 0.4432591,0.117601 0.6965546,0.117601 0.2713815,0 0.518643,-0.05126 0.7417854,-0.153785 0.2291654,-0.108553 0.4372269,-0.24123 0.6241852,-0.398031 l 0.325662,0.479446 c -0.241236,0.217109 -0.5126203,0.38597 -0.8141547,0.506585 -0.2955118,0.120616 -0.6060964,0.180924 -0.9317549,0.180924 -0.343757,0 -0.6633878,-0.05126 -0.9588933,-0.153785 C 7.38452,11.018403 7.1312277,10.870649 6.9141214,10.677664 6.6970122,10.478649 6.5281507,10.237418 6.4075362,9.9539709 6.2869199,9.6644951 6.2266122,9.3388336 6.2266129,8.9769852"
       id="path3847"
       style="font-size:9.04616356px;letter-spacing:-0.86000001px;fill:#ffffff;font-family:Source Code Pro;-inkscape-font-specification:Source Code Pro" />
    <path
       d="m 10.799823,4.7252883 2.243449,0 0,5.0206208 c -3e-6,0.3256629 0.07538,0.5608629 0.226154,0.7056009 0.156797,0.138708 0.367874,0.208062 0.633231,0.208062 0.241227,0 0.518643,-0.06935 0.832247,-0.208062 l 0.18997,0.560862 c -0.19902,0.07237 -0.385974,0.132677 -0.560862,0.180923 -0.174897,0.05428 -0.382958,0.08142 -0.624186,0.08142 -0.470403,0 -0.829234,-0.132677 -1.076493,-0.398031 C 12.4221,10.611326 12.301484,10.216311 12.301486,9.6916321 l 0,-4.3602508 -1.501663,0 0,-0.606093"
       id="path3849"
       style="font-size:9.04616356px;letter-spacing:-0.86000001px;fill:#ffffff;font-family:Source Code Pro;-inkscape-font-specification:Source Code Pro" />
  </g>
</svg>
