<?xml version="1.0" encoding="UTF-8" standalone="no"?>
<svg
   xmlns:dc="http://purl.org/dc/elements/1.1/"
   xmlns:cc="http://creativecommons.org/ns#"
   xmlns:rdf="http://www.w3.org/1999/02/22-rdf-syntax-ns#"
   xmlns:svg="http://www.w3.org/2000/svg"
   xmlns="http://www.w3.org/2000/svg"
   viewBox="0 0 14 14"
   id="svg2"
   height="14"
   width="14"
   version="1.1">
  <metadata
     id="metadata10">
    <rdf:RDF>
      <cc:Work
         rdf:about="">
        <dc:format>image/svg+xml</dc:format>
        <dc:type
           rdf:resource="http://purl.org/dc/dcmitype/StillImage" />
        <dc:title></dc:title>
      </cc:Work>
    </rdf:RDF>
  </metadata>
  <defs
     id="defs8" />
  <path
     style="fill:#3f51b5;fill-opacity:1;stroke-width:0.38513717"
     id="path4"
     d="M 9.1776152,1.2734419 C 8.6606695,0.81259491 8.0347704,0.99758288 7.4167534,1.5460556 7.3249546,1.6276547 7.23362,1.7180618 7.1427487,1.8144966 6.0861392,2.9355508 5.1051006,5.0121435 4.800033,6.5982171 c 0.1186889,0.2406234 0.2114146,0.5480094 0.2726137,0.7826054 0.015763,0.060272 0.029674,0.1168341 0.041264,0.1645883 0.02689,0.1135889 0.041264,0.1877694 0.041264,0.1877694 0,0 -0.00927,-0.035699 -0.048218,-0.1488247 -0.00742,-0.021792 -0.015763,-0.045434 -0.0255,-0.073253 -0.00418,-0.011591 -0.00974,-0.0255 -0.01623,-0.040337 C 4.9961476,7.31035 4.8055961,6.9723648 4.7216795,6.8249308 4.6498179,7.036809 4.5862999,7.2347789 4.5334464,7.4142027 c 0.2424776,0.443229 0.3899119,1.2031164 0.3899119,1.2031164 0,0 -0.012982,-0.049144 -0.073718,-0.2211507 C 4.795396,8.2440985 4.5264918,7.7725878 4.4625109,7.6622441 4.3535583,8.0651372 4.3099774,8.3368238 4.3493857,8.4031229 c 0.076036,0.128425 0.148361,0.3495758 0.2118787,0.5943717 0.1432608,0.5512549 0.2429414,1.2225894 0.2429414,1.2225894 0,0 0.00323,0.04451 0.00882,0.113125 -0.019935,0.463165 -0.00787,0.943021 0.027819,1.376977 0.047753,0.574437 0.1367686,1.067738 0.2508217,1.332005 L 5.1690895,13 C 5.0017148,12.479811 4.9335616,11.797812 4.9632334,11.011497 5.0082055,9.8093091 5.284992,8.3600056 5.7959107,6.8490394 6.6596512,4.5684502 7.8576678,2.7385077 8.9536857,1.8645676 7.9545659,2.7672527 6.6016978,5.6885772 6.1969498,6.7702225 5.7435208,7.9816846 5.4222261,9.1185019 5.2288929,10.207566 5.5631693,9.1866554 6.6429605,8.7475987 6.6429605,8.7475987 c 0,0 0.5299276,-0.6532524 1.1488718,-1.5865371 -0.3709027,0.084381 -0.9796471,0.229496 -1.1836438,0.3152676 -0.3008953,0.1261069 -0.38203,0.1692246 -0.38203,0.1692246 0,0 0.9745473,-0.5934451 1.8104697,-0.8623498 C 9.1864275,4.9722706 10.439155,2.3991316 9.1776187,1.273441 Z" />
</svg>
