<?xml version="1.0" encoding="UTF-8" standalone="no"?>
<svg
   xmlns:dc="http://purl.org/dc/elements/1.1/"
   xmlns:cc="http://creativecommons.org/ns#"
   xmlns:rdf="http://www.w3.org/1999/02/22-rdf-syntax-ns#"
   xmlns:svg="http://www.w3.org/2000/svg"
   xmlns="http://www.w3.org/2000/svg"
   style="fill:#000000"
   version="1.1"
   id="svg2"
   viewBox="0 0 16 16"
   height="16"
   width="16">
  <metadata
     id="metadata10">
    <rdf:RDF>
      <cc:Work
         rdf:about="">
        <dc:format>image/svg+xml</dc:format>
        <dc:type
           rdf:resource="http://purl.org/dc/dcmitype/StillImage" />
        <dc:title></dc:title>
      </cc:Work>
    </rdf:RDF>
  </metadata>
  <defs
     id="defs8" />
  <path
     style="fill:#888a85"
     id="path4"
     d="m 14.116125,3.1160936 c 0.429563,0.4295626 0.789906,1.2292501 0.868,1.8839057 l -4.984125,0 0,-4.98412424 c 0.654657,0.07809369 1.454313,0.43843747 1.883875,0.86799987 l 2.23225,2.23221867 z M 9.0000001,5.9999995 9.0000001,0 2.25,0 C 1.5625,0 1,0.5624999 1,1.25 l 0,13.5 C 1,15.4375 1.5625,16 2.25,16 l 11.5,0 C 14.4375,16 15,15.4375 15,14.75 l 0,-8.7500005 -5.9999999,0 z M 13,13.999999 l -9.9999999,0 0,-1 9.9999999,0 0,1 z m 0,-2 -9.9999999,0 0,-0.999998 9.9999999,0 0,0.999998 z M 13,10 l -9.9999999,0 0,-0.9999999 9.9999999,0 L 13,10 Z" />
</svg>
