<?xml version="1.0" encoding="UTF-8" standalone="no"?>
<!-- Generated by IcoMoon.io -->

<svg
   xmlns:dc="http://purl.org/dc/elements/1.1/"
   xmlns:cc="http://creativecommons.org/ns#"
   xmlns:rdf="http://www.w3.org/1999/02/22-rdf-syntax-ns#"
   xmlns:svg="http://www.w3.org/2000/svg"
   xmlns="http://www.w3.org/2000/svg"
   xmlns:sodipodi="http://sodipodi.sourceforge.net/DTD/sodipodi-0.dtd"
   xmlns:inkscape="http://www.inkscape.org/namespaces/inkscape"
   version="1.1"
   width="14"
   height="14"
   viewBox="0 0 12 14"
   id="svg2"
   inkscape:version="0.91 r13725"
   sodipodi:docname="txt.svg">
  <metadata
     id="metadata10">
    <rdf:RDF>
      <cc:Work
         rdf:about="">
        <dc:format>image/svg+xml</dc:format>
        <dc:type
           rdf:resource="http://purl.org/dc/dcmitype/StillImage" />
      </cc:Work>
    </rdf:RDF>
  </metadata>
  <defs
     id="defs8" />
  <sodipodi:namedview
     pagecolor="#ffffff"
     bordercolor="#666666"
     borderopacity="1"
     objecttolerance="10"
     gridtolerance="10"
     guidetolerance="10"
     inkscape:pageopacity="0"
     inkscape:pageshadow="2"
     inkscape:window-width="986"
     inkscape:window-height="650"
     id="namedview6"
     showgrid="true"
     inkscape:zoom="16.857143"
     inkscape:cx="-0.55932192"
     inkscape:cy="6.584746"
     inkscape:window-x="725"
     inkscape:window-y="218"
     inkscape:window-maximized="0"
     inkscape:current-layer="svg2">
    <inkscape:grid
       type="xygrid"
       id="grid4133" />
  </sodipodi:namedview>
  <path
     d="m 12.477474,3.719 q 0.109,0.109 0.219,0.281 l -3.687,0 0,-3.687 q 0.172,0.109 0.281,0.219 z m -3.719,1.281 4.25,0 0,8.25 q 0,0.312 -0.219,0.531 -0.219,0.219 -0.531,0.219 L 1.7584742,14 Q 1.4464743,14 1.2274744,13.781 1.0084745,13.562 1.0084745,13.25 l 0,-12.5 q 0,-0.312 0.2189999,-0.531 Q 1.4464743,0 1.7584742,0 l 6.2499998,0 0,4.25 q 0,0.312 0.219,0.531 0.219,0.219 0.531,0.219 z m 1.25,5.75 0,-0.5 q 0,-0.109 -0.07,-0.18 -0.07,-0.071 -0.18,-0.07 l -5.5,0 q -0.109,0 -0.18,0.07 -0.071,0.07 -0.07,0.18 l 0,0.5 q 0,0.109 0.07,0.18 0.07,0.071 0.18,0.07 l 5.5,0 q 0.109,0 0.18,-0.07 0.071,-0.07 0.07,-0.18 z m 0,-2 0,-0.5 q 0,-0.109 -0.07,-0.18 -0.07,-0.071 -0.18,-0.07 l -5.5,0 q -0.109,0 -0.18,0.07 -0.071,0.07 -0.07,0.18 l 0,0.5 q 0,0.109 0.07,0.18 0.07,0.071 0.18,0.07 l 5.5,0 q 0.109,0 0.18,-0.07 0.071,-0.07 0.07,-0.18 z m 0,-2 0,-0.5 q 0,-0.109 -0.07,-0.18 -0.07,-0.071 -0.18,-0.07 l -5.5,0 q -0.109,0 -0.18,0.07 -0.071,0.07 -0.07,0.18 l 0,0.5 q 0,0.109 0.07,0.18 0.07,0.071 0.18,0.07 l 5.5,0 q 0.109,0 0.18,-0.07 0.071,-0.07 0.07,-0.18 z"
     id="path4"
     style="fill:#b9b9b9;fill-opacity:1"
     inkscape:connector-curvature="0" />
</svg>
