<?xml version="1.0" encoding="UTF-8" standalone="no"?>
<svg
   xmlns:dc="http://purl.org/dc/elements/1.1/"
   xmlns:cc="http://creativecommons.org/ns#"
   xmlns:rdf="http://www.w3.org/1999/02/22-rdf-syntax-ns#"
   xmlns:svg="http://www.w3.org/2000/svg"
   xmlns="http://www.w3.org/2000/svg"
   xmlns:sodipodi="http://sodipodi.sourceforge.net/DTD/sodipodi-0.dtd"
   xmlns:inkscape="http://www.inkscape.org/namespaces/inkscape"
   width="2048"
   height="2048"
   viewBox="-128 -128 2048 2048"
   id="svg2"
   version="1.1"
   inkscape:version="0.91 r13725"
   sodipodi:docname="battery-three-quarters.svg"
   preserveAspectRatio="none">
  <metadata
     id="metadata10">
    <rdf:RDF>
      <cc:Work
         rdf:about="">
        <dc:format>image/svg+xml</dc:format>
        <dc:type
           rdf:resource="http://purl.org/dc/dcmitype/StillImage" />
      </cc:Work>
    </rdf:RDF>
  </metadata>
  <defs
     id="defs8" />
  <sodipodi:namedview
     pagecolor="#ffffff"
     bordercolor="#666666"
     borderopacity="1"
     objecttolerance="10"
     gridtolerance="10"
     guidetolerance="10"
     inkscape:pageopacity="0"
     inkscape:pageshadow="2"
     inkscape:window-width="1669"
     inkscape:window-height="830"
     id="namedview6"
     showgrid="false"
     inkscape:zoom="0.11523438"
     inkscape:cx="30.372881"
     inkscape:cy="954.57627"
     inkscape:window-x="0"
     inkscape:window-y="25"
     inkscape:window-maximized="0"
     inkscape:current-layer="svg2" />
  <path
     inkscape:connector-curvature="0"
     d="m 0,1280 0,-768 1280,0 0,768 -1280,0 z M 1920,576 q 53,0 90.5,37.5 37.5,37.5 37.5,90.5 l 0,384 q 0,53 -37.5,90.5 -37.5,37.5 -90.5,37.5 l 0,160 q 0,66 -47,113 -47,47 -113,47 l -1856,0 q -66,0 -113,-47 -47,-47 -47,-113 l 0,-960 q 0,-66 47,-113 47,-47 113,-47 l 1856,0 q 66,0 113,47 47,47 47,113 l 0,160 z m 0,512 0,-384 -128,0 0,-288 q 0,-14 -9,-23 -9,-9 -23,-9 l -1856,0 q -14,0 -23,9 -9,9 -9,23 l 0,960 q 0,14 9,23 9,9 23,9 l 1856,0 q 14,0 23,-9 9,-9 9,-23 l 0,-288 128,0 z"
     id="path4" />
</svg>
